<svg width="32" height="32" viewBox="0 0 32 32" fill="none" xmlns="http://www.w3.org/2000/svg">
<path d="M16.1875 3C9.47119 3 4 8.47119 4 15.1875C4 21.9038 9.47119 27.375 16.1875 27.375C22.9038 27.375 28.375 21.9038 28.375 15.1875C28.375 8.47119 22.9038 3 16.1875 3ZM16.1875 4.875C21.8931 4.875 26.5 9.48193 26.5 15.1875C26.5 20.8931 21.8931 25.5 16.1875 25.5C10.4819 25.5 5.875 20.8931 5.875 15.1875C5.875 9.48193 10.4819 4.875 16.1875 4.875ZM15.25 8.625V10.5H17.125V8.625H15.25ZM15.25 12.375V21.75H17.125V12.375H15.25Z" fill="#729B4E"/>
</svg>
