<svg width="32" height="32" viewBox="0 0 32 32" fill="none" xmlns="http://www.w3.org/2000/svg">
<path d="M3.5 4.75H11C12.3261 4.75 13.5979 5.27678 14.5355 6.21447C15.4732 7.15215 16 8.42392 16 9.75V27.25C16 26.2554 15.6049 25.3016 14.9017 24.5983C14.1984 23.8951 13.2446 23.5 12.25 23.5H3.5V4.75Z" stroke="#1B1B1B" stroke-width="2" stroke-linecap="round" stroke-linejoin="round"/>
<path d="M28.5 4.75H21C19.6739 4.75 18.4021 5.27678 17.4645 6.21447C16.5268 7.15215 16 8.42392 16 9.75V27.25C16 26.2554 16.3951 25.3016 17.0983 24.5983C17.8016 23.8951 18.7554 23.5 19.75 23.5H28.5V4.75Z" stroke="#1B1B1B" stroke-width="2" stroke-linecap="round" stroke-linejoin="round"/>
</svg>
