<svg width="32" height="32" viewBox="0 0 32 32" fill="none" xmlns="http://www.w3.org/2000/svg">
<path d="M17.252 21.995C17.2813 24.6527 19.494 26.8554 22.153 26.8804C23.7981 26.8962 25.4441 26.8962 27.0909 26.8804C29.3448 26.861 31.3538 25.239 31.8644 23.0482C31.9113 22.8475 31.9551 22.6463 32.0001 22.4456V16.5702C31.9752 16.5036 31.9554 16.4353 31.9407 16.3658C31.6182 14.2037 29.8543 12.4279 27.6791 12.2004C27.4472 12.176 27.4241 12.1923 27.1015 12.2254C26.779 12.2586 25.4683 12.3304 25.3676 12.3336C23.7225 12.3836 22.0949 12.4329 21.5311 11.6085C21.2185 11.1522 21.3179 10.5528 21.4604 10.0784L21.4754 10.039C22.0236 8.60138 22.6005 7.17376 23.1487 5.73614C23.44 4.96608 23.0181 4.19226 22.2355 4.02662C21.6298 3.89849 21.0579 4.23977 20.7979 4.9017C19.9341 7.09938 19.0748 9.29893 18.2202 11.5004C17.5868 13.1224 17.2586 14.8476 17.252 16.5889C17.2432 18.3909 17.2332 20.193 17.252 21.995ZM19.7522 16.6883C19.7522 15.632 19.8503 14.58 20.1816 13.5762C20.951 14.8169 23.7594 14.6644 24.4519 14.6287C25.2051 14.59 25.8414 14.6256 26.9203 14.6287C28.4204 14.635 29.4967 15.7113 29.5011 17.2121C29.5053 18.733 29.5053 20.254 29.5011 21.775C29.498 23.3001 28.4291 24.3758 26.9103 24.3795C25.3914 24.3833 23.8694 24.3833 22.3474 24.3795C20.8254 24.3758 19.7522 23.3076 19.7522 21.7843C19.7463 20.0867 19.7463 18.388 19.7522 16.6883Z" fill="black"/>
<path d="M0.0123649 21.995C0.0411172 24.6527 2.25442 26.8554 4.91277 26.8804C6.55874 26.8962 8.20471 26.8962 9.85068 26.8804C12.104 26.861 14.1135 25.239 14.6242 23.0482C14.6711 22.8475 14.7142 22.6463 14.7592 22.4456V16.5702C14.7349 16.5035 14.7152 16.4352 14.7004 16.3658C14.3779 14.2037 12.614 12.4279 10.4388 12.2004C10.2063 12.176 10.1838 12.1923 9.86068 12.2254C9.53752 12.2586 8.22804 12.3304 8.12741 12.3336C6.48165 12.3836 4.85464 12.4329 4.29022 11.6085C3.97769 11.1522 4.07707 10.5528 4.22021 10.0784L4.23521 10.039C4.78338 8.60138 5.36031 7.17376 5.90785 5.73614C6.20162 4.96608 5.77659 4.19226 4.99465 4.02662C4.38898 3.89849 3.81705 4.23977 3.55703 4.9017C2.69446 7.09938 1.83501 9.29893 0.978694 11.5004C0.345115 13.1224 0.0166591 14.8475 0.00986465 16.5889C0.000488876 18.3909 -0.00763679 20.193 0.0123649 21.995ZM2.5082 16.6883C2.5082 15.632 2.60633 14.58 2.93698 13.5762C3.70704 14.8169 6.51478 14.6644 7.20796 14.6287C7.95802 14.59 8.59745 14.6256 9.67629 14.6287C11.1764 14.635 12.2527 15.7113 12.2571 17.2121C12.2609 18.733 12.2609 20.254 12.2571 21.775C12.254 23.3001 11.1852 24.3758 9.66629 24.3795C8.14741 24.3833 6.62541 24.3833 5.10341 24.3795C3.58141 24.3758 2.51132 23.3076 2.5082 21.7843C2.50319 20.0867 2.50319 18.388 2.5082 16.6883Z" fill="black"/>
</svg>
