<svg width="32" height="32" viewBox="0 0 32 32" fill="none" xmlns="http://www.w3.org/2000/svg">
<path d="M14.7467 9.89712C14.7173 7.23932 12.5045 5.03657 9.84549 5.01156C8.2003 4.99615 6.55428 4.99615 4.90743 5.01156C2.6553 5.03032 0.646323 6.65237 0.13564 8.84325C0.0887601 9.04389 0.0450051 9.24517 0 9.44582V15.3215C0.0258962 15.388 0.04679 15.4563 0.0625071 15.5259C0.381918 17.6892 2.14587 19.4638 4.32111 19.6895C4.55302 19.7139 4.57614 19.6976 4.89868 19.6645C5.22122 19.6313 6.53199 19.5595 6.63263 19.5563C8.27781 19.5063 9.9055 19.4569 10.4693 20.2814C10.7818 20.7377 10.6825 21.3372 10.5399 21.8116L10.5249 21.851C9.97676 23.2886 9.39981 24.7163 8.85163 26.154C8.55784 26.9222 8.98227 27.696 9.76486 27.8616C10.3705 27.9898 10.9425 27.6485 11.2025 26.9865C12.0651 24.7892 12.9244 22.5908 13.7803 20.3914C14.4147 18.7697 14.744 17.0447 14.7517 15.3034C14.7567 13.5013 14.7667 11.6992 14.7467 9.89712ZM12.2514 15.2015C12.2514 16.2578 12.1533 17.3098 11.822 18.3137C11.0525 17.0729 8.24406 17.2254 7.55148 17.2611C6.8014 17.2998 6.16195 17.2611 5.08308 17.2611C3.58291 17.2548 2.50653 16.1785 2.50216 14.6777C2.49799 13.1571 2.49799 11.6361 2.50216 10.1146C2.50216 8.58947 3.57415 7.51372 5.09308 7.50997C6.612 7.50622 8.13405 7.50622 9.65609 7.50997C11.1781 7.51372 12.247 8.58447 12.2514 10.1078C12.2547 11.8055 12.2547 13.5034 12.2514 15.2015Z" fill="#1B1B1B"/>
<path d="M31.988 9.89712C31.9592 7.23932 29.7459 5.03657 27.0874 5.01156C25.4414 4.99615 23.7954 4.99615 22.1494 5.01156C19.8972 5.03032 17.8876 6.65237 17.377 8.84325C17.3301 9.04389 17.2869 9.24517 17.2419 9.44582V15.3215C17.2663 15.3882 17.2859 15.4565 17.3007 15.5259C17.6232 17.688 19.3872 19.4638 21.5624 19.6913C21.795 19.7157 21.8175 19.6995 22.1406 19.6663C22.4638 19.6332 23.7733 19.5613 23.8739 19.5582C25.5198 19.5082 27.1468 19.4588 27.7113 20.2833C28.0238 20.7396 27.9244 21.339 27.7813 21.8135L27.7663 21.8528C27.2181 23.2905 26.6411 24.7182 26.0936 26.1558C25.7992 26.924 26.2242 27.6979 27.0062 27.8635C27.6119 27.9917 28.1838 27.6504 28.4438 26.9884C29.3064 24.7911 30.1659 22.5927 31.0223 20.3933C31.6562 18.7702 31.9847 17.044 31.9911 15.3015C31.9986 13.5013 32.008 11.6992 31.988 9.89712ZM29.4921 15.2015C29.4921 16.2578 29.3939 17.3098 29.0633 18.3137C28.2932 17.0729 25.4854 17.2254 24.7922 17.2611C24.0421 17.2998 23.4026 17.2611 22.3238 17.2611C20.8236 17.2548 19.7472 16.1785 19.7429 14.6777C19.7391 13.1571 19.7391 11.6361 19.7429 10.1146C19.7429 8.58947 20.8148 7.51372 22.3338 7.50997C23.8527 7.50622 25.3747 7.50622 26.8968 7.50997C28.4188 7.51372 29.4902 8.58572 29.4933 10.109C29.4962 11.8059 29.4958 13.5034 29.4921 15.2015Z" fill="#1B1B1B"/>
</svg>
