<svg width="32" height="32" viewBox="0 0 32 32" fill="none" xmlns="http://www.w3.org/2000/svg">
<g clip-path="url(#clip0_1729_6100)">
<mask id="mask0_1729_6100" style="mask-type:luminance" maskUnits="userSpaceOnUse" x="0" y="0" width="32" height="32">
<path d="M32 0H0V32H32V0Z" fill="white"/>
</mask>
<g mask="url(#mask0_1729_6100)">
<mask id="mask1_1729_6100" style="mask-type:luminance" maskUnits="userSpaceOnUse" x="0" y="0" width="32" height="32">
<path d="M16 32C24.8366 32 32 24.8366 32 16C32 7.16344 24.8366 0 16 0C7.16344 0 0 7.16344 0 16C0 24.8366 7.16344 32 16 32Z" fill="white"/>
</mask>
<g mask="url(#mask1_1729_6100)">
<path d="M0 0L0.5 1L0 1.9375V2.9375L2 7L0 11V13L2 16L0 19V21L2 25L0 29.0625V32L1 31.5L1.9375 32H2.9375L7 30L11 32H13L16 30L19 32H21L25 30L29.0625 32H32L31.5 31.0625L32 30.0625V29.0625L30 25L32 21V19L30 16L32 13V11L30 7L32 2.9375V0L31.0625 0.5L30.0625 0H29.0625L25 2L21 0H19L16 2L13 0H11L7 2L2.9375 0H0Z" fill="white"/>
<path d="M2.9375 0L11 8.0625V0H2.9375ZM21 0V8.0625L29.0625 0H21ZM0 2.9375V11H8.0625L0 2.9375ZM32 2.9375L23.9375 11H32V2.9375ZM0 21V29.0625L8.0625 21H0ZM23.9375 21L32 29.0625V21H23.9375ZM21 23.9375V32H29.0625L21 23.9375ZM11 23.9375L2.9375 32H11V23.9375Z" fill="#012169"/>
<path d="M13 0V13H0V19H13V32H19V19H32V13H19V0H13Z" fill="#C8102E"/>
<path d="M21 21L32 32V30.0625L22.9375 21H21ZM21 11L32 0H30.0625L21 9.0625V11ZM11 11L0 0V1.9375L9.0625 11H11ZM11 21L0 32H1.9375L11 22.9375V21Z" fill="#C8102E"/>
</g>
</g>
</g>
<defs>
<clipPath id="clip0_1729_6100">
<rect width="32" height="32" fill="white"/>
</clipPath>
</defs>
</svg>
