<svg width="32" height="32" viewBox="0 0 32 32" fill="#729B4E" xmlns="http://www.w3.org/2000/svg">
<g clip-path="url(#clip0_1526_10484)">
<path d="M31.9803 27.9467C31.891 27.6129 31.621 27.5069 31.2086 27.5615C30.7626 27.6359 30.3098 27.6605 29.8584 27.635C28.3005 27.4954 27.0614 26.6902 25.9708 25.6142C24.9696 24.6254 24.2374 23.4392 23.5446 22.2225C22.7137 20.7645 21.6585 19.4932 20.3093 18.5033C17.8561 16.6978 15.1318 15.9231 12.1115 16.4458C11.0323 16.6316 9.97397 16.9413 8.90314 17.1807C7.77208 17.4326 6.75735 17.1807 5.84128 16.4574C4.94391 15.752 4.75696 14.7369 4.6531 13.7018C4.34151 10.5621 5.40091 7.89994 7.46465 5.59682C7.60902 5.43621 7.73158 5.37847 7.95903 5.45195C9.25939 5.87185 10.4164 5.53803 11.4249 4.66675C11.6121 4.5032 11.7593 4.2982 11.8553 4.06772C11.9512 3.83724 11.9932 3.5875 11.978 3.33793C11.9628 3.08835 11.8909 2.84569 11.7678 2.62881C11.6446 2.41194 11.4736 2.22672 11.2681 2.08755C11.0124 1.90897 10.746 1.74665 10.4704 1.60152C8.81694 0.721845 7.21019 0.797426 5.69276 1.90595C4.50599 2.77667 3.47089 3.84094 2.62986 5.05515C1.0605 7.30474 0.247253 9.81781 0.051992 12.5471C-0.101168 14.5209 0.0665396 16.5067 0.548454 18.4256C1.18617 20.9272 2.71295 22.8209 4.7393 24.3325C4.82958 24.3898 4.90497 24.4681 4.95918 24.5609C5.01339 24.6537 5.04483 24.7582 5.05089 24.8658C5.19526 26.3228 5.36248 27.7777 5.53177 29.2306C5.61278 29.9035 5.7395 29.9958 6.40733 29.9969H10.2585C10.9534 29.9969 11.0894 29.8709 11.1736 29.1739C11.2525 28.5545 11.346 27.9373 11.4239 27.383H15.5784C15.7134 28.0339 15.8515 28.7089 15.9938 29.3838C16.0977 29.8835 16.2244 29.9895 16.7313 29.9948C17.3669 30.0021 18.0015 30.0032 18.6361 29.9948C19.1222 29.9874 19.279 29.8289 19.3455 29.3513C19.4711 28.4622 19.6051 27.5741 19.7401 26.6556C19.8084 26.687 19.8749 26.7221 19.9396 26.7605C21.9015 28.0801 24.0442 28.8999 26.3977 29.1203C28.127 29.281 29.8356 29.1655 31.4994 28.6249C31.8941 28.4958 32.0613 28.2491 31.9803 27.9467ZM6.59221 28.8632C6.4603 27.7085 6.32632 26.5401 6.18507 25.3077C6.57974 25.5177 6.9121 25.672 7.2133 25.8609C7.32666 25.9344 7.40658 26.0503 7.43557 26.1832C7.53943 27.0618 7.62875 27.9436 7.72638 28.8632H6.59221ZM25.2075 27.8134C23.3888 27.445 21.669 26.6884 20.1629 25.5943C19.9811 25.4631 19.9011 25.3413 19.9551 25.1125C20.0043 24.8702 20.0356 24.6246 20.0486 24.3776C20.0735 23.9892 19.9063 23.7625 19.5916 23.7289C19.2769 23.6953 19.0401 23.8822 18.983 24.2538C18.8625 25.0274 18.7607 25.8042 18.6506 26.58C18.5405 27.3557 18.4304 28.1032 18.3162 28.8978C17.9277 28.8978 17.5518 28.9188 17.181 28.8831C17.0885 28.8747 16.9618 28.6952 16.9369 28.5766C16.4882 26.4183 16.0541 24.2569 15.6158 22.0966C15.5244 21.6452 15.2782 21.4279 14.9531 21.5056C14.6125 21.5864 14.4691 21.8793 14.5574 22.3139C14.8005 23.5036 15.0428 24.6933 15.2844 25.883C15.3042 25.9879 15.3052 26.0929 15.3198 26.2399C14.0877 26.4196 12.8355 26.4054 11.6077 26.1979C11.6867 25.6226 11.7573 25.0705 11.8414 24.5183C11.91 24.0764 11.7614 23.7908 11.4156 23.7373C11.0697 23.6838 10.8537 23.8696 10.7924 24.3084C10.5847 25.7024 10.377 27.0975 10.189 28.4958C10.1474 28.8054 10.0529 28.9345 9.73508 28.9062C9.45362 28.881 9.16799 28.901 8.84394 28.901C8.76812 28.2711 8.69127 27.6633 8.62272 27.0566C8.46277 25.6279 8.31113 24.1981 8.14806 22.7705C8.10756 22.4157 7.8666 22.2152 7.54151 22.2572C7.19565 22.3013 7.04712 22.5312 7.07517 22.8618C7.12294 23.4308 7.19357 23.9997 7.26212 24.6359C6.08462 24.035 5.00226 23.2602 4.05069 22.337C2.44914 20.7624 1.57565 18.8413 1.28484 16.6064C0.973251 14.2172 1.00026 11.8616 1.67848 9.53543C2.44685 6.83421 4.0759 4.46487 6.31282 2.79507C7.41791 1.95423 8.62064 1.88495 9.8566 2.50325C10.1229 2.63707 10.3788 2.79112 10.6221 2.96408C10.9742 3.21182 10.9856 3.60232 10.6678 3.89205C10.3074 4.21497 9.86176 4.42478 9.38531 4.49581C8.90886 4.56684 8.42226 4.49601 7.985 4.292C7.66718 4.13664 7.40026 4.12719 7.13852 4.38857C4.83797 6.68644 3.51476 9.4273 3.52307 12.7329C3.53886 13.5695 3.64615 14.4018 3.84297 15.2145C4.21584 16.8626 5.83401 18.1538 7.54047 18.3385C8.59363 18.4519 9.55644 18.1107 10.5525 17.9102C11.5485 17.7097 12.5539 17.4431 13.5645 17.4063C16.5152 17.3014 19.0027 18.4414 20.9948 20.6038C21.7364 21.4079 22.3346 22.3621 22.9111 23.3027C23.8167 24.7828 24.8014 26.1821 26.189 27.2434C26.5556 27.5247 26.9523 27.7683 27.3314 28.1063C26.6179 28.0129 25.9044 27.9583 25.2075 27.8187V27.8134Z" fill="#729B4E"/>
<path d="M9.21571 2.96516C9.06615 3.07013 8.91451 3.25908 8.76806 3.25593C8.63823 3.25593 8.42116 3.04599 8.41181 2.91267C8.40247 2.77935 8.60292 2.55681 8.73171 2.54001C8.87712 2.52217 9.0433 2.69013 9.20532 2.7783C9.20844 2.84024 9.21156 2.90217 9.21571 2.96516Z" fill="#729B4E"/>
</g>
<defs>
<clipPath id="clip0_1526_10484">
<rect width="32" height="32" fill="#729B4E"/>
</clipPath>
</defs>
</svg>
