<svg width="24" height="24" viewBox="0 0 24 24" fill="#F5B019" xmlns="http://www.w3.org/2000/svg">
<path d="M19.6361 4.87549C18.212 4.20919 16.6893 3.72495 15.0973 3.44922C14.9018 3.8027 14.6734 4.27813 14.5159 4.65633C12.8236 4.40184 11.1469 4.40184 9.48573 4.65633C9.32828 4.27813 9.09468 3.8027 8.89741 3.44922C7.30374 3.72495 5.77928 4.21097 4.35518 4.87902C1.48276 9.21962 0.70409 13.4524 1.09342 17.6251C2.99856 19.0478 4.84487 19.9121 6.66003 20.4776C7.1082 19.8608 7.50791 19.2051 7.85224 18.5141C7.19644 18.2649 6.56832 17.9574 5.97482 17.6004C6.13227 17.4837 6.28628 17.3618 6.43508 17.2363C10.055 18.9294 13.9882 18.9294 17.5648 17.2363C17.7154 17.3618 17.8694 17.4837 18.0251 17.6004C17.4299 17.9591 16.8 18.2666 16.1442 18.5159C16.4885 19.2051 16.8865 19.8626 17.3364 20.4794C19.1533 19.9138 21.0014 19.0496 22.9065 17.6251C23.3633 12.7879 22.1261 8.59397 19.6361 4.87549ZM8.34541 15.0589C7.25874 15.0589 6.36759 14.0445 6.36759 12.8091C6.36759 11.5737 7.23972 10.5575 8.34541 10.5575C9.45114 10.5575 10.3423 11.5719 10.3232 12.8091C10.325 14.0445 9.45114 15.0589 8.34541 15.0589ZM15.6545 15.0589C14.5678 15.0589 13.6767 14.0445 13.6767 12.8091C13.6767 11.5737 14.5488 10.5575 15.6545 10.5575C16.7602 10.5575 17.6514 11.5719 17.6323 12.8091C17.6323 14.0445 16.7602 15.0589 15.6545 15.0589Z" fill="#F5B019"/>
</svg>
