<svg width="24" height="24" viewBox="0 0 24 24" fill="none" xmlns="http://www.w3.org/2000/svg">
<path d="M12.5058 24H11.4743C11.45 23.9824 11.4232 23.9685 11.3948 23.9587C9.47247 23.6301 8.24645 22.5205 7.7108 20.6542C7.62165 20.3455 7.60029 20.0184 7.54429 19.6758C6.49584 20.2276 5.39434 20.3632 4.25821 20.0538C3.10882 19.7406 2.22394 19.0561 1.61461 18.0298C1.11243 17.2009 0.908861 16.2252 1.0377 15.2646C1.21748 13.8647 1.9329 12.7809 3.1265 12.011C0.853507 10.5558 0.632471 7.91442 1.43115 6.31706C1.88943 5.39681 2.55623 4.68581 3.48385 4.24521C4.84469 3.59904 6.20997 3.64914 7.55682 4.33215C7.66586 1.74602 9.68835 0.176656 11.5922 0.0175091C12.6031 -0.0672217 13.5521 0.153815 14.3979 0.718932C15.674 1.57213 16.3305 2.79005 16.4174 4.32404C18.9122 3.07518 21.2066 4.25773 22.1592 5.65026C22.7487 6.51083 23.0368 7.45319 22.9609 8.49574C22.8511 10.0143 22.1143 11.1659 20.85 12.0029C22.8842 13.2915 23.4169 15.6868 22.6183 17.5288C22.2418 18.3989 21.6553 19.1004 20.833 19.5763C19.3889 20.4126 17.908 20.414 16.4027 19.6706C16.3961 19.8327 16.3983 19.958 16.3836 20.0818C16.2806 20.9751 15.9076 21.8158 15.3144 22.4917C14.7212 23.1675 13.936 23.6464 13.0636 23.8644C12.8801 23.9123 12.693 23.9551 12.5058 24ZM7.95542 11.9984C7.95425 12.7967 8.18991 13.5774 8.63257 14.2417C9.07522 14.9059 9.70499 15.424 10.4422 15.7302C11.1793 16.0365 11.9908 16.1172 12.7739 15.9621C13.5569 15.8071 14.2764 15.4232 14.8412 14.8591C15.406 14.295 15.7908 13.576 15.9469 12.7932C16.1029 12.0103 16.0233 11.1988 15.718 10.4612C15.4127 9.72362 14.8954 9.0932 14.2317 8.64969C13.568 8.20618 12.7876 7.96953 11.9893 7.96968C11.4599 7.96919 10.9355 8.07303 10.4462 8.27526C9.95694 8.47749 9.51228 8.77415 9.13767 9.14828C8.76306 9.52242 8.46583 9.96669 8.26298 10.4557C8.06012 10.9448 7.95561 11.469 7.95542 11.9984Z" fill="black"/>
</svg>
