<svg width="24" height="24" viewBox="0 0 24 24" fill="none" xmlns="http://www.w3.org/2000/svg">
<path d="M20 14H15.7L16.43 10H20C20.2652 10 20.5196 9.89464 20.7071 9.70714C20.8946 9.51957 21 9.26525 21 8.99997C21 8.73477 20.8946 8.48045 20.7071 8.29287C20.5196 8.10537 20.2652 8 20 8H16.79L17.48 4.19C17.5072 4.05631 17.5069 3.91844 17.4789 3.78491C17.4509 3.65136 17.3958 3.52496 17.3171 3.41349C17.2385 3.30202 17.1378 3.20783 17.0213 3.13672C16.9049 3.06561 16.7751 3.01908 16.64 3C16.5056 2.968 16.3661 2.96417 16.2302 2.98875C16.0944 3.01333 15.965 3.06579 15.8504 3.14283C15.7358 3.21986 15.6384 3.3198 15.5643 3.43635C15.4902 3.5529 15.4411 3.68353 15.42 3.82L14.67 8H10.79L11.48 4.19C11.5072 4.05631 11.5069 3.91844 11.4789 3.78491C11.4508 3.65136 11.3958 3.52496 11.3171 3.41349C11.2385 3.30202 11.1378 3.20783 11.0213 3.13672C10.9049 3.06561 10.7751 3.01908 10.64 3C10.5056 2.968 10.3661 2.96417 10.2302 2.98875C10.0944 3.01333 9.96502 3.06579 9.85042 3.14283C9.73582 3.21986 9.6384 3.3198 9.5643 3.43635C9.4902 3.5529 9.44108 3.68353 9.42 3.82L8.67 8H4C3.73478 8 3.48043 8.10537 3.29289 8.29287C3.10536 8.48045 3 8.73477 3 8.99997C3 9.26525 3.10536 9.51957 3.29289 9.70714C3.48043 9.89464 3.73478 10 4 10H8.30002L7.56997 14H4C3.73478 14 3.48043 14.1054 3.29289 14.2929C3.10536 14.4804 3 14.7348 3 15C3 15.2652 3.10536 15.5196 3.29289 15.7071C3.48043 15.8946 3.73478 16 4 16H7.21L6.52 19.81C6.49273 19.9437 6.49312 20.0815 6.52113 20.2151C6.54914 20.3487 6.60418 20.475 6.68287 20.5865C6.76155 20.6979 6.86221 20.7921 6.97867 20.8633C7.09512 20.9344 7.22489 20.9809 7.36 21C7.49434 21.032 7.63388 21.0358 7.76978 21.0112C7.9056 20.9867 8.03498 20.9342 8.14958 20.8572C8.26418 20.7801 8.3616 20.6802 8.4357 20.5636C8.5098 20.4471 8.55892 20.3165 8.58 20.18L9.33 16H13.21L12.52 19.81C12.4928 19.9437 12.4931 20.0815 12.5211 20.2151C12.5491 20.3487 12.6042 20.475 12.6829 20.5865C12.7615 20.6979 12.8622 20.7921 12.9787 20.8633C13.0951 20.9344 13.2249 20.9809 13.36 21C13.4944 21.032 13.6339 21.0358 13.7698 21.0112C13.9056 20.9867 14.035 20.9342 14.1496 20.8572C14.2642 20.7801 14.3616 20.6802 14.4357 20.5636C14.5098 20.4471 14.5589 20.3165 14.58 20.18L15.33 16H20C20.2652 16 20.5196 15.8946 20.7071 15.7071C20.8946 15.5196 21 15.2652 21 15C21 14.7348 20.8946 14.4804 20.7071 14.2929C20.5196 14.1054 20.2652 14 20 14ZM9.69998 14L10.43 10H14.3L13.57 14H9.69998Z" fill="#262728"/>
</svg>
