<svg width="199" height="65" viewBox="0 0 199 65" fill="none" xmlns="http://www.w3.org/2000/svg">
<path d="M197.5 44C198.052 44 198.5 44.4477 198.5 45C198.5 45.5523 198.052 46 197.5 46L72.5 46C71.9477 46 71.5 45.5523 71.5 45C71.5 44.4477 71.9477 44 72.5 44L197.5 44Z" fill="#1B1B1B"/>
<path d="M72.8125 33V21.5625H74.6719V31.3359H78.8281V33H72.8125Z" fill="#1B1B1B"/>
<path d="M80.5347 22.3906C80.5347 22.1042 80.6389 21.8568 80.8472 21.6484C81.0607 21.4401 81.3133 21.3359 81.605 21.3359C81.9071 21.3359 82.1571 21.4375 82.355 21.6406C82.5581 21.8385 82.6597 22.0885 82.6597 22.3906C82.6597 22.6927 82.5581 22.9479 82.355 23.1562C82.1519 23.3594 81.9019 23.4609 81.605 23.4609C81.3133 23.4609 81.0607 23.3568 80.8472 23.1484C80.6389 22.9349 80.5347 22.6823 80.5347 22.3906ZM80.7612 33V25.5938H82.4566V33H80.7612Z" fill="#1B1B1B"/>
<path d="M85.6006 33V27.0781H84.3038V25.5938H85.6006V23.6094C85.6006 22.625 85.8038 21.8984 86.21 21.4297C86.6215 20.9609 87.2569 20.7266 88.1163 20.7266C88.2985 20.7266 88.486 20.7396 88.6788 20.7656C88.8715 20.7917 89.0668 20.8333 89.2647 20.8906V22.4219C89.1293 22.3438 88.9913 22.2865 88.8506 22.25C88.7152 22.2083 88.5772 22.1875 88.4366 22.1875C88.0303 22.1875 87.7386 22.3125 87.5616 22.5625C87.3845 22.8125 87.2959 23.2344 87.2959 23.8281V25.5938H89.0772V27.0781H87.2959V33H85.6006Z" fill="#1B1B1B"/>
<path d="M97.8853 29.5469H91.9634C92.0051 30.2396 92.2108 30.7812 92.5806 31.1719C92.9504 31.5573 93.4426 31.75 94.0572 31.75C94.6041 31.75 95.0598 31.6354 95.4244 31.4062C95.789 31.1771 96.1067 30.8073 96.3775 30.2969L97.8072 31.0938C97.3905 31.8385 96.8749 32.3932 96.2603 32.7578C95.6457 33.1224 94.9244 33.3047 94.0963 33.3047C92.9088 33.3047 91.9634 32.9427 91.2603 32.2188C90.5572 31.4948 90.2056 30.5286 90.2056 29.3203C90.2056 28.1589 90.5676 27.2057 91.2916 26.4609C92.0207 25.7109 92.9556 25.3359 94.0963 25.3359C95.289 25.3359 96.2186 25.6771 96.8853 26.3594C97.552 27.0417 97.8853 27.9974 97.8853 29.2266V29.5469ZM96.1275 28.4062C96.0598 27.875 95.8567 27.4714 95.5181 27.1953C95.1796 26.9141 94.716 26.7734 94.1275 26.7734C93.5702 26.7734 93.1223 26.9089 92.7838 27.1797C92.4452 27.4505 92.2082 27.8594 92.0728 28.4062H96.1275Z" fill="#1B1B1B"/>
<path d="M105.588 33V21.5625H111.97V23.1406H107.447V25.9922H111.97V27.625H107.447V33H105.588Z" fill="#1B1B1B"/>
<path d="M114.185 22.3906C114.185 22.1042 114.289 21.8568 114.497 21.6484C114.711 21.4401 114.963 21.3359 115.255 21.3359C115.557 21.3359 115.807 21.4375 116.005 21.6406C116.208 21.8385 116.31 22.0885 116.31 22.3906C116.31 22.6927 116.208 22.9479 116.005 23.1562C115.802 23.3594 115.552 23.4609 115.255 23.4609C114.963 23.4609 114.711 23.3568 114.497 23.1484C114.289 22.9349 114.185 22.6823 114.185 22.3906ZM114.411 33V25.5938H116.107V33H114.411Z" fill="#1B1B1B"/>
<path d="M119.016 33V25.5938H120.61V26.8047C120.949 26.2943 121.347 25.9219 121.805 25.6875C122.264 25.4531 122.821 25.3359 123.477 25.3359C124.029 25.3359 124.498 25.4245 124.883 25.6016C125.274 25.7734 125.579 26.0312 125.798 26.375C125.928 26.5781 126.021 26.8151 126.079 27.0859C126.136 27.3568 126.165 27.8307 126.165 28.5078V33H124.454V29.1953C124.454 28.2214 124.334 27.5755 124.094 27.2578C123.86 26.9349 123.441 26.7734 122.837 26.7734C122.441 26.7734 122.087 26.8464 121.774 26.9922C121.467 27.138 121.225 27.3438 121.048 27.6094C120.923 27.7865 120.834 28.0156 120.782 28.2969C120.735 28.5729 120.712 29.0156 120.712 29.625V33H119.016Z" fill="#1B1B1B"/>
<path d="M134.223 29.2734C134.223 28.5078 134.043 27.9115 133.684 27.4844C133.33 27.0573 132.832 26.8438 132.192 26.8438C131.551 26.8438 131.046 27.0651 130.676 27.5078C130.311 27.9453 130.129 28.5547 130.129 29.3359C130.129 30.1224 130.306 30.7292 130.66 31.1562C131.014 31.5833 131.514 31.7969 132.16 31.7969C132.775 31.7969 133.272 31.5677 133.653 31.1094C134.033 30.6458 134.223 30.0339 134.223 29.2734ZM134.176 20.8906H135.871V33H134.176V32.0391C133.874 32.4661 133.52 32.7839 133.113 32.9922C132.712 33.2005 132.251 33.3047 131.731 33.3047C130.684 33.3047 129.858 32.9479 129.254 32.2344C128.655 31.5156 128.356 30.5339 128.356 29.2891C128.356 28.1068 128.663 27.1536 129.278 26.4297C129.892 25.7005 130.694 25.3359 131.684 25.3359C132.288 25.3359 132.804 25.4635 133.231 25.7188C133.663 25.9688 133.978 26.3307 134.176 26.8047V20.8906Z" fill="#1B1B1B"/>
<path d="M137.843 31.6562L139.25 30.8906C139.354 31.2604 139.547 31.5417 139.828 31.7344C140.109 31.9271 140.471 32.0234 140.914 32.0234C141.294 32.0234 141.591 31.9375 141.804 31.7656C142.023 31.5885 142.132 31.349 142.132 31.0469C142.132 30.6458 141.747 30.3021 140.976 30.0156C140.716 29.9219 140.515 29.8438 140.375 29.7812C139.583 29.4531 139.028 29.1198 138.711 28.7812C138.398 28.4427 138.242 28.0312 138.242 27.5469C138.242 26.8854 138.5 26.349 139.015 25.9375C139.536 25.526 140.224 25.3203 141.078 25.3203C141.651 25.3203 142.14 25.4271 142.547 25.6406C142.958 25.849 143.257 26.1484 143.445 26.5391L142.242 27.3672C142.153 27.1328 141.997 26.9479 141.773 26.8125C141.554 26.6719 141.299 26.6016 141.007 26.6016C140.685 26.6016 140.424 26.6797 140.226 26.8359C140.034 26.987 139.937 27.1901 139.937 27.4453C139.937 27.8307 140.375 28.1823 141.25 28.5C141.526 28.599 141.739 28.6797 141.89 28.7422C142.573 29.013 143.06 29.3203 143.351 29.6641C143.648 30.0026 143.797 30.4271 143.797 30.9375C143.797 31.6771 143.528 32.2578 142.992 32.6797C142.455 33.0964 141.716 33.3047 140.773 33.3047C140.049 33.3047 139.448 33.1693 138.968 32.8984C138.489 32.6276 138.114 32.2135 137.843 31.6562Z" fill="#1B1B1B"/>
<path d="M153.85 28.5078H157.038L155.866 25.8984C155.798 25.7318 155.728 25.5417 155.655 25.3281C155.582 25.1094 155.509 24.8672 155.436 24.6016C155.374 24.8516 155.306 25.0859 155.233 25.3047C155.165 25.5182 155.095 25.7161 155.022 25.8984L153.85 28.5078ZM158.991 33L157.694 30.0547H153.163L151.835 33H149.882L155.421 21.1094L160.952 33H158.991Z" fill="#1B1B1B"/>
<path d="M166.459 21.5625H168.295L170.459 27.3359C170.599 27.7161 170.717 28.0495 170.81 28.3359C170.909 28.6224 170.995 28.8906 171.068 29.1406C171.25 28.5365 171.441 27.9453 171.638 27.3672C171.664 27.2943 171.683 27.2448 171.693 27.2188L173.99 21.1094L176.412 27.3359C176.526 27.638 176.633 27.9401 176.732 28.2422C176.836 28.5443 176.933 28.849 177.021 29.1562C177.073 28.9219 177.144 28.6641 177.232 28.3828C177.321 28.1016 177.435 27.7682 177.576 27.3828L179.724 21.5625H181.576L177.146 33.4453L174.537 26.9219C174.422 26.6302 174.318 26.3516 174.224 26.0859C174.131 25.8151 174.047 25.5599 173.974 25.3203C173.886 25.6276 173.797 25.9167 173.709 26.1875C173.62 26.4531 173.529 26.7083 173.435 26.9531L170.873 33.4453L166.459 21.5625Z" fill="#1B1B1B"/>
<path d="M189.283 33H187.587V32.0391C187.285 32.4661 186.931 32.7839 186.525 32.9922C186.124 33.2005 185.663 33.3047 185.142 33.3047C184.095 33.3047 183.269 32.9479 182.665 32.2344C182.066 31.5156 181.767 30.5339 181.767 29.2891C181.767 28.1068 182.074 27.1536 182.689 26.4297C183.303 25.7005 184.105 25.3359 185.095 25.3359C185.699 25.3359 186.215 25.4635 186.642 25.7188C187.074 25.9688 187.389 26.3307 187.587 26.8047V25.5938H189.283V33ZM187.634 29.2734C187.634 28.5078 187.454 27.9115 187.095 27.4844C186.741 27.0573 186.243 26.8438 185.603 26.8438C184.962 26.8438 184.457 27.0651 184.087 27.5078C183.723 27.9453 183.54 28.5547 183.54 29.3359C183.54 30.1224 183.717 30.7292 184.072 31.1562C184.426 31.5833 184.926 31.7969 185.572 31.7969C186.181 31.7969 186.676 31.5651 187.056 31.1016C187.441 30.638 187.634 30.0286 187.634 29.2734Z" fill="#1B1B1B"/>
<path d="M193.38 36.4844H191.637L193.669 32.3594L190.95 25.5938H192.825L194.184 29.4297C194.262 29.6641 194.33 29.9036 194.387 30.1484C194.45 30.388 194.499 30.6328 194.536 30.8828C194.604 30.6224 194.765 30.2083 195.02 29.6406L195.059 29.5469L196.887 25.5938H198.723L193.38 36.4844Z" fill="#1B1B1B"/>
<path d="M59.6947 23.7839C58.8284 21.8229 57.0966 21.0878 55.8954 20.8758C55.4536 20.3754 54.2608 19.3732 53.7218 19.5026C55.948 22.1144 52.5352 20.0572 52.0134 20.5078C52.0748 20.5257 54.5904 21.8858 53.546 22.4308C53.0768 22.2953 51.9799 21.8513 51.3689 21.9986C49.7458 22.0488 54.377 23.0693 53.0145 24.259C52.6523 24.464 52.1199 23.988 51.2319 23.9155C48.8145 23.693 53.2111 24.9622 52.7844 26.4591C52.2918 27.2502 50.0806 25.5129 49.9313 26.2406C50.4782 26.6676 51.6286 27.4036 51.8844 28.3974C51.7386 28.6828 51.5809 28.9813 51.4091 29.2877C50.8966 29.0438 49.1118 28.1374 48.993 28.532C49.4595 28.9254 50.4363 29.7741 50.5997 30.619C50.3881 30.938 50.1624 31.2575 49.9211 31.5722C49.1926 30.9704 47.4622 30.1124 47.6031 30.49C47.8311 30.6649 49.0707 32.2583 48.9726 32.6928C48.7076 32.976 48.5039 33.1713 48.294 33.4358C47.7493 32.8886 46.3617 32.1382 46.4085 32.417C47.9631 34.7828 47.217 34.7771 46.6029 35.5743C43.9336 32.7072 45.7684 35.0498 45.4264 36.3212C45.2603 36.3089 45.073 36.4392 44.6988 36.6813C42.9462 34.8234 43.5943 35.8098 43.8197 36.6376C44.1452 38.0768 43.1852 39.1161 42.8358 39.4238C42.2836 39.884 41.5838 40.0602 40.5208 40.6961C37.7623 42.1383 37.928 43.0758 36.8938 44.3105C34.6897 46.56 32.7242 45.414 31.3313 43.349C31.1696 42.9495 31.1842 42.7253 31.1294 42.2795C31.1373 42.1567 31.1426 42.0575 31.1453 41.8827C32.2683 42.7423 33.1245 43.1405 34.4949 43.2642C35.3003 43.4254 35.8582 43.654 35.8644 43.574C35.9086 43.4901 35.4103 43.1453 34.9738 42.8835C33.5923 42.0968 33.6692 42.217 31.1475 41.634C31.1475 41.3071 31.1391 40.905 31.1431 40.3477C31.9404 40.7617 32.7784 41.094 33.644 41.3394C34.0045 41.5365 34.3376 41.71 34.3363 41.6973C34.3035 41.6227 34.2629 41.5517 34.2152 41.4854C34.9866 41.7039 37.7239 42.0138 38.0981 42.0146C37.6868 41.6851 36.2103 40.8914 35.5357 40.6545C35.2472 40.2837 34.917 39.9464 34.5514 39.6493C38.0707 40.4264 37.6833 40.4705 36.1021 39.395C36.5094 39.5554 36.8708 39.6952 36.873 39.69C35.9148 38.2595 33.8517 37.3067 32.1017 36.9466C32.103 36.9404 32.1049 36.9344 32.1075 36.9287C32.8333 37.1012 33.5762 37.1938 34.3226 37.2049C35.0599 37.6747 37.245 38.5051 37.9519 38.7359C37.996 38.7617 37.8136 38.5436 37.6369 38.3465C37.1469 37.8058 36.7652 37.5051 36.2262 37.1503C36.9459 37.1 37.856 37.0441 37.7752 37.024C36.2832 36.145 34.2382 35.5913 32.6337 35.6101C32.7861 35.2653 32.9155 35.2578 33.0569 34.788L33.1267 34.6495L33.1824 34.6455C34.6924 35.8994 36.3932 36.3413 38.7555 36.9514C38.854 36.9724 38.8955 37.0012 38.8823 36.968C37.5026 35.4737 35.5326 34.8632 33.6829 34.5948C34.5121 34.4956 35.5618 34.253 36.3999 34.0656C37.0846 34.5179 39.3347 35.4702 39.7906 35.6337C38.8465 34.1914 37.0926 33.1359 35.0776 32.5612C34.847 32.4878 34.5475 32.4423 34.4507 32.3947C34.4459 32.3685 34.9018 31.7256 35.052 31.5162C37.0921 32.8899 39.6417 33.1678 41.6576 33.486C40.0283 31.9795 37.4469 31.4437 35.1801 31.3733C35.1655 31.3611 35.3193 31.1522 35.5539 30.862C35.5936 30.8427 35.6148 30.8301 35.6131 30.8257C35.6063 30.8212 35.5988 30.8178 35.591 30.8156C35.6988 30.6815 35.9497 30.383 36.0676 30.2427C38.0654 31.6412 40.3971 31.9699 42.6206 32.3768C41.0302 30.8406 38.4073 30.1867 36.1816 30.1168L36.221 30.0674C36.3345 29.9324 36.7891 29.442 36.9967 29.2287C39.0643 30.4677 41.3262 30.6347 43.8373 30.8895C42.7413 30.0123 41.2626 29.4625 39.51 29.2396C36.7308 28.8926 36.5567 29.6741 38.137 28.1754C38.4718 27.9001 38.8549 27.5635 38.8796 27.5867C40.7727 28.6173 42.4943 28.7514 44.807 28.9582C44.8826 28.9582 44.9276 28.9861 44.8729 28.9346C43.1817 27.6662 40.9662 27.397 38.9653 27.5002C39.3351 27.2178 40.2465 26.5854 40.281 26.5946C41.4459 27.3682 43.0094 27.5898 44.0445 27.7283C43.2012 26.9416 41.7229 26.5417 40.3384 26.5539C40.5217 26.4268 41.2131 26.0295 41.4552 25.9045C42.5049 26.6545 44.1987 26.9071 45.2064 27.0408C44.1961 26.172 43.0063 25.9189 41.5838 25.8608C41.5582 25.8608 41.5573 25.849 41.6545 25.7961C41.9871 25.6213 42.6361 25.3127 42.9573 25.1777C44.0176 25.6628 45.0337 25.7428 46.6126 25.7371C46.8286 25.734 46.9877 25.7445 46.947 25.7249C45.8399 25.0361 44.322 24.9688 43.0775 25.141L43.0752 25.1414L43.073 25.141C43.0633 25.1257 43.4503 24.9771 43.8183 24.8394C44.0131 24.7588 44.2217 24.7156 44.4328 24.7122C45.6036 24.7996 46.8017 24.4373 48.0997 24.0619C46.3065 23.6017 44.8835 24.4246 43.3284 24.7808C44.0326 23.6008 44.5 22.0388 44.2698 21.0628C43.7839 22.1118 43.157 23.7205 43.2007 24.8215C43.1124 24.849 42.7943 24.9557 42.7492 24.9657C43.1468 23.6161 43.1746 22.145 42.6869 21.1197C42.4068 22.8932 42.3534 24.0326 42.6639 24.9954C42.4545 25.0654 42.1581 25.1781 41.6306 25.3792C41.9871 24.1117 42.0724 22.7131 41.5423 21.6113C40.8076 26.2598 42.2933 25.0684 40.7815 25.7489C40.5924 24.5759 39.9478 23.0523 38.9631 22.3709L38.9892 22.4583C39.3969 23.7516 40.0181 25.1191 40.7404 25.7747C40.5566 25.8621 39.9964 26.1562 39.8091 26.2515C39.586 25.0872 39.0024 23.7686 38.027 23.054L38.0526 23.1415C38.5134 24.5571 39.0338 25.6584 39.6762 26.3319C39.522 26.3778 38.7042 27.0312 38.7647 26.7742C38.3309 24.7148 36.9773 22.5527 35.7403 21.8941C36.6 24.1397 37.3912 25.7786 38.6813 26.9421C38.5792 26.9958 37.7226 27.6256 37.5671 27.7405C37.173 25.4067 36.3778 23.3665 35.0431 21.9142C36.6234 19.1569 36.987 17.3881 36.5717 14.862C36.4012 13.9586 36.1299 13.2318 35.7023 12.3708C35.7129 12.3708 35.7239 12.3673 35.7359 12.3646C35.9736 12.296 36.2081 12.2917 36.4502 12.1977C36.5722 12.182 36.6406 12.244 36.6795 12.1129C36.5214 11.8826 36.6292 11.6103 36.6137 11.2825C36.6177 11.0356 36.5253 9.68464 36.1428 10.3931C36.0579 10.5513 35.6387 10.4565 35.8114 10.3402C36.3314 10.1217 36.3203 9.58761 36.0129 9.27425C36.2338 9.16411 36.2779 8.92199 36.1255 8.73099C36.1224 8.65713 36.2139 8.55355 36.2943 8.67986C36.3694 8.79262 36.3707 8.78868 36.3946 8.92941C36.4189 9.70474 37.3524 9.40362 37.712 8.86386C37.9474 8.52121 37.8445 8.39315 38.2054 8.05313C38.2912 7.90803 38.1613 7.87131 38.1856 7.71223C38.2969 7.51206 38.1529 7.22623 38.1758 6.94914C39.0073 6.65325 38.6508 6.07503 39.0152 5.65415C39.0594 5.56674 38.8036 5.47278 38.805 5.31063C38.7758 5.12488 38.2346 4.85784 37.8693 4.74552C37.2627 4.5353 37.3029 5.24813 37.048 4.93389C37.2194 4.82594 37.2901 4.4728 37.4204 4.32202C37.4054 4.18041 37.3868 4.00865 37.3683 3.82422C37.4314 3.48856 37.5631 3.25605 37.135 3.05151C37.0599 2.76481 36.5505 2.37801 36.1215 2.35223C36.4348 2.12278 36.2731 1.68223 36.1825 1.33346C36.1096 1.17525 35.9263 1.13548 35.8945 0.948856C35.3922 0.817741 34.7874 0.766606 34.1821 1.02141C34.1609 0.824734 34.0213 0.850083 33.8857 0.776658C33.925 0.570807 33.6281 0.546332 33.5764 0.334362C33.432 0.375445 33.2084 0.305517 33.0392 0.338733C33.0083 0.295027 32.995 0.244767 32.8735 0.277545C32.4799 0.421335 32.1755 0.62675 32.0001 0.874995C31.8707 1.11362 32.3023 1.22726 32.066 1.43092C31.9374 1.09352 31.6259 0.9187 31.3304 0.979887C31.4051 0.922196 31.2822 0.704545 31.4011 0.697552C31.8327 0.549391 31.3375 0.0883021 31.041 0.0419747C30.7344 -0.0567989 30.0249 0.0170628 29.8875 0.281479C29.7678 0.412594 29.6401 0.579111 29.5619 0.68007C29.554 0.696678 29.5005 0.803318 29.4519 0.904277C29.1754 0.986006 29.0791 0.674825 28.9218 0.904277C28.3735 1.34701 28.1553 0.713723 27.6322 1.64333L27.6163 1.64595C27.4542 1.64989 27.296 2.01701 27.2739 2.11535C27.053 2.03799 27.7674 1.51003 27.1105 1.29325C27.0168 1.29631 26.2145 1.24955 26.192 1.52358C26.0153 1.48774 25.8315 1.60225 25.7294 1.73162C25.6358 1.76046 25.4083 1.74342 25.4719 1.95014C25.3146 2.29497 24.6983 3.29713 25.3937 3.46321C25.5841 3.47851 25.7339 3.33865 25.964 3.37974C26.0436 3.489 25.718 3.47152 25.5713 3.52877C25.4498 3.56155 25.3 3.7473 25.2815 3.81548C25.2775 3.82378 25.274 3.83208 25.27 3.84126C25.2059 3.90289 25.2408 4.02089 25.1878 4.11136C24.997 4.1673 25.0822 3.72938 25.0372 3.66644C24.8998 3.36706 24.4103 3.18569 24.1602 3.38586C23.953 3.37886 23.8819 3.40071 23.8797 3.7792C23.8302 4.11223 23.5077 3.97937 23.8245 4.39632C24.0489 4.7783 24.8406 5.04097 24.5057 5.17471C24.3546 5.23852 24.1934 5.30976 24.1342 5.5073C24.0188 5.60739 23.8691 5.99593 23.7432 6.08246C23.411 6.20571 23.0209 6.53044 22.6321 6.83288C22.5247 6.93428 22.6723 6.93471 22.6895 7.08112C22.4775 7.50812 22.7907 7.98189 23.2289 8.11868L23.2488 8.12655C23.0721 8.25067 22.902 8.93247 22.8322 9.14488C22.8534 9.2253 22.883 9.43465 22.7739 9.56227C22.8419 9.61733 23.039 9.69338 23.0765 9.82056C23.5952 10.2231 23.1989 10.0963 23.4176 10.324C23.5528 10.3787 23.6332 10.3752 23.7825 10.512C23.6199 10.9997 23.6022 11.2226 23.9654 11.4879C23.9415 11.6348 24.306 11.8376 24.4001 11.8952C24.5525 11.9901 24.6382 12.1741 24.8825 12.1417C25.0292 12.0932 25.0729 12.0242 25.1374 11.9079C25.2488 11.8703 25.4683 12.0775 25.6018 11.8546C25.7228 11.9857 26.2304 11.7672 26.1195 11.942C25.4445 12.0631 25.4772 12.5574 25.6866 13.3843C25.7387 13.5945 25.8951 13.4957 25.9958 13.8047C26.1032 14.0149 26.1796 13.7545 26.2914 13.8047C26.4204 13.8261 26.5949 13.8808 26.6541 13.8886C26.685 13.8716 26.6855 13.7881 26.7866 13.8161C27.0217 14.0014 27.8911 13.685 27.8995 13.3707C27.9993 12.9774 27.5496 12.8777 27.5624 12.6334C27.6689 12.3861 27.7453 13.1985 28.1014 12.5762C28.1756 12.6199 28.4796 12.5836 28.6249 12.5784C28.7676 12.5945 28.8051 12.6959 28.89 12.7147C28.9452 13.3318 29.8248 13.9022 30.2595 13.2339C30.4477 13.0661 30.3072 13.4485 30.1928 13.5399C29.9423 13.9647 30.6381 14.5451 30.8899 14.6063C31.0437 14.65 31.1024 14.5717 31.307 14.5997C31.4722 14.6329 31.572 14.6871 31.6697 14.5997C31.9254 14.3494 32.2047 14.1237 32.5038 13.9258C32.984 13.4695 33.1134 12.9079 32.5824 12.5941C32.4499 12.5268 32.1552 12.7567 32.0854 12.4953C32.0854 12.4346 32.1296 12.4381 32.1967 12.4599C32.6911 12.6282 32.7799 11.855 32.5625 11.6732C32.8033 11.7449 33.041 11.3695 32.9959 11.6693C33.0728 12.6985 34.6857 12.9027 34.6093 11.8817C34.6173 11.838 34.6058 11.8148 34.6866 11.8196C35.1726 12.0281 34.1843 12.2445 35.0741 12.4027C36.0964 14.4686 36.2669 17.0546 35.7752 19.1529C35.4337 20.4234 35.2596 20.6983 34.6955 21.5567C34.5841 21.4466 34.175 21.0921 34.2046 21.1406C34.202 21.145 34.3098 21.4859 34.445 21.9059C34.2727 22.141 34.0849 22.3902 33.8813 22.6686C33.4991 23.193 33.2044 23.5759 33.0043 23.8722C32.4017 23.5326 32.4773 23.5296 32.8276 24.1467C32.7591 24.2621 32.7158 24.3438 32.5532 24.6344C30.2409 24.4941 28.2379 25.6396 26.9081 27.4713L26.8304 27.5871C26.5017 26.9254 25.6309 25.3123 25.3681 24.8717C25.3491 24.8381 25.3393 24.8197 25.4184 24.8106C26.1898 24.7708 26.5671 24.7179 27.137 24.5658C28.5162 24.2599 30.3563 22.8237 31.5142 21.8666C31.8592 21.6966 30.7221 21.6629 30.3872 21.6406C27.9852 21.6275 26.5512 22.6371 25.0323 24.301C24.7827 23.8726 24.2967 23.1524 24.0935 22.7735C27.0336 21.7556 27.9441 20.0886 29.9202 17.2823C28.4146 17.3649 26.7394 18.6477 25.2333 20.2281C24.5534 20.9711 24.3056 21.7036 23.9371 22.5444C23.7299 22.2477 22.6272 20.6323 22.4938 20.4719C24.8883 19.9912 25.8982 18.4873 27.3583 16.608C27.3844 16.5643 27.4025 16.5494 27.3892 16.5389C27.2894 16.5005 26.5896 16.5529 26.3038 16.6202C24.3948 16.9812 23.0677 18.6136 22.4024 20.1721C22.3895 20.2058 22.373 20.238 22.3533 20.2683C22.1355 19.9903 21.411 19.0336 21.1928 18.7552C22.42 18.3269 23.0041 17.5454 23.9543 16.0717L24.0034 15.9804C22.4183 16.0464 21.5113 17.2657 21.0182 18.5284C20.7775 18.2395 20.0317 17.3357 19.7865 17.0485C21.2303 16.6644 21.8532 15.6858 22.7465 14.3156L22.7973 14.2234L22.6533 14.2308C21.0872 14.3419 20.1736 15.7352 19.734 16.9747C17.6753 14.6452 19.6593 17.5704 19.2984 10.8607L19.1906 10.9766C18.2991 12.1369 18.3459 13.9319 18.5973 15.7107C17.8878 14.9616 17.4822 14.5337 17.2074 14.2584C17.8259 13.1771 17.8732 11.7038 17.7667 9.16324C16.8761 10.144 16.7669 12.0867 17.093 14.1417C17.0581 14.1128 16.592 13.6461 16.4824 13.5377C16.7033 11.6444 15.9682 9.21088 15.5547 7.62569C15.0581 9.09681 15.5794 11.2532 16.3106 13.3694C14.2435 11.5264 12.2837 9.06578 9.73329 8.04264C11.4505 9.67896 13.0467 11.2488 14.7732 12.2646C15.0815 12.4754 15.3641 12.7209 15.6152 12.9962C16.1096 13.5141 16.6313 14.0652 16.6132 14.0757C15.1054 12.8856 12.9093 11.4141 11.0829 11.2825C12.2864 12.1321 15.2384 14.0167 16.7696 14.2317C17.2719 14.7946 18.0282 15.6504 18.6039 16.3733C16.9666 15.483 15.3466 14.4065 13.3612 14.594C13.1845 14.5805 14.0597 14.9603 14.6424 15.2605C16.304 16.0844 17.5259 16.5214 18.7651 16.5651C19.0938 16.9585 19.9986 18.1154 20.2314 18.4445C18.3759 17.2172 16.2699 16.3243 14.8593 16.5756C16.5103 17.4725 18.8292 18.5323 20.3056 18.5502C20.3618 18.5773 21.5365 20.2394 22.0109 20.9448C19.7216 19.2434 15.6263 17.0678 13.5057 17.4248C17.1919 19.5345 19.3593 20.7202 22.1324 21.1398C22.53 21.6983 24.006 24.0754 24.3546 24.7673C21.2007 22.6791 17.5511 20.659 14.668 20.9042C17.9624 22.7031 21.1393 24.6764 24.5061 25.016C24.8039 25.5649 25.3429 26.5666 25.513 26.9285C22.8092 25.2559 18.9449 23.3932 16.1471 23.9688C18.9012 25.3127 22.9144 27.2764 25.6548 27.1973C25.9517 27.7877 26.8074 29.5644 26.7261 29.4936C23.8717 27.7454 20.2928 25.8774 17.3558 26.2908C17.1027 26.2563 19.0019 27.1287 20.0066 27.6365C22.7704 28.9503 24.3701 29.6286 26.8829 29.7986C27.0835 30.2558 27.6366 31.5665 27.5898 31.5075C25.1684 30.449 22.7443 29.9857 20.9763 30.3052C20.5234 30.3851 20.2977 30.4857 20.2977 30.4857C19.9495 30.6633 19.63 30.8915 19.3501 31.1627C25.1149 30.8052 25.0274 32.4738 27.353 31.6491C27.4467 31.7247 27.6075 31.8528 27.7921 31.9987C28.0347 32.6421 28.3276 33.4183 28.56 34.0673C28.2781 34.0262 27.4997 34.0302 27.3397 34.0695C27.3168 34.0822 28.1283 34.4655 28.8051 34.7688L29.0057 35.3658C28.8714 35.3177 28.7389 35.274 28.6081 35.2347C26.2667 33.9803 23.0416 32.6867 20.7165 33.399C20.6251 33.4366 20.7028 33.4371 20.7311 33.4567C22.8958 34.3457 26.1257 35.6315 27.8072 35.6346C28.2299 35.8789 28.7504 36.1555 29.1418 36.3339C29.1542 36.538 29.1705 36.7709 29.1908 37.017C28.5748 36.8246 27.9364 36.7109 27.2912 36.6787C25.1366 35.9178 22.747 35.9069 21.7375 36.5913C24.2009 37.371 27.3481 38.301 29.1723 37.8828L29.2748 37.9077C29.2938 38.0939 29.3189 38.3111 29.3455 38.5554C28.5869 38.3259 27.7966 38.2494 27.0959 38.3548C27.5474 38.617 29.0499 39.1375 29.4303 39.2145C29.4347 39.2468 29.4395 39.2791 29.444 39.3124C27.2037 38.4147 24.6515 37.9064 23.0876 38.8316C25.0129 39.4103 27.9472 40.2533 29.5266 39.8853C29.6295 40.4802 29.6269 40.4941 29.8031 41.2874C27.2991 40.6318 25.3146 40.714 24.0325 41.8381C25.7555 42.1296 28.6271 42.5474 29.9635 41.9574C30.0806 42.3311 30.6346 44.2371 30.5449 44.5128C30.2719 45.9503 28.3501 47.0591 26.7946 46.3366C26.5366 46.2213 26.3413 46.1273 26.1553 45.9726C25.5227 45.1719 23.4604 43.9049 23.107 43.095C22.9519 42.7384 22.9409 42.3896 22.5954 41.8062C22.0763 40.9679 21.6416 40.6489 21.2895 40.3163C20.7678 39.9277 20.1992 38.8526 19.92 38.3255C19.358 37.4846 18.6781 37.0685 18.527 36.7643C18.1599 36.2762 19.7035 35.6564 20.2579 35.5126C19.7941 34.4252 16.6265 35.8706 17.7062 34.5948C18.4312 33.479 19.7035 33.594 19.7433 33.2924C18.6679 32.5708 15.7716 33.6477 16.8275 32.3707C17.0453 32.021 18.1405 31.3217 18.5672 31.0521C18.9798 30.2837 15.7429 31.5136 15.5065 31.2352C14.85 30.5495 17.3682 28.8362 17.5714 28.8489C18.0176 27.942 14.638 29.2737 14.5253 29.3004C13.2764 29.4088 15.4796 27.015 16.1864 26.5623C15.5587 26.0225 13.0321 27.6339 12.8474 27.5128C11.6732 27.2624 14.285 24.7699 14.3795 24.6554C13.3396 23.9697 11.1134 26.8577 11.022 25.6409C10.8621 24.6357 12.335 23.4867 12.4534 23.1777C11.4898 22.7232 9.5632 25.6165 9.59148 24.245C9.66349 22.8998 10.8051 22.1332 11.0008 21.9365C11.2446 21.7232 10.1989 21.9007 9.56188 22.4531C7.9392 24.3892 8.41324 22.3849 8.7808 21.8701C9.26677 21.1629 9.83004 20.7853 9.8729 20.6791C9.95286 20.4833 9.07017 20.5445 8.4044 21.0148C7.90209 21.277 7.51023 22.3285 7.33352 21.9094C6.92354 21.4724 8.87976 20.0642 8.97077 19.9475C6.73622 19.9007 6.81309 21.1874 5.25403 21.3338C2.71377 21.0231 0.195597 24.2913 0.0290436 25.0046C0.00209473 25.1615 -0.0151349 25.2087 0.0188826 25.4141C0.484524 26.8564 -0.290367 28.2226 0.130654 29.2964C0.195438 29.4707 0.250886 29.6483 0.296765 29.8283C0.8004 31.8764 0.939562 33.7137 1.10656 34.1884C1.55629 35.7355 2.83791 37.083 4.50123 39.6952C6.43007 42.6191 8.19676 46.8462 8.98712 49.0481C9.26544 49.7911 9.48678 50.3995 9.66084 50.8291C10.5643 52.5139 9.82165 52.5406 10.1857 53.9322C10.3067 54.5834 10.6778 54.7372 10.7357 55.2525C10.775 55.6297 10.6328 55.7826 10.5771 56.1039C10.4715 57.2953 10.9579 57.7887 11.9908 57.9329C12.813 58.3612 11.6502 58.7926 12.6606 59.7039C13.9545 60.8931 15.074 61.4521 16.2549 62.2388C17.5803 63.1094 18.2173 62.7418 18.4444 64.1133C18.4787 64.2106 18.5458 64.2933 18.6344 64.3475L19.7163 64.2824C21.0483 63.8738 20.8716 63.6867 22.1395 63.869C24.8454 64.0525 24.1443 64.8952 25.592 64.9966C27.8805 65.0923 27.8756 63.154 28.6315 63.8165C28.7267 63.8843 28.8412 63.9205 28.9584 63.9197C29.303 63.9293 29.7205 63.7252 30.0077 63.4118C30.8873 62.1942 29.3918 62.0272 31.0295 61.175C31.2836 60.8284 31.3936 60.2768 31.1356 59.9748C31.1134 59.9538 31.0877 59.9368 31.0596 59.9246C30.8904 59.8498 29.8115 59.5474 29.7925 59.5679C29.5222 59.5343 29.288 59.9879 28.9646 59.9879C27.433 59.7961 29.117 58.4058 29.6715 58.0155C33.7646 55.4999 32.4693 56.7953 35.5366 57.554C36.7705 57.8547 37.765 57.7996 38.459 57.9836C39.3046 58.1147 39.3669 59.3048 40.2796 58.7799C41.2074 58.2153 41.2772 57.8184 41.4649 57.7009C42.1099 57.1257 43.7927 55.8936 44.451 55.5278C53.0242 50.8763 53.0216 49.0158 54.2369 43.873C55.4143 39.0965 56.8877 35.2434 58.5223 31.1854C59.3316 28.8664 60.5823 25.7528 59.6947 23.7839ZM24.052 8.23887C24.0566 8.25337 24.0631 8.26719 24.0714 8.27996C24.0073 8.2292 23.9481 8.17257 23.8947 8.11082L23.8828 8.09858C23.9042 8.05 23.9413 8.00986 23.9884 7.98451C23.9976 7.99506 24.0074 8.00498 24.018 8.01423L24.0869 8.07148C24.0635 8.13005 24.033 8.17725 24.052 8.23887ZM28.1297 2.451C28.1858 2.47897 28.2807 2.69662 28.1076 2.62145C28.1138 2.56464 28.1442 2.54846 28.1297 2.451ZM28.0532 6.80753C28.1707 6.89494 28.1155 7.00683 28.0037 7.1292C28.0164 7.04587 28.0329 6.93865 28.0532 6.80753ZM26.8003 4.78835C27.0654 4.56152 27.1493 4.38102 27.4188 4.1743C27.4559 4.2097 27.4997 4.24947 27.5514 4.29361C27.4511 4.35305 27.0446 4.81108 26.8821 5.03266C26.7937 5.04665 26.8189 5.13668 26.7455 5.22934C26.5401 5.42732 26.7045 4.99814 26.4721 4.97366C26.6236 4.94351 26.5839 4.96886 26.7981 4.78835H26.8003ZM25.9985 4.96317C26.0358 4.90531 26.059 4.83963 26.0662 4.77135C26.0734 4.70308 26.0645 4.63408 26.04 4.56983C26.1637 4.5978 26.5123 4.43347 26.5176 4.47062C26.4319 4.61353 26.1275 4.78748 26.3267 4.95137C26.2998 4.95137 26.272 4.95137 26.2437 4.95137C26.2446 4.94141 26.2426 4.9314 26.2379 4.92253C26.2145 4.87882 26.116 4.87096 26.0811 4.96623C26.0489 4.97017 26.017 4.97454 25.9861 4.97934C25.9883 4.9741 25.9927 4.96842 25.9963 4.96317H25.9985ZM27.0588 9.92677C27.0088 9.90928 26.9625 9.8953 26.9218 9.88306L26.8675 9.86077C26.9607 9.84766 27.0561 9.83062 27.1524 9.80833C27.1168 9.84449 27.0849 9.88418 27.0574 9.92677H27.0588ZM26.5348 9.25764C26.2039 9.32932 26.0383 9.36472 25.9892 9.36122C25.9665 9.35882 25.9436 9.35765 25.9207 9.35773C26.1416 9.1121 26.0974 9.11298 26.1103 8.87959C26.6082 9.02557 26.955 9.00808 27.3402 8.99716C27.6013 8.99366 26.8604 9.19252 26.5348 9.25764ZM28.2414 8.04264C28.0921 8.07977 27.947 8.13206 27.8085 8.19867C27.4075 8.2298 27.005 8.23608 26.6033 8.21746C26.6992 8.13748 26.78 7.87175 26.7168 7.73452C26.6727 7.42071 26.9245 7.59859 26.9819 7.82673C27.1988 8.13267 27.5735 7.91152 27.8429 7.58199C27.8398 7.72403 28.0802 7.92289 28.3408 8.01467C28.3024 8.02428 28.2684 8.03433 28.2414 8.04264ZM30.5922 2.14769C30.6283 2.13097 30.6568 2.10129 30.6717 2.06465C30.7232 2.11646 30.7618 2.17947 30.7843 2.24865C30.7212 2.20008 30.6471 2.16752 30.5683 2.15381C30.5765 2.15295 30.5846 2.15089 30.5922 2.14769ZM30.4446 2.14244C30.464 2.14021 30.4836 2.14139 30.5025 2.14594C30.4766 2.1446 30.4506 2.1446 30.4247 2.14594C30.4312 2.14422 30.4379 2.14305 30.4446 2.14244ZM29.6794 7.85296C29.6432 7.89666 29.6127 7.94037 29.5875 7.97664C29.5014 7.95262 29.4118 7.94302 29.3225 7.94823C29.4356 7.74234 29.5379 7.53081 29.6291 7.31451C29.709 7.37045 29.85 7.50725 30.0134 7.5291C29.9401 7.60559 29.8416 7.64929 29.6794 7.85296ZM30.1831 9.06359C30.1955 9.05519 30.2092 9.04885 30.2237 9.0448L30.1831 9.06359ZM30.9946 8.47488C30.9465 8.56229 30.8979 8.6497 30.8511 8.73711C30.6661 8.84122 30.4754 8.9349 30.2798 9.0177C30.5498 8.86954 30.2767 8.43118 30.1256 8.2415C30.2323 7.98837 30.3245 7.72952 30.4018 7.46617C30.5335 7.40888 30.6558 7.33226 30.7645 7.2389C30.9575 7.50944 31.1073 7.88311 31.2036 8.13791C31.1276 8.24624 31.0578 8.35874 30.9946 8.47488ZM31.7108 3.80324C31.6476 4.29011 31.6153 4.24379 31.5575 4.66467C31.5248 4.66467 31.2871 5.11527 31.1241 5.41771C31.0975 5.38321 31.0679 5.35104 31.0357 5.32156C31.0463 4.95574 30.9619 4.12535 30.8281 3.66732C30.9606 3.57728 30.9862 3.56505 31.1104 3.38629C31.3039 3.3994 31.508 3.47851 31.7501 3.44661C31.7413 3.54582 31.7289 3.66382 31.7108 3.80324ZM32.6328 4.59998C32.6014 4.45401 32.5387 4.33469 32.3567 4.32246C32.394 4.2334 32.4209 4.14044 32.4371 4.04537C32.5497 4.13278 32.5373 4.36922 32.68 4.47542C32.6637 4.52 32.6478 4.56196 32.6328 4.59998ZM33.2106 3.06025C32.9822 3.0856 32.4835 3.305 32.4521 3.54975C32.4521 3.54669 32.4521 3.54363 32.4521 3.54057C32.4512 3.42523 32.4385 3.31027 32.4141 3.19749C32.4834 3.22494 32.5572 3.23975 32.6319 3.24119C32.8625 3.19749 33.1828 2.93526 33.3387 2.77355C33.299 2.84828 33.2579 2.94356 33.2106 3.06025ZM34.3204 9.26638C34.2621 9.09462 34.5377 9.08719 34.5855 8.93553C34.6412 8.98094 34.7002 9.02214 34.7622 9.05878C34.4993 9.1392 34.3619 9.29698 34.3204 9.26289V9.26638ZM35.5888 3.05413C35.5622 3.0891 35.5234 3.19836 35.4249 3.2495C35.2959 3.21584 35.4545 3.11838 35.4898 2.95449C35.4982 2.74295 35.4545 2.66603 35.3131 2.51743C35.9214 2.43002 35.2791 2.05547 35.9166 2.36796C35.5706 2.49208 35.6519 2.77748 35.5888 3.05413ZM3.48999 30.6544C4.15487 33.9646 1.96141 32.5547 1.84699 30.6981C1.8735 29.7803 1.67602 29.8878 1.42818 29.3371C1.37649 29.0076 1.32657 28.0867 1.34335 27.7943C1.48119 26.7878 1.96583 26.2179 2.31837 25.9617C2.94482 25.5618 3.90173 27.0544 3.84518 27.7126C3.84191 27.8508 3.80813 27.9867 3.74622 28.1107C3.25805 28.8616 3.34773 30.0067 3.48999 30.6544ZM8.99551 37.2538C7.70152 36.0218 8.97121 34.9239 9.39886 35.4038C9.57557 35.5948 9.6414 35.9409 9.87731 36.0677C10.1424 36.2172 10.3681 35.8929 10.7264 35.878C11.5044 35.7906 12.4176 36.3557 12.3354 36.7421C12.2435 36.9781 11.6347 37.3815 11.3374 37.4968C11.0626 37.6004 10.9456 37.4335 10.5864 37.5012C9.98776 37.8023 9.55569 37.6931 8.99374 37.256L8.99551 37.2538ZM12.3699 49.7518C11.8185 48.8536 11.7664 48.518 11.026 46.8764C10.2528 45.5032 9.93828 43.7607 9.90912 42.3892C9.90338 39.9854 10.0766 39.4505 12.0107 38.4601C12.1843 38.3836 12.8501 38.2346 13.0763 38.6222C13.1523 38.8382 13.0688 39.2485 13.09 39.4277C13.0246 41.0011 14.2925 43.0553 14.6901 44.0019C14.9053 44.4827 15.4959 45.1146 16.148 45.9979C16.4065 46.3406 17.1098 46.2235 17.309 46.4057C17.548 46.6059 17.389 46.6902 17.5374 47.209C17.6797 47.6989 17.901 47.8606 17.9072 48.0966C17.6024 49.5796 15.7924 48.5311 15.1173 48.768C14.3159 49.0302 14.6755 49.7417 14.1971 50.0079C13.7792 50.1665 13.5759 50.5406 13.4624 50.8295C13.1841 51.0546 12.5612 50.0546 12.3699 49.7518ZM18.7757 50.9917C17.9518 51.4029 17.6832 52.3562 17.9006 52.9409C18.0035 53.8347 17.9249 54.5384 17.4239 55.1957C15.8776 57.0623 15.6223 55.9448 14.5563 56.8853C14.5133 56.9174 14.464 56.9402 14.4116 56.9523C14.3592 56.9645 14.3048 56.9656 14.2519 56.9557C14.0575 56.9185 14.0486 56.7511 13.6904 56.5623C12.9451 56.3036 12.7578 56.3665 13.0436 55.6708C13.211 55.1992 13.8741 54.9278 14.1114 54.4164C14.3411 53.7757 14.7471 53.4396 15.3126 52.8168C15.731 52.3046 15.6444 52.2412 16.0097 51.8378C16.8491 50.8138 20.2067 49.5245 20.7907 50.1289C20.5968 51.3107 19.3448 50.6709 18.7757 50.9917ZM28.4871 53.2338C28.4398 53.4449 28.2494 53.4435 27.8337 53.8059C27.3234 54.2503 27.2744 54.5287 27.1242 54.6384C26.4098 55.1013 25.2656 53.843 24.4028 54.4234C22.0405 55.7953 23.3818 56.8464 22.4368 57.8927C22.2442 58.2284 22.2243 58.6794 22.3365 59.0728C22.5844 60.1947 24.4213 59.7532 24.5384 60.4425C24.7513 61.5556 23.1821 61.8559 22.3555 62.0508C22.1709 62.081 22.1505 62.0653 21.2952 62.0862C20.1068 62.1299 19.9385 62.0967 19.4941 61.609C19.1769 61.1378 19.5891 60.696 19.6575 59.7672C19.7357 58.88 19.5166 58.3564 19.6699 57.9675C19.7136 57.8612 19.7861 57.769 19.8793 57.7009C20.7828 57.2157 20.3688 56.6672 20.5115 56.4024C22.5437 52.3863 23.7701 52.6743 25.0513 52.5126C25.209 52.4549 25.2832 52.4523 25.3261 52.2469C25.1759 51.6901 25.6199 51.5476 26.0166 51.4864C26.7557 51.2946 28.6443 52.6311 28.4871 53.2338ZM31.1713 39.9102H31.1515C31.1868 39.2984 31.3958 39.6917 31.6114 39.8963C31.4585 39.898 31.311 39.9033 31.1713 39.9102ZM30.6955 35.8181C30.544 35.854 30.3611 35.8999 30.2564 35.9309C30.153 35.8732 30.0497 35.8181 29.9472 35.7666C29.9295 35.7084 29.9101 35.642 29.8893 35.5699C29.8964 35.4549 29.9047 35.3382 29.9131 35.2202C30.4844 35.429 31.0769 35.5756 31.6803 35.6573C31.349 35.6913 31.0202 35.7447 30.6955 35.8181ZM31.6582 36.8185L31.6441 36.8644L31.5424 36.7862L31.6582 36.8185ZM31.3436 37.0095C31.425 37.0191 31.5057 37.0337 31.5853 37.0532C31.5888 37.0576 31.5018 37.4068 31.4492 37.6105C31.0879 37.5073 30.3514 37.5458 30.3483 37.3954C30.3377 37.3517 30.2599 37.0135 30.1954 36.7425C30.5705 36.8611 30.9545 36.9501 31.3436 37.0095ZM33.7598 40.1222C33.3573 40.0378 32.9502 39.9771 32.5404 39.9404C32.259 39.7258 31.5199 39.4999 31.3034 39.3124C31.3154 39.249 31.4267 38.8827 31.5204 38.589C31.7651 38.7056 32.0113 38.8146 32.259 38.916C32.6761 39.3534 33.147 39.7311 33.7598 40.1222ZM32.2224 37.1642C32.5761 37.5178 32.9649 37.8353 33.3829 38.1118C32.8736 37.936 32.3532 37.7931 31.8252 37.6839C31.8658 37.5646 32.0222 37.1428 32.0699 37.0139L32.2224 37.1642ZM32.3014 34.9401C32.2356 35.111 32.1733 35.2692 32.1649 35.2941C31.5464 35.0681 30.6766 34.5044 29.99 34.3549C29.99 34.3496 29.99 34.3444 29.99 34.3391C30.855 34.5577 31.6149 34.6674 32.4017 34.6722C32.3849 34.7277 32.3469 34.8278 32.3014 34.9414V34.9401ZM30.7168 32.1906C31.1812 32.5437 31.6813 32.8484 32.2091 33.0997C31.863 33.1267 31.5193 33.1772 31.1802 33.2509C30.8737 33.0132 30.5528 32.7942 30.2193 32.5953C30.2427 32.4568 30.2675 32.32 30.2935 32.184C30.4358 32.1913 30.5769 32.194 30.7168 32.1919V32.1906ZM30.6412 30.6749C30.6606 30.6041 30.6796 30.5337 30.6995 30.4643C30.8091 30.4769 31.1272 30.4787 31.2045 30.4922C31.1303 30.5346 30.7923 30.619 30.6412 30.6762V30.6749ZM33.5212 32.4231C33.4267 32.5796 33.2703 32.8689 33.1523 33.0813C33.0803 33.0787 33.0087 33.0769 32.9372 33.0761C32.6547 32.7205 32.3515 32.3816 32.0293 32.0608C32.3397 32.0017 32.6467 31.9266 32.9491 31.8357C33.1103 31.9362 33.4792 32.115 33.6365 32.2068C33.6032 32.2816 33.5647 32.3536 33.5212 32.4231ZM33.5998 31.8659C33.5623 31.8021 33.5203 31.7348 33.4748 31.6644C33.6741 31.5945 33.9122 31.5075 34.156 31.4161C33.9621 31.6172 33.7523 32.323 33.5998 31.8659ZM34.5059 32.5075C34.8445 32.8768 35.2139 33.2171 35.6104 33.5249C35.0781 33.3514 34.531 33.2262 33.9758 33.1508C33.9873 33.1316 34.4034 32.4515 34.4247 32.4166L34.5059 32.5075ZM34.9756 30.3104C34.9261 30.3703 34.847 30.4717 34.7675 30.5726C34.4861 30.5005 34.2161 30.4415 33.9608 30.4022C33.9042 30.3331 33.8481 30.2654 33.7951 30.2025C34.0602 30.1478 34.4861 30.0547 34.8996 29.9612C35.09 30.1251 35.185 30.0783 34.9756 30.3104ZM35.253 29.9739L35.223 29.89L35.3555 29.8602L35.253 29.9739ZM33.7902 24.0663L33.7933 24.061C33.9122 23.867 34.0681 23.6091 34.2095 23.3705C34.2351 23.3268 34.2661 23.2752 34.331 23.1642C34.3549 23.124 34.384 23.0733 34.4384 22.9802C34.4927 22.8871 34.5731 22.7472 34.6654 22.5868C35.3316 24.6847 36.0221 26.2974 37.4412 27.8315C37.2874 27.9962 36.8982 28.293 36.7007 28.4787C35.9466 26.8206 35.0308 25.3429 33.644 24.3084C33.6904 24.2301 33.739 24.1502 33.7902 24.0663ZM32.6089 25.9211L32.612 25.9237C32.8382 25.6034 33.0304 25.3062 33.2782 24.9054C34.5002 26.9914 35.1337 27.5998 36.4326 28.7283C36.3548 28.7947 35.9705 29.1898 35.7019 29.4761C35.4441 29.3703 35.186 29.2752 34.9274 29.1907C34.3367 27.8795 33.534 26.7541 32.6089 25.9211ZM32.904 27.8878C33.1456 28.2313 33.4095 28.5589 33.6939 28.8686C33.2073 28.7724 32.7138 28.7139 32.2179 28.6938C31.9782 28.5067 31.734 28.3341 31.4855 28.1758C31.7209 27.6016 31.952 27.1116 32.1543 26.7213C32.4742 27.2598 32.6588 27.5413 32.904 27.8878ZM30.442 27.0203C30.8559 26.7812 31.1674 26.5758 31.7426 26.1287C31.4205 26.7454 31.1466 27.321 30.9151 27.8437C30.5539 27.6494 30.1775 27.4842 29.7894 27.3498C30.0132 27.2523 30.231 27.1425 30.442 27.0203ZM27.493 31.5962L27.6256 31.5525L27.6508 31.6194L27.493 31.5962ZM27.8222 29.699C27.6729 29.3629 27.1489 28.2694 27.0142 27.9272C27.7652 27.8835 28.6616 27.7838 29.3362 27.5277C29.751 27.9324 30.3549 28.515 30.5498 28.6942L30.5542 28.6986C30.5449 28.7226 30.5352 28.7462 30.5259 28.7698C30.2299 28.5862 29.4789 28.2646 29.1829 28.182C29.1762 28.1916 29.4643 28.5369 29.8045 28.9337C29.2359 29.0552 28.3435 29.4145 27.9105 29.6583C27.8856 29.68 27.855 29.6941 27.8222 29.699ZM29.2686 33.4961C29.2244 33.365 29.163 33.1792 29.1007 33C29.1745 33.0538 29.2474 33.1058 29.3181 33.1556C29.2995 33.2719 29.283 33.3854 29.2686 33.4961ZM29.4895 32.2076C29.3802 32.1561 29.2709 32.1074 29.1617 32.0617C29.2792 32.0813 29.3945 32.0988 29.5089 32.1141C29.5018 32.1456 29.4957 32.1766 29.4895 32.2076ZM28.8604 31.5892C28.7362 31.6871 28.6881 31.7509 28.6276 31.6574C28.2997 30.9201 28.0864 30.2859 27.907 29.9192L28.3271 30.0333C28.6094 30.3095 29.1727 30.851 29.516 31.1696C29.286 31.2915 29.0671 31.4318 28.8604 31.5892ZM29.5204 30.3126C29.6578 30.3379 29.8049 30.3615 29.9529 30.3825C29.9397 30.4262 29.9273 30.4651 29.9162 30.5027C29.7843 30.4345 29.6526 30.3712 29.5204 30.3126ZM29.8738 38.3543C29.907 38.4855 29.945 38.6332 29.9834 38.7848L29.9021 38.7521C29.8919 38.6205 29.8822 38.4881 29.8743 38.3526L29.8738 38.3543ZM29.9595 39.3159C30.013 39.3233 30.0664 39.3294 30.1199 39.3351C30.1711 39.6476 30.2966 39.6847 29.9874 39.5466C29.9794 39.4666 29.9692 39.3915 29.96 39.3132L29.9595 39.3159ZM30.024 39.7848L30.2189 39.7367C30.3231 40.2031 30.5453 41.2319 30.601 41.5186L30.4141 41.4644C30.2396 40.9147 30.1093 40.3522 30.0245 39.7822L30.024 39.7848ZM30.5065 41.7341C30.5447 41.7147 30.5848 41.6992 30.6262 41.6877C30.6337 41.6877 30.6925 41.9937 30.7587 42.3477C30.6704 42.1554 30.5864 41.95 30.5069 41.7314L30.5065 41.7341ZM30.9041 40.3587C30.9103 40.3062 30.863 40.2144 30.9107 40.2415C30.9067 40.283 30.905 40.3219 30.9032 40.356L30.9041 40.3587ZM30.9482 39.884C30.9482 39.8984 30.9438 39.9129 30.9421 39.9277L30.8374 39.9338L30.7362 39.3709C30.8433 39.3682 30.9505 39.3709 31.0574 39.3792C31.0115 39.5444 30.9755 39.7121 30.9496 39.8814L30.9482 39.884ZM30.8564 39.2223C30.8025 39.1904 30.7477 39.1594 30.6929 39.1292C30.6204 38.7359 30.5096 38.1144 30.5096 38.1026L30.5453 38.1052C30.7008 38.1716 31.0406 38.3587 31.2522 38.4623C31.1983 38.7145 31.1298 39.089 31.0795 39.3539L30.8564 39.2223ZM47.619 45.4927C47.5717 45.9472 47.2603 46.7497 47.3946 47.3139C47.3212 48.0949 46.4368 47.8073 46.4589 48.8746C46.412 49.3016 46.4531 49.5245 46.4019 49.6613C46.2751 50.0516 45.5183 50.0835 45.1375 50.0809C44.9095 50.0809 44.7439 50.2653 44.5482 50.3256C44.1682 50.4152 43.6977 50.243 43.4561 49.8637C42.9736 48.7361 44.2027 47.9227 44.4691 47.5613C45.0695 46.508 45.103 46.279 45.8523 45.6046C46.1761 45.3463 46.4545 44.6772 46.5733 44.449C47.1719 44.0753 47.7471 45.0172 47.6203 45.4901L47.619 45.4927Z" fill="#1B1B1B"/>
</svg>
