<svg width="65" height="65" viewBox="0 0 65 65" fill="none" xmlns="http://www.w3.org/2000/svg">
<path d="M61.6947 23.7839C60.8284 21.8229 59.0966 21.0877 57.8954 20.8758C57.4536 20.3754 56.2608 19.3732 55.7218 19.5026C57.948 22.1144 54.5352 20.0572 54.0134 20.5078C54.0748 20.5257 56.5904 21.8858 55.546 22.4308C55.0768 22.2953 53.9799 21.8513 53.3689 21.9986C51.7458 22.0488 56.377 23.0693 55.0145 24.259C54.6523 24.464 54.1199 23.988 53.2319 23.9155C50.8145 23.693 55.2111 24.9622 54.7844 26.4591C54.2918 27.2502 52.0806 25.5129 51.9313 26.2406C52.4782 26.6676 53.6286 27.4036 53.8844 28.3974C53.7386 28.6828 53.5809 28.9813 53.4091 29.2877C52.8966 29.0438 51.1118 28.1374 50.993 28.532C51.4595 28.9254 52.4363 29.7741 52.5997 30.619C52.3881 30.938 52.1624 31.2575 51.9211 31.5722C51.1926 30.9704 49.4622 30.1124 49.6031 30.49C49.8311 30.6649 51.0707 32.2583 50.9726 32.6928C50.7076 32.976 50.5039 33.1713 50.2941 33.4358C49.7493 32.8886 48.3617 32.1382 48.4085 32.417C49.9632 34.7828 49.217 34.7771 48.6029 35.5743C45.9336 32.7072 47.7684 35.0498 47.4264 36.3212C47.2603 36.3089 47.073 36.4392 46.6988 36.6813C44.9462 34.8234 45.5943 35.8098 45.8197 36.6376C46.1452 38.0768 45.1852 39.1161 44.8358 39.4238C44.2836 39.884 43.5838 40.0602 42.5208 40.6961C39.7623 42.1383 39.928 43.0758 38.8938 44.3105C36.6897 46.56 34.7242 45.414 33.3313 43.349C33.1696 42.9495 33.1842 42.7253 33.1294 42.2795C33.1373 42.1567 33.1426 42.0575 33.1453 41.8827C34.2683 42.7423 35.1245 43.1405 36.4949 43.2642C37.3003 43.4254 37.8582 43.654 37.8644 43.574C37.9086 43.4901 37.4103 43.1453 36.9738 42.8835C35.5923 42.0968 35.6692 42.217 33.1475 41.634C33.1475 41.3071 33.1391 40.905 33.1431 40.3477C33.9404 40.7617 34.7784 41.094 35.644 41.3394C36.0045 41.5365 36.3376 41.71 36.3363 41.6973C36.3035 41.6227 36.2629 41.5517 36.2152 41.4854C36.9866 41.7039 39.7239 42.0138 40.0981 42.0146C39.6868 41.6851 38.2103 40.8914 37.5357 40.6545C37.2472 40.2837 36.917 39.9464 36.5514 39.6493C40.0707 40.4264 39.6833 40.4705 38.1021 39.395C38.5094 39.5554 38.8708 39.6952 38.873 39.69C37.9148 38.2595 35.8517 37.3067 34.1017 36.9466C34.103 36.9404 34.1049 36.9344 34.1075 36.9287C34.8333 37.1012 35.5762 37.1938 36.3226 37.2049C37.0599 37.6747 39.245 38.5051 39.9519 38.7359C39.996 38.7617 39.8136 38.5436 39.6369 38.3465C39.1469 37.8058 38.7652 37.5051 38.2263 37.1503C38.9459 37.1 39.856 37.0441 39.7751 37.024C38.2832 36.145 36.2382 35.5913 34.6337 35.6101C34.7861 35.2653 34.9155 35.2578 35.0569 34.788L35.1267 34.6495L35.1824 34.6455C36.6924 35.8994 38.3932 36.3413 40.7555 36.9514C40.854 36.9724 40.8955 37.0012 40.8823 36.968C39.5026 35.4737 37.5326 34.8632 35.6829 34.5948C36.5121 34.4956 37.5618 34.253 38.3999 34.0656C39.0846 34.5179 41.3346 35.4702 41.7906 35.6337C40.8465 34.1914 39.0926 33.1359 37.0776 32.5612C36.847 32.4878 36.5475 32.4423 36.4507 32.3947C36.4459 32.3685 36.9018 31.7256 37.052 31.5162C39.0921 32.8899 41.6417 33.1678 43.6576 33.486C42.0283 31.9795 39.4469 31.4437 37.1801 31.3733C37.1655 31.3611 37.3193 31.1522 37.5539 30.862C37.5936 30.8427 37.6148 30.8301 37.6131 30.8257C37.6063 30.8212 37.5988 30.8178 37.591 30.8156C37.6988 30.6815 37.9497 30.383 38.0676 30.2427C40.0654 31.6412 42.3971 31.9699 44.6206 32.3768C43.0302 30.8406 40.4073 30.1867 38.1816 30.1168L38.221 30.0674C38.3345 29.9324 38.7891 29.442 38.9967 29.2287C41.0643 30.4677 43.3262 30.6347 45.8373 30.8895C44.7413 30.0123 43.2626 29.4625 41.51 29.2396C38.7308 28.8926 38.5567 29.6741 40.137 28.1754C40.4718 27.9001 40.8549 27.5635 40.8796 27.5867C42.7727 28.6173 44.4943 28.7514 46.807 28.9582C46.8826 28.9582 46.9276 28.9861 46.8729 28.9346C45.1817 27.6662 42.9662 27.397 40.9653 27.5002C41.3351 27.2178 42.2465 26.5854 42.281 26.5946C43.4459 27.3682 45.0094 27.5898 46.0445 27.7283C45.2012 26.9416 43.7229 26.5417 42.3384 26.554C42.5217 26.4268 43.2131 26.0295 43.4552 25.9045C44.5049 26.6545 46.1987 26.9071 47.2064 27.0408C46.1961 26.172 45.0063 25.9189 43.5838 25.8608C43.5582 25.8608 43.5573 25.849 43.6545 25.7961C43.9871 25.6213 44.6361 25.3127 44.9573 25.1777C46.0176 25.6628 47.0337 25.7428 48.6126 25.7371C48.8286 25.734 48.9877 25.7445 48.947 25.7249C47.8399 25.0361 46.322 24.9688 45.0775 25.141C45.0768 25.1413 45.076 25.1414 45.0752 25.1414C45.0745 25.1414 45.0737 25.1413 45.073 25.141C45.0633 25.1257 45.4503 24.9771 45.8183 24.8394C46.0131 24.7588 46.2217 24.7156 46.4328 24.7122C47.6036 24.7996 48.8017 24.4373 50.0997 24.0619C48.3065 23.6017 46.8835 24.4246 45.3284 24.7808C46.0326 23.6008 46.5 22.0388 46.2698 21.0628C45.7839 22.1118 45.157 23.7205 45.2007 24.8215C45.1124 24.849 44.7943 24.9557 44.7492 24.9657C45.1468 23.6161 45.1746 22.145 44.6869 21.1197C44.4068 22.8932 44.3534 24.0326 44.6639 24.9954C44.4545 25.0654 44.1581 25.1781 43.6306 25.3792C43.9871 24.1117 44.0724 22.7131 43.5423 21.6113C42.8076 26.2598 44.2933 25.0684 42.7815 25.7489C42.5924 24.5759 41.9478 23.0523 40.9631 22.3709L40.9892 22.4583C41.3969 23.7516 42.0181 25.1191 42.7404 25.7747C42.5566 25.8621 41.9964 26.1562 41.8091 26.2515C41.586 25.0872 41.0024 23.7686 40.027 23.054L40.0526 23.1415C40.5134 24.5571 41.0338 25.6584 41.6762 26.3319C41.522 26.3778 40.7042 27.0312 40.7647 26.7742C40.3309 24.7148 38.9773 22.5527 37.7403 21.8941C38.6 24.1397 39.3912 25.7786 40.6813 26.9421C40.5792 26.9958 39.7226 27.6256 39.5671 27.7405C39.173 25.4067 38.3778 23.3665 37.0431 21.9142C38.6234 19.1569 38.987 17.3881 38.5717 14.862C38.4012 13.9586 38.1299 13.2318 37.7023 12.3708C37.7129 12.3708 37.7239 12.3673 37.7359 12.3646C37.9736 12.296 38.2081 12.2917 38.4502 12.1977C38.5722 12.182 38.6406 12.244 38.6795 12.1129C38.5214 11.8826 38.6292 11.6103 38.6137 11.2825C38.6177 11.0356 38.5253 9.68464 38.1428 10.3931C38.0579 10.5513 37.6387 10.4565 37.8114 10.3402C38.3314 10.1217 38.3204 9.58761 38.0129 9.27425C38.2338 9.16411 38.2779 8.92199 38.1255 8.73099C38.1224 8.65713 38.2139 8.55355 38.2943 8.67986C38.3694 8.79262 38.3707 8.78868 38.3946 8.92942C38.4189 9.70474 39.3524 9.40362 39.712 8.86386C39.9474 8.52121 39.8445 8.39315 40.2054 8.05313C40.2912 7.90803 40.1613 7.87131 40.1856 7.71223C40.2969 7.51206 40.1529 7.22623 40.1758 6.94914C41.0073 6.65325 40.6508 6.07503 41.0152 5.65415C41.0594 5.56674 40.8036 5.47278 40.8049 5.31063C40.7758 5.12488 40.2346 4.85784 39.8692 4.74552C39.2627 4.5353 39.3029 5.24813 39.048 4.93389C39.2194 4.82594 39.2901 4.4728 39.4204 4.32202C39.4054 4.18041 39.3868 4.00865 39.3683 3.82422C39.4314 3.48856 39.5631 3.25605 39.135 3.05151C39.0599 2.76481 38.5505 2.37801 38.1215 2.35223C38.4348 2.12278 38.2731 1.68223 38.1825 1.33346C38.1096 1.17525 37.9263 1.13548 37.8945 0.948856C37.3922 0.817741 36.7874 0.766606 36.1821 1.02141C36.1609 0.824734 36.0213 0.850083 35.8857 0.776658C35.925 0.570807 35.6281 0.546332 35.5764 0.334362C35.432 0.375445 35.2084 0.305517 35.0392 0.338733C35.0083 0.295027 34.995 0.244767 34.8735 0.277545C34.4799 0.421335 34.1755 0.62675 34.0001 0.874995C33.8707 1.11362 34.3023 1.22726 34.066 1.43092C33.9374 1.09352 33.6259 0.9187 33.3304 0.979887C33.4051 0.922196 33.2822 0.704545 33.4011 0.697552C33.8327 0.549391 33.3375 0.0883021 33.041 0.0419747C32.7344 -0.0567989 32.0249 0.0170628 31.8875 0.281479C31.7678 0.412594 31.6401 0.579111 31.5619 0.68007C31.554 0.696678 31.5005 0.803318 31.4519 0.904277C31.1754 0.986006 31.0791 0.674825 30.9218 0.904277C30.3735 1.34701 30.1553 0.713723 29.6322 1.64333L29.6163 1.64595C29.4542 1.64989 29.296 2.01701 29.2739 2.11535C29.053 2.03799 29.7674 1.51003 29.1105 1.29325C29.0168 1.29631 28.2145 1.24955 28.192 1.52358C28.0153 1.48774 27.8315 1.60225 27.7294 1.73162C27.6358 1.76046 27.4083 1.74342 27.4719 1.95014C27.3146 2.29497 26.6983 3.29713 27.3937 3.46321C27.5841 3.47851 27.7339 3.33865 27.964 3.37974C28.0436 3.489 27.718 3.47152 27.5713 3.52877C27.4498 3.56155 27.3 3.7473 27.2815 3.81548C27.2775 3.82378 27.274 3.83208 27.27 3.84126C27.2059 3.90289 27.2408 4.02089 27.1878 4.11136C26.997 4.1673 27.0822 3.72938 27.0372 3.66644C26.8998 3.36706 26.4103 3.18569 26.1602 3.38586C25.953 3.37886 25.8819 3.40071 25.8797 3.7792C25.8302 4.11223 25.5077 3.97937 25.8245 4.39632C26.0489 4.7783 26.8406 5.04097 26.5057 5.17471C26.3546 5.23852 26.1934 5.30976 26.1342 5.5073C26.0188 5.60739 25.8691 5.99593 25.7432 6.08246C25.411 6.20571 25.0209 6.53044 24.6321 6.83288C24.5247 6.93428 24.6723 6.93471 24.6895 7.08112C24.4775 7.50812 24.7907 7.98189 25.2289 8.11869L25.2488 8.12655C25.0721 8.25067 24.902 8.93247 24.8322 9.14488C24.8534 9.2253 24.883 9.43465 24.7739 9.56227C24.8419 9.61733 25.039 9.69338 25.0765 9.82056C25.5952 10.2231 25.1989 10.0963 25.4176 10.324C25.5528 10.3787 25.6332 10.3752 25.7825 10.512C25.6199 10.9997 25.6022 11.2226 25.9654 11.4879C25.9415 11.6348 26.306 11.8376 26.4001 11.8952C26.5525 11.9901 26.6382 12.1741 26.8825 12.1417C27.0292 12.0932 27.0729 12.0242 27.1374 11.9079C27.2488 11.8703 27.4683 12.0775 27.6018 11.8546C27.7228 11.9857 28.2304 11.7672 28.1195 11.942C27.4445 12.0631 27.4772 12.5574 27.6866 13.3843C27.7387 13.5945 27.8951 13.4957 27.9958 13.8047C28.1032 14.0149 28.1796 13.7545 28.2914 13.8047C28.4204 13.8261 28.5949 13.8808 28.6541 13.8886C28.685 13.8716 28.6855 13.7881 28.7866 13.8161C29.0217 14.0014 29.8911 13.685 29.8995 13.3707C29.9993 12.9774 29.5496 12.8777 29.5624 12.6334C29.6689 12.3861 29.7453 13.1985 30.1014 12.5762C30.1756 12.6199 30.4796 12.5836 30.6249 12.5784C30.7676 12.5945 30.8051 12.6959 30.89 12.7147C30.9452 13.3318 31.8248 13.9022 32.2595 13.2339C32.4477 13.0661 32.3072 13.4485 32.1928 13.5399C31.9423 13.9647 32.6381 14.5451 32.8899 14.6063C33.0437 14.65 33.1024 14.5717 33.307 14.5997C33.4722 14.6329 33.572 14.6871 33.6697 14.5997C33.9254 14.3494 34.2047 14.1237 34.5038 13.9258C34.984 13.4695 35.1134 12.9079 34.5824 12.5941C34.4499 12.5268 34.1552 12.7567 34.0854 12.4953C34.0854 12.4346 34.1296 12.4381 34.1967 12.4599C34.6911 12.6282 34.7799 11.855 34.5625 11.6732C34.8033 11.7449 35.041 11.3695 34.9959 11.6693C35.0728 12.6985 36.6857 12.9027 36.6093 11.8817C36.6173 11.838 36.6058 11.8148 36.6866 11.8196C37.1726 12.0281 36.1843 12.2445 37.0741 12.4027C38.0964 14.4686 38.2669 17.0546 37.7752 19.1529C37.4337 20.4234 37.2596 20.6983 36.6955 21.5567C36.5841 21.4466 36.175 21.0921 36.2046 21.1406C36.202 21.145 36.3098 21.4859 36.445 21.9059C36.2727 22.141 36.0849 22.3902 35.8813 22.6686C35.4991 23.193 35.2044 23.5759 35.0043 23.8722C34.4017 23.5326 34.4773 23.5296 34.8276 24.1467C34.7591 24.2621 34.7158 24.3438 34.5533 24.6344C32.2409 24.4941 30.2379 25.6396 28.9081 27.4713L28.8304 27.5871C28.5017 26.9254 27.6309 25.3123 27.3681 24.8717C27.3491 24.8381 27.3393 24.8197 27.4184 24.8106C28.1898 24.7708 28.5671 24.7179 29.137 24.5658C30.5162 24.2599 32.3563 22.8237 33.5142 21.8666C33.8592 21.6966 32.7221 21.6629 32.3872 21.6406C29.9852 21.6275 28.5512 22.6371 27.0323 24.301C26.7827 23.8726 26.2967 23.1524 26.0935 22.7735C29.0336 21.7556 29.9441 20.0887 31.9202 17.2823C30.4146 17.3649 28.7394 18.6477 27.2333 20.2281C26.5534 20.9711 26.3056 21.7036 25.9371 22.5444C25.7299 22.2477 24.6272 20.6323 24.4938 20.4719C26.8883 19.9912 27.8982 18.4873 29.3583 16.608C29.3844 16.5643 29.4025 16.5494 29.3892 16.5389C29.2894 16.5005 28.5896 16.5529 28.3038 16.6202C26.3948 16.9812 25.0677 18.6136 24.4024 20.1721C24.3895 20.2058 24.373 20.238 24.3533 20.2683C24.1355 19.9903 23.411 19.0336 23.1928 18.7552C24.42 18.3269 25.0041 17.5454 25.9543 16.0717L26.0034 15.9804C24.4183 16.0464 23.5113 17.2657 23.0182 18.5284C22.7775 18.2395 22.0317 17.3357 21.7865 17.0485C23.2303 16.6644 23.8532 15.6858 24.7465 14.3156L24.7973 14.2234L24.6533 14.2308C23.0872 14.3419 22.1736 15.7352 21.734 16.9747C19.6753 14.6452 21.6593 17.5704 21.2984 10.8607L21.1906 10.9766C20.2991 12.1369 20.3459 13.9319 20.5973 15.7107C19.8878 14.9616 19.4822 14.5337 19.2074 14.2584C19.8259 13.1771 19.8732 11.7038 19.7667 9.16324C18.8761 10.144 18.7669 12.0867 19.093 14.1417C19.0581 14.1128 18.592 13.6461 18.4824 13.5377C18.7033 11.6444 17.9682 9.21088 17.5547 7.62569C17.0581 9.09681 17.5794 11.2532 18.3106 13.3694C16.2435 11.5264 14.2837 9.06578 11.7333 8.04264C13.4505 9.67896 15.0467 11.2488 16.7732 12.2646C17.0815 12.4754 17.3641 12.7209 17.6152 12.9962C18.1096 13.5141 18.6313 14.0652 18.6132 14.0757C17.1054 12.8856 14.9093 11.4141 13.0829 11.2825C14.2864 12.1321 17.2384 14.0167 18.7696 14.2317C19.2719 14.7946 20.0282 15.6504 20.6039 16.3733C18.9666 15.483 17.3466 14.4065 15.3612 14.594C15.1845 14.5805 16.0597 14.9603 16.6424 15.2605C18.304 16.0844 19.5259 16.5214 20.7651 16.5651C21.0938 16.9585 21.9986 18.1154 22.2314 18.4445C20.3759 17.2172 18.2699 16.3243 16.8593 16.5756C18.5103 17.4725 20.8292 18.5323 22.3056 18.5502C22.3618 18.5773 23.5365 20.2394 24.0109 20.9448C21.7216 19.2434 17.6263 17.0678 15.5057 17.4248C19.1919 19.5345 21.3593 20.7202 24.1324 21.1398C24.53 21.6983 26.006 24.0754 26.3546 24.7673C23.2007 22.6791 19.5511 20.659 16.668 20.9042C19.9624 22.7031 23.1393 24.6764 26.5061 25.016C26.8039 25.5649 27.3429 26.5666 27.513 26.9285C24.8092 25.2559 20.9449 23.3932 18.1471 23.9688C20.9012 25.3127 24.9144 27.2764 27.6548 27.1973C27.9517 27.7877 28.8074 29.5644 28.7261 29.4936C25.8717 27.7454 22.2928 25.8774 19.3558 26.2908C19.1027 26.2563 21.0019 27.1287 22.0066 27.6365C24.7704 28.9503 26.3701 29.6286 28.8829 29.7986C29.0835 30.2558 29.6366 31.5665 29.5898 31.5075C27.1684 30.449 24.7443 29.9857 22.9763 30.3052C22.5234 30.3851 22.2986 30.4852 22.2977 30.4857C21.9495 30.6633 21.63 30.8915 21.3501 31.1627C27.1149 30.8051 27.0274 32.4738 29.353 31.6491C29.4467 31.7247 29.6075 31.8528 29.7921 31.9987C30.0347 32.6421 30.3276 33.4183 30.56 34.0673C30.2781 34.0262 29.4997 34.0302 29.3397 34.0695C29.3168 34.0822 30.1283 34.4655 30.8051 34.7688L31.0057 35.3658C30.8714 35.3177 30.7389 35.274 30.6081 35.2347C28.2667 33.9803 25.0416 32.6867 22.7165 33.399C22.6251 33.4366 22.7028 33.4371 22.7311 33.4567C24.8958 34.3457 28.1257 35.6315 29.8072 35.6346C30.2299 35.8789 30.7504 36.1555 31.1418 36.3339C31.1542 36.538 31.1705 36.7709 31.1908 37.017C30.5748 36.8246 29.9364 36.7109 29.2912 36.6787C27.1366 35.9178 24.747 35.9069 23.7375 36.5913C26.2009 37.371 29.3481 38.301 31.1723 37.8828L31.2748 37.9077C31.2938 38.0939 31.3189 38.3111 31.3455 38.5554C30.5869 38.3259 29.7966 38.2494 29.0959 38.3548C29.5474 38.617 31.0499 39.1375 31.4303 39.2145C31.4347 39.2468 31.4396 39.2791 31.444 39.3124C29.2037 38.4147 26.6515 37.9064 25.0876 38.8316C27.0129 39.4103 29.9472 40.2533 31.5266 39.8853C31.6295 40.4802 31.6269 40.4941 31.8031 41.2874C29.2991 40.6318 27.3146 40.714 26.0325 41.8381C27.7555 42.1296 30.6271 42.5474 31.9635 41.9574C32.0806 42.3311 32.6346 44.2371 32.5449 44.5128C32.2719 45.9503 30.3501 47.0591 28.7946 46.3366C28.5366 46.2213 28.3413 46.1273 28.1553 45.9726C27.5227 45.1719 25.4604 43.9049 25.107 43.095C24.9519 42.7384 24.9409 42.3896 24.5954 41.8062C24.0763 40.9679 23.6416 40.6489 23.2895 40.3163C22.7678 39.9277 22.1992 38.8526 21.92 38.3255C21.358 37.4846 20.6781 37.0685 20.527 36.7643C20.1599 36.2762 21.7035 35.6564 22.2579 35.5126C21.7941 34.4252 18.6265 35.8706 19.7062 34.5948C20.4312 33.479 21.7035 33.594 21.7433 33.2924C20.6679 32.5708 17.7716 33.6477 18.8275 32.3707C19.0453 32.021 20.1405 31.3217 20.5672 31.0521C20.9798 30.2837 17.7429 31.5136 17.5065 31.2352C16.85 30.5495 19.3682 28.8362 19.5714 28.8489C20.0176 27.942 16.638 29.2737 16.5253 29.3004C15.2764 29.4088 17.4796 27.015 18.1864 26.5623C17.5587 26.0225 15.0321 27.6339 14.8474 27.5128C13.6732 27.2624 16.285 24.7699 16.3795 24.6554C15.3396 23.9697 13.1134 26.8577 13.022 25.6409C12.8621 24.6357 14.335 23.4867 14.4534 23.1777C13.4898 22.7232 11.5632 25.6165 11.5915 24.245C11.6635 22.8998 12.8051 22.1332 13.0008 21.9365C13.2446 21.7232 12.1989 21.9007 11.5619 22.4531C9.9392 24.3892 10.4132 22.3849 10.7808 21.8701C11.2668 21.1629 11.83 20.7853 11.8729 20.6791C11.9529 20.4833 11.0702 20.5445 10.4044 21.0148C9.90209 21.277 9.51023 22.3285 9.33352 21.9094C8.92354 21.4724 10.8798 20.0642 10.9708 19.9475C8.73622 19.9007 8.81309 21.1874 7.25403 21.3338C4.71377 21.0231 2.1956 24.2913 2.02904 25.0046C2.00209 25.1615 1.98487 25.2087 2.01888 25.4141C2.48452 26.8564 1.70963 28.2226 2.13065 29.2964C2.19544 29.4707 2.25089 29.6483 2.29677 29.8283C2.8004 31.8764 2.93956 33.7137 3.10656 34.1884C3.55629 35.7355 4.83791 37.083 6.50123 39.6952C8.43007 42.6191 10.1968 46.8462 10.9871 49.0481C11.2654 49.7911 11.4868 50.3995 11.6608 50.8291C12.5643 52.5139 11.8216 52.5406 12.1857 53.9322C12.3067 54.5834 12.6778 54.7372 12.7357 55.2525C12.775 55.6297 12.6328 55.7826 12.5771 56.1039C12.4715 57.2953 12.9579 57.7887 13.9908 57.9329C14.813 58.3612 13.6502 58.7926 14.6606 59.7039C15.9545 60.8931 17.074 61.4521 18.2549 62.2388C19.5803 63.1094 20.2173 62.7418 20.4444 64.1133C20.4787 64.2106 20.5458 64.2933 20.6344 64.3475L21.7163 64.2824C23.0483 63.8738 22.8716 63.6867 24.1395 63.869C26.8454 64.0525 26.1443 64.8952 27.592 64.9966C29.8805 65.0923 29.8756 63.1539 30.6315 63.8165C30.7267 63.8843 30.8412 63.9205 30.9584 63.9197C31.303 63.9293 31.7205 63.7252 32.0077 63.4118C32.8873 62.1942 31.3918 62.0272 33.0295 61.175C33.2836 60.8284 33.3936 60.2768 33.1356 59.9748C33.1134 59.9538 33.0877 59.9368 33.0596 59.9246C32.8904 59.8498 31.8115 59.5474 31.7925 59.5679C31.5222 59.5343 31.288 59.9879 30.9646 59.9879C29.433 59.7961 31.117 58.4058 31.6715 58.0155C35.7646 55.4999 34.4693 56.7953 37.5366 57.554C38.7705 57.8547 39.765 57.7996 40.459 57.9836C41.3046 58.1147 41.3669 59.3048 42.2796 58.7799C43.2074 58.2153 43.2772 57.8184 43.4649 57.7009C44.1099 57.1257 45.7927 55.8936 46.451 55.5278C55.0242 50.8763 55.0216 49.0158 56.2369 43.873C57.4143 39.0965 58.8877 35.2434 60.5223 31.1854C61.3316 28.8664 62.5823 25.7528 61.6947 23.7839ZM26.052 8.23887C26.0566 8.25337 26.0631 8.26719 26.0714 8.27996C26.0073 8.2292 25.9481 8.17257 25.8947 8.11082L25.8828 8.09858C25.9042 8.05 25.9413 8.00986 25.9884 7.98451C25.9976 7.99506 26.0074 8.00498 26.018 8.01423L26.0869 8.07148C26.0635 8.13005 26.033 8.17725 26.052 8.23887ZM30.1297 2.451C30.1858 2.47897 30.2807 2.69662 30.1076 2.62145C30.1138 2.56464 30.1442 2.54846 30.1297 2.451ZM30.0532 6.80753C30.1707 6.89494 30.1155 7.00683 30.0038 7.1292C30.0164 7.04587 30.0329 6.93865 30.0532 6.80753ZM28.8003 4.78835C29.0654 4.56152 29.1493 4.38102 29.4188 4.1743C29.4559 4.2097 29.4997 4.24947 29.5514 4.29361C29.4511 4.35305 29.0446 4.81108 28.8821 5.03266C28.7937 5.04665 28.8189 5.13668 28.7455 5.22934C28.5401 5.42732 28.7045 4.99814 28.4721 4.97366C28.6236 4.94351 28.5839 4.96886 28.7981 4.78835H28.8003ZM27.9985 4.96317C28.0358 4.90531 28.059 4.83963 28.0662 4.77135C28.0734 4.70308 28.0645 4.63408 28.04 4.56983C28.1637 4.5978 28.5123 4.43347 28.5176 4.47062C28.4319 4.61353 28.1275 4.78748 28.3267 4.95137C28.2998 4.95137 28.272 4.95137 28.2437 4.95137C28.2446 4.94141 28.2426 4.9314 28.2379 4.92253C28.2145 4.87882 28.116 4.87096 28.0811 4.96623C28.0489 4.97017 28.017 4.97454 27.9861 4.97934C27.9883 4.9741 27.9927 4.96842 27.9963 4.96317H27.9985ZM29.0588 9.92677C29.0088 9.90928 28.9625 9.8953 28.9218 9.88306L28.8675 9.86077C28.9607 9.84766 29.0561 9.83062 29.1524 9.80833C29.1168 9.84449 29.0849 9.88418 29.0574 9.92677H29.0588ZM28.5348 9.25764C28.2039 9.32932 28.0383 9.36472 27.9892 9.36122C27.9665 9.35882 27.9436 9.35765 27.9207 9.35773C28.1416 9.1121 28.0974 9.11298 28.1103 8.87959C28.6082 9.02557 28.955 9.00808 29.3402 8.99716C29.6013 8.99366 28.8604 9.19252 28.5348 9.25764ZM30.2414 8.04264C30.0921 8.07977 29.947 8.13206 29.8085 8.19867C29.4075 8.2298 29.005 8.23608 28.6033 8.21746C28.6992 8.13748 28.78 7.87175 28.7168 7.73452C28.6727 7.42071 28.9245 7.59859 28.9819 7.82673C29.1988 8.13267 29.5735 7.91152 29.8429 7.58199C29.8398 7.72403 30.0802 7.92289 30.3408 8.01467C30.3024 8.02428 30.2684 8.03433 30.2414 8.04264ZM32.5922 2.14769C32.6283 2.13097 32.6568 2.10129 32.6717 2.06465C32.7232 2.11646 32.7618 2.17947 32.7843 2.24865C32.7212 2.20008 32.6471 2.16752 32.5683 2.15381C32.5765 2.15295 32.5846 2.15089 32.5922 2.14769ZM32.4446 2.14244C32.464 2.14021 32.4836 2.14139 32.5025 2.14594C32.4766 2.1446 32.4506 2.1446 32.4247 2.14594C32.4312 2.14422 32.4379 2.14305 32.4446 2.14244ZM31.6794 7.85296C31.6432 7.89666 31.6127 7.94037 31.5875 7.97664C31.5014 7.95262 31.4118 7.94302 31.3225 7.94823C31.4356 7.74234 31.5379 7.53081 31.6291 7.31451C31.709 7.37045 31.85 7.50725 32.0134 7.5291C31.9401 7.60559 31.8416 7.64929 31.6794 7.85296ZM32.1831 9.06359C32.1955 9.05519 32.2092 9.04885 32.2237 9.0448L32.1831 9.06359ZM32.9946 8.47488C32.9465 8.56229 32.8979 8.6497 32.8511 8.73711C32.6661 8.84122 32.4754 8.9349 32.2798 9.0177C32.5498 8.86954 32.2767 8.43118 32.1256 8.2415C32.2323 7.98837 32.3245 7.72952 32.4018 7.46617C32.5335 7.40888 32.6558 7.33226 32.7645 7.2389C32.9575 7.50944 33.1073 7.88311 33.2036 8.13791C33.1276 8.24624 33.0578 8.35874 32.9946 8.47488ZM33.7108 3.80324C33.6476 4.29011 33.6153 4.24379 33.5575 4.66467C33.5248 4.66467 33.2871 5.11527 33.1241 5.41771C33.0975 5.38321 33.0679 5.35104 33.0357 5.32156C33.0463 4.95574 32.9619 4.12535 32.8281 3.66732C32.9606 3.57728 32.9862 3.56505 33.1104 3.38629C33.3039 3.3994 33.508 3.47851 33.7501 3.44661C33.7413 3.54582 33.7289 3.66382 33.7108 3.80324ZM34.6328 4.59998C34.6014 4.45401 34.5387 4.33469 34.3567 4.32246C34.394 4.2334 34.4209 4.14044 34.4371 4.04537C34.5497 4.13278 34.5373 4.36922 34.68 4.47542C34.6637 4.52 34.6478 4.56196 34.6328 4.59998ZM35.2106 3.06025C34.9822 3.0856 34.4834 3.305 34.4521 3.54975C34.4521 3.54669 34.4521 3.54363 34.4521 3.54057C34.4512 3.42523 34.4385 3.31027 34.4141 3.19749C34.4834 3.22494 34.5572 3.23975 34.6319 3.24119C34.8625 3.19749 35.1828 2.93526 35.3387 2.77355C35.299 2.84828 35.2579 2.94356 35.2106 3.06025ZM36.3204 9.26638C36.2621 9.09462 36.5377 9.08719 36.5855 8.93553C36.6412 8.98094 36.7002 9.02214 36.7622 9.05878C36.4993 9.1392 36.3619 9.29698 36.3204 9.26289V9.26638ZM37.5888 3.05413C37.5622 3.0891 37.5234 3.19836 37.4249 3.2495C37.2959 3.21584 37.4545 3.11838 37.4898 2.95449C37.4982 2.74295 37.4545 2.66603 37.3131 2.51743C37.9214 2.43002 37.2791 2.05547 37.9166 2.36796C37.5706 2.49208 37.6519 2.77748 37.5888 3.05413ZM5.48999 30.6544C6.15487 33.9646 3.96141 32.5547 3.84699 30.6981C3.8735 29.7803 3.67602 29.8878 3.42818 29.3371C3.37649 29.0076 3.32657 28.0867 3.34335 27.7943C3.48119 26.7878 3.96583 26.2179 4.31837 25.9617C4.94482 25.5618 5.90173 27.0544 5.84518 27.7126C5.84191 27.8508 5.80813 27.9867 5.74622 28.1107C5.25805 28.8616 5.34773 30.0067 5.48999 30.6544ZM10.9955 37.2538C9.70152 36.0218 10.9712 34.9239 11.3989 35.4038C11.5756 35.5948 11.6414 35.9409 11.8773 36.0677C12.1424 36.2172 12.3681 35.8929 12.7264 35.878C13.5044 35.7906 14.4176 36.3557 14.3354 36.7421C14.2435 36.9781 13.6347 37.3815 13.3374 37.4968C13.0626 37.6004 12.9455 37.4335 12.5864 37.5012C11.9878 37.8023 11.5557 37.6931 10.9937 37.256L10.9955 37.2538ZM14.3699 49.7518C13.8185 48.8536 13.7664 48.518 13.026 46.8764C12.2528 45.5032 11.9383 43.7607 11.9091 42.3892C11.9034 39.9854 12.0766 39.4505 14.0107 38.4601C14.1843 38.3836 14.8501 38.2346 15.0763 38.6223C15.1523 38.8382 15.0688 39.2485 15.09 39.4277C15.0246 41.0011 16.2925 43.0553 16.6901 44.0019C16.9053 44.4827 17.4959 45.1146 18.148 45.9979C18.4065 46.3406 19.1098 46.2235 19.309 46.4057C19.548 46.6059 19.389 46.6902 19.5374 47.209C19.6797 47.6989 19.901 47.8606 19.9072 48.0967C19.6024 49.5796 17.7924 48.5311 17.1173 48.768C16.3159 49.0302 16.6755 49.7417 16.1971 50.0079C15.7792 50.1665 15.5759 50.5406 15.4624 50.8295C15.1841 51.0546 14.5612 50.0546 14.3699 49.7518ZM20.7757 50.9917C19.9518 51.4029 19.6832 52.3562 19.9006 52.9409C20.0035 53.8347 19.9249 54.5384 19.4239 55.1957C17.8776 57.0623 17.6223 55.9448 16.5563 56.8853C16.5133 56.9174 16.464 56.9402 16.4116 56.9523C16.3592 56.9645 16.3048 56.9656 16.2519 56.9557C16.0575 56.9185 16.0486 56.7511 15.6904 56.5623C14.9451 56.3036 14.7578 56.3665 15.0436 55.6708C15.211 55.1992 15.8741 54.9278 16.1114 54.4164C16.3411 53.7757 16.7471 53.4396 17.3126 52.8168C17.731 52.3046 17.6444 52.2412 18.0097 51.8378C18.8491 50.8138 22.2067 49.5245 22.7907 50.1289C22.5968 51.3107 21.3448 50.6709 20.7757 50.9917ZM30.4871 53.2338C30.4398 53.4449 30.2494 53.4435 29.8337 53.8059C29.3234 54.2503 29.2744 54.5287 29.1242 54.6384C28.4098 55.1013 27.2656 53.843 26.4028 54.4234C24.0405 55.7953 25.3818 56.8464 24.4368 57.8927C24.2442 58.2284 24.2243 58.6794 24.3365 59.0728C24.5844 60.1947 26.4213 59.7532 26.5384 60.4425C26.7513 61.5556 25.1821 61.8559 24.3555 62.0508C24.1709 62.081 24.1505 62.0653 23.2952 62.0862C22.1068 62.1299 21.9385 62.0967 21.4941 61.609C21.1769 61.1378 21.5891 60.696 21.6575 59.7672C21.7357 58.88 21.5166 58.3564 21.6699 57.9675C21.7136 57.8612 21.7861 57.769 21.8793 57.7009C22.7828 57.2157 22.3688 56.6672 22.5115 56.4024C24.5437 52.3863 25.7701 52.6743 27.0513 52.5126C27.209 52.4549 27.2832 52.4523 27.3261 52.2469C27.1759 51.6901 27.6199 51.5476 28.0166 51.4864C28.7557 51.2946 30.6443 52.6311 30.4871 53.2338ZM33.1713 39.9102H33.1515C33.1868 39.2984 33.3958 39.6917 33.6114 39.8963C33.4585 39.898 33.311 39.9037 33.1713 39.9107V39.9102ZM32.6955 35.8181C32.544 35.854 32.3611 35.8999 32.2564 35.9309C32.153 35.8732 32.0497 35.8181 31.9472 35.7666C31.9295 35.7084 31.9101 35.642 31.8893 35.5699C31.8964 35.4549 31.9047 35.3382 31.9131 35.2202C32.4844 35.429 33.0769 35.5756 33.6803 35.6573C33.349 35.6913 33.0202 35.7452 32.6955 35.8186V35.8181ZM33.6582 36.8185L33.6441 36.8644L33.5424 36.7862L33.6582 36.8185ZM33.3436 37.0095C33.425 37.0191 33.5057 37.0337 33.5853 37.0532C33.5888 37.0576 33.5018 37.4068 33.4492 37.6105C33.0879 37.5073 32.3514 37.5458 32.3483 37.3954C32.3377 37.3517 32.2599 37.0135 32.1954 36.7425C32.5705 36.8611 32.9545 36.9505 33.3436 37.01V37.0095ZM35.7598 40.1222C35.3573 40.0378 34.9502 39.9771 34.5404 39.9404C34.259 39.7258 33.5199 39.4998 33.3034 39.3124C33.3154 39.249 33.4267 38.8827 33.5204 38.589C33.7651 38.7056 34.0113 38.8146 34.259 38.916C34.6761 39.3534 35.147 39.7311 35.7598 40.1222ZM34.2224 37.1642C34.5761 37.5178 34.9649 37.8353 35.3829 38.1118C34.8736 37.936 34.3532 37.7931 33.8252 37.6839C33.8658 37.5646 34.0222 37.1428 34.0699 37.0139L34.2224 37.1642ZM34.3014 34.9401C34.2356 35.111 34.1733 35.2692 34.1649 35.2941C33.5464 35.0682 32.6766 34.5044 31.99 34.3549C31.99 34.3496 31.99 34.3444 31.99 34.3391C32.855 34.5577 33.6149 34.6674 34.4017 34.6722C34.3849 34.7277 34.3469 34.8278 34.3014 34.9414V34.9401ZM32.7168 32.1906C33.1812 32.5437 33.6813 32.8484 34.2091 33.0997C33.863 33.1267 33.5193 33.1772 33.1802 33.2509C32.8737 33.0132 32.5528 32.7942 32.2193 32.5953C32.2427 32.4568 32.2675 32.32 32.2935 32.184C32.4358 32.1913 32.5769 32.194 32.7168 32.1919V32.1906ZM32.6412 30.6749C32.6606 30.6041 32.6796 30.5337 32.6995 30.4643C32.8091 30.4769 33.1272 30.4787 33.2045 30.4922C33.1303 30.5346 32.7923 30.619 32.6412 30.6762V30.6749ZM35.5212 32.4231C35.4267 32.5796 35.2703 32.8689 35.1523 33.0813C35.0803 33.0787 35.0087 33.0769 34.9372 33.0761C34.6547 32.7205 34.3515 32.3816 34.0293 32.0608C34.3397 32.0017 34.6467 31.9266 34.9491 31.8357C35.1103 31.9362 35.4792 32.115 35.6365 32.2068C35.6032 32.2816 35.5647 32.354 35.5212 32.4236V32.4231ZM35.5998 31.8659C35.5623 31.8021 35.5203 31.7348 35.4748 31.6644C35.6741 31.5945 35.9122 31.5075 36.156 31.4161C35.9621 31.6172 35.7523 32.3235 35.5998 31.8663V31.8659ZM36.5059 32.5075C36.8445 32.8768 37.214 33.2171 37.6104 33.5249C37.0781 33.3514 36.531 33.2262 35.9758 33.1508C35.9873 33.1316 36.4034 32.4515 36.4247 32.4166L36.5059 32.5075ZM36.9756 30.3104C36.9261 30.3703 36.847 30.4717 36.7675 30.5726C36.4861 30.5005 36.2161 30.4415 35.9608 30.4022C35.9042 30.3331 35.8481 30.2654 35.7951 30.2025C36.0602 30.1478 36.4861 30.0547 36.8996 29.9612C37.09 30.1251 37.185 30.0788 36.9756 30.3108V30.3104ZM37.253 29.9739L37.223 29.89L37.3555 29.8602L37.253 29.9739ZM35.7902 24.0663L35.7933 24.061C35.9122 23.867 36.0681 23.6091 36.2095 23.3705C36.2351 23.3268 36.2661 23.2752 36.331 23.1642C36.3548 23.124 36.384 23.0733 36.4383 22.9802C36.4927 22.8871 36.5731 22.7472 36.6654 22.5868C37.3316 24.6847 38.0221 26.2974 39.4412 27.8315C39.2874 27.9962 38.8982 28.293 38.7007 28.4787C37.9466 26.8206 37.0308 25.3429 35.644 24.3084C35.6904 24.2301 35.739 24.1502 35.7902 24.0663ZM34.6089 25.9211L34.612 25.9237C34.8382 25.6034 35.0304 25.3062 35.2782 24.9054C36.5002 26.9914 37.1337 27.5998 38.4326 28.7283C38.3548 28.7947 37.9705 29.1898 37.7019 29.4761C37.4441 29.3703 37.186 29.2752 36.9274 29.1907C36.3367 27.8795 35.534 26.7546 34.6089 25.9215V25.9211ZM34.904 27.8878C35.1456 28.2313 35.4095 28.5589 35.6939 28.8686C35.2073 28.7724 34.7138 28.7139 34.2179 28.6938C33.9782 28.5067 33.734 28.3341 33.4855 28.1758C33.7209 27.6016 33.952 27.1116 34.1543 26.7213C34.4742 27.2598 34.6588 27.5408 34.904 27.8874V27.8878ZM32.442 27.0203C32.8559 26.7812 33.1674 26.5758 33.7426 26.1287C33.4205 26.7454 33.1466 27.321 32.9151 27.8437C32.5539 27.6494 32.1775 27.4842 31.7894 27.3498C32.0132 27.2523 32.231 27.1421 32.442 27.0198V27.0203ZM29.493 31.5962L29.6256 31.5525L29.6508 31.6194L29.493 31.5962ZM29.8222 29.699C29.6729 29.3629 29.1489 28.2694 29.0142 27.9272C29.7652 27.8835 30.6616 27.7838 31.3362 27.5277C31.751 27.9324 32.3549 28.515 32.5498 28.6942L32.5542 28.6986C32.5449 28.7226 32.5352 28.7462 32.5259 28.7698C32.2299 28.5862 31.4789 28.2646 31.1829 28.182C31.1762 28.1916 31.4643 28.5369 31.8045 28.9337C31.2359 29.0552 30.3435 29.4145 29.9105 29.6583C29.8856 29.68 29.855 29.6941 29.8222 29.699ZM31.2686 33.4961C31.2244 33.365 31.163 33.1792 31.1007 33C31.1745 33.0538 31.2474 33.1058 31.3181 33.1556C31.2995 33.2719 31.283 33.3854 31.2686 33.4961ZM31.4895 32.2076C31.3802 32.1561 31.2709 32.1074 31.1617 32.0617C31.2792 32.0813 31.3945 32.0988 31.5089 32.1141C31.5018 32.1456 31.4952 32.1766 31.489 32.2076H31.4895ZM30.8604 31.5892C30.7362 31.6871 30.6881 31.7509 30.6276 31.6574C30.2997 30.9201 30.0864 30.2859 29.907 29.9192L30.3271 30.0333C30.6094 30.3095 31.1727 30.851 31.516 31.1696C31.286 31.2915 31.0666 31.4318 30.8599 31.5892H30.8604ZM31.5204 30.3126C31.6578 30.3379 31.8049 30.3615 31.9529 30.3825C31.9397 30.4262 31.9273 30.4651 31.9162 30.5027C31.7843 30.4345 31.6522 30.3712 31.52 30.3126H31.5204ZM31.8738 38.3543C31.907 38.4855 31.945 38.6332 31.9834 38.7848L31.9021 38.7521C31.8919 38.6205 31.8822 38.4881 31.8743 38.3526L31.8738 38.3543ZM31.9595 39.3159C32.013 39.3233 32.0664 39.3294 32.1199 39.3351C32.1711 39.6476 32.2966 39.6847 31.9874 39.5466C31.9794 39.4666 31.9693 39.3915 31.96 39.3132L31.9595 39.3159ZM32.024 39.7848L32.2189 39.7367C32.3231 40.2031 32.5453 41.2319 32.601 41.5186L32.4141 41.4644C32.2396 40.9147 32.1093 40.3522 32.0245 39.7822L32.024 39.7848ZM32.5065 41.7341C32.5447 41.7147 32.5848 41.6992 32.6262 41.6877C32.6337 41.6877 32.6925 41.9937 32.7587 42.3477C32.6704 42.1554 32.5864 41.95 32.5069 41.7314L32.5065 41.7341ZM32.9041 40.3587C32.9103 40.3062 32.863 40.2144 32.9107 40.2415C32.9067 40.283 32.905 40.3219 32.9032 40.356L32.9041 40.3587ZM32.9482 39.884C32.9482 39.8984 32.9438 39.9129 32.9421 39.9277L32.8374 39.9338L32.7362 39.3709C32.8433 39.3682 32.9505 39.3709 33.0574 39.3792C33.0115 39.5444 32.9755 39.7121 32.9496 39.8814L32.9482 39.884ZM32.8564 39.2223C32.8025 39.1904 32.7477 39.1594 32.6929 39.1292C32.6204 38.7359 32.5096 38.1144 32.5096 38.1026L32.5453 38.1052C32.7008 38.1717 33.0406 38.3587 33.2522 38.4623C33.1983 38.7145 33.1298 39.089 33.0795 39.3539L32.8564 39.2223ZM49.619 45.4927C49.5717 45.9472 49.2603 46.7497 49.3946 47.3139C49.3212 48.0949 48.4368 47.8073 48.4589 48.8746C48.412 49.3016 48.4531 49.5245 48.4019 49.6613C48.2751 50.0516 47.5183 50.0835 47.1375 50.0809C46.9095 50.0809 46.7439 50.2653 46.5482 50.3256C46.1682 50.4152 45.6977 50.243 45.4561 49.8637C44.9736 48.7361 46.2027 47.9227 46.4691 47.5613C47.0695 46.508 47.103 46.279 47.8523 45.6046C48.1761 45.3463 48.4545 44.6772 48.5733 44.449C49.1719 44.0753 49.7471 45.0172 49.6203 45.4901L49.619 45.4927Z" fill="#FAFAFA"/>
</svg>
