<svg width="75" height="45" viewBox="0 0 75 45" fill="none" xmlns="http://www.w3.org/2000/svg">
<path d="M25.8843 33.9612H27.2037V34.1956H26.2003V34.9154H27.1272V35.1471H26.2003V36.1273H25.8843V33.9612Z" fill="white"/>
<path d="M27.9122 35.0573C27.9122 34.8739 27.9087 34.7165 27.8975 34.5719H28.1776L28.1889 34.8772H28.2036C28.2837 34.6683 28.4761 34.5364 28.6909 34.5364C28.7274 34.5364 28.7527 34.5398 28.7815 34.5458V34.8123C28.7485 34.8056 28.7162 34.8029 28.6727 34.8029C28.4473 34.8029 28.2872 34.9542 28.2436 35.1658C28.2366 35.2047 28.2289 35.2495 28.2289 35.2977V36.1267H27.9129V35.056L27.9122 35.0573Z" fill="white"/>
<path d="M30.4204 36.128L30.3951 35.9318H30.3839C30.2856 36.0537 30.0967 36.1635 29.846 36.1635C29.49 36.1635 29.3081 35.9419 29.3081 35.7169C29.3081 35.3406 29.6859 35.135 30.3663 35.1384V35.1062C30.3663 34.9777 30.3263 34.746 29.9668 34.746C29.8031 34.746 29.6325 34.7909 29.5089 34.8618L29.4359 34.6757C29.5813 34.592 29.7919 34.5378 30.0138 34.5378C30.5517 34.5378 30.683 34.8625 30.683 35.1739V35.7557C30.683 35.891 30.69 36.0222 30.7118 36.1287H30.4211L30.4204 36.128ZM30.3733 35.3339C30.0243 35.3272 29.6283 35.3821 29.6283 35.6841C29.6283 35.8675 29.7666 35.9539 29.9302 35.9539C30.1592 35.9539 30.3045 35.8254 30.3558 35.6935C30.367 35.6647 30.374 35.6325 30.374 35.6037V35.3339H30.3733Z" fill="white"/>
<path d="M31.5621 34.9931C31.5621 34.8324 31.5586 34.7005 31.5474 34.5719H31.831L31.8493 34.829H31.8563C31.9434 34.681 32.147 34.5364 32.4377 34.5364C32.6814 34.5364 33.0592 34.665 33.0592 35.1986V36.1273H32.739V35.2308C32.739 34.9803 32.6336 34.7714 32.3317 34.7714C32.1211 34.7714 31.9574 34.9033 31.9027 35.0607C31.8879 35.0962 31.8809 35.1444 31.8809 35.1926V36.128H31.5607V34.9931H31.5621Z" fill="white"/>
<path d="M35.1968 36.0704C35.1133 36.1093 34.9279 36.1602 34.6913 36.1602C34.1604 36.1602 33.8149 35.8421 33.8149 35.366C33.8149 34.89 34.1857 34.5398 34.7601 34.5398C34.949 34.5398 35.1161 34.5813 35.2039 34.6201L35.1308 34.8384C35.0543 34.7996 34.9342 34.7647 34.7601 34.7647C34.3563 34.7647 34.1387 35.0286 34.1387 35.3526C34.1387 35.7129 34.4006 35.9345 34.7496 35.9345C34.9314 35.9345 35.0515 35.893 35.1421 35.8575L35.1968 36.0698V36.0704Z" fill="white"/>
<path d="M35.9348 33.8461H36.255V34.817H36.262C36.3133 34.7366 36.3926 34.6656 36.4909 34.6174C36.5857 34.5692 36.6981 34.5371 36.8181 34.5371C37.0548 34.5371 37.4326 34.6656 37.4326 35.2026V36.1287H37.1124V35.2355C37.1124 34.9844 37.007 34.7728 36.7051 34.7728C36.4979 34.7728 36.3343 34.9013 36.276 35.0553C36.2578 35.0942 36.2543 35.1357 36.2543 35.1906V36.1293H35.9341V33.8474L35.9348 33.8461Z" fill="white"/>
<path d="M38.4934 35.4015C38.5005 35.7838 38.7771 35.9412 39.0966 35.9412C39.3255 35.9412 39.4639 35.9057 39.5839 35.8608L39.6387 36.0631C39.5264 36.1079 39.3333 36.1595 39.0531 36.1595C38.5117 36.1595 38.188 35.8441 38.188 35.3754C38.188 34.9067 38.5005 34.5364 39.0131 34.5364C39.5874 34.5364 39.7398 34.983 39.7398 35.2689C39.7398 35.3265 39.7328 35.372 39.7286 35.4008H38.4927L38.4934 35.4015ZM39.4316 35.1993C39.4351 35.0192 39.348 34.74 38.9878 34.74C38.6641 34.74 38.5222 35.0038 38.4969 35.1993H39.4316Z" fill="white"/>
<path d="M41.3434 35.1538V35.3627H40.4453V35.1538H41.3434Z" fill="white"/>
<path d="M43.8555 36.057C43.739 36.1086 43.5066 36.1602 43.2081 36.1602C42.5172 36.1602 41.9976 35.7745 41.9976 35.064C41.9976 34.3536 42.5172 33.9264 43.2769 33.9264C43.5824 33.9264 43.7748 33.984 43.8584 34.0228L43.7818 34.2512C43.6617 34.1996 43.4911 34.1614 43.2875 34.1614C42.7131 34.1614 42.3311 34.4862 42.3311 35.0553C42.3311 35.5856 42.6766 35.9265 43.2727 35.9265C43.4651 35.9265 43.6617 35.891 43.7888 35.8367L43.8541 36.0584L43.8555 36.057Z" fill="white"/>
<path d="M46.1567 35.3372C46.1567 35.9124 45.7059 36.1635 45.2803 36.1635C44.8043 36.1635 44.437 35.8548 44.437 35.3633C44.437 34.8424 44.8225 34.5371 45.3098 34.5371C45.7971 34.5371 46.1567 34.8618 46.1567 35.3372ZM44.7607 35.3533C44.7607 35.6941 44.9826 35.9512 45.2951 35.9512C45.6076 35.9512 45.8294 35.6975 45.8294 35.3473C45.8294 35.0835 45.6806 34.7493 45.3021 34.7493C44.9236 34.7493 44.7607 35.058 44.7607 35.3533Z" fill="white"/>
<path d="M46.9234 34.9931C46.9234 34.8324 46.9199 34.7005 46.9087 34.5719H47.1889L47.2036 34.823H47.2148C47.3132 34.675 47.4768 34.5371 47.7675 34.5371C48.0076 34.5371 48.1895 34.6656 48.2653 34.8491H48.2723C48.3271 34.7621 48.3959 34.6951 48.469 34.6469C48.5743 34.5759 48.6908 34.5377 48.858 34.5377C49.0904 34.5377 49.4359 34.673 49.4359 35.2127V36.1287H49.1234V35.2482C49.1234 34.9495 48.9998 34.7694 48.7414 34.7694C48.5595 34.7694 48.4177 34.8886 48.3636 35.0265C48.3489 35.0654 48.3383 35.1163 48.3383 35.1678V36.1287H48.0259V35.1966C48.0259 34.9489 47.9023 34.7694 47.6586 34.7694C47.4585 34.7694 47.3132 34.9107 47.2626 35.052C47.2443 35.0935 47.2373 35.1417 47.2373 35.1899V36.1287H46.9248V34.9937L46.9234 34.9931Z" fill="white"/>
<path d="M50.6889 34.1253V34.5719H51.1468V34.7875H50.6889V35.6265C50.6889 35.8193 50.7507 35.9285 50.9291 35.9285C51.0126 35.9285 51.0744 35.9191 51.1145 35.909L51.1292 36.1213C51.0674 36.1441 50.9691 36.1601 50.8455 36.1601C50.6967 36.1601 50.5766 36.1186 50.5 36.041C50.4095 35.9573 50.3765 35.8193 50.3765 35.6359V34.7875H50.104V34.5719H50.3765V34.1989L50.6889 34.1253Z" fill="white"/>
<path d="M52.0266 35.4015C52.0337 35.7838 52.3103 35.9412 52.6298 35.9412C52.8587 35.9412 52.9971 35.9057 53.1171 35.8608L53.1719 36.0631C53.0589 36.1079 52.8665 36.1595 52.5863 36.1595C52.0449 36.1595 51.7212 35.8441 51.7212 35.3754C51.7212 34.9067 52.0337 34.5364 52.5463 34.5364C53.1207 34.5364 53.273 34.983 53.273 35.2689C53.273 35.3265 53.266 35.372 53.2618 35.4008H52.0259L52.0266 35.4015ZM52.9648 35.1993C52.9683 35.0192 52.8812 34.74 52.521 34.74C52.1973 34.74 52.0554 35.0038 52.0302 35.1993H52.9648Z" fill="white"/>
<path d="M7.9592 31.6378H64.4235C64.4544 31.6378 64.4839 31.6291 64.5092 31.6124L65.4551 30.981C65.4726 30.9696 65.4923 30.9615 65.5133 30.9575C65.6166 30.9401 66.0007 31.0526 65.7746 31.1457C65.486 31.2655 64.7781 31.7456 64.6159 31.8099C64.5977 31.8173 64.5787 31.8206 64.5598 31.8206L7.9599 31.9217C7.87774 31.9217 7.81104 31.8581 7.81104 31.7798C7.81104 31.7014 7.87774 31.6378 7.9599 31.6378H7.9592Z" fill="white"/>
<path d="M10.1149 22.7585C10.0897 22.3052 10.0588 21.7601 10.0637 21.3557H10.0482C9.93097 21.7367 9.78843 22.1418 9.61569 22.5897L9.0097 24.1666H8.67405L8.11933 22.6192C7.95642 22.1612 7.81879 21.7414 7.72259 21.3557H7.71206C7.70152 21.7608 7.67625 22.3058 7.64605 22.7926L7.55407 24.186H7.13135L7.37079 20.9365H7.93606L8.52168 22.508C8.66422 22.9084 8.78149 23.2647 8.86786 23.6021H8.88331C8.96968 23.274 9.09186 22.9178 9.24493 22.508L9.85584 20.9365H10.4211L10.6346 24.186H10.202L10.1156 22.7591L10.1149 22.7585Z" fill="white"/>
<path d="M11.9623 23.0959C11.9728 23.6698 12.359 23.9061 12.807 23.9061C13.1279 23.9061 13.321 23.8532 13.4889 23.7856L13.5654 24.0896C13.4074 24.1572 13.1378 24.2342 12.7459 24.2342C11.9876 24.2342 11.5347 23.7615 11.5347 23.0578C11.5347 22.354 11.9721 21.7996 12.6905 21.7996C13.4945 21.7996 13.7086 22.4699 13.7086 22.8991C13.7086 22.9861 13.6981 23.0531 13.6932 23.0966H11.9623V23.0959ZM13.2754 22.7919C13.2803 22.5221 13.1581 22.1023 12.6547 22.1023C12.2017 22.1023 12.003 22.4973 11.9672 22.7919H13.2754ZM13.3821 20.8441L12.7614 21.5338H12.4405L12.8885 20.8441H13.3821Z" fill="white"/>
<path d="M15.1847 21.1816V21.8518H15.8258V22.1746H15.1847V23.4327C15.1847 23.722 15.2711 23.886 15.5203 23.886C15.6376 23.886 15.724 23.8713 15.7801 23.8572L15.8005 24.1753C15.7141 24.2088 15.5765 24.2329 15.4038 24.2329C15.1952 24.2329 15.0274 24.1699 14.92 24.0548C14.7929 23.9295 14.7472 23.722 14.7472 23.4474V22.1746H14.3652V21.8518H14.7472V21.2927L15.1847 21.1816Z" fill="white"/>
<path d="M17.2105 21.1963C17.2154 21.3409 17.1038 21.4568 16.9254 21.4568C16.7674 21.4568 16.6558 21.3409 16.6558 21.1963C16.6558 21.0517 16.773 20.9312 16.9359 20.9312C17.0988 20.9312 17.2105 21.047 17.2105 21.1963ZM16.7119 24.1853V21.8518H17.1599V24.1853H16.7119Z" fill="white"/>
<path d="M18.5341 23.0959C18.5446 23.6698 18.9308 23.9061 19.3788 23.9061C19.6997 23.9061 19.8928 23.8532 20.0606 23.7856L20.1372 24.0896C19.9792 24.1572 19.7095 24.2342 19.3177 24.2342C18.5594 24.2342 18.1064 23.7615 18.1064 23.0578C18.1064 22.354 18.5439 21.7996 19.2622 21.7996C20.0663 21.7996 20.2804 22.4699 20.2804 22.8991C20.2804 22.9861 20.2699 23.0531 20.265 23.0966H18.5341V23.0959ZM19.8472 22.7919C19.8521 22.5221 19.7299 22.1023 19.2264 22.1023C18.7735 22.1023 18.5748 22.4973 18.539 22.7919H19.8472Z" fill="white"/>
<path d="M21.2167 22.5797C21.2167 22.3052 21.2117 22.0688 21.1963 21.8518H21.5881L21.6036 22.3098H21.6239C21.7356 21.9965 22.0059 21.799 22.3057 21.799C22.3563 21.799 22.3921 21.8036 22.4328 21.8137V22.2141C22.3872 22.2047 22.3416 22.1994 22.2805 22.1994C21.9652 22.1994 21.7412 22.4257 21.6801 22.7444C21.6696 22.802 21.6597 22.8696 21.6597 22.9419V24.186H21.2167V22.5804V22.5797Z" fill="white"/>
<path d="M23.2023 23.7515C23.3343 23.8331 23.5688 23.9202 23.7928 23.9202C24.1186 23.9202 24.271 23.7662 24.271 23.5733C24.271 23.3711 24.1439 23.26 23.8132 23.1441C23.3701 22.9948 23.1615 22.7632 23.1615 22.4839C23.1615 22.1076 23.4824 21.799 24.0119 21.799C24.2612 21.799 24.4802 21.8666 24.6179 21.9436L24.5062 22.2523C24.4093 22.1947 24.231 22.117 24.002 22.117C23.7373 22.117 23.5899 22.2616 23.5899 22.4351C23.5899 22.6279 23.7373 22.7149 24.0582 22.8301C24.4859 22.9841 24.7049 23.187 24.7049 23.5338C24.7049 23.9436 24.3693 24.2329 23.7837 24.2329C23.514 24.2329 23.2647 24.1699 23.0913 24.0735L23.2037 23.7508L23.2023 23.7515Z" fill="white"/>
<path d="M29.2496 20.7624V23.5827C29.2496 23.7903 29.2545 24.026 29.27 24.1853H28.8676L28.8472 23.7802H28.8367C28.6991 24.0407 28.3992 24.2382 27.9969 24.2382C27.4014 24.2382 26.9429 23.7608 26.9429 23.0524C26.938 22.2763 27.4471 21.7989 28.0474 21.7989C28.4238 21.7989 28.6787 21.9677 28.7904 22.1558H28.8009V20.7624H29.2489H29.2496ZM28.8016 22.802C28.8016 22.7491 28.7967 22.6768 28.7812 22.6239C28.7152 22.354 28.4709 22.1324 28.1345 22.1324C27.6711 22.1324 27.3965 22.5181 27.3965 23.0336C27.3965 23.5064 27.6409 23.8967 28.1247 23.8967C28.4252 23.8967 28.6998 23.7086 28.7812 23.3905C28.7967 23.333 28.8016 23.2747 28.8016 23.2071V22.802Z" fill="white"/>
<path d="M32.436 23.5492C32.436 23.7903 32.4409 24.0025 32.4563 24.1853H32.0596L32.0343 23.8043H32.0238C31.9065 23.9925 31.6474 24.2382 31.2092 24.2382C30.8223 24.2382 30.3589 24.036 30.3589 23.2158V21.8512H30.8069V23.1435C30.8069 23.5867 30.9494 23.886 31.3567 23.886C31.6572 23.886 31.8658 23.6885 31.9472 23.5003C31.9725 23.4374 31.988 23.3604 31.988 23.2834V21.8512H32.436V23.5486V23.5492Z" fill="white"/>
<path d="M37.9279 22.7585C37.9027 22.3052 37.8718 21.7601 37.8767 21.3557H37.8612C37.744 21.7367 37.6014 22.1418 37.4287 22.5897L36.8227 24.1666H36.487L35.9323 22.6192C35.7694 22.1612 35.6318 21.7414 35.5356 21.3557H35.525C35.5145 21.7608 35.4892 22.3058 35.459 22.7926L35.3671 24.186H34.9443L35.1838 20.9365H35.749L36.3347 22.508C36.4772 22.9084 36.5945 23.2647 36.6808 23.6021H36.6963C36.7827 23.274 36.9048 22.9178 37.0579 22.508L37.6688 20.9365H38.2341L38.4476 24.186H38.015L37.9286 22.7591L37.9279 22.7585Z" fill="white"/>
<path d="M41.5732 23.5492C41.5732 23.7903 41.5781 24.0025 41.5935 24.1853H41.1968L41.1715 23.8043H41.161C41.0437 23.9925 40.7846 24.2382 40.3464 24.2382C39.9595 24.2382 39.4961 24.036 39.4961 23.2158V21.8512H39.9441V23.1435C39.9441 23.5867 40.0866 23.886 40.4939 23.886C40.7944 23.886 41.003 23.6885 41.0844 23.5003C41.1097 23.4374 41.1252 23.3604 41.1252 23.2834V21.8512H41.5732V23.5486V23.5492Z" fill="white"/>
<path d="M42.6978 20.7624H43.1458V24.1853H42.6978V20.7624Z" fill="white"/>
<path d="M44.8206 21.1816V21.8518H45.4617V22.1746H44.8206V23.4327C44.8206 23.722 44.907 23.886 45.1563 23.886C45.2736 23.886 45.3599 23.8713 45.4161 23.8572L45.4365 24.1753C45.3501 24.2088 45.2125 24.2329 45.0397 24.2329C44.8312 24.2329 44.6634 24.1699 44.5559 24.0548C44.4288 23.9295 44.3825 23.722 44.3825 23.4474V22.1746H44.0005V21.8518H44.3825V21.2927L44.8199 21.1816H44.8206Z" fill="white"/>
<path d="M46.8462 21.1963C46.8511 21.3409 46.7395 21.4568 46.5611 21.4568C46.4032 21.4568 46.2915 21.3409 46.2915 21.1963C46.2915 21.0517 46.4088 20.9312 46.5717 20.9312C46.7346 20.9312 46.8469 21.047 46.8469 21.1963H46.8462ZM46.3477 24.1853V21.8518H46.7957V24.1853H46.3477Z" fill="white"/>
<path d="M47.9203 22.4833C47.9203 22.2422 47.9154 22.0447 47.8999 21.8518H48.2917L48.3121 22.2282H48.3275C48.4652 22.0065 48.6941 21.7989 49.1013 21.7989C49.4377 21.7989 49.6919 21.9918 49.7986 22.2663H49.8084C49.885 22.1364 49.9812 22.0346 50.0837 21.9623C50.2312 21.8565 50.3941 21.7983 50.6286 21.7983C50.9544 21.7983 51.4382 22.0005 51.4382 22.8107V24.1847H51.0008V22.8636C51.0008 22.415 50.828 22.1451 50.4664 22.1451C50.2122 22.1451 50.0135 22.3232 49.9369 22.5308C49.9166 22.5884 49.9011 22.6661 49.9011 22.7431V24.1847H49.4637V22.7866C49.4637 22.4156 49.2909 22.1451 48.9497 22.1451C48.6695 22.1451 48.4659 22.3574 48.3949 22.5696C48.3697 22.6326 48.3591 22.7049 48.3591 22.7772V24.1853H47.9217V22.4833H47.9203Z" fill="white"/>
<path d="M52.7968 23.0959C52.8066 23.6698 53.1935 23.9061 53.6415 23.9061C53.9624 23.9061 54.1555 23.8532 54.3233 23.7856L54.3999 24.0896C54.2419 24.1572 53.9722 24.2342 53.5804 24.2342C52.8221 24.2342 52.3691 23.7615 52.3691 23.0578C52.3691 22.354 52.8066 21.7996 53.5249 21.7996C54.3289 21.7996 54.5431 22.4699 54.5431 22.8991C54.5431 22.9861 54.5333 23.0531 54.5277 23.0966H52.7968V23.0959ZM54.1099 22.7919C54.1148 22.5221 53.9926 22.1023 53.4891 22.1023C53.0362 22.1023 52.8375 22.4973 52.8017 22.7919H54.1099ZM54.2166 20.8441L53.5959 21.5338H53.275L53.723 20.8441H54.2166Z" fill="white"/>
<path d="M57.6075 20.7624V23.5827C57.6075 23.7903 57.6124 24.026 57.6279 24.1853H57.2255L57.2052 23.7802H57.1946C57.057 24.0407 56.7572 24.2382 56.3548 24.2382C55.7593 24.2382 55.3008 23.7608 55.3008 23.0524C55.2959 22.2763 55.805 21.7989 56.4054 21.7989C56.7817 21.7989 57.0366 21.9677 57.1483 22.1558H57.1581V20.7624H57.6061H57.6075ZM57.1595 22.802C57.1595 22.7491 57.1546 22.6768 57.1391 22.6239C57.0731 22.354 56.8288 22.1324 56.4924 22.1324C56.029 22.1324 55.7544 22.5181 55.7544 23.0336C55.7544 23.5064 55.9988 23.8967 56.4826 23.8967C56.7831 23.8967 57.0577 23.7086 57.1391 23.3905C57.1546 23.333 57.1595 23.2747 57.1595 23.2071V22.802Z" fill="white"/>
<path d="M59.231 21.1963C59.2359 21.3409 59.1243 21.4568 58.9459 21.4568C58.7879 21.4568 58.6763 21.3409 58.6763 21.1963C58.6763 21.0517 58.7935 20.9312 58.9564 20.9312C59.1193 20.9312 59.2317 21.047 59.2317 21.1963H59.231ZM58.7324 24.1853V21.8518H59.1804V24.1853H58.7324Z" fill="white"/>
<path d="M61.669 24.1853L61.6332 23.8914H61.6177C61.4801 24.0749 61.2154 24.2382 60.8643 24.2382C60.3657 24.2382 60.1108 23.9055 60.1108 23.568C60.1108 23.0042 60.6403 22.6955 61.5925 22.7002V22.652C61.5925 22.4592 61.5363 22.1116 61.0328 22.1116C60.8039 22.1116 60.5645 22.1793 60.3917 22.2851L60.2899 22.0052C60.4935 21.88 60.7885 21.7976 61.0995 21.7976C61.853 21.7976 62.0362 22.2844 62.0362 22.7524V23.6249C62.0362 23.8271 62.0461 24.0253 62.077 24.184H61.6697L61.669 24.1853ZM61.603 22.9942C61.1143 22.9848 60.5595 23.0665 60.5595 23.5198C60.5595 23.7943 60.7526 23.9249 60.9823 23.9249C61.3032 23.9249 61.5068 23.732 61.5777 23.5345C61.5932 23.491 61.603 23.4428 61.603 23.3992V22.9942Z" fill="white"/>
<path d="M7.45791 27.9169C7.46844 28.4908 7.85464 28.7271 8.30264 28.7271C8.62354 28.7271 8.81664 28.6742 8.98446 28.6066L9.061 28.9106C8.90301 28.9782 8.63337 29.0552 8.24155 29.0552C7.48318 29.0552 7.03027 28.5825 7.03027 27.8788C7.03027 27.175 7.46774 26.6206 8.18607 26.6206C8.99008 26.6206 9.20425 27.2909 9.20425 27.7201C9.20425 27.8071 9.19371 27.8741 9.1888 27.9176H7.45791V27.9169ZM8.771 27.6129C8.77591 27.3431 8.65373 26.9233 8.15026 26.9233C7.69735 26.9233 7.49863 27.3183 7.46282 27.6129H8.771Z" fill="white"/>
<path d="M10.6803 26.0026V26.6728H11.3214V26.9956H10.6803V28.2537C10.6803 28.543 10.7667 28.707 11.0159 28.707C11.1332 28.707 11.2196 28.6923 11.2757 28.6782L11.2961 28.9963C11.2097 29.0298 11.0721 29.0539 10.8994 29.0539C10.6908 29.0539 10.523 28.9909 10.4156 28.8758C10.2885 28.7506 10.2428 28.543 10.2428 28.2685V26.9956H9.86084V26.6728H10.2428V26.1137L10.6803 26.0026Z" fill="white"/>
<path d="M15.7955 25.5834V28.4037C15.7955 28.6113 15.8004 28.847 15.8159 29.0063H15.4135L15.3931 28.6012H15.3826C15.245 28.8617 14.9451 29.0592 14.5428 29.0592C13.9473 29.0592 13.4888 28.5818 13.4888 27.8734C13.4839 27.0974 13.993 26.62 14.5933 26.62C14.9697 26.62 15.2246 26.7887 15.3363 26.9768H15.3468V25.5834H15.7948H15.7955ZM15.3475 27.623C15.3475 27.5701 15.3426 27.4978 15.3271 27.4449C15.2611 27.175 15.0168 26.9534 14.6804 26.9534C14.217 26.9534 13.9424 27.3391 13.9424 27.8547C13.9424 28.3274 14.1868 28.7178 14.6706 28.7178C14.9711 28.7178 15.2457 28.5296 15.3271 28.2115C15.3426 28.154 15.3475 28.0957 15.3475 28.0281V27.623Z" fill="white"/>
<path d="M17.1698 27.9169C17.1804 28.4908 17.5666 28.7271 18.0146 28.7271C18.3355 28.7271 18.5286 28.6742 18.6964 28.6066L18.7729 28.9106C18.6149 28.9782 18.3453 29.0552 17.9535 29.0552C17.1951 29.0552 16.7422 28.5825 16.7422 27.8788C16.7422 27.175 17.1797 26.6206 17.898 26.6206C18.702 26.6206 18.9162 27.2909 18.9162 27.7201C18.9162 27.8071 18.9056 27.8741 18.9007 27.9176H17.1698V27.9169ZM18.4829 27.6129C18.4878 27.3431 18.3656 26.9233 17.8622 26.9233C17.4093 26.9233 17.2105 27.3183 17.1747 27.6129H18.4829Z" fill="white"/>
<path d="M21.3135 25.5834H21.7615V29.0063H21.3135V25.5834Z" fill="white"/>
<path d="M23.4923 25.7039C23.375 26.109 23.1566 26.6246 23.0141 26.8469L22.729 26.8804C22.8407 26.5958 22.9734 26.0943 23.0295 25.7475L23.493 25.7039H23.4923Z" fill="white"/>
<path d="M24.821 25.7568V29.0063H24.3779V25.7568H24.821Z" fill="white"/>
<path d="M26.0121 27.3042C26.0121 27.0632 26.0071 26.8657 25.9917 26.6728H26.3884L26.4137 27.0585H26.4242C26.5464 26.8369 26.8315 26.6199 27.2388 26.6199C27.58 26.6199 28.1095 26.8128 28.1095 27.6129V29.0063H27.6615V27.6611C27.6615 27.2848 27.514 26.9715 27.0913 26.9715C26.7957 26.9715 26.5668 27.169 26.491 27.4054C26.4706 27.4583 26.4601 27.5306 26.4601 27.6029V29.0057H26.0121V27.3036V27.3042Z" fill="white"/>
<path d="M29.7374 26.0026V26.6728H30.3785V26.9956H29.7374V28.2537C29.7374 28.543 29.8238 28.707 30.0731 28.707C30.1903 28.707 30.2767 28.6923 30.3329 28.6782L30.3532 28.9963C30.2669 29.0298 30.1292 29.0539 29.9565 29.0539C29.748 29.0539 29.5801 28.9909 29.4727 28.8758C29.3456 28.7506 29.3 28.543 29.3 28.2685V26.9956H28.918V26.6728H29.3V26.1137L29.7374 26.0026Z" fill="white"/>
<path d="M31.4838 27.9169C31.4943 28.4908 31.8805 28.7271 32.3285 28.7271C32.6494 28.7271 32.8425 28.6742 33.0103 28.6066L33.0869 28.9106C32.9289 28.9782 32.6592 29.0552 32.2674 29.0552C31.5091 29.0552 31.0562 28.5825 31.0562 27.8788C31.0562 27.175 31.4936 26.6206 32.212 26.6206C33.016 26.6206 33.2301 27.2909 33.2301 27.7201C33.2301 27.8071 33.2196 27.8741 33.2147 27.9176H31.4838V27.9169ZM32.7969 27.6129C32.8018 27.3431 32.6796 26.9233 32.1761 26.9233C31.7232 26.9233 31.5245 27.3183 31.4887 27.6129H32.7969Z" fill="white"/>
<path d="M34.1664 27.4007C34.1664 27.1261 34.1614 26.8898 34.146 26.6728H34.5378L34.5533 27.1308H34.5736C34.6853 26.8175 34.9556 26.6199 35.2555 26.6199C35.306 26.6199 35.3418 26.6246 35.3826 26.6347V27.0351C35.3369 27.0257 35.2913 27.0203 35.2302 27.0203C34.9149 27.0203 34.6909 27.2467 34.6298 27.5654C34.6193 27.623 34.6094 27.6906 34.6094 27.7629V29.007H34.1664V27.4013V27.4007Z" fill="white"/>
<path d="M36.2328 27.3042C36.2328 27.0632 36.2279 26.8657 36.2124 26.6728H36.6091L36.6344 27.0585H36.6449C36.7671 26.8369 37.0522 26.6199 37.4595 26.6199C37.8007 26.6199 38.3302 26.8128 38.3302 27.6129V29.0063H37.8822V27.6611C37.8822 27.2848 37.7347 26.9715 37.312 26.9715C37.0164 26.9715 36.7875 27.169 36.7117 27.4054C36.6913 27.4583 36.6808 27.5306 36.6808 27.6029V29.0057H36.2328V27.3036V27.3042Z" fill="white"/>
<path d="M39.6889 27.9169C39.6994 28.4908 40.0856 28.7271 40.5336 28.7271C40.8545 28.7271 41.0476 28.6742 41.2154 28.6066L41.292 28.9106C41.134 28.9782 40.8643 29.0552 40.4725 29.0552C39.7141 29.0552 39.2612 28.5825 39.2612 27.8788C39.2612 27.175 39.6987 26.6206 40.417 26.6206C41.221 26.6206 41.4352 27.2909 41.4352 27.7201C41.4352 27.8071 41.4247 27.8741 41.4198 27.9176H39.6889V27.9169ZM41.002 27.6129C41.0069 27.3431 40.8847 26.9233 40.3812 26.9233C39.9283 26.9233 39.7296 27.3183 39.6938 27.6129H41.002Z" fill="white"/>
<path d="M42.9112 26.0026V26.6728H43.5523V26.9956H42.9112V28.2537C42.9112 28.543 42.9976 28.707 43.2469 28.707C43.3642 28.707 43.4505 28.6923 43.5067 28.6782L43.5271 28.9963C43.4407 29.0298 43.3031 29.0539 43.1303 29.0539C42.9218 29.0539 42.754 28.9909 42.6465 28.8758C42.5194 28.7506 42.4738 28.543 42.4738 28.2685V26.9956H42.0918V26.6728H42.4738V26.1137L42.9112 26.0026Z" fill="white"/>
<path d="M55.2307 3.97798C55.9919 3.94584 56.8394 4.57926 56.824 5.36602C56.8092 6.08984 56.0712 6.63354 55.4182 6.68644C54.6739 6.7467 53.7912 6.18961 53.7624 5.3995C53.735 4.6402 54.5103 4.00811 55.2307 3.97731V3.97798Z" fill="#1974BA"/>
<path d="M56.8241 8.56731V17.2451C56.8241 17.2451 56.4814 17.9783 55.2849 17.9783C54.0883 17.9783 53.832 17.294 53.832 17.294V7.91112C53.832 7.91112 54.1901 7.05874 55.2926 7.07481C55.3235 7.07481 55.3537 7.07615 55.3832 7.07816C56.1984 7.12369 56.8241 7.78858 56.8241 8.56664V8.56731Z" fill="white"/>
<path d="M51.131 11.0073V16.5507C51.131 17.306 50.5152 17.9495 49.7231 17.977C49.6929 17.9783 49.6627 17.9783 49.6311 17.9783C49.5623 17.9776 49.4956 17.9736 49.4317 17.9669C48.6782 17.8886 48.1137 17.2705 48.1137 16.5481V11.2276C48.1137 11.026 48.0716 10.8258 47.9824 10.643C47.7408 10.1475 47.0857 9.32393 45.4039 9.33598C43.7222 9.34804 42.9561 10.1877 42.6092 10.7187C42.4625 10.9437 42.3866 11.2035 42.3866 11.4679V16.5487C42.3866 17.3221 41.7413 17.9595 40.9303 17.977C40.8931 17.9776 40.8545 17.9783 40.8151 17.9776C40.7695 17.9776 40.7253 17.9763 40.6817 17.9749C39.8777 17.9488 39.2429 17.3141 39.2429 16.5474V11.2168C39.2429 11.0327 39.2078 10.8499 39.1334 10.6798C38.9129 10.1756 38.2655 9.32326 36.4068 9.33598C34.4273 9.34871 33.8284 10.3712 33.6528 10.88C33.6051 11.0193 33.5826 11.1653 33.5826 11.3113V15.4787C33.5826 16.2735 32.9015 16.9157 32.068 16.9076L31.9086 16.9063C31.0877 16.8976 30.4263 16.2608 30.4263 15.4774V10.7301C30.4263 10.4408 30.5176 10.1589 30.6896 9.92053C31.3349 9.02999 33.1718 6.9516 36.2797 6.92482C38.3175 6.90741 39.4494 7.35067 40.068 7.78523C40.5595 8.13007 41.2238 8.15082 41.7399 7.84081C42.4863 7.39352 43.6773 6.91477 45.3485 6.92415C48.4739 6.94156 51.0573 9.02664 51.1296 11.0073H51.131Z" fill="white"/>
<path d="M28.0783 11.0073V16.5507C28.0783 17.306 27.4624 17.9495 26.6704 17.977C26.6402 17.9783 26.61 17.9783 26.5784 17.9783C26.5096 17.9776 26.4429 17.9736 26.379 17.9669C25.6255 17.8886 25.0609 17.2705 25.0609 16.5481V11.2276C25.0609 11.026 25.0188 10.8258 24.9296 10.643C24.6881 10.1475 24.0329 9.32393 22.3512 9.33598C20.7102 9.34804 19.9034 10.1877 19.5565 10.7187C19.4097 10.9437 19.3339 11.2035 19.3339 11.4679V16.5487C19.3339 17.3221 18.6886 17.9595 17.8776 17.977C17.8403 17.9776 17.8017 17.9783 17.7624 17.9776C17.7168 17.9776 17.6725 17.9763 17.629 17.9749C16.825 17.9488 16.1902 17.3141 16.1902 16.5474V11.2168C16.1902 11.0327 16.1551 10.8499 16.0807 10.6798C15.8602 10.1756 15.2128 9.32326 13.3541 9.33598C11.3746 9.34871 10.7756 10.3712 10.6001 10.88C10.5523 11.0193 10.5299 11.1653 10.5299 11.3113V15.4787C10.5299 16.2735 9.84875 16.9157 9.01525 16.9076L8.85585 16.9063C8.035 16.8976 7.37354 16.2608 7.37354 15.4774V10.7301C7.37354 10.4408 7.41356 10.3444 7.63686 9.92053C8.14664 8.95365 10.1191 6.9516 13.227 6.92482C15.2647 6.90741 16.3967 7.35067 17.0153 7.78523C17.5068 8.13007 18.1711 8.15082 18.6872 7.84081C19.4336 7.39352 20.6245 6.91477 22.2957 6.92415C25.4212 6.94156 28.0045 9.02664 28.0768 11.0073H28.0783Z" fill="white"/>
<path d="M31.9417 14.3605C32.7267 14.3284 33.6002 14.9612 33.5834 15.7479C33.5686 16.4717 32.8075 17.0148 32.1348 17.0677C31.368 17.1279 30.4579 16.5715 30.4285 15.7814C30.4004 15.0221 31.1995 14.3907 31.9417 14.3599V14.3605Z" fill="#DA0B3D"/>
<path d="M8.89177 14.3599C9.67541 14.3277 10.5468 14.9612 10.5307 15.7479C10.5159 16.4717 9.75617 17.0154 9.08488 17.0683C8.31949 17.1286 7.41086 16.5715 7.38207 15.7814C7.35398 15.0221 8.15167 14.39 8.89248 14.3592L8.89177 14.3599Z" fill="#F5BD45"/>
<path d="M7.87975 33.0446C7.9914 33.0399 8.11568 33.1303 8.11358 33.2428C8.11147 33.3459 8.00333 33.4236 7.90713 33.431C7.79759 33.4397 7.66839 33.36 7.66418 33.2475C7.65996 33.139 7.77372 33.0486 7.87975 33.0446Z" fill="#F5BD45"/>
<path d="M51.9548 33.6358C52.1283 33.5736 52.2617 33.8749 52.544 33.8688C52.7946 33.8635 52.9077 33.6211 53.0495 33.68C53.1422 33.7189 53.1844 33.8601 53.1619 33.9646C53.1148 34.1896 52.7574 34.3134 52.4864 34.3074C52.1992 34.3007 51.834 34.1427 51.8109 33.9097C51.8003 33.8072 51.8544 33.6713 51.9548 33.6358Z" fill="#FF0000"/>
<path d="M7.6582 33.9927H8.12095L8.07179 36.128H7.6582V33.9927Z" fill="white"/>
<path d="M8.92969 34.2177H9.45984V35.2944C9.45984 35.6265 9.65154 35.7919 10.0363 35.7919C10.207 35.7919 10.3425 35.7477 10.4415 35.6587C10.5412 35.5696 10.5911 35.4484 10.5911 35.2937V34.217H11.1156V35.3587C11.1156 35.5977 11.0131 35.7946 10.808 35.9493C10.603 36.1033 10.3404 36.1809 10.0216 36.1809C9.7028 36.1809 9.43316 36.1039 9.23233 35.9493C9.0308 35.7946 8.93039 35.5937 8.93039 35.3446V34.217L8.92969 34.2177Z" fill="white"/>
<path d="M15.0425 33.8019L16.9854 35.5274V33.8929H17.3443V36.2686L15.4013 34.5505V36.1628H15.0425V33.8019Z" fill="white"/>
<path d="M18.0684 35.4223C18.0684 35.2214 18.1603 35.0433 18.3436 34.8866C18.5269 34.7306 18.7382 34.6523 18.9756 34.6523C19.2129 34.6523 19.4341 34.7293 19.6174 34.8833C19.8 35.0373 19.8919 35.2167 19.8919 35.4223C19.8919 35.6278 19.8021 35.8113 19.623 35.9687C19.4439 36.126 19.2361 36.205 19.0009 36.205C18.7495 36.205 18.5311 36.1273 18.3457 35.9713C18.161 35.816 18.0684 35.6325 18.0684 35.4223ZM19.5451 35.4229C19.5451 35.2977 19.4903 35.1893 19.38 35.0969C19.2698 35.0044 19.1392 34.9583 18.9882 34.9583C18.8373 34.9583 18.6989 35.0051 18.5873 35.0982C18.4756 35.1913 18.4195 35.3031 18.4195 35.433C18.4195 35.5629 18.4763 35.6653 18.5894 35.7577C18.7024 35.8501 18.8359 35.897 18.9882 35.897C19.1406 35.897 19.267 35.8495 19.3779 35.7544C19.4896 35.6593 19.5451 35.5488 19.5451 35.4223V35.4229Z" fill="white"/>
<path d="M20.9922 34.6931V34.9957C21.0723 34.8746 21.1502 34.7868 21.226 34.7326C21.3026 34.6784 21.4016 34.6516 21.5245 34.6516C21.5589 34.6516 21.608 34.6589 21.6726 34.673L21.5631 34.983C21.4943 34.971 21.4486 34.9649 21.4269 34.9649C21.3061 34.9649 21.2043 35.0011 21.1228 35.0748C21.0407 35.1477 20.9999 35.2388 20.9999 35.3479V36.1622H20.6411V34.6918H20.9915L20.9922 34.6931Z" fill="white"/>
<path d="M23.7432 33.8501H24.0978V36.1628H23.7474V35.8562C23.5782 36.0878 23.3563 36.2037 23.0824 36.2037C22.8605 36.2037 22.6709 36.1273 22.5122 35.974C22.3535 35.8207 22.2749 35.6365 22.2749 35.4216C22.2749 35.2067 22.3557 35.0306 22.5165 34.8792C22.6773 34.7279 22.8697 34.6523 23.093 34.6523C23.2264 34.6523 23.3514 34.6844 23.4665 34.7487C23.5824 34.813 23.6744 34.8967 23.7432 34.9998V33.8501ZM23.7846 35.4256C23.7846 35.2937 23.7291 35.1792 23.6175 35.0828C23.5058 34.9857 23.3731 34.9375 23.2186 34.9375C23.0642 34.9375 22.9237 34.985 22.8128 35.0795C22.7018 35.1739 22.6464 35.2897 22.6464 35.4263C22.6464 35.5629 22.7025 35.6714 22.8156 35.7691C22.9286 35.8669 23.0599 35.9164 23.2102 35.9164C23.3703 35.9164 23.5058 35.8689 23.6175 35.7738C23.7291 35.6787 23.7846 35.5629 23.7846 35.4263V35.4256Z" fill="white"/>
<path d="M12.4967 33.1243V33.7945H13.1378V34.1173H12.4967V35.3754C12.4967 35.6647 12.5831 35.8287 12.8323 35.8287C12.9496 35.8287 13.036 35.814 13.0922 35.7999L13.1125 36.118C13.0261 36.1515 12.8885 36.1756 12.7158 36.1756C12.5072 36.1756 12.3394 36.1126 12.232 35.9974C12.1049 35.8722 12.0592 35.6647 12.0592 35.3901V34.1173H11.6772V33.7945H12.0592V33.2354L12.4967 33.1243Z" fill="white"/>
<path d="M13.0917 35.7953C13.1907 35.7912 13.3009 35.8689 13.2988 35.9653C13.2967 36.0544 13.2005 36.1207 13.1156 36.1274C13.0187 36.1347 12.9035 36.0664 12.9 35.9693C12.8965 35.8763 12.9976 35.7986 13.091 35.7953H13.0917Z" fill="#1974BA"/>
<path d="M10.8418 33.978C10.9725 33.972 11.1178 34.0838 11.115 34.2224C11.1122 34.3496 10.9858 34.4454 10.8741 34.4547C10.7463 34.4654 10.5954 34.367 10.5905 34.2284C10.5855 34.0945 10.719 33.9833 10.8425 33.978H10.8418Z" fill="#FF0000"/>
</svg>
