<svg width="199" height="65" viewBox="0 0 199 65" fill="none" xmlns="http://www.w3.org/2000/svg">
<path d="M197.5 44C198.052 44 198.5 44.4477 198.5 45C198.5 45.5523 198.052 46 197.5 46L72.5 46C71.9477 46 71.5 45.5523 71.5 45C71.5 44.4477 71.9477 44 72.5 44L197.5 44Z" fill="#1B1B1B"/>
<path d="M72.8125 33V21.5625H74.6719V31.3359H78.8281V33H72.8125Z" fill="#1B1B1B"/>
<path d="M80.5347 22.3906C80.5347 22.1042 80.6389 21.8568 80.8472 21.6484C81.0607 21.4401 81.3133 21.3359 81.605 21.3359C81.9071 21.3359 82.1571 21.4375 82.355 21.6406C82.5581 21.8385 82.6597 22.0885 82.6597 22.3906C82.6597 22.6927 82.5581 22.9479 82.355 23.1562C82.1519 23.3594 81.9019 23.4609 81.605 23.4609C81.3133 23.4609 81.0607 23.3568 80.8472 23.1484C80.6389 22.9349 80.5347 22.6823 80.5347 22.3906ZM80.7612 33V25.5938H82.4566V33H80.7612Z" fill="#1B1B1B"/>
<path d="M85.6006 33V27.0781H84.3038V25.5938H85.6006V23.6094C85.6006 22.625 85.8038 21.8984 86.21 21.4297C86.6215 20.9609 87.2569 20.7266 88.1163 20.7266C88.2985 20.7266 88.486 20.7396 88.6788 20.7656C88.8715 20.7917 89.0668 20.8333 89.2647 20.8906V22.4219C89.1293 22.3438 88.9913 22.2865 88.8506 22.25C88.7152 22.2083 88.5772 22.1875 88.4366 22.1875C88.0303 22.1875 87.7386 22.3125 87.5616 22.5625C87.3845 22.8125 87.2959 23.2344 87.2959 23.8281V25.5938H89.0772V27.0781H87.2959V33H85.6006Z" fill="#1B1B1B"/>
<path d="M97.8853 29.5469H91.9634C92.0051 30.2396 92.2108 30.7812 92.5806 31.1719C92.9504 31.5573 93.4426 31.75 94.0572 31.75C94.6041 31.75 95.0598 31.6354 95.4244 31.4062C95.789 31.1771 96.1067 30.8073 96.3775 30.2969L97.8072 31.0938C97.3905 31.8385 96.8749 32.3932 96.2603 32.7578C95.6457 33.1224 94.9244 33.3047 94.0963 33.3047C92.9088 33.3047 91.9634 32.9427 91.2603 32.2188C90.5572 31.4948 90.2056 30.5286 90.2056 29.3203C90.2056 28.1589 90.5676 27.2057 91.2916 26.4609C92.0207 25.7109 92.9556 25.3359 94.0963 25.3359C95.289 25.3359 96.2186 25.6771 96.8853 26.3594C97.552 27.0417 97.8853 27.9974 97.8853 29.2266V29.5469ZM96.1275 28.4062C96.0598 27.875 95.8567 27.4714 95.5181 27.1953C95.1796 26.9141 94.716 26.7734 94.1275 26.7734C93.5702 26.7734 93.1223 26.9089 92.7838 27.1797C92.4452 27.4505 92.2082 27.8594 92.0728 28.4062H96.1275Z" fill="#1B1B1B"/>
<path d="M105.588 33V21.5625H111.97V23.1406H107.447V25.9922H111.97V27.625H107.447V33H105.588Z" fill="#1B1B1B"/>
<path d="M114.185 22.3906C114.185 22.1042 114.289 21.8568 114.497 21.6484C114.711 21.4401 114.963 21.3359 115.255 21.3359C115.557 21.3359 115.807 21.4375 116.005 21.6406C116.208 21.8385 116.31 22.0885 116.31 22.3906C116.31 22.6927 116.208 22.9479 116.005 23.1562C115.802 23.3594 115.552 23.4609 115.255 23.4609C114.963 23.4609 114.711 23.3568 114.497 23.1484C114.289 22.9349 114.185 22.6823 114.185 22.3906ZM114.411 33V25.5938H116.107V33H114.411Z" fill="#1B1B1B"/>
<path d="M119.016 33V25.5938H120.61V26.8047C120.949 26.2943 121.347 25.9219 121.805 25.6875C122.264 25.4531 122.821 25.3359 123.477 25.3359C124.029 25.3359 124.498 25.4245 124.883 25.6016C125.274 25.7734 125.579 26.0312 125.798 26.375C125.928 26.5781 126.021 26.8151 126.079 27.0859C126.136 27.3568 126.165 27.8307 126.165 28.5078V33H124.454V29.1953C124.454 28.2214 124.334 27.5755 124.094 27.2578C123.86 26.9349 123.441 26.7734 122.837 26.7734C122.441 26.7734 122.087 26.8464 121.774 26.9922C121.467 27.138 121.225 27.3438 121.048 27.6094C120.923 27.7865 120.834 28.0156 120.782 28.2969C120.735 28.5729 120.712 29.0156 120.712 29.625V33H119.016Z" fill="#1B1B1B"/>
<path d="M134.223 29.2734C134.223 28.5078 134.043 27.9115 133.684 27.4844C133.33 27.0573 132.832 26.8438 132.192 26.8438C131.551 26.8438 131.046 27.0651 130.676 27.5078C130.311 27.9453 130.129 28.5547 130.129 29.3359C130.129 30.1224 130.306 30.7292 130.66 31.1562C131.014 31.5833 131.514 31.7969 132.16 31.7969C132.775 31.7969 133.272 31.5677 133.653 31.1094C134.033 30.6458 134.223 30.0339 134.223 29.2734ZM134.176 20.8906H135.871V33H134.176V32.0391C133.874 32.4661 133.52 32.7839 133.113 32.9922C132.712 33.2005 132.251 33.3047 131.731 33.3047C130.684 33.3047 129.858 32.9479 129.254 32.2344C128.655 31.5156 128.356 30.5339 128.356 29.2891C128.356 28.1068 128.663 27.1536 129.278 26.4297C129.892 25.7005 130.694 25.3359 131.684 25.3359C132.288 25.3359 132.804 25.4635 133.231 25.7188C133.663 25.9688 133.978 26.3307 134.176 26.8047V20.8906Z" fill="#1B1B1B"/>
<path d="M137.843 31.6562L139.25 30.8906C139.354 31.2604 139.547 31.5417 139.828 31.7344C140.109 31.9271 140.471 32.0234 140.914 32.0234C141.294 32.0234 141.591 31.9375 141.804 31.7656C142.023 31.5885 142.132 31.349 142.132 31.0469C142.132 30.6458 141.747 30.3021 140.976 30.0156C140.716 29.9219 140.515 29.8438 140.375 29.7812C139.583 29.4531 139.028 29.1198 138.711 28.7812C138.398 28.4427 138.242 28.0312 138.242 27.5469C138.242 26.8854 138.5 26.349 139.015 25.9375C139.536 25.526 140.224 25.3203 141.078 25.3203C141.651 25.3203 142.14 25.4271 142.547 25.6406C142.958 25.849 143.257 26.1484 143.445 26.5391L142.242 27.3672C142.153 27.1328 141.997 26.9479 141.773 26.8125C141.554 26.6719 141.299 26.6016 141.007 26.6016C140.685 26.6016 140.424 26.6797 140.226 26.8359C140.034 26.987 139.937 27.1901 139.937 27.4453C139.937 27.8307 140.375 28.1823 141.25 28.5C141.526 28.599 141.739 28.6797 141.89 28.7422C142.573 29.013 143.06 29.3203 143.351 29.6641C143.648 30.0026 143.797 30.4271 143.797 30.9375C143.797 31.6771 143.528 32.2578 142.992 32.6797C142.455 33.0964 141.716 33.3047 140.773 33.3047C140.049 33.3047 139.448 33.1693 138.968 32.8984C138.489 32.6276 138.114 32.2135 137.843 31.6562Z" fill="#1B1B1B"/>
<path d="M153.85 28.5078H157.038L155.866 25.8984C155.798 25.7318 155.728 25.5417 155.655 25.3281C155.582 25.1094 155.509 24.8672 155.436 24.6016C155.374 24.8516 155.306 25.0859 155.233 25.3047C155.165 25.5182 155.095 25.7161 155.022 25.8984L153.85 28.5078ZM158.991 33L157.694 30.0547H153.163L151.835 33H149.882L155.421 21.1094L160.952 33H158.991Z" fill="#1B1B1B"/>
<path d="M166.459 21.5625H168.295L170.459 27.3359C170.599 27.7161 170.717 28.0495 170.81 28.3359C170.909 28.6224 170.995 28.8906 171.068 29.1406C171.25 28.5365 171.441 27.9453 171.638 27.3672C171.664 27.2943 171.683 27.2448 171.693 27.2188L173.99 21.1094L176.412 27.3359C176.526 27.638 176.633 27.9401 176.732 28.2422C176.836 28.5443 176.933 28.849 177.021 29.1562C177.073 28.9219 177.144 28.6641 177.232 28.3828C177.321 28.1016 177.435 27.7682 177.576 27.3828L179.724 21.5625H181.576L177.146 33.4453L174.537 26.9219C174.422 26.6302 174.318 26.3516 174.224 26.0859C174.131 25.8151 174.047 25.5599 173.974 25.3203C173.886 25.6276 173.797 25.9167 173.709 26.1875C173.62 26.4531 173.529 26.7083 173.435 26.9531L170.873 33.4453L166.459 21.5625Z" fill="#1B1B1B"/>
<path d="M189.283 33H187.587V32.0391C187.285 32.4661 186.931 32.7839 186.525 32.9922C186.124 33.2005 185.663 33.3047 185.142 33.3047C184.095 33.3047 183.269 32.9479 182.665 32.2344C182.066 31.5156 181.767 30.5339 181.767 29.2891C181.767 28.1068 182.074 27.1536 182.689 26.4297C183.303 25.7005 184.105 25.3359 185.095 25.3359C185.699 25.3359 186.215 25.4635 186.642 25.7188C187.074 25.9688 187.389 26.3307 187.587 26.8047V25.5938H189.283V33ZM187.634 29.2734C187.634 28.5078 187.454 27.9115 187.095 27.4844C186.741 27.0573 186.243 26.8438 185.603 26.8438C184.962 26.8438 184.457 27.0651 184.087 27.5078C183.723 27.9453 183.54 28.5547 183.54 29.3359C183.54 30.1224 183.717 30.7292 184.072 31.1562C184.426 31.5833 184.926 31.7969 185.572 31.7969C186.181 31.7969 186.676 31.5651 187.056 31.1016C187.441 30.638 187.634 30.0286 187.634 29.2734Z" fill="#1B1B1B"/>
<path d="M193.38 36.4844H191.637L193.669 32.3594L190.95 25.5938H192.825L194.184 29.4297C194.262 29.6641 194.33 29.9036 194.387 30.1484C194.45 30.388 194.499 30.6328 194.536 30.8828C194.604 30.6224 194.765 30.2083 195.02 29.6406L195.059 29.5469L196.887 25.5938H198.723L193.38 36.4844Z" fill="#1B1B1B"/>
<path d="M41.2161 62.1947C43.1771 61.3284 43.9122 59.5966 44.1242 58.3954C44.6246 57.9536 45.6268 56.7608 45.4974 56.2218C42.8856 58.448 44.9428 55.0352 44.4922 54.5134C44.4743 54.5748 43.1142 57.0904 42.5692 56.046C42.7047 55.5768 43.1487 54.4799 43.0014 53.8689C42.9512 52.2458 41.9307 56.877 40.741 55.5145C40.536 55.1523 41.012 54.6199 41.0845 53.7319C41.307 51.3145 40.0378 55.7111 38.5409 55.2844C37.7498 54.7918 39.4871 52.5806 38.7594 52.4313C38.3324 52.9782 37.5964 54.1286 36.6026 54.3844C36.3172 54.2386 36.0187 54.0809 35.7123 53.9091C35.9562 53.3966 36.8626 51.6118 36.468 51.4929C36.0746 51.9595 35.2259 52.9363 34.381 53.0997C34.062 52.8881 33.7425 52.6624 33.4278 52.4211C34.0296 51.6926 34.8876 49.9622 34.51 50.1031C34.3351 50.3311 32.7417 51.5707 32.3072 51.4726C32.024 51.2076 31.8286 51.0039 31.5642 50.794C32.1114 50.2493 32.8618 48.8617 32.583 48.9085C30.2172 50.4631 30.2229 49.717 29.4257 49.1029C32.2928 46.4336 29.9502 48.2684 28.6788 47.9264C28.6911 47.7603 28.5608 47.573 28.3187 47.1988C30.1766 45.4462 29.1902 46.0943 28.3624 46.3197C26.9232 46.6452 25.8839 45.6852 25.5762 45.3358C25.116 44.7836 24.9398 44.0838 24.3039 43.0208C22.8617 40.2623 21.9242 40.428 20.6895 39.3938C18.44 37.1897 19.586 35.2242 21.651 33.8313C22.0505 33.6696 22.2747 33.6842 22.7205 33.6294C22.8433 33.6373 22.9425 33.6426 23.1173 33.6453C22.2577 34.7683 21.8595 35.6245 21.7358 36.9949C21.5746 37.8003 21.346 38.3582 21.426 38.3644C21.5099 38.4086 21.8547 37.9103 22.1165 37.4738C22.9032 36.0923 22.783 36.1692 23.366 33.6475C23.6929 33.6475 24.095 33.6391 24.6523 33.6431C24.2383 34.4404 23.906 35.2784 23.6606 36.144C23.4635 36.5045 23.29 36.8376 23.3027 36.8363C23.3773 36.8035 23.4483 36.7629 23.5146 36.7152C23.2961 37.4866 22.9862 40.2239 22.9854 40.5981C23.3149 40.1868 24.1086 38.7103 24.3455 38.0357C24.7163 37.7472 25.0536 37.417 25.3507 37.0514C24.5736 40.5707 24.5295 40.1833 25.605 38.6021C25.4446 39.0094 25.3048 39.3708 25.31 39.373C26.7405 38.4148 27.6933 36.3517 28.0534 34.6017C28.0596 34.603 28.0656 34.6049 28.0713 34.6075C27.8988 35.3333 27.8062 36.0762 27.7951 36.8226C27.3253 37.5599 26.4949 39.745 26.2641 40.4519C26.2383 40.496 26.4564 40.3136 26.6535 40.1369C27.1942 39.6469 27.4949 39.2652 27.8497 38.7262C27.9 39.4459 27.9559 40.356 27.976 40.2751C28.855 38.7832 29.4087 36.7382 29.3899 35.1337C29.7347 35.2861 29.7422 35.4155 30.212 35.5569L30.3505 35.6267L30.3545 35.6823C29.1006 37.1924 28.6587 38.8932 28.0486 41.2555C28.0276 41.354 27.9988 41.3955 28.032 41.3823C29.5263 40.0026 30.1368 38.0326 30.4052 36.1829C30.5044 37.0121 30.747 38.0618 30.9344 38.8999C30.4821 39.5846 29.5298 41.8346 29.3663 42.2906C30.8086 41.3465 31.8641 39.5926 32.4388 37.5776C32.5122 37.347 32.5577 37.0475 32.6053 36.9507C32.6315 36.9459 33.2744 37.4018 33.4838 37.552C32.1101 39.5921 31.8321 42.1417 31.514 44.1576C33.0205 42.5283 33.5563 39.9469 33.6267 37.6801C33.6389 37.6655 33.8478 37.8193 34.138 38.0539C34.1573 38.0936 34.1699 38.1148 34.1743 38.1131C34.1788 38.1063 34.1822 38.0988 34.1844 38.091C34.3185 38.1988 34.617 38.4497 34.7573 38.5676C33.3588 40.5654 33.0301 42.8971 32.6232 45.1206C34.1594 43.5302 34.8133 40.9073 34.8832 38.6816L34.9326 38.7209C35.0676 38.8345 35.558 39.2891 35.7713 39.4967C34.5323 41.5643 34.3653 43.8262 34.1105 46.3373C34.9877 45.2413 35.5375 43.7626 35.7604 42.01C36.1074 39.2308 35.3259 39.0567 36.8246 40.637C37.0999 40.9718 37.4365 41.3549 37.4133 41.3796C36.3827 43.2727 36.2486 44.9943 36.0418 47.307C36.0418 47.3826 36.0139 47.4276 36.0654 47.3729C37.3338 45.6817 37.603 43.4662 37.4998 41.4653C37.7822 41.8351 38.4146 42.7465 38.4054 42.781C37.6318 43.9459 37.4102 45.5094 37.2717 46.5445C38.0584 45.7011 38.4583 44.2229 38.446 42.8384C38.5732 43.0217 38.9705 43.7131 39.0955 43.9552C38.3455 45.0049 38.0929 46.6987 37.9592 47.7064C38.828 46.696 39.0811 45.5063 39.1392 44.0838C39.1392 44.0582 39.151 44.0573 39.2039 44.1545C39.3787 44.4871 39.6873 45.1361 39.8223 45.4573C39.3372 46.5176 39.2572 47.5337 39.2629 49.1126C39.266 49.3286 39.2555 49.4877 39.2751 49.447C39.9639 48.3399 40.0312 46.822 39.859 45.5775L39.8586 45.5752L39.859 45.573C39.8743 45.5633 40.0229 45.9503 40.1606 46.3183C40.2412 46.5131 40.2844 46.7217 40.2878 46.9328C40.2004 48.1036 40.5627 49.3017 40.9381 50.5997C41.3983 48.8065 40.5754 47.3835 40.2192 45.8284C41.3992 46.5326 42.9612 47 43.9372 46.7698C42.8882 46.2839 41.2795 45.657 40.1785 45.7007C40.151 45.6124 40.0443 45.2943 40.0343 45.2492C41.3839 45.6468 42.855 45.6746 43.8803 45.1869C42.1068 44.9068 40.9674 44.8534 40.0046 45.1639C39.9346 44.9545 39.8219 44.6581 39.6208 44.1306C40.8883 44.4871 42.2869 44.5724 43.3887 44.0423C38.7402 43.3076 39.9316 44.7933 39.2511 43.2815C40.4241 43.0924 41.9477 42.4478 42.6291 41.4631L42.5417 41.4892C41.2484 41.8969 39.8809 42.5181 39.2253 43.2404C39.1379 43.0566 38.8438 42.4964 38.7485 42.3091C39.9128 42.086 41.2314 41.5024 41.946 40.527L41.8585 40.5526C40.4429 41.0134 39.3416 41.5338 38.6681 42.1762C38.6222 42.022 37.9688 41.2042 38.2258 41.2647C40.2852 40.8309 42.4473 39.4773 43.1059 38.2403C40.8603 39.1 39.2214 39.8912 38.0579 41.1813C38.0042 41.0792 37.3744 40.2226 37.2595 40.0671C39.5933 39.673 41.6335 38.8778 43.0858 37.5431C45.8431 39.1234 47.6119 39.487 50.138 39.0717C51.0414 38.9012 51.7682 38.6299 52.6292 38.2023C52.6292 38.2129 52.6327 38.2239 52.6354 38.2359C52.704 38.4736 52.7083 38.7081 52.8023 38.9502C52.818 39.0722 52.756 39.1406 52.8871 39.1795C53.1174 39.0214 53.3897 39.1292 53.7175 39.1137C53.9644 39.1177 55.3154 39.0253 54.6069 38.6428C54.4487 38.5579 54.5435 38.1387 54.6598 38.3114C54.8783 38.8314 55.4124 38.8203 55.7258 38.5129C55.8359 38.7338 56.078 38.7779 56.269 38.6255C56.3429 38.6224 56.4464 38.7139 56.3201 38.7943C56.2074 38.8694 56.2113 38.8707 56.0706 38.8946C55.2953 38.9189 55.5964 39.8524 56.1361 40.212C56.4788 40.4474 56.6068 40.3445 56.9469 40.7054C57.092 40.7912 57.1287 40.6613 57.2878 40.6856C57.4879 40.7969 57.7738 40.6529 58.0509 40.6758C58.3467 41.5073 58.925 41.1508 59.3458 41.5152C59.4333 41.5594 59.5272 41.3036 59.6894 41.305C59.8751 41.2758 60.1422 40.7346 60.2545 40.3693C60.4647 39.7627 59.7519 39.8029 60.0661 39.548C60.1741 39.7194 60.5272 39.7901 60.678 39.9204C60.8196 39.9054 60.9913 39.8868 61.1758 39.8683C61.5114 39.9314 61.7439 40.0631 61.9485 39.635C62.2352 39.5599 62.622 39.0505 62.6478 38.6215C62.8772 38.9348 63.3178 38.7731 63.6665 38.6825C63.8247 38.6096 63.8645 38.4263 64.0511 38.3945C64.1823 37.8922 64.2334 37.2874 63.9786 36.6821C64.1753 36.6609 64.1499 36.5213 64.2233 36.3857C64.4292 36.425 64.4537 36.1281 64.6656 36.0764C64.6246 35.932 64.6945 35.7084 64.6613 35.5392C64.705 35.5083 64.7552 35.495 64.7225 35.3735C64.5787 34.9799 64.3732 34.6755 64.125 34.5001C63.8864 34.3707 63.7727 34.8023 63.5691 34.566C63.9065 34.4374 64.0813 34.1259 64.0201 33.8304C64.0778 33.9051 64.2955 33.7822 64.3024 33.9011C64.4506 34.3327 64.9117 33.8375 64.958 33.541C65.0568 33.2344 64.9829 32.5249 64.7185 32.3875C64.5874 32.2678 64.4209 32.1401 64.3199 32.0619C64.3033 32.054 64.1967 32.0005 64.0957 31.9519C64.014 31.6754 64.3252 31.5791 64.0957 31.4218C63.653 30.8735 64.2863 30.6553 63.3567 30.1322L63.354 30.1163C63.3501 29.9542 62.983 29.796 62.8847 29.7739C62.962 29.553 63.49 30.2674 63.7067 29.6105C63.7037 29.5168 63.7505 28.7145 63.4764 28.692C63.5123 28.5153 63.3978 28.3315 63.2684 28.2294C63.2395 28.1358 63.2566 27.9083 63.0499 27.9719C62.705 27.8146 61.7029 27.1983 61.5368 27.8937C61.5215 28.0841 61.6613 28.2339 61.6203 28.464C61.511 28.5436 61.5285 28.218 61.4712 28.0713C61.4384 27.9498 61.2527 27.8 61.1845 27.7815C61.1762 27.7775 61.1679 27.774 61.1587 27.77C61.0971 27.7059 60.9791 27.7408 60.8886 27.6878C60.8327 27.497 61.2706 27.5822 61.3336 27.5372C61.6329 27.3998 61.8143 26.9103 61.6141 26.6602C61.6211 26.453 61.5993 26.3819 61.2208 26.3797C60.8878 26.3302 61.0206 26.0077 60.6037 26.3245C60.2217 26.5489 59.959 27.3406 59.8253 27.0057C59.7615 26.8546 59.6902 26.6934 59.4927 26.6342C59.3926 26.5188 59.0041 26.3691 58.9175 26.2432C58.7943 25.911 58.4696 25.5209 58.1671 25.1321C58.0657 25.0247 58.0653 25.1723 57.9189 25.1895C57.4919 24.9775 57.0181 25.2907 56.8813 25.7289L56.8734 25.7488C56.7493 25.5721 56.0675 25.402 55.8551 25.3322C55.7747 25.3534 55.5654 25.383 55.4377 25.2739C55.3827 25.3419 55.3066 25.539 55.1794 25.5765C54.7769 26.0952 54.9037 25.6989 54.676 25.9176C54.6213 26.0528 54.6248 26.1332 54.488 26.2825C54.0003 26.1199 53.7774 26.1022 53.5121 26.4654C53.3652 26.4415 53.1624 26.806 53.1048 26.9001C53.0099 27.0525 52.8259 27.1382 52.8583 27.3825C52.9068 27.5292 52.9758 27.5729 53.0921 27.6374C53.1297 27.7488 52.9225 27.9683 53.1454 28.1018C53.0143 28.2228 53.2328 28.7304 53.058 28.6195C52.9369 27.9445 52.4426 27.9772 51.6157 28.1866C51.4055 28.2387 51.5043 28.3951 51.1953 28.4958C50.9851 28.6032 51.2455 28.6796 51.1953 28.7914C51.1739 28.9204 51.1192 29.0949 51.1114 29.1541C51.1284 29.185 51.2119 29.1855 51.1839 29.2866C50.9986 29.5217 51.315 30.3911 51.6293 30.3995C52.0226 30.4993 52.1223 30.0496 52.3666 30.0624C52.6139 30.1689 51.8015 30.2453 52.4238 30.6014C52.3801 30.6756 52.4164 30.9796 52.4216 31.1249C52.4055 31.2676 52.3041 31.3051 52.2853 31.39C51.6682 31.4452 51.0978 32.3248 51.7661 32.7595C51.9339 32.9477 51.5515 32.8072 51.4601 32.6928C51.0353 32.4423 50.4549 33.1381 50.3937 33.3899C50.35 33.5437 50.4282 33.6024 50.4003 33.807C50.3671 33.9722 50.3129 34.072 50.4003 34.1697C50.6506 34.4254 50.8763 34.7047 51.0742 35.0038C51.5305 35.484 52.0921 35.6134 52.4059 35.0824C52.4732 34.9499 52.2433 34.6552 52.5047 34.5854C52.5654 34.5854 52.5619 34.6296 52.5401 34.6967C52.3718 35.1911 53.145 35.2799 53.3268 35.0625C53.2551 35.3033 53.6305 35.541 53.3307 35.4959C52.3015 35.5728 52.0973 37.1857 53.1183 37.1093C53.162 37.1173 53.1852 37.1058 53.1804 37.1866C52.9719 37.6726 52.7555 36.6843 52.5973 37.5741C50.5314 38.5964 47.9454 38.7669 45.8471 38.2752C44.5766 37.9337 44.3017 37.7596 43.4433 37.1955C43.5534 37.0841 43.9079 36.675 43.8594 36.7046C43.855 36.702 43.5141 36.8098 43.0941 36.945C42.859 36.7727 42.6098 36.5849 42.3314 36.3813C41.807 35.9991 41.4241 35.7044 41.1278 35.5043C41.4674 34.9017 41.4704 34.9773 40.8533 35.3276C40.7379 35.2591 40.6562 35.2158 40.3656 35.0532C40.5059 32.7409 39.3604 30.7379 37.5287 29.4081L37.4129 29.3304C38.0746 29.0017 39.6877 28.1309 40.1283 27.8681C40.1619 27.8491 40.1803 27.8393 40.1894 27.9184C40.2292 28.6898 40.2821 29.0671 40.4342 29.637C40.7401 31.0162 42.1763 32.8563 43.1334 34.0142C43.3034 34.3592 43.3371 33.2221 43.3594 32.8872C43.3725 30.4852 42.3629 29.0512 40.699 27.5323C41.1274 27.2827 41.8476 26.7967 42.2265 26.5935C43.2444 29.5336 44.9113 30.4441 47.7177 32.4202C47.6351 30.9146 46.3523 29.2394 44.7719 27.7333C44.0289 27.0534 43.2964 26.8056 42.4556 26.4371C42.7523 26.2299 44.3677 25.1272 44.5281 24.9938C45.0088 27.3883 46.5127 28.3982 48.392 29.8583C48.4357 29.8844 48.4506 29.9025 48.4611 29.8892C48.4995 29.7894 48.4471 29.0896 48.3798 28.8038C48.0188 26.8948 46.3864 25.5677 44.8279 24.9024C44.7942 24.8895 44.762 24.873 44.7317 24.8533C45.0097 24.6355 45.9664 23.911 46.2448 23.6928C46.6731 24.92 47.4546 25.5041 48.9283 26.4543L49.0196 26.5034C48.9536 24.9183 47.7343 24.0113 46.4716 23.5182C46.7605 23.2775 47.6643 22.5317 47.9515 22.2865C48.3356 23.7303 49.3142 24.3532 50.6844 25.2465L50.7766 25.2973L50.7691 25.1533C50.6581 23.5872 49.2648 22.6736 48.0253 22.234C50.3548 20.1753 47.4296 22.1593 54.1393 21.7984L54.0234 21.6906C52.8631 20.7991 51.0681 20.8459 49.2893 21.0973C50.0384 20.3878 50.4663 19.9822 50.7416 19.7074C51.8229 20.3259 53.2962 20.3732 55.8368 20.2667C54.856 19.3761 52.9133 19.2669 50.8583 19.593C50.8872 19.5581 51.3539 19.092 51.4623 18.9824C53.3556 19.2033 55.7891 18.4682 57.3743 18.0547C55.9032 17.5581 53.7468 18.0794 51.6306 18.8106C53.4736 16.7435 55.9342 14.7837 56.9574 12.2333C55.321 13.9505 53.7512 15.5467 52.7354 17.2732C52.5246 17.5815 52.2791 17.8641 52.0038 18.1152C51.4859 18.6096 50.9348 19.1313 50.9243 19.1132C52.1144 17.6054 53.5859 15.4093 53.7175 13.5829C52.8679 14.7864 50.9833 17.7384 50.7683 19.2696C50.2054 19.7719 49.3496 20.5282 48.6267 21.1039C49.517 19.4666 50.5935 17.8466 50.406 15.8612C50.4195 15.6845 50.0397 16.5597 49.7395 17.1424C48.9156 18.804 48.4786 20.0259 48.4349 21.2651C48.0415 21.5938 46.8846 22.4986 46.5555 22.7314C47.7828 20.8759 48.6757 18.7699 48.4244 17.3593C47.5275 19.0103 46.4677 21.3292 46.4498 22.8056C46.4227 22.8618 44.7606 24.0365 44.0552 24.5109C45.7566 22.2216 47.9322 18.1263 47.5752 16.0057C45.4655 19.6919 44.2798 21.8593 43.8602 24.6324C43.3017 25.03 40.9246 26.506 40.2327 26.8546C42.3209 23.7007 44.341 20.0511 44.0958 17.168C42.2969 20.4624 40.3236 23.6393 39.984 27.0061C39.4351 27.3039 38.4334 27.8429 38.0715 28.013C39.7441 25.3092 41.6068 21.4449 41.0312 18.6471C39.6873 21.4012 37.7236 25.4144 37.8027 28.1548C37.2123 28.4517 35.4356 29.3074 35.5064 29.2261C37.2546 26.3717 39.1226 22.7928 38.7092 19.8558C38.7437 19.6027 37.8713 21.5019 37.3635 22.5066C36.0497 25.2704 35.3714 26.8701 35.2014 29.3829C34.7442 29.5835 33.4335 30.1366 33.4925 30.0898C34.551 27.6684 35.0143 25.2443 34.6948 23.4763C34.6149 23.0234 34.5143 22.7977 34.5143 22.7977C34.3367 22.4495 34.1085 22.13 33.8373 21.8501C34.1948 27.6149 32.5262 27.5274 33.3509 29.853C33.2753 29.9467 33.1472 30.1075 33.0013 30.2921C32.3579 30.5347 31.5817 30.8276 30.9327 31.06C30.9738 30.7781 30.9698 29.9997 30.9305 29.8397C30.9178 29.8168 30.5345 30.6283 30.2312 31.3051L29.6342 31.5057C29.6823 31.3714 29.726 31.2389 29.7653 31.1081C31.0197 28.7667 32.3133 25.5416 31.601 23.2165C31.5634 23.1251 31.5629 23.2028 31.5433 23.2311C30.6543 25.3958 29.3685 28.6257 29.3654 30.3072C29.1211 30.7299 28.8445 31.2504 28.6661 31.6418C28.462 31.6542 28.2291 31.6705 27.983 31.6908C28.1754 31.0748 28.2891 30.4364 28.3213 29.7911C29.0822 27.6366 29.0931 25.2469 28.4087 24.2375C27.629 26.7009 26.699 29.8481 27.1172 31.6723L27.0923 31.7748C26.9061 31.7938 26.6889 31.8189 26.4446 31.8454C26.6741 31.0869 26.7506 30.2966 26.6452 29.5959C26.383 30.0474 25.8625 31.5499 25.7855 31.9303C25.7532 31.9347 25.7209 31.9395 25.6876 31.944C26.5853 29.7037 27.0936 27.1515 26.1684 25.5876C25.5897 27.5129 24.7467 30.4472 25.1147 32.0266C24.5198 32.1295 24.5059 32.1269 23.7126 32.3031C24.3682 29.7991 24.286 27.8146 23.1619 26.5325C22.8704 28.2555 22.4526 31.1271 23.0426 32.4635C22.6689 32.5806 20.7629 33.1346 20.4872 33.0449C19.0497 32.7719 17.9409 30.8501 18.6634 29.2946C18.7787 29.0366 18.8727 28.8413 19.0274 28.6553C19.8281 28.0227 21.0951 25.9604 21.905 25.607C22.2616 25.4519 22.6104 25.4409 23.1938 25.0954C24.0321 24.5763 24.3511 24.1416 24.6837 23.7895C25.0723 23.2678 26.1474 22.6992 26.6745 22.42C27.5154 21.858 27.9315 21.1781 28.2357 21.027C28.7238 20.6599 29.3436 22.2035 29.4874 22.7579C30.5748 22.2941 29.1294 19.1265 30.4052 20.2062C31.521 20.9312 31.406 22.2035 31.7076 22.2433C32.4292 21.1679 31.3523 18.2716 32.6293 19.3275C32.979 19.5453 33.6783 20.6405 33.9479 21.0672C34.7163 21.4798 33.4864 18.2429 33.7648 18.0065C34.4505 17.35 36.1638 19.8682 36.1511 20.0714C37.058 20.5176 35.7263 17.138 35.6996 17.0253C35.5912 15.7764 37.985 17.9796 38.4377 18.6864C38.9775 18.0587 37.3661 15.5321 37.4872 15.3474C37.7376 14.1732 40.2301 16.785 40.3446 16.8795C41.0303 15.8396 38.1423 13.6134 39.3591 13.522C40.3643 13.3621 41.5133 14.835 41.8223 14.9534C42.2768 13.9898 39.3835 12.0632 40.755 12.0915C42.1002 12.1635 42.8668 13.3051 43.0635 13.5008C43.2768 13.7446 43.0993 12.6989 42.5469 12.0619C40.6108 10.4392 42.6151 10.9132 43.1299 11.2808C43.8371 11.7668 44.2147 12.33 44.3209 12.3729C44.5167 12.4529 44.4555 11.5702 43.9852 10.9044C43.723 10.4021 42.6715 10.0102 43.0906 9.83352C43.5276 9.42354 44.9358 11.3798 45.0525 11.4708C45.0993 9.23622 43.8126 9.31309 43.6662 7.75403C43.9769 5.21377 40.7087 2.6956 39.9954 2.52904C39.8385 2.50209 39.7913 2.48486 39.5859 2.51888C38.1436 2.98452 36.7774 2.20963 35.7036 2.63065C35.5293 2.69544 35.3517 2.75088 35.1717 2.79676C33.1236 3.3004 31.2863 3.43956 30.8116 3.60656C29.2645 4.05629 27.917 5.33791 25.3048 7.00123C22.3809 8.93006 18.1538 10.6968 15.9519 11.4871C15.2089 11.7654 14.6005 11.9868 14.1709 12.1608C12.4861 13.0643 12.4594 12.3216 11.0678 12.6857C10.4166 12.8067 10.2628 13.1778 9.7475 13.2357C9.37033 13.275 9.21736 13.1328 8.89613 13.0771C7.70472 12.9715 7.21129 13.4579 7.06707 14.4908C6.63876 15.313 6.20739 14.1502 5.29613 15.1606C4.10692 16.4545 3.54793 17.574 2.76123 18.7549C1.89063 20.0803 2.25819 20.7173 0.886718 20.9444C0.789386 20.9787 0.706683 21.0458 0.652465 21.1344L0.717582 22.2163C1.12622 23.5483 1.31329 23.3716 1.13104 24.6395C0.947476 27.3454 0.104836 26.6443 0.00343974 28.092C-0.0922746 30.3805 1.84605 30.3756 1.18348 31.1315C1.11565 31.2267 1.07953 31.3412 1.08034 31.4584C1.07072 31.803 1.27482 32.2205 1.58819 32.5077C2.80582 33.3873 2.97277 31.8918 3.82502 33.5295C4.1716 33.7836 4.72316 33.8936 5.02516 33.6356C5.04619 33.6134 5.0632 33.5877 5.07542 33.5596C5.15016 33.3904 5.4526 32.3115 5.43206 32.2925C5.46571 32.0222 5.01205 31.788 5.01205 31.4646C5.20392 29.933 6.59417 31.617 6.98446 32.1715C9.50013 36.2646 8.20471 34.9693 7.44599 38.0366C7.1453 39.2705 7.20037 40.265 7.01637 40.959C6.88525 41.8046 5.69516 41.8669 6.22006 42.7796C6.78473 43.7074 7.18158 43.7772 7.29914 43.9649C7.8743 44.6099 9.10635 46.2927 9.47216 46.951C14.1237 55.5242 15.9842 55.5216 21.127 56.7369C25.9035 57.9143 29.7566 59.3876 33.8146 61.0223C36.1336 61.8316 39.2472 63.0823 41.2161 62.1947ZM56.7611 26.552C56.7466 26.5566 56.7328 26.5631 56.72 26.5714C56.7708 26.5073 56.8274 26.4481 56.8892 26.3947L56.9014 26.3828C56.95 26.4042 56.9901 26.4413 57.0155 26.4884C57.0049 26.4976 56.995 26.5074 56.9858 26.518L56.9285 26.5869C56.87 26.5635 56.8227 26.533 56.7611 26.552ZM62.549 30.6297C62.521 30.6858 62.3034 30.7807 62.3785 30.6076C62.4354 30.6138 62.4515 30.6442 62.549 30.6297ZM58.1925 30.5532C58.1051 30.6707 57.9932 30.6155 57.8708 30.5037C57.9541 30.5164 58.0614 30.5329 58.1925 30.5532ZM60.2116 29.3003C60.4385 29.5654 60.619 29.6493 60.8257 29.9188C60.7903 29.9559 60.7505 29.9997 60.7064 30.0514C60.6469 29.9511 60.1889 29.5446 59.9673 29.3821C59.9533 29.2937 59.8633 29.3189 59.7707 29.2455C59.5727 29.0401 60.0019 29.2045 60.0263 28.9721C60.0565 29.1236 60.0311 29.0839 60.2116 29.2981L60.2116 29.3003ZM60.0368 28.4985C60.0947 28.5358 60.1604 28.559 60.2286 28.5662C60.2969 28.5734 60.3659 28.5645 60.4302 28.54C60.4022 28.6637 60.5665 29.0123 60.5294 29.0176C60.3865 28.9319 60.2125 28.6275 60.0486 28.8267C60.0486 28.7998 60.0486 28.772 60.0486 28.7437C60.0586 28.7446 60.0686 28.7426 60.0775 28.7379C60.1212 28.7145 60.129 28.616 60.0338 28.5811C60.0298 28.5489 60.0255 28.517 60.0207 28.4861C60.0259 28.4883 60.0316 28.4927 60.0368 28.4963L60.0368 28.4985ZM55.0732 29.5588C55.0907 29.5088 55.1047 29.4625 55.1169 29.4218L55.1392 29.3675C55.1523 29.4607 55.1694 29.5561 55.1917 29.6524C55.1555 29.6168 55.1158 29.5849 55.0732 29.5574L55.0732 29.5588ZM55.7424 29.0348C55.6707 28.7039 55.6353 28.5382 55.6388 28.4892C55.6412 28.4665 55.6423 28.4436 55.6423 28.4207C55.8879 28.6416 55.887 28.5974 56.1204 28.6103C55.9744 29.1082 55.9919 29.455 56.0028 29.8402C56.0063 30.1013 55.8075 29.3604 55.7424 29.0348ZM56.9574 30.7414C56.9202 30.5921 56.8679 30.447 56.8013 30.3085C56.7702 29.9075 56.7639 29.505 56.7825 29.1033C56.8625 29.1992 57.1282 29.28 57.2655 29.2168C57.5793 29.1727 57.4014 29.4245 57.1733 29.4819C56.8673 29.6988 57.0885 30.0735 57.418 30.3429C57.276 30.3398 57.0771 30.5802 56.9853 30.8408C56.9757 30.8024 56.9657 30.7684 56.9574 30.7414ZM62.8523 33.0922C62.869 33.1283 62.8987 33.1568 62.9354 33.1717C62.8835 33.2232 62.8205 33.2618 62.7514 33.2843C62.7999 33.2212 62.8325 33.1471 62.8462 33.0683C62.847 33.0765 62.8491 33.0846 62.8523 33.0922ZM62.8576 32.9446C62.8598 32.964 62.8586 32.9836 62.8541 33.0025C62.8554 32.9766 62.8554 32.9506 62.8541 32.9247C62.8558 32.9312 62.8569 32.9379 62.8576 32.9446ZM57.147 32.1794C57.1033 32.1432 57.0596 32.1127 57.0234 32.0875C57.0474 32.0014 57.057 31.9118 57.0518 31.8225C57.2577 31.9356 57.4692 32.0379 57.6855 32.1291C57.6295 32.209 57.4927 32.35 57.4709 32.5134C57.3944 32.4401 57.3507 32.3416 57.147 32.1794ZM55.9364 32.6831C55.9448 32.6955 55.9512 32.7092 55.9552 32.7237L55.9364 32.6831ZM56.5251 33.4946C56.4377 33.4465 56.3503 33.3979 56.2629 33.3511C56.1588 33.1661 56.0651 32.9754 55.9823 32.7798C56.1305 33.0498 56.5688 32.7767 56.7585 32.6256C57.0116 32.7323 57.2705 32.8245 57.5338 32.9018C57.5911 33.0335 57.6677 33.1558 57.7611 33.2645C57.4906 33.4575 57.1169 33.6073 56.8621 33.7036C56.7538 33.6276 56.6413 33.5578 56.5251 33.4946ZM61.1968 34.2108C60.7099 34.1476 60.7562 34.1153 60.3353 34.0575C60.3353 34.0248 59.8847 33.7871 59.5823 33.6241C59.6168 33.5975 59.649 33.5679 59.6784 33.5357C60.0443 33.5463 60.8747 33.4619 61.3327 33.3281C61.4227 33.4606 61.435 33.4862 61.6137 33.6104C61.6006 33.8039 61.5215 34.008 61.5534 34.2501C61.4542 34.2412 61.3362 34.2289 61.1968 34.2108ZM60.4 35.1328C60.546 35.1014 60.6653 35.0387 60.6775 34.8567C60.7666 34.894 60.8596 34.9209 60.9546 34.9371C60.8672 35.0497 60.6308 35.0373 60.5246 35.18C60.48 35.1637 60.438 35.1478 60.4 35.1328ZM61.9397 35.7106C61.9144 35.4822 61.695 34.9835 61.4502 34.9521C61.4533 34.9521 61.4564 34.9521 61.4594 34.9521C61.5748 34.9512 61.6897 34.9385 61.8025 34.9141C61.7751 34.9834 61.7602 35.0572 61.7588 35.1319C61.8025 35.3625 62.0647 35.6828 62.2265 35.8387C62.1517 35.799 62.0564 35.7579 61.9397 35.7106ZM55.7336 36.8204C55.9054 36.7621 55.9128 37.0377 56.0645 37.0855C56.0191 37.1412 55.9779 37.2002 55.9412 37.2622C55.8608 36.9993 55.703 36.8619 55.7371 36.8204L55.7336 36.8204ZM61.9459 38.0888C61.9109 38.0622 61.8016 38.0234 61.7505 37.9249C61.7842 37.7959 61.8816 37.9545 62.0455 37.9898C62.257 37.9982 62.334 37.9545 62.4826 37.8131C62.57 38.4214 62.9445 37.7791 62.632 38.4166C62.5079 38.0706 62.2225 38.1519 61.9459 38.0888ZM34.3456 5.98999C31.0354 6.65487 32.4453 4.46141 34.3019 4.34699C35.2197 4.37349 35.1122 4.17602 35.6629 3.92818C35.9924 3.87649 36.9133 3.82656 37.2057 3.84335C38.2122 3.98119 38.7821 4.46583 39.0383 4.81837C39.4382 5.44482 37.9456 6.40173 37.2874 6.34518C37.1492 6.34191 37.0133 6.30813 36.8893 6.24622C36.1384 5.75805 34.9933 5.84773 34.3456 5.98999ZM27.7462 11.4955C28.9782 10.2015 30.0761 11.4712 29.5962 11.8989C29.4052 12.0756 29.0591 12.1414 28.9323 12.3773C28.7828 12.6424 29.1071 12.8681 29.122 13.2264C29.2094 14.0044 28.6443 14.9176 28.2579 14.8354C28.0219 14.7435 27.6185 14.1347 27.5032 13.8374C27.3996 13.5626 27.5665 13.4455 27.4988 13.0864C27.1977 12.4878 27.3069 12.0557 27.744 11.4937L27.7462 11.4955ZM15.2482 14.8699C16.1464 14.3185 16.482 14.2664 18.1236 13.526C19.4968 12.7528 21.2393 12.4383 22.6108 12.4091C25.0146 12.4034 25.5495 12.5766 26.5399 14.5107C26.6164 14.6843 26.7654 15.3501 26.3777 15.5763C26.1618 15.6523 25.7515 15.5688 25.5723 15.59C23.9989 15.5246 21.9447 16.7925 20.9981 17.1901C20.5173 17.4053 19.8854 17.9959 19.0021 18.648C18.6594 18.9065 18.7765 19.6098 18.5943 19.809C18.3941 20.048 18.3098 19.889 17.791 20.0374C17.3011 20.1797 17.1394 20.401 16.9034 20.4072C15.4204 20.1024 16.4689 18.2924 16.232 17.6173C15.9698 16.8159 15.2583 17.1755 14.9921 16.6971C14.8335 16.2792 14.4594 16.0759 14.1705 15.9624C13.9454 15.6841 14.9454 15.0612 15.2482 14.8699ZM14.0083 21.2757C13.5971 20.4518 12.6438 20.1832 12.0591 20.4006C11.1653 20.5035 10.4616 20.4249 9.80432 19.9239C7.93767 18.3776 9.05521 18.1223 8.11468 17.0563C8.0826 17.0133 8.05978 16.964 8.04766 16.9116C8.03555 16.8592 8.0344 16.8048 8.04431 16.7519C8.08146 16.5575 8.24885 16.5486 8.43766 16.1904C8.69639 15.4451 8.63346 15.2577 9.32925 15.5436C9.80082 15.711 10.0722 16.3741 10.5836 16.6114C11.2243 16.8411 11.5604 17.2471 12.1832 17.8126C12.6954 18.231 12.7588 18.1444 13.1622 18.5097C14.1862 19.3491 15.4755 22.7067 14.8711 23.2907C13.6893 23.0968 14.3291 21.8448 14.0083 21.2757ZM11.7662 30.9871C11.5551 30.9398 11.5565 30.7494 11.1941 30.3337C10.7497 29.8234 10.4713 29.7744 10.3616 29.6242C9.89872 28.9098 11.157 27.7656 10.5766 26.9028C9.20469 24.5405 8.15358 25.8818 7.10728 24.9368C6.77162 24.7442 6.32058 24.7243 5.92724 24.8365C4.80533 25.0844 5.24675 26.9213 4.55752 27.0384C3.44435 27.2513 3.14409 25.6821 2.94917 24.8555C2.91901 24.6709 2.93474 24.6505 2.91376 23.7952C2.87006 22.6068 2.90328 22.4385 3.39103 21.9941C3.86217 21.6769 4.30403 22.0891 5.23276 22.1575C6.11998 22.2357 6.64356 22.0166 7.03254 22.1699C7.13876 22.2136 7.23101 22.2861 7.29914 22.3793C7.78427 23.2828 8.33277 22.8688 8.59762 23.0115C12.6137 25.0437 12.3257 26.2701 12.4874 27.5513C12.5451 27.709 12.5477 27.7832 12.7531 27.8261C13.3099 27.6759 13.4524 28.1199 13.5136 28.5166C13.7054 29.2557 12.3689 31.1443 11.7662 30.9871ZM25.0898 33.6713L25.0898 33.6515C25.7016 33.6868 25.3083 33.8958 25.1037 34.1114C25.102 33.9585 25.0967 33.811 25.0898 33.6713ZM29.1819 33.1955C29.146 33.044 29.1001 32.8611 29.0691 32.7564C29.1268 32.653 29.1819 32.5497 29.2334 32.4472C29.2916 32.4295 29.358 32.4101 29.4301 32.3893C29.5451 32.3964 29.6617 32.4047 29.7798 32.4131C29.571 32.9844 29.4244 33.5769 29.3427 34.1803C29.3087 33.849 29.2553 33.5202 29.1819 33.1955ZM28.1815 34.1582L28.1356 34.1441L28.2138 34.0424L28.1815 34.1582ZM27.9905 33.8436C27.9809 33.925 27.9663 34.0057 27.9468 34.0853C27.9424 34.0888 27.5932 34.0018 27.3895 33.9492C27.4927 33.5878 27.4542 32.8514 27.6046 32.8483C27.6483 32.8377 27.9865 32.7599 28.2575 32.6954C28.1389 33.0705 28.0499 33.4544 27.9905 33.8436ZM24.8778 36.2598C24.9622 35.8573 25.0229 35.4502 25.0596 35.0404C25.2742 34.759 25.5001 34.0199 25.6876 33.8034C25.751 33.8154 26.1173 33.9267 26.411 34.0204C26.2944 34.2651 26.1854 34.5113 26.084 34.759C25.6466 35.1761 25.2689 35.647 24.8778 36.2598ZM27.8357 34.7224C27.4822 35.0761 27.1647 35.4649 26.8882 35.8829C27.064 35.3736 27.2069 34.8532 27.3161 34.3252C27.4354 34.3658 27.8572 34.5222 27.9861 34.5699L27.8357 34.7224ZM30.0599 34.8014C29.889 34.7356 29.7308 34.6733 29.7059 34.6649C29.9318 34.0464 30.4956 33.1765 30.6451 32.49C30.6504 32.49 30.6556 32.49 30.6609 32.49C30.4423 33.355 30.3326 34.1149 30.3278 34.9017C30.2723 34.8849 30.1722 34.8469 30.0586 34.8014L30.0599 34.8014ZM32.8094 33.2167C32.4562 33.6812 32.1516 34.1813 31.9003 34.7091C31.8733 34.363 31.8228 34.0193 31.7491 33.6802C31.9868 33.3737 32.2058 33.0528 32.4047 32.7193C32.5432 32.7427 32.68 32.7675 32.816 32.7935C32.8087 32.9358 32.806 33.0769 32.8081 33.2167L32.8094 33.2167ZM34.3251 33.1412C34.3959 33.1606 34.4663 33.1796 34.5357 33.1995C34.5231 33.3091 34.5213 33.6272 34.5078 33.7045C34.4654 33.6303 34.381 33.2923 34.3238 33.1412L34.3251 33.1412ZM32.5769 36.0212C32.4204 35.9267 32.1311 35.7703 31.9187 35.6523C31.9213 35.5803 31.9231 35.5087 31.9239 35.4372C32.2795 35.1547 32.6184 34.8515 32.9392 34.5293C32.9983 34.8397 33.0734 35.1467 33.1643 35.4491C33.0638 35.6103 32.885 35.9792 32.7932 36.1365C32.7184 36.1032 32.6464 36.0647 32.5769 36.0212ZM33.1341 36.0998C33.1979 36.0623 33.2652 36.0203 33.3356 35.9748C33.4055 36.1741 33.4925 36.4122 33.5839 36.656C33.3828 36.4621 32.677 36.2523 33.1341 36.0998ZM32.4925 37.0059C32.1232 37.3445 31.7829 37.7139 31.4751 38.1104C31.6486 37.5781 31.7738 37.031 31.8492 36.4758C31.8684 36.4873 32.5485 36.9034 32.5834 36.9247L32.4925 37.0059ZM34.6896 37.4756C34.6297 37.4261 34.5283 37.347 34.4274 37.2675C34.4995 36.9861 34.5585 36.7161 34.5978 36.4608C34.6669 36.4042 34.7346 36.3481 34.7975 36.2951C34.8522 36.5602 34.9453 36.9861 35.0388 37.3996C34.8749 37.59 34.9217 37.685 34.6896 37.4756ZM35.0261 37.753L35.11 37.723L35.1398 37.8555L35.0261 37.753ZM40.9337 36.2902L40.939 36.2933C41.133 36.4122 41.3909 36.5681 41.6295 36.7095C41.6732 36.7351 41.7248 36.7661 41.8358 36.831C41.876 36.8548 41.9267 36.884 42.0198 36.9383C42.1129 36.9927 42.2528 37.0731 42.4132 37.1654C40.3153 37.8316 38.7026 38.5221 37.1685 39.9412C37.0038 39.7874 36.707 39.3982 36.5213 39.2007C38.1794 38.4466 39.6571 37.5308 40.6916 36.144C40.7699 36.1904 40.8498 36.239 40.9337 36.2902ZM39.0789 35.1089L39.0763 35.112C39.3966 35.3382 39.6938 35.5304 40.0946 35.7782C38.0086 37.0002 37.4002 37.6337 36.2717 38.9326C36.2053 38.8548 35.8102 38.4705 35.5239 38.2018C35.6297 37.9441 35.7248 37.686 35.8093 37.4274C37.1205 36.8367 38.2459 36.034 39.0789 35.1089ZM37.1122 35.404C36.7687 35.6456 36.4411 35.9095 36.1314 36.1939C36.2276 35.7073 36.2861 35.2138 36.3062 34.7179C36.4933 34.4782 36.6659 34.234 36.8242 33.9855C37.3984 34.2209 37.8884 34.452 38.2787 34.6543C37.7402 34.9742 37.4587 35.1588 37.1122 35.404ZM37.9797 32.942C38.2188 33.3559 38.4242 33.6674 38.8713 34.2426C38.2546 33.9205 37.679 33.6466 37.1563 33.4151C37.3506 33.0539 37.5158 32.6775 37.6502 32.2894C37.7477 32.5132 37.8575 32.731 37.9797 32.942ZM33.4038 29.993L33.4475 30.1256L33.3806 30.1508L33.4038 29.993ZM35.301 30.3222C35.6371 30.1729 36.7306 29.6489 37.0728 29.5141C37.1165 30.2652 37.2162 31.1616 37.4723 31.8362C37.0676 32.251 36.485 32.8549 36.3058 33.0498L36.3014 33.0542C36.2774 33.0449 36.2538 33.0352 36.2302 33.0259C36.4138 32.7299 36.7354 31.9789 36.818 31.6829C36.8084 31.6762 36.4631 31.9643 36.0663 32.3045C35.9448 31.7359 35.5855 30.8435 35.3417 30.4105C35.32 30.3856 35.3059 30.355 35.301 30.3222ZM31.5039 31.7686C31.635 31.7244 31.8208 31.663 32 31.6007C31.9462 31.6745 31.8942 31.7474 31.8444 31.8181C31.7281 31.7995 31.6146 31.783 31.5039 31.7686ZM32.7924 31.9895C32.8439 31.8802 32.8926 31.7709 32.9383 31.6617C32.9187 31.7792 32.9012 31.8945 32.8859 32.0089C32.8544 32.0018 32.8234 31.9957 32.7924 31.9895ZM33.4108 31.3604C33.3129 31.2362 33.2491 31.1881 33.3426 31.1275C34.0799 30.7997 34.7141 30.5864 35.0808 30.407L34.9667 30.8271C34.6905 31.1094 34.149 31.6727 33.8303 32.016C33.7085 31.786 33.5682 31.5671 33.4108 31.3604ZM34.6874 32.0204C34.6621 32.1578 34.6385 32.3049 34.6175 32.4529C34.5738 32.4397 34.5349 32.4273 34.4973 32.4162C34.5655 32.2843 34.6288 32.1526 34.6874 32.0204ZM26.6457 32.3738C26.5145 32.407 26.3668 32.445 26.2152 32.4834L26.2479 32.4021C26.3795 32.3919 26.5119 32.3822 26.6474 32.3743L26.6457 32.3738ZM25.6841 32.4595C25.6767 32.513 25.6706 32.5664 25.6649 32.6199C25.3524 32.6711 25.3153 32.7966 25.4534 32.4874C25.5334 32.4794 25.6085 32.4692 25.6868 32.46L25.6841 32.4595ZM25.2152 32.524L25.2633 32.7189C24.7969 32.8231 23.7681 33.0453 23.4814 33.101L23.5356 32.9141C24.0853 32.7396 24.6478 32.6093 25.2178 32.5245L25.2152 32.524ZM23.2659 33.0065C23.2853 33.0447 23.3008 33.0848 23.3123 33.1262C23.3123 33.1337 23.0063 33.1925 22.6523 33.2587C22.8446 33.1704 23.05 33.0864 23.2686 33.0069L23.2659 33.0065ZM24.6413 33.4041C24.6938 33.4103 24.7856 33.363 24.7585 33.4107C24.717 33.4067 24.6781 33.405 24.644 33.4032L24.6413 33.4041ZM25.116 33.4482C25.1016 33.4482 25.0871 33.4438 25.0723 33.4421L25.0662 33.3374L25.6291 33.2362C25.6318 33.3433 25.6291 33.4505 25.6208 33.5574C25.4556 33.5115 25.2879 33.4755 25.1186 33.4496L25.116 33.4482ZM25.7777 33.3564C25.8096 33.3025 25.8406 33.2477 25.8708 33.1929C26.2641 33.1204 26.8856 33.0096 26.8974 33.0096L26.8948 33.0453C26.8283 33.2008 26.6413 33.5406 26.5377 33.7522C26.2855 33.6983 25.911 33.6298 25.6461 33.5795L25.7777 33.3564ZM19.5073 50.119C19.0528 50.0717 18.2503 49.7603 17.6861 49.8946C16.9051 49.8212 17.1927 48.9368 16.1254 48.9589C15.6984 48.912 15.4755 48.9531 15.3387 48.9019C14.9484 48.7751 14.9165 48.0183 14.9191 47.6375C14.9191 47.4095 14.7347 47.2439 14.6744 47.0482C14.5848 46.6682 14.757 46.1977 15.1363 45.9561C16.2639 45.4736 17.0773 46.7027 17.4387 46.9691C18.492 47.5695 18.721 47.603 19.3954 48.3523C19.6537 48.6761 20.3228 48.9545 20.551 49.0733C20.9247 49.6719 19.9828 50.2471 19.5099 50.1203L19.5073 50.119Z" fill="#1B1B1B"/>
</svg>
