<svg width="75" height="45" viewBox="0 0 75 45" fill="none" xmlns="http://www.w3.org/2000/svg">
<path d="M25.884 33.9612H27.2034V34.1956H26.2V34.9154H27.1269V35.1471H26.2V36.1273H25.884V33.9612Z" fill="#1B1B1B"/>
<path d="M27.912 35.0574C27.912 34.8739 27.9085 34.7166 27.8972 34.5719H28.1774L28.1886 34.8773H28.2034C28.2834 34.6683 28.4758 34.5364 28.6907 34.5364C28.7272 34.5364 28.7525 34.5398 28.7813 34.5458V34.8123C28.7483 34.8056 28.716 34.8029 28.6724 34.8029C28.447 34.8029 28.2869 34.9543 28.2434 35.1658C28.2364 35.2047 28.2286 35.2495 28.2286 35.2978V36.1267H27.9127V35.056L27.912 35.0574Z" fill="#1B1B1B"/>
<path d="M30.4201 36.128L30.3948 35.9318H30.3836C30.2853 36.0537 30.0964 36.1635 29.8457 36.1635C29.4897 36.1635 29.3079 35.9418 29.3079 35.7169C29.3079 35.3405 29.6856 35.135 30.3661 35.1383V35.1062C30.3661 34.9776 30.326 34.746 29.9665 34.746C29.8029 34.746 29.6323 34.7908 29.5087 34.8618L29.4357 34.6757C29.581 34.592 29.7917 34.5377 30.0136 34.5377C30.5514 34.5377 30.6827 34.8625 30.6827 35.1738V35.7557C30.6827 35.8909 30.6898 36.0222 30.7115 36.1286H30.4208L30.4201 36.128ZM30.3731 35.3339C30.0241 35.3272 29.6281 35.3821 29.6281 35.684C29.6281 35.8675 29.7664 35.9539 29.93 35.9539C30.1589 35.9539 30.3043 35.8253 30.3555 35.6934C30.3668 35.6646 30.3738 35.6325 30.3738 35.6037V35.3339H30.3731Z" fill="#1B1B1B"/>
<path d="M31.5619 34.9931C31.5619 34.8324 31.5584 34.7005 31.5471 34.5719H31.8308L31.8491 34.829H31.8561C31.9432 34.6811 32.1468 34.5364 32.4375 34.5364C32.6812 34.5364 33.0589 34.665 33.0589 35.1987V36.1274H32.7387V35.2308C32.7387 34.9804 32.6334 34.7715 32.3315 34.7715C32.1208 34.7715 31.9572 34.9034 31.9024 35.0607C31.8877 35.0962 31.8807 35.1444 31.8807 35.1926V36.128H31.5605V34.9931H31.5619Z" fill="#1B1B1B"/>
<path d="M35.1965 36.0704C35.1129 36.1092 34.9275 36.1601 34.6909 36.1601C34.1601 36.1601 33.8146 35.8421 33.8146 35.366C33.8146 34.8899 34.1853 34.5397 34.7597 34.5397C34.9486 34.5397 35.1157 34.5812 35.2035 34.6201L35.1305 34.8384C35.0539 34.7995 34.9339 34.7647 34.7597 34.7647C34.356 34.7647 34.1383 35.0285 34.1383 35.3526C34.1383 35.7128 34.4002 35.9345 34.7492 35.9345C34.9311 35.9345 35.0511 35.893 35.1417 35.8575L35.1965 36.0697V36.0704Z" fill="#1B1B1B"/>
<path d="M35.9344 33.8461H36.2546V34.817H36.2616C36.3129 34.7366 36.3922 34.6656 36.4906 34.6174C36.5853 34.5692 36.6977 34.5371 36.8178 34.5371C37.0544 34.5371 37.4322 34.6656 37.4322 35.2026V36.1287H37.112V35.2355C37.112 34.9844 37.0067 34.7728 36.7047 34.7728C36.4976 34.7728 36.334 34.9013 36.2757 35.0553C36.2574 35.0942 36.2539 35.1357 36.2539 35.1906V36.1293H35.9337V33.8474L35.9344 33.8461Z" fill="#1B1B1B"/>
<path d="M38.4932 35.4015C38.5002 35.7839 38.7769 35.9412 39.0964 35.9412C39.3253 35.9412 39.4636 35.9057 39.5837 35.8609L39.6385 36.0631C39.5261 36.108 39.333 36.1595 39.0528 36.1595C38.5114 36.1595 38.1877 35.8441 38.1877 35.3754C38.1877 34.9067 38.5002 34.5364 39.0128 34.5364C39.5872 34.5364 39.7396 34.9831 39.7396 35.269C39.7396 35.3265 39.7326 35.3721 39.7283 35.4009H38.4925L38.4932 35.4015ZM39.4313 35.1993C39.4348 35.0192 39.3478 34.74 38.9875 34.74C38.6638 34.74 38.522 35.0038 38.4967 35.1993H39.4313Z" fill="#1B1B1B"/>
<path d="M41.3434 35.1537V35.3627H40.4453V35.1537H41.3434Z" fill="#1B1B1B"/>
<path d="M43.8552 36.057C43.7386 36.1086 43.5062 36.1601 43.2078 36.1601C42.5168 36.1601 41.9972 35.7744 41.9972 35.064C41.9972 34.3536 42.5168 33.9264 43.2766 33.9264C43.582 33.9264 43.7744 33.984 43.858 34.0228L43.7815 34.2511C43.6614 34.1996 43.4907 34.1614 43.2871 34.1614C42.7127 34.1614 42.3307 34.4862 42.3307 35.0553C42.3307 35.5856 42.6762 35.9264 43.2724 35.9264C43.4648 35.9264 43.6614 35.891 43.7885 35.8367L43.8538 36.0583L43.8552 36.057Z" fill="#1B1B1B"/>
<path d="M46.1562 35.3373C46.1562 35.9124 45.7054 36.1635 45.2799 36.1635C44.8038 36.1635 44.4365 35.8549 44.4365 35.3634C44.4365 34.8424 44.822 34.5371 45.3093 34.5371C45.7967 34.5371 46.1562 34.8619 46.1562 35.3373ZM44.7602 35.3533C44.7602 35.6941 44.9821 35.9513 45.2946 35.9513C45.6071 35.9513 45.829 35.6975 45.829 35.3473C45.829 35.0835 45.6801 34.7494 45.3016 34.7494C44.9231 34.7494 44.7602 35.058 44.7602 35.3533Z" fill="#1B1B1B"/>
<path d="M46.9229 34.9931C46.9229 34.8324 46.9194 34.7005 46.9082 34.5719H47.1884L47.2031 34.823H47.2144C47.3127 34.675 47.4763 34.5371 47.767 34.5371C48.0071 34.5371 48.189 34.6657 48.2648 34.8491H48.2719C48.3266 34.7621 48.3954 34.6951 48.4685 34.6469C48.5738 34.5759 48.6904 34.5378 48.8575 34.5378C49.0899 34.5378 49.4354 34.673 49.4354 35.2127V36.1287H49.1229V35.2482C49.1229 34.9496 48.9993 34.7695 48.7409 34.7695C48.559 34.7695 48.4172 34.8886 48.3631 35.0266C48.3484 35.0654 48.3379 35.1163 48.3379 35.1679V36.1287H48.0254V35.1967C48.0254 34.9489 47.9018 34.7695 47.6581 34.7695C47.458 34.7695 47.3127 34.9107 47.2621 35.052C47.2438 35.0935 47.2368 35.1417 47.2368 35.19V36.1287H46.9244V34.9938L46.9229 34.9931Z" fill="#1B1B1B"/>
<path d="M50.6888 34.1253V34.5719H51.1466V34.7875H50.6888V35.6265C50.6888 35.8194 50.7506 35.9285 50.929 35.9285C51.0125 35.9285 51.0743 35.9191 51.1143 35.9091L51.1291 36.1213C51.0673 36.1441 50.969 36.1602 50.8454 36.1602C50.6965 36.1602 50.5765 36.1187 50.4999 36.041C50.4093 35.9573 50.3763 35.8194 50.3763 35.6359V34.7875H50.1039V34.5719H50.3763V34.199L50.6888 34.1253Z" fill="#1B1B1B"/>
<path d="M52.0265 35.4015C52.0335 35.7839 52.3102 35.9412 52.6297 35.9412C52.8586 35.9412 52.9969 35.9057 53.117 35.8609L53.1718 36.0631C53.0587 36.108 52.8663 36.1595 52.5862 36.1595C52.0448 36.1595 51.7211 35.8441 51.7211 35.3754C51.7211 34.9067 52.0335 34.5364 52.5461 34.5364C53.1205 34.5364 53.2729 34.9831 53.2729 35.269C53.2729 35.3265 53.2659 35.3721 53.2617 35.4009H52.0258L52.0265 35.4015ZM52.9646 35.1993C52.9682 35.0192 52.8811 34.74 52.5209 34.74C52.1972 34.74 52.0553 35.0038 52.03 35.1993H52.9646Z" fill="#1B1B1B"/>
<path d="M7.95932 31.6378H64.4237C64.4546 31.6378 64.4841 31.6291 64.5093 31.6123L65.4552 30.9809C65.4727 30.9695 65.4924 30.9615 65.5135 30.9575C65.6167 30.9401 66.0008 31.0526 65.7747 31.1456C65.4861 31.2655 64.7783 31.7456 64.6161 31.8099C64.5978 31.8172 64.5788 31.8206 64.5599 31.8206L7.96002 31.9217C7.87787 31.9217 7.81116 31.8581 7.81116 31.7797C7.81116 31.7014 7.87787 31.6378 7.96002 31.6378H7.95932Z" fill="#1B1B1B"/>
<path d="M10.1149 22.7585C10.0897 22.3052 10.0588 21.7601 10.0637 21.3557H10.0482C9.93097 21.7367 9.78843 22.1418 9.61569 22.5897L9.0097 24.1666H8.67405L8.11933 22.6192C7.95642 22.1612 7.81879 21.7414 7.72259 21.3557H7.71206C7.70152 21.7608 7.67625 22.3058 7.64605 22.7926L7.55407 24.186H7.13135L7.37079 20.9365H7.93606L8.52168 22.508C8.66422 22.9084 8.78149 23.2647 8.86786 23.6021H8.88331C8.96968 23.274 9.09186 22.9178 9.24493 22.508L9.85584 20.9365H10.4211L10.6346 24.186H10.202L10.1156 22.7591L10.1149 22.7585Z" fill="#1B1B1B"/>
<path d="M11.9624 23.0959C11.973 23.6698 12.3592 23.9061 12.8072 23.9061C13.1281 23.9061 13.3212 23.8532 13.489 23.7856L13.5655 24.0896C13.4075 24.1572 13.1379 24.2342 12.7461 24.2342C11.9877 24.2342 11.5348 23.7615 11.5348 23.0578C11.5348 22.354 11.9723 21.7996 12.6906 21.7996C13.4946 21.7996 13.7088 22.4699 13.7088 22.8991C13.7088 22.9861 13.6982 23.0531 13.6933 23.0966H11.9624V23.0959ZM13.2755 22.7919C13.2804 22.5221 13.1582 22.1023 12.6548 22.1023C12.2019 22.1023 12.0031 22.4973 11.9673 22.7919H13.2755ZM13.3822 20.8441L12.7615 21.5338H12.4406L12.8886 20.8441H13.3822Z" fill="#1B1B1B"/>
<path d="M15.1848 21.1816V21.8519H15.8259V22.1746H15.1848V23.4328C15.1848 23.722 15.2712 23.8861 15.5205 23.8861C15.6377 23.8861 15.7241 23.8714 15.7803 23.8573L15.8006 24.1753C15.7143 24.2088 15.5766 24.2329 15.4039 24.2329C15.1953 24.2329 15.0275 24.17 14.9201 24.0548C14.793 23.9296 14.7473 23.722 14.7473 23.4475V22.1746H14.3654V21.8519H14.7473V21.2928L15.1848 21.1816Z" fill="#1B1B1B"/>
<path d="M17.2106 21.1964C17.2155 21.341 17.1039 21.4568 16.9255 21.4568C16.7675 21.4568 16.6559 21.341 16.6559 21.1964C16.6559 21.0517 16.7731 20.9312 16.9361 20.9312C17.099 20.9312 17.2106 21.0471 17.2106 21.1964ZM16.7121 24.1854V21.8519H17.1601V24.1854H16.7121Z" fill="#1B1B1B"/>
<path d="M18.5342 23.0959C18.5447 23.6698 18.9309 23.9061 19.3789 23.9061C19.6998 23.9061 19.8929 23.8532 20.0608 23.7856L20.1373 24.0896C19.9793 24.1572 19.7097 24.2342 19.3178 24.2342C18.5595 24.2342 18.1066 23.7615 18.1066 23.0578C18.1066 22.354 18.544 21.7996 19.2624 21.7996C20.0664 21.7996 20.2805 22.4699 20.2805 22.8991C20.2805 22.9861 20.27 23.0531 20.2651 23.0966H18.5342V23.0959ZM19.8473 22.7919C19.8522 22.5221 19.73 22.1023 19.2266 22.1023C18.7736 22.1023 18.5749 22.4973 18.5391 22.7919H19.8473Z" fill="#1B1B1B"/>
<path d="M21.2165 22.5797C21.2165 22.3052 21.2116 22.0688 21.1962 21.8518H21.588L21.6034 22.3098H21.6238C21.7354 21.9965 22.0058 21.799 22.3056 21.799C22.3562 21.799 22.392 21.8036 22.4327 21.8137V22.2141C22.3871 22.2047 22.3414 22.1994 22.2803 22.1994C21.9651 22.1994 21.7411 22.4257 21.68 22.7444C21.6694 22.802 21.6596 22.8696 21.6596 22.9419V24.186H21.2165V22.5804V22.5797Z" fill="#1B1B1B"/>
<path d="M23.2024 23.7515C23.3344 23.8331 23.5689 23.9202 23.7929 23.9202C24.1187 23.9202 24.2711 23.7662 24.2711 23.5733C24.2711 23.3711 24.144 23.26 23.8133 23.1441C23.3702 22.9948 23.1616 22.7632 23.1616 22.4839C23.1616 22.1076 23.4825 21.799 24.012 21.799C24.2613 21.799 24.4804 21.8666 24.618 21.9436L24.5063 22.2523C24.4094 22.1947 24.2311 22.117 24.0022 22.117C23.7374 22.117 23.59 22.2616 23.59 22.4351C23.59 22.6279 23.7374 22.7149 24.0583 22.8301C24.486 22.9841 24.7051 23.187 24.7051 23.5338C24.7051 23.9436 24.3694 24.2329 23.7838 24.2329C23.5141 24.2329 23.2649 24.1699 23.0914 24.0735L23.2038 23.7508L23.2024 23.7515Z" fill="#1B1B1B"/>
<path d="M29.2496 20.7625V23.5827C29.2496 23.7903 29.2545 24.026 29.27 24.1854H28.8676L28.8472 23.7803H28.8367C28.6991 24.0407 28.3992 24.2383 27.9969 24.2383C27.4014 24.2383 26.9429 23.7608 26.9429 23.0524C26.938 22.2764 27.4471 21.799 28.0474 21.799C28.4238 21.799 28.6787 21.9677 28.7904 22.1559H28.8009V20.7625H29.2489H29.2496ZM28.8016 22.802C28.8016 22.7491 28.7967 22.6768 28.7812 22.6239C28.7152 22.3541 28.4709 22.1324 28.1345 22.1324C27.6711 22.1324 27.3965 22.5181 27.3965 23.0337C27.3965 23.5064 27.6409 23.8968 28.1247 23.8968C28.4252 23.8968 28.6998 23.7086 28.7812 23.3906C28.7967 23.333 28.8016 23.2747 28.8016 23.2071V22.802Z" fill="#1B1B1B"/>
<path d="M32.4361 23.5493C32.4361 23.7903 32.441 24.0026 32.4564 24.1854H32.0597L32.0344 23.8044H32.0239C31.9066 23.9925 31.6475 24.2383 31.2094 24.2383C30.8225 24.2383 30.359 24.036 30.359 23.2158V21.8512H30.807V23.1435C30.807 23.5868 30.9495 23.8861 31.3568 23.8861C31.6574 23.8861 31.8659 23.6885 31.9474 23.5004C31.9726 23.4374 31.9881 23.3604 31.9881 23.2834V21.8512H32.4361V23.5486V23.5493Z" fill="#1B1B1B"/>
<path d="M37.9279 22.7585C37.9027 22.3052 37.8718 21.7601 37.8767 21.3557H37.8612C37.744 21.7367 37.6014 22.1418 37.4287 22.5897L36.8227 24.1666H36.487L35.9323 22.6192C35.7694 22.1612 35.6318 21.7414 35.5356 21.3557H35.525C35.5145 21.7608 35.4892 22.3058 35.459 22.7926L35.3671 24.186H34.9443L35.1838 20.9365H35.749L36.3347 22.508C36.4772 22.9084 36.5945 23.2647 36.6808 23.6021H36.6963C36.7827 23.274 36.9048 22.9178 37.0579 22.508L37.6688 20.9365H38.2341L38.4476 24.186H38.015L37.9286 22.7591L37.9279 22.7585Z" fill="#1B1B1B"/>
<path d="M41.573 23.5493C41.573 23.7903 41.578 24.0026 41.5934 24.1854H41.1967L41.1714 23.8044H41.1609C41.0436 23.9925 40.7845 24.2383 40.3463 24.2383C39.9594 24.2383 39.496 24.036 39.496 23.2158V21.8512H39.944V23.1435C39.944 23.5868 40.0865 23.8861 40.4938 23.8861C40.7943 23.8861 41.0029 23.6885 41.0843 23.5004C41.1096 23.4374 41.125 23.3604 41.125 23.2834V21.8512H41.573V23.5486V23.5493Z" fill="#1B1B1B"/>
<path d="M42.6979 20.7625H43.1459V24.1854H42.6979V20.7625Z" fill="#1B1B1B"/>
<path d="M44.8206 21.1816V21.8519H45.4617V22.1746H44.8206V23.4328C44.8206 23.722 44.907 23.8861 45.1563 23.8861C45.2736 23.8861 45.3599 23.8714 45.4161 23.8573L45.4365 24.1753C45.3501 24.2088 45.2125 24.2329 45.0397 24.2329C44.8312 24.2329 44.6634 24.17 44.5559 24.0548C44.4288 23.9296 44.3825 23.722 44.3825 23.4475V22.1746H44.0005V21.8519H44.3825V21.2928L44.8199 21.1816H44.8206Z" fill="#1B1B1B"/>
<path d="M46.8465 21.1964C46.8514 21.341 46.7397 21.4568 46.5614 21.4568C46.4034 21.4568 46.2917 21.341 46.2917 21.1964C46.2917 21.0517 46.409 20.9312 46.5719 20.9312C46.7348 20.9312 46.8472 21.0471 46.8472 21.1964H46.8465ZM46.3479 24.1854V21.8519H46.7959V24.1854H46.3479Z" fill="#1B1B1B"/>
<path d="M47.9201 22.4833C47.9201 22.2422 47.9152 22.0447 47.8998 21.8518H48.2916L48.312 22.2282H48.3274C48.465 22.0065 48.694 21.7989 49.1012 21.7989C49.4376 21.7989 49.6918 21.9918 49.7985 22.2663H49.8083C49.8849 22.1364 49.9811 22.0346 50.0836 21.9623C50.231 21.8565 50.394 21.7983 50.6285 21.7983C50.9543 21.7983 51.4381 22.0005 51.4381 22.8107V24.1847H51.0006V22.8636C51.0006 22.415 50.8279 22.1451 50.4663 22.1451C50.2121 22.1451 50.0134 22.3232 49.9368 22.5308C49.9165 22.5884 49.901 22.6661 49.901 22.7431V24.1847H49.4636V22.7866C49.4636 22.4156 49.2908 22.1451 48.9495 22.1451C48.6694 22.1451 48.4657 22.3574 48.3948 22.5696C48.3695 22.6326 48.359 22.7049 48.359 22.7772V24.1853H47.9215V22.4833H47.9201Z" fill="#1B1B1B"/>
<path d="M52.7968 23.0959C52.8066 23.6698 53.1935 23.9061 53.6415 23.9061C53.9624 23.9061 54.1555 23.8532 54.3233 23.7856L54.3999 24.0896C54.2419 24.1572 53.9722 24.2342 53.5804 24.2342C52.8221 24.2342 52.3691 23.7615 52.3691 23.0578C52.3691 22.354 52.8066 21.7996 53.5249 21.7996C54.3289 21.7996 54.5431 22.4699 54.5431 22.8991C54.5431 22.9861 54.5333 23.0531 54.5277 23.0966H52.7968V23.0959ZM54.1099 22.7919C54.1148 22.5221 53.9926 22.1023 53.4891 22.1023C53.0362 22.1023 52.8375 22.4973 52.8017 22.7919H54.1099ZM54.2166 20.8441L53.5959 21.5338H53.275L53.723 20.8441H54.2166Z" fill="#1B1B1B"/>
<path d="M57.6075 20.7625V23.5827C57.6075 23.7903 57.6124 24.026 57.6279 24.1854H57.2255L57.2052 23.7803H57.1946C57.057 24.0407 56.7572 24.2383 56.3548 24.2383C55.7593 24.2383 55.3008 23.7608 55.3008 23.0524C55.2959 22.2764 55.805 21.799 56.4054 21.799C56.7817 21.799 57.0366 21.9677 57.1483 22.1559H57.1581V20.7625H57.6061H57.6075ZM57.1595 22.802C57.1595 22.7491 57.1546 22.6768 57.1391 22.6239C57.0731 22.3541 56.8288 22.1324 56.4924 22.1324C56.029 22.1324 55.7544 22.5181 55.7544 23.0337C55.7544 23.5064 55.9988 23.8968 56.4826 23.8968C56.7831 23.8968 57.0577 23.7086 57.1391 23.3906C57.1546 23.333 57.1595 23.2747 57.1595 23.2071V22.802Z" fill="#1B1B1B"/>
<path d="M59.2309 21.1964C59.2358 21.341 59.1241 21.4568 58.9458 21.4568C58.7878 21.4568 58.6761 21.341 58.6761 21.1964C58.6761 21.0517 58.7934 20.9312 58.9563 20.9312C59.1192 20.9312 59.2316 21.0471 59.2316 21.1964H59.2309ZM58.7323 24.1854V21.8519H59.1803V24.1854H58.7323Z" fill="#1B1B1B"/>
<path d="M61.6689 24.1853L61.6331 23.8914H61.6176C61.48 24.0749 61.2153 24.2382 60.8642 24.2382C60.3656 24.2382 60.1107 23.9055 60.1107 23.568C60.1107 23.0042 60.6402 22.6955 61.5923 22.7002V22.652C61.5923 22.4592 61.5362 22.1116 61.0327 22.1116C60.8038 22.1116 60.5643 22.1793 60.3916 22.2851L60.2898 22.0052C60.4934 21.88 60.7883 21.7976 61.0994 21.7976C61.8528 21.7976 62.0361 22.2844 62.0361 22.7524V23.6249C62.0361 23.8271 62.0459 24.0253 62.0768 24.184H61.6696L61.6689 24.1853ZM61.6029 22.9942C61.1141 22.9848 60.5594 23.0665 60.5594 23.5198C60.5594 23.7943 60.7525 23.9249 60.9821 23.9249C61.303 23.9249 61.5067 23.732 61.5776 23.5345C61.593 23.491 61.6029 23.4428 61.6029 23.3992V22.9942Z" fill="#1B1B1B"/>
<path d="M7.45791 27.9169C7.46844 28.4908 7.85464 28.7271 8.30264 28.7271C8.62354 28.7271 8.81664 28.6742 8.98446 28.6066L9.061 28.9106C8.90301 28.9782 8.63337 29.0552 8.24155 29.0552C7.48318 29.0552 7.03027 28.5825 7.03027 27.8788C7.03027 27.175 7.46774 26.6206 8.18607 26.6206C8.99008 26.6206 9.20425 27.2909 9.20425 27.7201C9.20425 27.8071 9.19371 27.8741 9.1888 27.9176H7.45791V27.9169ZM8.771 27.6129C8.77591 27.3431 8.65373 26.9233 8.15026 26.9233C7.69735 26.9233 7.49863 27.3183 7.46282 27.6129H8.771Z" fill="#1B1B1B"/>
<path d="M10.6803 26.0026V26.6729H11.3214V26.9956H10.6803V28.2538C10.6803 28.543 10.7667 28.7071 11.0159 28.7071C11.1332 28.7071 11.2196 28.6923 11.2757 28.6783L11.2961 28.9963C11.2097 29.0298 11.0721 29.0539 10.8994 29.0539C10.6908 29.0539 10.523 28.991 10.4156 28.8758C10.2885 28.7506 10.2428 28.543 10.2428 28.2685V26.9956H9.86084V26.6729H10.2428V26.1138L10.6803 26.0026Z" fill="#1B1B1B"/>
<path d="M15.7957 25.5834V28.4037C15.7957 28.6113 15.8007 28.847 15.8161 29.0063H15.4137L15.3934 28.6012H15.3829C15.2452 28.8617 14.9454 29.0592 14.543 29.0592C13.9476 29.0592 13.489 28.5818 13.489 27.8734C13.4841 27.0974 13.9932 26.62 14.5936 26.62C14.97 26.62 15.2249 26.7887 15.3365 26.9768H15.347V25.5834H15.795H15.7957ZM15.3477 27.623C15.3477 27.5701 15.3428 27.4978 15.3274 27.4449C15.2614 27.175 15.017 26.9534 14.6807 26.9534C14.2172 26.9534 13.9427 27.3391 13.9427 27.8547C13.9427 28.3274 14.187 28.7178 14.6708 28.7178C14.9714 28.7178 15.2459 28.5296 15.3274 28.2115C15.3428 28.154 15.3477 28.0957 15.3477 28.0281V27.623Z" fill="#1B1B1B"/>
<path d="M17.1698 27.9169C17.1804 28.4908 17.5666 28.7271 18.0146 28.7271C18.3355 28.7271 18.5286 28.6742 18.6964 28.6066L18.7729 28.9106C18.6149 28.9782 18.3453 29.0552 17.9535 29.0552C17.1951 29.0552 16.7422 28.5825 16.7422 27.8788C16.7422 27.175 17.1797 26.6206 17.898 26.6206C18.702 26.6206 18.9162 27.2909 18.9162 27.7201C18.9162 27.8071 18.9056 27.8741 18.9007 27.9176H17.1698V27.9169ZM18.4829 27.6129C18.4878 27.3431 18.3656 26.9233 17.8622 26.9233C17.4093 26.9233 17.2105 27.3183 17.1747 27.6129H18.4829Z" fill="#1B1B1B"/>
<path d="M21.3135 25.5834H21.7615V29.0063H21.3135V25.5834Z" fill="#1B1B1B"/>
<path d="M23.4924 25.704C23.3751 26.1091 23.1568 26.6247 23.0142 26.847L22.7291 26.8804C22.8408 26.5959 22.9735 26.0943 23.0297 25.7475L23.4931 25.704H23.4924Z" fill="#1B1B1B"/>
<path d="M24.8209 25.7569V29.0064H24.3778V25.7569H24.8209Z" fill="#1B1B1B"/>
<path d="M26.0118 27.3043C26.0118 27.0633 26.0069 26.8657 25.9915 26.6729H26.3882L26.4135 27.0586H26.424C26.5462 26.8369 26.8313 26.62 27.2385 26.62C27.5798 26.62 28.1093 26.8128 28.1093 27.613V29.0064H27.6613V27.6612C27.6613 27.2849 27.5138 26.9715 27.0911 26.9715C26.7955 26.9715 26.5665 27.1691 26.4907 27.4054C26.4703 27.4583 26.4598 27.5306 26.4598 27.6029V29.0057H26.0118V27.3036V27.3043Z" fill="#1B1B1B"/>
<path d="M29.7377 26.0026V26.6729H30.3788V26.9956H29.7377V28.2538C29.7377 28.543 29.824 28.7071 30.0733 28.7071C30.1906 28.7071 30.2769 28.6923 30.3331 28.6783L30.3535 28.9963C30.2671 29.0298 30.1295 29.0539 29.9567 29.0539C29.7482 29.0539 29.5804 28.991 29.4729 28.8758C29.3458 28.7506 29.3002 28.543 29.3002 28.2685V26.9956H28.9182V26.6729H29.3002V26.1138L29.7377 26.0026Z" fill="#1B1B1B"/>
<path d="M31.484 27.9169C31.4946 28.4908 31.8808 28.7271 32.3288 28.7271C32.6497 28.7271 32.8428 28.6742 33.0106 28.6066L33.0871 28.9106C32.9291 28.9782 32.6595 29.0552 32.2677 29.0552C31.5093 29.0552 31.0564 28.5825 31.0564 27.8788C31.0564 27.175 31.4939 26.6206 32.2122 26.6206C33.0162 26.6206 33.2304 27.2909 33.2304 27.7201C33.2304 27.8071 33.2198 27.8741 33.2149 27.9176H31.484V27.9169ZM32.7971 27.6129C32.802 27.3431 32.6799 26.9233 32.1764 26.9233C31.7235 26.9233 31.5248 27.3183 31.4889 27.6129H32.7971Z" fill="#1B1B1B"/>
<path d="M34.1664 27.4007C34.1664 27.1262 34.1614 26.8898 34.146 26.6729H34.5378L34.5533 27.1309H34.5736C34.6853 26.8175 34.9556 26.62 35.2555 26.62C35.306 26.62 35.3418 26.6247 35.3826 26.6347V27.0351C35.3369 27.0258 35.2913 27.0204 35.2302 27.0204C34.9149 27.0204 34.6909 27.2467 34.6298 27.5654C34.6193 27.623 34.6094 27.6907 34.6094 27.763V29.0071H34.1664V27.4014V27.4007Z" fill="#1B1B1B"/>
<path d="M36.2329 27.3043C36.2329 27.0633 36.228 26.8657 36.2125 26.6729H36.6093L36.6345 27.0586H36.6451C36.7673 26.8369 37.0523 26.62 37.4596 26.62C37.8009 26.62 38.3303 26.8128 38.3303 27.613V29.0064H37.8823V27.6612C37.8823 27.2849 37.7349 26.9715 37.3121 26.9715C37.0165 26.9715 36.7876 27.1691 36.7118 27.4054C36.6914 27.4583 36.6809 27.5306 36.6809 27.6029V29.0057H36.2329V27.3036V27.3043Z" fill="#1B1B1B"/>
<path d="M39.689 27.9169C39.6995 28.4908 40.0857 28.7271 40.5337 28.7271C40.8546 28.7271 41.0477 28.6742 41.2155 28.6066L41.2921 28.9106C41.1341 28.9782 40.8644 29.0552 40.4726 29.0552C39.7143 29.0552 39.2614 28.5825 39.2614 27.8788C39.2614 27.175 39.6988 26.6206 40.4172 26.6206C41.2212 26.6206 41.4353 27.2909 41.4353 27.7201C41.4353 27.8071 41.4248 27.8741 41.4199 27.9176H39.689V27.9169ZM41.0021 27.6129C41.007 27.3431 40.8848 26.9233 40.3813 26.9233C39.9284 26.9233 39.7297 27.3183 39.6939 27.6129H41.0021Z" fill="#1B1B1B"/>
<path d="M42.9114 26.0026V26.6729H43.5525V26.9956H42.9114V28.2538C42.9114 28.543 42.9977 28.7071 43.247 28.7071C43.3643 28.7071 43.4507 28.6923 43.5068 28.6783L43.5272 28.9963C43.4408 29.0298 43.3032 29.0539 43.1305 29.0539C42.9219 29.0539 42.7541 28.991 42.6466 28.8758C42.5196 28.7506 42.4739 28.543 42.4739 28.2685V26.9956H42.0919V26.6729H42.4739V26.1138L42.9114 26.0026Z" fill="#1B1B1B"/>
<path d="M55.2306 3.97798C55.9917 3.94584 56.8393 4.57926 56.8238 5.36602C56.8091 6.08984 56.0711 6.63354 55.4181 6.68644C54.6737 6.7467 53.7911 6.18961 53.7623 5.3995C53.7349 4.6402 54.5101 4.00811 55.2306 3.97731V3.97798Z" fill="#1974BA"/>
<path d="M56.8238 8.56731V17.2451C56.8238 17.2451 56.4811 17.9783 55.2846 17.9783C54.0881 17.9783 53.8318 17.294 53.8318 17.294V7.91112C53.8318 7.91112 54.1899 7.05874 55.2923 7.07481C55.3232 7.07481 55.3534 7.07615 55.3829 7.07816C56.1982 7.12369 56.8238 7.78858 56.8238 8.56664V8.56731Z" fill="#1B1B1B"/>
<path d="M51.1312 11.0073V16.5507C51.1312 17.306 50.5154 17.9495 49.7233 17.977C49.6931 17.9783 49.663 17.9783 49.6314 17.9783C49.5625 17.9776 49.4958 17.9736 49.4319 17.9669C48.6785 17.8886 48.1139 17.2705 48.1139 16.5481V11.2276C48.1139 11.026 48.0718 10.8258 47.9826 10.643C47.7411 10.1475 47.0859 9.32393 45.4042 9.33598C43.7224 9.34804 42.9564 10.1877 42.6095 10.7187C42.4627 10.9437 42.3869 11.2035 42.3869 11.4679V16.5487C42.3869 17.3221 41.7416 17.9595 40.9305 17.977C40.8933 17.9776 40.8547 17.9783 40.8154 17.9776C40.7697 17.9776 40.7255 17.9763 40.682 17.9749C39.878 17.9488 39.2432 17.3141 39.2432 16.5474V11.2168C39.2432 11.0327 39.2081 10.8499 39.1336 10.6798C38.9132 10.1756 38.2657 9.32326 36.407 9.33598C34.4276 9.34871 33.8286 10.3712 33.6531 10.88C33.6053 11.0193 33.5828 11.1653 33.5828 11.3113V15.4787C33.5828 16.2735 32.9017 16.9157 32.0682 16.9076L31.9088 16.9063C31.088 16.8976 30.4265 16.2608 30.4265 15.4774V10.7301C30.4265 10.4408 30.5178 10.1589 30.6898 9.92053C31.3351 9.02999 33.1721 6.9516 36.28 6.92482C38.3177 6.90741 39.4496 7.35067 40.0683 7.78523C40.5598 8.13007 41.2241 8.15082 41.7402 7.84081C42.4866 7.39352 43.6775 6.91477 45.3487 6.92415C48.4742 6.94156 51.0575 9.02664 51.1298 11.0073H51.1312Z" fill="#1B1B1B"/>
<path d="M28.0784 11.0073V16.5507C28.0784 17.306 27.4626 17.9495 26.6705 17.977C26.6403 17.9783 26.6101 17.9783 26.5785 17.9783C26.5097 17.9776 26.443 17.9736 26.3791 17.9669C25.6256 17.8886 25.0611 17.2705 25.0611 16.5481V11.2276C25.0611 11.026 25.0189 10.8258 24.9298 10.643C24.6882 10.1475 24.0331 9.32393 22.3513 9.33598C20.7103 9.34804 19.9035 10.1877 19.5566 10.7187C19.4099 10.9437 19.334 11.2035 19.334 11.4679V16.5487C19.334 17.3221 18.6887 17.9595 17.8777 17.977C17.8405 17.9776 17.8019 17.9783 17.7625 17.9776C17.7169 17.9776 17.6726 17.9763 17.6291 17.9749C16.8251 17.9488 16.1903 17.3141 16.1903 16.5474V11.2168C16.1903 11.0327 16.1552 10.8499 16.0808 10.6798C15.8603 10.1756 15.2129 9.32326 13.3542 9.33598C11.3747 9.34871 10.7758 10.3712 10.6002 10.88C10.5525 11.0193 10.53 11.1653 10.53 11.3113V15.4787C10.53 16.2735 9.84887 16.9157 9.01537 16.9076L8.85598 16.9063C8.03512 16.8976 7.37366 16.2608 7.37366 15.4774V10.7301C7.37366 10.4408 7.41368 10.3444 7.63698 9.92053C8.14677 8.95365 10.1192 6.9516 13.2271 6.92482C15.2648 6.90741 16.3968 7.35067 17.0154 7.78523C17.5069 8.13007 18.1712 8.15082 18.6873 7.84081C19.4337 7.39352 20.6246 6.91477 22.2959 6.92415C25.4213 6.94156 28.0046 9.02664 28.077 11.0073H28.0784Z" fill="#1B1B1B"/>
<path d="M31.9418 14.3605C32.7268 14.3284 33.6004 14.9612 33.5835 15.7479C33.5688 16.4717 32.8076 17.0148 32.1349 17.0677C31.3681 17.1279 30.4581 16.5715 30.4286 15.7814C30.4005 15.0221 31.1996 14.3907 31.9418 14.3599V14.3605Z" fill="#DA0B3D"/>
<path d="M8.89177 14.3599C9.67541 14.3277 10.5468 14.9612 10.5307 15.7479C10.5159 16.4717 9.75617 17.0154 9.08488 17.0683C8.31949 17.1286 7.41086 16.5715 7.38207 15.7814C7.35398 15.0221 8.15167 14.39 8.89248 14.3592L8.89177 14.3599Z" fill="#F5BD45"/>
<path d="M7.87999 33.0446C7.99164 33.0399 8.11593 33.1303 8.11382 33.2428C8.11171 33.3459 8.00358 33.4236 7.90738 33.431C7.79784 33.4397 7.66863 33.36 7.66442 33.2475C7.66021 33.139 7.77396 33.0486 7.87999 33.0446Z" fill="#F5BD45"/>
<path d="M51.9549 33.6359C52.1284 33.5736 52.2618 33.8749 52.5441 33.8689C52.7948 33.8635 52.9078 33.6211 53.0497 33.6801C53.1423 33.7189 53.1845 33.8602 53.162 33.9646C53.115 34.1896 52.7575 34.3135 52.4865 34.3075C52.1993 34.3008 51.8342 34.1427 51.811 33.9097C51.8005 33.8073 51.8545 33.6713 51.9549 33.6359Z" fill="#FF0000"/>
<path d="M7.65808 33.9927H8.12082L8.07167 36.128H7.65808V33.9927Z" fill="#1B1B1B"/>
<path d="M8.92969 34.2177H9.45984V35.2944C9.45984 35.6265 9.65154 35.7919 10.0363 35.7919C10.207 35.7919 10.3425 35.7477 10.4415 35.6587C10.5412 35.5696 10.5911 35.4484 10.5911 35.2937V34.217H11.1156V35.3587C11.1156 35.5977 11.0131 35.7946 10.808 35.9493C10.603 36.1033 10.3404 36.1809 10.0216 36.1809C9.7028 36.1809 9.43316 36.1039 9.23233 35.9493C9.0308 35.7946 8.93039 35.5937 8.93039 35.3446V34.217L8.92969 34.2177Z" fill="#1B1B1B"/>
<path d="M15.0422 33.8019L16.9852 35.5274V33.8929H17.344V36.2686L15.4011 34.5505V36.1628H15.0422V33.8019Z" fill="#1B1B1B"/>
<path d="M18.068 35.4222C18.068 35.2214 18.16 35.0433 18.3433 34.8866C18.5265 34.7306 18.7379 34.6522 18.9752 34.6522C19.2126 34.6522 19.4337 34.7292 19.617 34.8832C19.7996 35.0372 19.8916 35.2167 19.8916 35.4222C19.8916 35.6278 19.8017 35.8113 19.6226 35.9686C19.4436 36.126 19.2357 36.205 19.0005 36.205C18.7491 36.205 18.5307 36.1273 18.3454 35.9713C18.1607 35.816 18.068 35.6325 18.068 35.4222ZM19.5447 35.4229C19.5447 35.2977 19.4899 35.1892 19.3797 35.0968C19.2694 35.0044 19.1388 34.9582 18.9879 34.9582C18.8369 34.9582 18.6986 35.0051 18.5869 35.0982C18.4753 35.1912 18.4191 35.3031 18.4191 35.433C18.4191 35.5629 18.476 35.6653 18.589 35.7577C18.7021 35.8501 18.8355 35.897 18.9879 35.897C19.1402 35.897 19.2666 35.8494 19.3776 35.7544C19.4892 35.6593 19.5447 35.5488 19.5447 35.4222V35.4229Z" fill="#1B1B1B"/>
<path d="M20.9918 34.6931V34.9957C21.0719 34.8745 21.1498 34.7868 21.2257 34.7326C21.3022 34.6783 21.4012 34.6516 21.5241 34.6516C21.5585 34.6516 21.6077 34.6589 21.6723 34.673L21.5627 34.983C21.4939 34.9709 21.4483 34.9649 21.4265 34.9649C21.3057 34.9649 21.2039 35.0011 21.1224 35.0747C21.0403 35.1477 20.9996 35.2388 20.9996 35.3479V36.1621H20.6407V34.6917H20.9911L20.9918 34.6931Z" fill="#1B1B1B"/>
<path d="M23.7431 33.8501H24.0977V36.1628H23.7473V35.8562C23.578 36.0878 23.3561 36.2037 23.0823 36.2037C22.8604 36.2037 22.6708 36.1273 22.5121 35.974C22.3534 35.8207 22.2748 35.6365 22.2748 35.4216C22.2748 35.2067 22.3555 35.0306 22.5163 34.8792C22.6771 34.7279 22.8695 34.6523 23.0928 34.6523C23.2262 34.6523 23.3512 34.6844 23.4664 34.7487C23.5823 34.813 23.6742 34.8967 23.7431 34.9998V33.8501ZM23.7845 35.4256C23.7845 35.2937 23.729 35.1792 23.6174 35.0828C23.5057 34.9857 23.373 34.9375 23.2185 34.9375C23.064 34.9375 22.9236 34.985 22.8127 35.0795C22.7017 35.1739 22.6462 35.2897 22.6462 35.4263C22.6462 35.5629 22.7024 35.6714 22.8155 35.7691C22.9285 35.8669 23.0598 35.9164 23.2101 35.9164C23.3702 35.9164 23.5057 35.8689 23.6174 35.7738C23.729 35.6787 23.7845 35.5629 23.7845 35.4263V35.4256Z" fill="#1B1B1B"/>
<path d="M12.4968 33.1243V33.7945H13.1379V34.1173H12.4968V35.3754C12.4968 35.6647 12.5832 35.8287 12.8325 35.8287C12.9497 35.8287 13.0361 35.814 13.0923 35.7999L13.1126 36.118C13.0263 36.1515 12.8886 36.1756 12.7159 36.1756C12.5074 36.1756 12.3395 36.1126 12.2321 35.9974C12.105 35.8722 12.0594 35.6647 12.0594 35.3901V34.1173H11.6774V33.7945H12.0594V33.2354L12.4968 33.1243Z" fill="#1B1B1B"/>
<path d="M13.0916 35.7953C13.1906 35.7912 13.3008 35.8689 13.2987 35.9653C13.2966 36.0544 13.2004 36.1207 13.1154 36.1274C13.0185 36.1347 12.9034 36.0664 12.8999 35.9693C12.8964 35.8763 12.9975 35.7986 13.0909 35.7953H13.0916Z" fill="#1974BA"/>
<path d="M10.8417 33.978C10.9723 33.972 11.1177 34.0838 11.1149 34.2224C11.1121 34.3496 10.9857 34.4454 10.874 34.4548C10.7462 34.4655 10.5953 34.367 10.5903 34.2284C10.5854 34.0945 10.7188 33.9834 10.8424 33.978H10.8417Z" fill="#FF0000"/>
</svg>
