<svg width="66" height="65" viewBox="0 0 66 65" fill="none" xmlns="http://www.w3.org/2000/svg">
<path d="M41.7161 62.6947C43.6771 61.8284 44.4122 60.0966 44.6242 58.8954C45.1246 58.4536 46.1268 57.2608 45.9974 56.7218C43.3856 58.948 45.4428 55.5352 44.9922 55.0134C44.9743 55.0748 43.6142 57.5904 43.0692 56.546C43.2047 56.0768 43.6487 54.9799 43.5014 54.3689C43.4512 52.7458 42.4307 57.377 41.241 56.0145C41.036 55.6523 41.512 55.1199 41.5845 54.2319C41.807 51.8145 40.5378 56.2111 39.0409 55.7844C38.2498 55.2918 39.9871 53.0806 39.2594 52.9313C38.8324 53.4782 38.0964 54.6286 37.1026 54.8844C36.8172 54.7386 36.5187 54.5809 36.2123 54.4091C36.4562 53.8966 37.3626 52.1118 36.968 51.993C36.5746 52.4595 35.7259 53.4363 34.881 53.5997C34.562 53.3881 34.2425 53.1624 33.9278 52.9211C34.5296 52.1926 35.3876 50.4622 35.01 50.6031C34.8351 50.8311 33.2417 52.0707 32.8072 51.9726C32.524 51.7076 32.3287 51.5039 32.0642 51.294C32.6114 50.7493 33.3618 49.3617 33.083 49.4085C30.7172 50.9631 30.7229 50.217 29.9257 49.6029C32.7928 46.9336 30.4502 48.7684 29.1788 48.4264C29.1911 48.2603 29.0608 48.073 28.8187 47.6988C30.6766 45.9462 29.6902 46.5943 28.8624 46.8196C27.4232 47.1452 26.3839 46.1852 26.0762 45.8358C25.616 45.2836 25.4398 44.5838 24.8039 43.5208C23.3617 40.7623 22.4242 40.928 21.1895 39.8938C18.94 37.6897 20.086 35.7242 22.151 34.3313C22.5505 34.1696 22.7747 34.1842 23.2205 34.1294C23.3433 34.1373 23.4425 34.1426 23.6173 34.1453C22.7577 35.2683 22.3595 36.1245 22.2358 37.4949C22.0746 38.3003 21.846 38.8582 21.926 38.8644C22.0099 38.9086 22.3547 38.4103 22.6165 37.9738C23.4032 36.5923 23.283 36.6692 23.866 34.1475C24.1929 34.1475 24.595 34.1391 25.1523 34.1431C24.7383 34.9404 24.406 35.7784 24.1606 36.644C23.9635 37.0045 23.79 37.3376 23.8027 37.3363C23.8773 37.3035 23.9483 37.2629 24.0146 37.2152C23.7961 37.9866 23.4862 40.7239 23.4854 41.0981C23.8149 40.6868 24.6086 39.2103 24.8455 38.5357C25.2163 38.2472 25.5536 37.917 25.8507 37.5514C25.0736 41.0707 25.0295 40.6833 26.105 39.1021C25.9446 39.5094 25.8048 39.8708 25.81 39.873C27.2405 38.9148 28.1933 36.8517 28.5534 35.1017C28.5596 35.103 28.5656 35.1049 28.5713 35.1075C28.3988 35.8333 28.3062 36.5762 28.2951 37.3226C27.8253 38.0599 26.9949 40.245 26.7641 40.9519C26.7383 40.996 26.9564 40.8136 27.1535 40.6369C27.6942 40.1469 27.9949 39.7652 28.3497 39.2262C28.4 39.9459 28.4559 40.856 28.476 40.7751C29.355 39.2832 29.9087 37.2382 29.8899 35.6337C30.2347 35.7861 30.2422 35.9155 30.712 36.0569L30.8505 36.1267L30.8545 36.1824C29.6006 37.6924 29.1587 39.3932 28.5486 41.7555C28.5276 41.854 28.4988 41.8955 28.532 41.8823C30.0263 40.5026 30.6368 38.5326 30.9052 36.6829C31.0044 37.5121 31.247 38.5618 31.4344 39.3999C30.9821 40.0846 30.0298 42.3346 29.8663 42.7906C31.3086 41.8465 32.3641 40.0926 32.9388 38.0776C33.0122 37.847 33.0577 37.5475 33.1053 37.4507C33.1315 37.4459 33.7744 37.9018 33.9838 38.052C32.6101 40.0921 32.3321 42.6417 32.014 44.6576C33.5205 43.0283 34.0563 40.4469 34.1267 38.1801C34.1389 38.1655 34.3478 38.3193 34.638 38.5539C34.6573 38.5936 34.6699 38.6148 34.6743 38.6131C34.6788 38.6063 34.6822 38.5988 34.6844 38.591C34.8185 38.6988 35.117 38.9497 35.2573 39.0676C33.8588 41.0654 33.5301 43.3971 33.1232 45.6206C34.6594 44.0302 35.3133 41.4073 35.3832 39.1816L35.4326 39.2209C35.5676 39.3345 36.058 39.7891 36.2713 39.9967C35.0323 42.0643 34.8653 44.3262 34.6105 46.8373C35.4877 45.7413 36.0375 44.2626 36.2604 42.51C36.6074 39.7308 35.8259 39.5567 37.3246 41.137C37.5999 41.4718 37.9365 41.8549 37.9133 41.8796C36.8827 43.7727 36.7486 45.4943 36.5418 47.807C36.5418 47.8826 36.5139 47.9276 36.5654 47.8729C37.8338 46.1817 38.103 43.9662 37.9998 41.9653C38.2822 42.3351 38.9146 43.2465 38.9054 43.281C38.1318 44.4459 37.9102 46.0094 37.7717 47.0445C38.5584 46.2011 38.9583 44.7229 38.946 43.3384C39.0732 43.5217 39.4705 44.2131 39.5955 44.4552C38.8455 45.5049 38.5929 47.1987 38.4592 48.2064C39.328 47.1961 39.5811 46.0063 39.6392 44.5838C39.6392 44.5582 39.651 44.5573 39.7039 44.6545C39.8787 44.9871 40.1873 45.6361 40.3223 45.9573C39.8372 47.0176 39.7572 48.0337 39.7629 49.6126C39.766 49.8286 39.7555 49.9877 39.7751 49.947C40.4639 48.8399 40.5312 47.322 40.359 46.0775C40.3587 46.0768 40.3586 46.076 40.3586 46.0752C40.3586 46.0745 40.3587 46.0737 40.359 46.073C40.3743 46.0633 40.5229 46.4503 40.6606 46.8183C40.7412 47.0131 40.7844 47.2217 40.7878 47.4328C40.7004 48.6036 41.0627 49.8017 41.4381 51.0997C41.8983 49.3065 41.0754 47.8835 40.7192 46.3284C41.8992 47.0326 43.4612 47.5 44.4372 47.2698C43.3882 46.7839 41.7795 46.157 40.6785 46.2007C40.651 46.1124 40.5443 45.7943 40.5343 45.7492C41.8839 46.1468 43.355 46.1746 44.3803 45.6869C42.6068 45.4068 41.4674 45.3534 40.5046 45.6639C40.4346 45.4545 40.3219 45.1581 40.1208 44.6306C41.3883 44.9871 42.7869 45.0724 43.8887 44.5422C39.2402 43.8076 40.4316 45.2933 39.7511 43.7815C40.9241 43.5924 42.4477 42.9478 43.1291 41.9631L43.0417 41.9892C41.7484 42.3969 40.3809 43.0181 39.7253 43.7404C39.6379 43.5566 39.3438 42.9964 39.2485 42.8091C40.4128 42.586 41.7314 42.0024 42.446 41.027L42.3585 41.0526C40.9429 41.5134 39.8416 42.0338 39.1681 42.6761C39.1222 42.522 38.4688 41.7042 38.7258 41.7647C40.7852 41.3309 42.9473 39.9773 43.6059 38.7403C41.3603 39.6 39.7214 40.3912 38.5579 41.6812C38.5042 41.5792 37.8744 40.7226 37.7595 40.5671C40.0933 40.173 42.1335 39.3778 43.5858 38.0431C46.3431 39.6234 48.1119 39.987 50.638 39.5717C51.5414 39.4012 52.2682 39.1299 53.1292 38.7023C53.1292 38.7129 53.1327 38.7239 53.1354 38.7359C53.204 38.9736 53.2083 39.2081 53.3023 39.4502C53.318 39.5722 53.256 39.6406 53.3871 39.6795C53.6174 39.5214 53.8897 39.6292 54.2175 39.6137C54.4644 39.6177 55.8154 39.5253 55.1069 39.1428C54.9487 39.0579 55.0435 38.6387 55.1598 38.8114C55.3783 39.3314 55.9124 39.3204 56.2257 39.0129C56.3359 39.2338 56.578 39.2779 56.769 39.1255C56.8429 39.1224 56.9464 39.2139 56.8201 39.2943C56.7074 39.3694 56.7113 39.3707 56.5706 39.3946C55.7953 39.4189 56.0964 40.3524 56.6361 40.712C56.9788 40.9474 57.1068 40.8445 57.4469 41.2054C57.592 41.2912 57.6287 41.1613 57.7878 41.1856C57.9879 41.2969 58.2738 41.1529 58.5509 41.1758C58.8467 42.0073 59.425 41.6508 59.8458 42.0152C59.9333 42.0594 60.0272 41.8036 60.1894 41.8049C60.3751 41.7758 60.6422 41.2346 60.7545 40.8692C60.9647 40.2627 60.2519 40.3029 60.5661 40.048C60.6741 40.2194 61.0272 40.2901 61.178 40.4204C61.3196 40.4054 61.4913 40.3868 61.6758 40.3683C62.0114 40.4314 62.2439 40.5631 62.4485 40.135C62.7352 40.0599 63.122 39.5505 63.1478 39.1215C63.3772 39.4348 63.8178 39.2731 64.1665 39.1825C64.3247 39.1096 64.3645 38.9263 64.5511 38.8945C64.6823 38.3922 64.7334 37.7874 64.4786 37.1821C64.6753 37.1609 64.6499 37.0213 64.7233 36.8857C64.9292 36.925 64.9537 36.6281 65.1656 36.5764C65.1246 36.432 65.1945 36.2084 65.1613 36.0392C65.205 36.0083 65.2552 35.995 65.2225 35.8735C65.0787 35.4799 64.8732 35.1755 64.625 35.0001C64.3864 34.8707 64.2727 35.3023 64.0691 35.066C64.4065 34.9374 64.5813 34.6259 64.5201 34.3304C64.5778 34.4051 64.7955 34.2822 64.8024 34.4011C64.9506 34.8327 65.4117 34.3375 65.458 34.041C65.5568 33.7344 65.4829 33.0249 65.2185 32.8875C65.0874 32.7678 64.9209 32.6401 64.8199 32.5619C64.8033 32.554 64.6967 32.5005 64.5957 32.4519C64.514 32.1754 64.8252 32.0791 64.5957 31.9218C64.153 31.3735 64.7863 31.1553 63.8567 30.6322L63.854 30.6163C63.8501 30.4542 63.483 30.296 63.3847 30.2739C63.462 30.053 63.99 30.7674 64.2067 30.1105C64.2037 30.0168 64.2505 29.2145 63.9764 29.192C64.0123 29.0153 63.8978 28.8315 63.7684 28.7294C63.7395 28.6358 63.7566 28.4083 63.5499 28.4719C63.205 28.3146 62.2029 27.6983 62.0368 28.3937C62.0215 28.5841 62.1613 28.7339 62.1203 28.964C62.011 29.0436 62.0285 28.718 61.9712 28.5713C61.9384 28.4498 61.7527 28.3 61.6845 28.2815C61.6762 28.2775 61.6679 28.274 61.6587 28.27C61.5971 28.2059 61.4791 28.2408 61.3886 28.1878C61.3327 27.997 61.7706 28.0822 61.8336 28.0372C62.1329 27.8998 62.3143 27.4103 62.1141 27.1602C62.1211 26.953 62.0993 26.8819 61.7208 26.8797C61.3878 26.8302 61.5206 26.5077 61.1037 26.8245C60.7217 27.0489 60.459 27.8406 60.3253 27.5057C60.2615 27.3546 60.1902 27.1934 59.9927 27.1342C59.8926 27.0188 59.5041 26.8691 59.4175 26.7432C59.2943 26.411 58.9696 26.0209 58.6671 25.6321C58.5657 25.5247 58.5653 25.6723 58.4189 25.6895C57.9919 25.4775 57.5181 25.7907 57.3813 26.2289L57.3734 26.2488C57.2493 26.0721 56.5675 25.902 56.3551 25.8322C56.2747 25.8534 56.0654 25.883 55.9377 25.7739C55.8827 25.8419 55.8066 26.039 55.6794 26.0765C55.2769 26.5952 55.4037 26.1989 55.176 26.4176C55.1213 26.5528 55.1248 26.6332 54.988 26.7825C54.5003 26.6199 54.2774 26.6022 54.0121 26.9654C53.8652 26.9415 53.6624 27.306 53.6048 27.4001C53.5099 27.5525 53.3259 27.6382 53.3583 27.8825C53.4068 28.0292 53.4758 28.0729 53.5921 28.1374C53.6297 28.2488 53.4225 28.4683 53.6454 28.6018C53.5143 28.7228 53.7328 29.2304 53.558 29.1195C53.4369 28.4445 52.9426 28.4772 52.1157 28.6866C51.9055 28.7387 52.0043 28.8951 51.6953 28.9958C51.4851 29.1032 51.7455 29.1796 51.6953 29.2914C51.6739 29.4204 51.6192 29.5949 51.6114 29.6541C51.6284 29.685 51.7119 29.6855 51.6839 29.7866C51.4986 30.0217 51.815 30.8911 52.1293 30.8995C52.5226 30.9993 52.6223 30.5496 52.8666 30.5624C53.1139 30.6689 52.3015 30.7453 52.9238 31.1014C52.8801 31.1756 52.9164 31.4796 52.9216 31.6249C52.9055 31.7676 52.8041 31.8051 52.7853 31.89C52.1682 31.9452 51.5978 32.8248 52.2661 33.2595C52.4339 33.4477 52.0515 33.3072 51.9601 33.1928C51.5353 32.9423 50.9549 33.6381 50.8937 33.8899C50.85 34.0437 50.9282 34.1024 50.9003 34.307C50.8671 34.4722 50.8129 34.572 50.9003 34.6697C51.1506 34.9254 51.3763 35.2047 51.5742 35.5038C52.0305 35.984 52.5921 36.1134 52.9059 35.5824C52.9732 35.4499 52.7433 35.1552 53.0047 35.0854C53.0654 35.0854 53.0619 35.1296 53.0401 35.1967C52.8718 35.6911 53.645 35.7799 53.8268 35.5625C53.7551 35.8033 54.1305 36.041 53.8307 35.9959C52.8015 36.0728 52.5973 37.6857 53.6183 37.6093C53.662 37.6173 53.6852 37.6058 53.6804 37.6866C53.4719 38.1726 53.2555 37.1843 53.0973 38.0741C51.0314 39.0964 48.4454 39.2669 46.3471 38.7752C45.0766 38.4337 44.8017 38.2596 43.9433 37.6955C44.0534 37.5841 44.4079 37.175 44.3594 37.2046C44.355 37.202 44.0141 37.3098 43.5941 37.445C43.359 37.2727 43.1098 37.0849 42.8314 36.8813C42.307 36.4991 41.9241 36.2044 41.6278 36.0043C41.9674 35.4017 41.9704 35.4773 41.3533 35.8276C41.2379 35.7591 41.1562 35.7158 40.8656 35.5532C41.0059 33.2409 39.8604 31.2379 38.0287 29.9081L37.9129 29.8304C38.5746 29.5017 40.1877 28.6309 40.6283 28.3681C40.6619 28.3491 40.6803 28.3393 40.6894 28.4184C40.7292 29.1898 40.7821 29.5671 40.9342 30.137C41.2401 31.5162 42.6763 33.3563 43.6334 34.5142C43.8034 34.8592 43.8371 33.7221 43.8594 33.3872C43.8725 30.9852 42.8629 29.5512 41.199 28.0323C41.6274 27.7827 42.3476 27.2967 42.7265 27.0935C43.7444 30.0336 45.4113 30.9441 48.2177 32.9202C48.1351 31.4146 46.8523 29.7394 45.2719 28.2333C44.5289 27.5534 43.7964 27.3056 42.9556 26.9371C43.2523 26.7299 44.8677 25.6272 45.0281 25.4938C45.5088 27.8883 47.0127 28.8982 48.892 30.3583C48.9357 30.3844 48.9506 30.4025 48.9611 30.3892C48.9995 30.2894 48.9471 29.5896 48.8798 29.3038C48.5188 27.3948 46.8864 26.0677 45.3279 25.4024C45.2942 25.3895 45.262 25.373 45.2317 25.3533C45.5097 25.1355 46.4664 24.411 46.7448 24.1927C47.1731 25.42 47.9546 26.0041 49.4283 26.9543L49.5196 27.0034C49.4536 25.4183 48.2343 24.5113 46.9716 24.0182C47.2605 23.7775 48.1643 23.0317 48.4515 22.7865C48.8356 24.2303 49.8142 24.8532 51.1844 25.7465L51.2766 25.7973L51.2691 25.6533C51.1581 24.0872 49.7648 23.1736 48.5253 22.734C50.8548 20.6753 47.9296 22.6593 54.6393 22.2984L54.5234 22.1906C53.3631 21.2991 51.5681 21.3459 49.7893 21.5973C50.5384 20.8878 50.9663 20.4822 51.2416 20.2074C52.3229 20.8259 53.7962 20.8732 56.3368 20.7667C55.356 19.8761 53.4133 19.7669 51.3583 20.093C51.3872 20.0581 51.8539 19.592 51.9623 19.4824C53.8556 19.7033 56.2891 18.9682 57.8743 18.5547C56.4032 18.0581 54.2468 18.5794 52.1306 19.3106C53.9736 17.2435 56.4342 15.2837 57.4574 12.7333C55.821 14.4505 54.2512 16.0467 53.2354 17.7732C53.0246 18.0815 52.7791 18.3641 52.5038 18.6152C51.9859 19.1096 51.4348 19.6313 51.4243 19.6132C52.6144 18.1054 54.0859 15.9093 54.2175 14.0829C53.3679 15.2864 51.4833 18.2384 51.2683 19.7696C50.7054 20.2719 49.8496 21.0282 49.1267 21.6039C50.017 19.9666 51.0935 18.3466 50.906 16.3612C50.9195 16.1845 50.5397 17.0597 50.2395 17.6424C49.4156 19.304 48.9786 20.5259 48.9349 21.7651C48.5415 22.0938 47.3846 22.9986 47.0555 23.2314C48.2828 21.3759 49.1757 19.2699 48.9244 17.8593C48.0275 19.5103 46.9677 21.8292 46.9498 23.3056C46.9227 23.3618 45.2606 24.5365 44.5552 25.0109C46.2566 22.7216 48.4322 18.6263 48.0752 16.5057C45.9655 20.1919 44.7798 22.3593 44.3602 25.1324C43.8017 25.53 41.4246 27.006 40.7327 27.3546C42.8209 24.2007 44.841 20.5511 44.5958 17.668C42.7969 20.9624 40.8236 24.1393 40.484 27.5061C39.9351 27.8039 38.9334 28.3429 38.5715 28.513C40.2441 25.8092 42.1068 21.9449 41.5312 19.1471C40.1873 21.9012 38.2236 25.9144 38.3027 28.6548C37.7123 28.9517 35.9356 29.8074 36.0064 29.7261C37.7546 26.8717 39.6226 23.2928 39.2092 20.3558C39.2437 20.1027 38.3713 22.0019 37.8635 23.0066C36.5497 25.7704 35.8714 27.3701 35.7014 29.8829C35.2442 30.0835 33.9335 30.6366 33.9925 30.5898C35.051 28.1684 35.5143 25.7443 35.1948 23.9763C35.1149 23.5234 35.0148 23.2986 35.0143 23.2977C34.8367 22.9495 34.6085 22.63 34.3373 22.3501C34.6948 28.1149 33.0262 28.0274 33.8509 30.353C33.7753 30.4467 33.6472 30.6075 33.5013 30.7921C32.8579 31.0347 32.0817 31.3276 31.4327 31.56C31.4738 31.2781 31.4698 30.4997 31.4305 30.3397C31.4178 30.3168 31.0345 31.1283 30.7312 31.8051L30.1342 32.0057C30.1823 31.8714 30.226 31.7389 30.2653 31.6081C31.5197 29.2667 32.8133 26.0416 32.1009 23.7165C32.0634 23.6251 32.0629 23.7028 32.0433 23.7311C31.1543 25.8958 29.8685 29.1257 29.8654 30.8072C29.6211 31.2299 29.3445 31.7504 29.1661 32.1418C28.962 32.1542 28.7291 32.1705 28.483 32.1908C28.6754 31.5748 28.7891 30.9364 28.8213 30.2911C29.5822 28.1366 29.5931 25.7469 28.9087 24.7375C28.129 27.2009 27.199 30.3481 27.6172 32.1723L27.5923 32.2748C27.4061 32.2938 27.1889 32.3189 26.9446 32.3454C27.1741 31.5869 27.2506 30.7966 27.1452 30.0959C26.883 30.5474 26.3625 32.0499 26.2855 32.4303C26.2532 32.4347 26.2209 32.4395 26.1876 32.444C27.0853 30.2037 27.5936 27.6515 26.6684 26.0876C26.0897 28.0129 25.2467 30.9472 25.6147 32.5266C25.0198 32.6295 25.0059 32.6269 24.2126 32.8031C24.8682 30.2991 24.786 28.3146 23.6619 27.0325C23.3704 28.7555 22.9526 31.6271 23.5426 32.9635C23.1689 33.0806 21.2629 33.6346 20.9872 33.5449C19.5497 33.2719 18.4409 31.3501 19.1634 29.7946C19.2787 29.5366 19.3727 29.3413 19.5274 29.1553C20.3281 28.5227 21.5951 26.4604 22.405 26.107C22.7616 25.9519 23.1104 25.9409 23.6938 25.5954C24.5321 25.0763 24.8511 24.6416 25.1837 24.2895C25.5723 23.7678 26.6474 23.1992 27.1745 22.92C28.0154 22.358 28.4315 21.6781 28.7357 21.527C29.2238 21.1599 29.8436 22.7035 29.9874 23.2579C31.0748 22.7941 29.6294 19.6265 30.9052 20.7062C32.021 21.4312 31.906 22.7035 32.2076 22.7433C32.9292 21.6679 31.8523 18.7716 33.1293 19.8275C33.479 20.0453 34.1783 21.1405 34.4479 21.5672C35.2163 21.9798 33.9864 18.7429 34.2648 18.5065C34.9505 17.85 36.6638 20.3682 36.6511 20.5714C37.558 21.0176 36.2263 17.638 36.1996 17.5253C36.0912 16.2764 38.485 18.4796 38.9377 19.1864C39.4775 18.5587 37.8661 16.0321 37.9872 15.8474C38.2376 14.6732 40.7301 17.285 40.8446 17.3795C41.5303 16.3396 38.6423 14.1134 39.8591 14.022C40.8643 13.8621 42.0133 15.335 42.3223 15.4534C42.7768 14.4898 39.8835 12.5632 41.255 12.5915C42.6002 12.6635 43.3668 13.8051 43.5635 14.0008C43.7768 14.2446 43.5993 13.1989 43.0469 12.5619C41.1108 10.9392 43.1151 11.4132 43.6299 11.7808C44.3371 12.2668 44.7147 12.83 44.8209 12.8729C45.0167 12.9529 44.9555 12.0702 44.4852 11.4044C44.223 10.9021 43.1715 10.5102 43.5906 10.3335C44.0276 9.92354 45.4358 11.8798 45.5525 11.9708C45.5993 9.73622 44.3126 9.81309 44.1662 8.25403C44.4769 5.71377 41.2087 3.1956 40.4954 3.02904C40.3385 3.00209 40.2913 2.98486 40.0859 3.01888C38.6436 3.48452 37.2774 2.70963 36.2036 3.13065C36.0293 3.19544 35.8517 3.25088 35.6717 3.29676C33.6236 3.8004 31.7863 3.93956 31.3116 4.10656C29.7645 4.55629 28.417 5.83791 25.8048 7.50123C22.8809 9.43006 18.6538 11.1968 16.4519 11.9871C15.7089 12.2654 15.1005 12.4868 14.6709 12.6608C12.9861 13.5643 12.9594 12.8216 11.5678 13.1857C10.9166 13.3067 10.7628 13.6778 10.2475 13.7357C9.87033 13.775 9.71736 13.6328 9.39613 13.5771C8.20472 13.4715 7.71129 13.9579 7.56707 14.9908C7.13876 15.813 6.70739 14.6502 5.79613 15.6606C4.60692 16.9545 4.04793 18.074 3.26123 19.2549C2.39063 20.5803 2.75819 21.2173 1.38672 21.4444C1.28939 21.4787 1.20668 21.5458 1.15246 21.6344L1.21758 22.7163C1.62622 24.0483 1.81329 23.8716 1.63104 25.1395C1.44747 27.8454 0.604837 27.1443 0.503441 28.592C0.407727 30.8805 2.34605 30.8756 1.68348 31.6315C1.61565 31.7267 1.57953 31.8412 1.58034 31.9584C1.57072 32.303 1.77482 32.7205 2.08819 33.0077C3.30581 33.8873 3.47277 32.3918 4.32502 34.0295C4.6716 34.2836 5.22316 34.3936 5.52516 34.1356C5.54618 34.1134 5.5632 34.0877 5.57542 34.0596C5.65016 33.8904 5.9526 32.8115 5.93205 32.7925C5.96571 32.5222 5.51205 32.288 5.51205 31.9646C5.70391 30.433 7.09418 32.117 7.48446 32.6715C10.0001 36.7646 8.70471 35.4693 7.94599 38.5366C7.6453 39.7705 7.70036 40.765 7.51637 41.459C7.38525 42.3046 6.19516 42.3669 6.72006 43.2796C7.28473 44.2074 7.68158 44.2772 7.79914 44.4649C8.3743 45.1099 9.60635 46.7927 9.97216 47.451C14.6237 56.0242 16.4842 56.0216 21.627 57.2369C26.4035 58.4143 30.2566 59.8876 34.3146 61.5223C36.6336 62.3316 39.7472 63.5823 41.7161 62.6947ZM57.2611 27.052C57.2466 27.0566 57.2328 27.0631 57.22 27.0714C57.2708 27.0073 57.3274 26.9481 57.3892 26.8947L57.4014 26.8828C57.45 26.9042 57.4901 26.9413 57.5155 26.9884C57.5049 26.9976 57.495 27.0074 57.4858 27.018L57.4285 27.0869C57.37 27.0635 57.3227 27.033 57.2611 27.052ZM63.049 31.1297C63.021 31.1858 62.8034 31.2807 62.8785 31.1076C62.9354 31.1138 62.9515 31.1442 63.049 31.1297ZM58.6925 31.0532C58.6051 31.1707 58.4932 31.1155 58.3708 31.0037C58.4541 31.0164 58.5614 31.0329 58.6925 31.0532ZM60.7116 29.8003C60.9385 30.0654 61.119 30.1493 61.3257 30.4188C61.2903 30.4559 61.2505 30.4997 61.2064 30.5514C61.1469 30.4511 60.6889 30.0446 60.4673 29.8821C60.4533 29.7937 60.3633 29.8189 60.2707 29.7455C60.0727 29.5401 60.5019 29.7045 60.5263 29.4721C60.5565 29.6236 60.5311 29.5839 60.7116 29.7981L60.7116 29.8003ZM60.5368 28.9985C60.5947 29.0358 60.6604 29.059 60.7286 29.0662C60.7969 29.0734 60.8659 29.0645 60.9302 29.04C60.9022 29.1637 61.0665 29.5123 61.0294 29.5176C60.8865 29.4319 60.7125 29.1275 60.5486 29.3267C60.5486 29.2998 60.5486 29.272 60.5486 29.2437C60.5586 29.2446 60.5686 29.2426 60.5775 29.2379C60.6212 29.2145 60.629 29.116 60.5338 29.0811C60.5298 29.0489 60.5255 29.017 60.5207 28.9861C60.5259 28.9883 60.5316 28.9927 60.5368 28.9963L60.5368 28.9985ZM55.5732 30.0588C55.5907 30.0088 55.6047 29.9625 55.6169 29.9218L55.6392 29.8675C55.6523 29.9607 55.6694 30.0561 55.6917 30.1524C55.6555 30.1168 55.6158 30.0849 55.5732 30.0574L55.5732 30.0588ZM56.2424 29.5348C56.1707 29.2039 56.1353 29.0382 56.1388 28.9892C56.1412 28.9665 56.1423 28.9436 56.1423 28.9207C56.3879 29.1416 56.387 29.0974 56.6204 29.1103C56.4744 29.6082 56.4919 29.955 56.5028 30.3402C56.5063 30.6013 56.3075 29.8604 56.2424 29.5348ZM57.4574 31.2414C57.4202 31.0921 57.3679 30.947 57.3013 30.8085C57.2702 30.4075 57.2639 30.005 57.2825 29.6033C57.3625 29.6992 57.6282 29.78 57.7655 29.7168C58.0793 29.6727 57.9014 29.9245 57.6733 29.9819C57.3673 30.1988 57.5885 30.5735 57.918 30.8429C57.776 30.8398 57.5771 31.0802 57.4853 31.3408C57.4757 31.3024 57.4657 31.2684 57.4574 31.2414ZM63.3523 33.5922C63.369 33.6283 63.3987 33.6568 63.4353 33.6717C63.3835 33.7232 63.3205 33.7618 63.2514 33.7843C63.2999 33.7212 63.3325 33.6471 63.3462 33.5683C63.347 33.5765 63.3491 33.5846 63.3523 33.5922ZM63.3576 33.4446C63.3598 33.464 63.3586 33.4836 63.3541 33.5025C63.3554 33.4766 63.3554 33.4506 63.3541 33.4247C63.3558 33.4312 63.3569 33.4379 63.3576 33.4446ZM57.647 32.6794C57.6033 32.6432 57.5596 32.6127 57.5234 32.5875C57.5474 32.5014 57.557 32.4118 57.5518 32.3225C57.7577 32.4356 57.9692 32.5379 58.1855 32.6291C58.1295 32.709 57.9927 32.85 57.9709 33.0134C57.8944 32.9401 57.8507 32.8416 57.647 32.6794ZM56.4364 33.1831C56.4448 33.1955 56.4512 33.2092 56.4552 33.2237L56.4364 33.1831ZM57.0251 33.9946C56.9377 33.9465 56.8503 33.8979 56.7629 33.8511C56.6588 33.6661 56.5651 33.4754 56.4823 33.2798C56.6305 33.5498 57.0688 33.2767 57.2585 33.1256C57.5116 33.2323 57.7705 33.3245 58.0338 33.4018C58.0911 33.5335 58.1677 33.6558 58.2611 33.7645C57.9906 33.9575 57.6169 34.1073 57.3621 34.2036C57.2538 34.1276 57.1413 34.0578 57.0251 33.9946ZM61.6968 34.7108C61.2099 34.6476 61.2562 34.6153 60.8353 34.5575C60.8353 34.5248 60.3847 34.2871 60.0823 34.1241C60.1168 34.0975 60.149 34.0679 60.1784 34.0357C60.5443 34.0463 61.3747 33.9619 61.8327 33.8281C61.9227 33.9606 61.935 33.9862 62.1137 34.1104C62.1006 34.3039 62.0215 34.508 62.0534 34.7501C61.9542 34.7413 61.8362 34.7289 61.6968 34.7108ZM60.9 35.6328C61.046 35.6014 61.1653 35.5387 61.1775 35.3567C61.2666 35.394 61.3596 35.4209 61.4546 35.4371C61.3672 35.5497 61.1308 35.5373 61.0246 35.68C60.98 35.6637 60.938 35.6478 60.9 35.6328ZM62.4397 36.2106C62.4144 35.9822 62.195 35.4834 61.9502 35.4521C61.9533 35.4521 61.9564 35.4521 61.9594 35.4521C62.0748 35.4512 62.1897 35.4385 62.3025 35.4141C62.2751 35.4834 62.2602 35.5572 62.2588 35.6319C62.3025 35.8625 62.5647 36.1828 62.7265 36.3387C62.6517 36.299 62.5564 36.2579 62.4397 36.2106ZM56.2336 37.3204C56.4054 37.2621 56.4128 37.5377 56.5645 37.5855C56.5191 37.6412 56.4779 37.7002 56.4412 37.7622C56.3608 37.4993 56.203 37.3619 56.2371 37.3204L56.2336 37.3204ZM62.4459 38.5888C62.4109 38.5622 62.3016 38.5234 62.2505 38.4249C62.2842 38.2959 62.3816 38.4545 62.5455 38.4898C62.757 38.4982 62.834 38.4545 62.9826 38.3131C63.07 38.9214 63.4445 38.2791 63.132 38.9166C63.0079 38.5706 62.7225 38.6519 62.4459 38.5888ZM34.8456 6.48999C31.5354 7.15487 32.9453 4.96141 34.8019 4.84699C35.7197 4.87349 35.6122 4.67602 36.1629 4.42818C36.4924 4.37649 37.4133 4.32656 37.7057 4.34335C38.7122 4.48119 39.2821 4.96583 39.5383 5.31837C39.9382 5.94482 38.4456 6.90173 37.7874 6.84518C37.6492 6.84191 37.5133 6.80813 37.3893 6.74622C36.6384 6.25805 35.4933 6.34773 34.8456 6.48999ZM28.2462 11.9955C29.4782 10.7015 30.5761 11.9712 30.0962 12.3989C29.9052 12.5756 29.5591 12.6414 29.4323 12.8773C29.2828 13.1424 29.6071 13.3681 29.622 13.7264C29.7094 14.5044 29.1443 15.4176 28.7579 15.3354C28.5219 15.2435 28.1185 14.6347 28.0032 14.3374C27.8996 14.0626 28.0665 13.9455 27.9988 13.5864C27.6977 12.9878 27.8069 12.5557 28.244 11.9937L28.2462 11.9955ZM15.7482 15.3699C16.6464 14.8185 16.982 14.7664 18.6236 14.026C19.9968 13.2528 21.7393 12.9383 23.1108 12.9091C25.5146 12.9034 26.0495 13.0766 27.0399 15.0107C27.1164 15.1843 27.2654 15.8501 26.8777 16.0763C26.6618 16.1523 26.2515 16.0688 26.0723 16.09C24.4989 16.0246 22.4447 17.2925 21.4981 17.6901C21.0173 17.9053 20.3854 18.4959 19.5021 19.148C19.1594 19.4064 19.2765 20.1098 19.0943 20.309C18.8941 20.548 18.8098 20.389 18.291 20.5374C17.8011 20.6797 17.6394 20.901 17.4033 20.9072C15.9204 20.6024 16.9689 18.7924 16.732 18.1173C16.4698 17.3159 15.7583 17.6755 15.4921 17.1971C15.3335 16.7792 14.9594 16.5759 14.6705 16.4624C14.4454 16.1841 15.4454 15.5612 15.7482 15.3699ZM14.5083 21.7757C14.0971 20.9518 13.1438 20.6832 12.5591 20.9006C11.6653 21.0035 10.9616 20.9249 10.3043 20.4239C8.43767 18.8776 9.55521 18.6223 8.61468 17.5563C8.58261 17.5133 8.55978 17.464 8.54766 17.4116C8.53555 17.3592 8.5344 17.3048 8.54431 17.2519C8.58146 17.0575 8.74885 17.0486 8.93766 16.6904C9.19639 15.9451 9.13346 15.7577 9.82925 16.0436C10.3008 16.211 10.5722 16.8741 11.0836 17.1114C11.7243 17.3411 12.0604 17.7471 12.6832 18.3126C13.1954 18.731 13.2588 18.6444 13.6622 19.0097C14.6862 19.8491 15.9755 23.2067 15.3711 23.7907C14.1893 23.5968 14.8291 22.3448 14.5083 21.7757ZM12.2662 31.4871C12.0551 31.4398 12.0565 31.2494 11.6941 30.8337C11.2497 30.3234 10.9713 30.2744 10.8616 30.1242C10.3987 29.4098 11.657 28.2656 11.0766 27.4028C9.70469 25.0405 8.65358 26.3818 7.60728 25.4368C7.27162 25.2442 6.82058 25.2243 6.42724 25.3365C5.30533 25.5844 5.74675 27.4213 5.05752 27.5384C3.94435 27.7513 3.64409 26.1821 3.44917 25.3555C3.41901 25.1709 3.43474 25.1505 3.41377 24.2952C3.37006 23.1068 3.40328 22.9385 3.89103 22.4941C4.36217 22.1769 4.80403 22.5891 5.73276 22.6575C6.61998 22.7357 7.14356 22.5166 7.53254 22.6699C7.63876 22.7136 7.73101 22.7861 7.79914 22.8793C8.28427 23.7828 8.83277 23.3688 9.09762 23.5115C13.1137 25.5437 12.8257 26.7701 12.9874 28.0513C13.0451 28.209 13.0477 28.2832 13.2531 28.3261C13.8099 28.1759 13.9524 28.6199 14.0136 29.0166C14.2054 29.7557 12.8689 31.6443 12.2662 31.4871ZM25.5898 34.1713L25.5898 34.1515C26.2016 34.1868 25.8083 34.3958 25.6037 34.6114C25.602 34.4585 25.5963 34.311 25.5893 34.1713L25.5898 34.1713ZM29.6819 33.6955C29.646 33.544 29.6001 33.3611 29.5691 33.2564C29.6268 33.153 29.6819 33.0497 29.7334 32.9472C29.7916 32.9295 29.858 32.9101 29.9301 32.8893C30.0451 32.8964 30.1618 32.9047 30.2798 32.9131C30.071 33.4844 29.9244 34.0769 29.8427 34.6803C29.8087 34.349 29.7548 34.0202 29.6814 33.6955L29.6819 33.6955ZM28.6815 34.6582L28.6356 34.6441L28.7138 34.5424L28.6815 34.6582ZM28.4905 34.3436C28.4809 34.425 28.4663 34.5057 28.4468 34.5853C28.4424 34.5888 28.0932 34.5018 27.8895 34.4492C27.9927 34.0878 27.9542 33.3514 28.1046 33.3483C28.1483 33.3377 28.4865 33.2599 28.7575 33.1954C28.6389 33.5705 28.5495 33.9544 28.49 34.3436L28.4905 34.3436ZM25.3778 36.7598C25.4622 36.3573 25.5229 35.9502 25.5596 35.5404C25.7742 35.259 26.0001 34.5199 26.1876 34.3034C26.251 34.3154 26.6173 34.4267 26.911 34.5204C26.7944 34.7651 26.6854 35.0113 26.584 35.259C26.1466 35.6761 25.7689 36.147 25.3778 36.7598ZM28.3358 35.2224C27.9822 35.5761 27.6647 35.9649 27.3882 36.3829C27.564 35.8736 27.7069 35.3532 27.8161 34.8252C27.9354 34.8658 28.3572 35.0222 28.4861 35.0699L28.3358 35.2224ZM30.5599 35.3014C30.389 35.2356 30.2308 35.1733 30.2059 35.1649C30.4318 34.5464 30.9956 33.6765 31.1451 32.99C31.1504 32.99 31.1556 32.99 31.1609 32.99C30.9423 33.855 30.8326 34.6149 30.8278 35.4017C30.7723 35.3849 30.6722 35.3469 30.5586 35.3014L30.5599 35.3014ZM33.3094 33.7167C32.9563 34.1812 32.6516 34.6813 32.4003 35.2091C32.3733 34.863 32.3228 34.5193 32.2491 34.1802C32.4868 33.8737 32.7058 33.5528 32.9047 33.2193C33.0432 33.2427 33.18 33.2675 33.316 33.2935C33.3087 33.4358 33.306 33.5769 33.3081 33.7167L33.3094 33.7167ZM34.8251 33.6412C34.8959 33.6606 34.9663 33.6796 35.0357 33.6995C35.0231 33.8091 35.0213 34.1272 35.0078 34.2045C34.9654 34.1303 34.881 33.7923 34.8238 33.6412L34.8251 33.6412ZM33.0769 36.5212C32.9204 36.4267 32.6311 36.2703 32.4187 36.1523C32.4213 36.0803 32.4231 36.0087 32.4239 35.9372C32.7794 35.6547 33.1184 35.3515 33.4392 35.0293C33.4983 35.3397 33.5734 35.6467 33.6643 35.9491C33.5638 36.1103 33.385 36.4792 33.2932 36.6365C33.2184 36.6032 33.146 36.5647 33.0764 36.5212L33.0769 36.5212ZM33.6341 36.5998C33.6979 36.5623 33.7652 36.5203 33.8356 36.4748C33.9055 36.6741 33.9925 36.9122 34.0839 37.156C33.8828 36.9621 33.1765 36.7523 33.6337 36.5998L33.6341 36.5998ZM32.9925 37.5059C32.6232 37.8445 32.2829 38.2139 31.9751 38.6104C32.1486 38.0781 32.2738 37.531 32.3492 36.9758C32.3684 36.9873 33.0485 37.4034 33.0834 37.4246L32.9925 37.5059ZM35.1896 37.9756C35.1297 37.9261 35.0283 37.847 34.9274 37.7675C34.9995 37.4861 35.0585 37.2161 35.0978 36.9608C35.1669 36.9042 35.2346 36.8481 35.2975 36.7951C35.3522 37.0602 35.4453 37.4861 35.5388 37.8996C35.3749 38.09 35.4212 38.185 35.1892 37.9756L35.1896 37.9756ZM35.5261 38.253L35.61 38.223L35.6398 38.3555L35.5261 38.253ZM41.4337 36.7902L41.439 36.7933C41.633 36.9122 41.8909 37.0681 42.1295 37.2095C42.1732 37.2351 42.2248 37.266 42.3358 37.331C42.376 37.3548 42.4267 37.384 42.5198 37.4383C42.6129 37.4927 42.7528 37.5731 42.9132 37.6654C40.8153 38.3316 39.2026 39.0221 37.6685 40.4412C37.5038 40.2874 37.207 39.8982 37.0213 39.7007C38.6794 38.9466 40.1571 38.0308 41.1916 36.644C41.2699 36.6904 41.3498 36.739 41.4337 36.7902ZM39.5789 35.6089L39.5763 35.612C39.8966 35.8382 40.1938 36.0304 40.5946 36.2782C38.5086 37.5002 37.9002 38.1337 36.7717 39.4326C36.7053 39.3548 36.3102 38.9705 36.0239 38.7019C36.1297 38.4441 36.2248 38.186 36.3093 37.9274C37.6205 37.3367 38.7454 36.534 39.5785 35.6089L39.5789 35.6089ZM37.6122 35.904C37.2687 36.1456 36.9411 36.4095 36.6314 36.6939C36.7276 36.2073 36.7861 35.7138 36.8062 35.2179C36.9933 34.9782 37.1659 34.734 37.3242 34.4855C37.8984 34.7209 38.3884 34.952 38.7787 35.1543C38.2402 35.4742 37.9592 35.6588 37.6126 35.904L37.6122 35.904ZM38.4797 33.442C38.7188 33.8559 38.9242 34.1674 39.3713 34.7426C38.7546 34.4205 38.179 34.1466 37.6563 33.9151C37.8506 33.5539 38.0158 33.1775 38.1502 32.7894C38.2477 33.0132 38.3579 33.231 38.4802 33.442L38.4797 33.442ZM33.9038 30.493L33.9475 30.6256L33.8806 30.6508L33.9038 30.493ZM35.801 30.8222C36.1371 30.6729 37.2306 30.1489 37.5728 30.0141C37.6165 30.7652 37.7162 31.6616 37.9723 32.3362C37.5676 32.751 36.985 33.3549 36.8058 33.5498L36.8014 33.5542C36.7774 33.5449 36.7538 33.5352 36.7302 33.5259C36.9138 33.2299 37.2354 32.4789 37.318 32.1829C37.3084 32.1762 36.9631 32.4643 36.5663 32.8045C36.4448 32.2359 36.0855 31.3435 35.8417 30.9105C35.82 30.8856 35.8059 30.855 35.801 30.8222ZM32.0039 32.2686C32.135 32.2244 32.3208 32.163 32.5 32.1007C32.4462 32.1745 32.3942 32.2474 32.3444 32.3181C32.2281 32.2995 32.1146 32.283 32.0039 32.2686ZM33.2924 32.4895C33.3439 32.3802 33.3926 32.2709 33.4383 32.1617C33.4187 32.2792 33.4012 32.3945 33.3859 32.5089C33.3544 32.5018 33.3234 32.4952 33.2924 32.489L33.2924 32.4895ZM33.9108 31.8604C33.8129 31.7362 33.7491 31.6881 33.8426 31.6275C34.5799 31.2997 35.2141 31.0864 35.5808 30.907L35.4667 31.3271C35.1905 31.6094 34.649 32.1727 34.3303 32.516C34.2085 32.286 34.0682 32.0666 33.9108 31.8599L33.9108 31.8604ZM35.1874 32.5204C35.1621 32.6578 35.1385 32.8049 35.1175 32.9529C35.0738 32.9397 35.0349 32.9273 34.9973 32.9162C35.0655 32.7843 35.1288 32.6522 35.1874 32.52L35.1874 32.5204ZM27.1457 32.8738C27.0145 32.907 26.8668 32.945 26.7152 32.9834L26.7479 32.9021C26.8795 32.8919 27.0119 32.8822 27.1474 32.8743L27.1457 32.8738ZM26.1841 32.9595C26.1767 33.013 26.1706 33.0664 26.1649 33.1199C25.8524 33.1711 25.8153 33.2966 25.9534 32.9874C26.0334 32.9794 26.1085 32.9692 26.1868 32.96L26.1841 32.9595ZM25.7152 33.024L25.7633 33.2189C25.2969 33.3231 24.2681 33.5453 23.9814 33.601L24.0356 33.4141C24.5853 33.2396 25.1478 33.1093 25.7178 33.0245L25.7152 33.024ZM23.7659 33.5065C23.7853 33.5447 23.8008 33.5848 23.8123 33.6262C23.8123 33.6337 23.5063 33.6925 23.1523 33.7587C23.3446 33.6704 23.55 33.5864 23.7686 33.5069L23.7659 33.5065ZM25.1413 33.9041C25.1938 33.9103 25.2856 33.863 25.2585 33.9107C25.217 33.9067 25.1781 33.905 25.144 33.9032L25.1413 33.9041ZM25.616 33.9482C25.6016 33.9482 25.5871 33.9438 25.5723 33.9421L25.5662 33.8374L26.1291 33.7362C26.1318 33.8433 26.1291 33.9505 26.1208 34.0574C25.9556 34.0115 25.7879 33.9755 25.6186 33.9496L25.616 33.9482ZM26.2777 33.8564C26.3096 33.8025 26.3406 33.7477 26.3708 33.6929C26.7641 33.6204 27.3856 33.5096 27.3974 33.5096L27.3948 33.5453C27.3283 33.7008 27.1413 34.0406 27.0377 34.2522C26.7855 34.1983 26.411 34.1298 26.1461 34.0795L26.2777 33.8564ZM20.0073 50.619C19.5528 50.5717 18.7503 50.2603 18.1861 50.3946C17.4051 50.3212 17.6927 49.4368 16.6254 49.4589C16.1984 49.412 15.9755 49.4531 15.8387 49.4019C15.4484 49.2751 15.4165 48.5183 15.4191 48.1375C15.4191 47.9095 15.2347 47.7439 15.1744 47.5482C15.0848 47.1682 15.257 46.6977 15.6363 46.4561C16.7639 45.9736 17.5773 47.2027 17.9387 47.4691C18.992 48.0695 19.221 48.103 19.8954 48.8523C20.1537 49.1761 20.8228 49.4545 21.051 49.5733C21.4247 50.1719 20.4828 50.7471 20.0099 50.6203L20.0073 50.619Z" fill="#1B1B1B"/>
</svg>
