<svg width="79" height="47" viewBox="0 0 79 47" fill="#50A37D" xmlns="http://www.w3.org/2000/svg">
<g clip-path="url(#clip0_1530_10717)">
<path d="M43.4137 29.3866C43.4182 29.9886 43.2991 30.585 43.0639 31.1389C42.8376 31.6785 42.5138 32.1715 42.1088 32.593C41.718 33.0056 41.2516 33.3389 40.7351 33.5746C40.2159 33.8101 39.652 33.9298 39.0823 33.9254C38.5045 33.9285 37.9325 33.8089 37.4041 33.5746C36.8783 33.3431 36.4034 33.0095 36.0068 32.593C35.6023 32.171 35.2786 31.6781 35.0517 31.1389C34.822 30.5834 34.7037 29.988 34.7037 29.3866C34.7037 28.7853 34.822 28.1898 35.0517 27.6344C35.2788 27.0952 35.6025 26.6023 36.0068 26.1802C36.4044 25.7649 36.879 25.4315 37.4041 25.1986C37.9329 24.9658 38.5047 24.8469 39.0823 24.8497C39.6518 24.8455 40.2155 24.9646 40.7351 25.1986C41.2508 25.4356 41.717 25.7687 42.1088 26.1802C42.5137 26.6018 42.8375 27.0948 43.0639 27.6344C43.2991 28.1882 43.4182 28.7846 43.4137 29.3866Z" fill="#50A37D"/>
<path d="M79 35.5994C78.3488 39.0567 76.7962 41.7741 74.3424 43.7518C71.8885 45.7294 69.3423 46.717 66.7035 46.7146C64.0891 46.7361 61.5622 45.7706 59.6247 44.0099C58.4455 42.9496 57.25 42.42 56.0382 42.4212C53.6471 42.4212 52.2033 43.7918 51.7068 46.5328H50.4019C50.5553 41.928 52.1743 37.8079 55.2589 34.1725C58.3434 30.5372 61.2328 27.8355 63.9271 26.0675C66.6238 24.2607 68.5605 22.2982 69.7373 20.18C70.9141 18.0617 71.5025 15.9908 71.5025 13.9671C71.5013 11.1994 70.577 8.72488 68.7297 6.54365C66.8824 4.36243 64.6079 3.27181 61.9064 3.27181C59.2979 3.27181 57.1165 4.10189 55.3622 5.76205C53.6079 7.4222 52.7331 9.54102 52.738 12.1185C52.738 13.9835 53.214 15.4897 54.166 16.6373C55.1181 17.7849 56.3088 18.3586 57.7381 18.3586C59.0176 18.3586 60.0705 17.9418 60.8969 17.1081C61.2877 16.7395 61.5993 16.2949 61.8128 15.8014C62.0262 15.3079 62.137 14.7759 62.1384 14.2379V13.4054L63.1641 13.0419C63.6305 13.8526 63.8631 14.8335 63.8619 15.9847C63.8619 17.9163 63.233 19.4505 61.9753 20.5871C60.7175 21.7238 59.0798 22.2921 57.0621 22.2921C54.9792 22.2921 53.2708 21.5293 51.9369 20.0036C50.6031 18.478 49.9355 16.4973 49.9343 14.0616C49.9343 10.3244 51.3165 7.16349 54.0809 4.57873C56.8452 1.99398 60.2638 0.701599 64.3367 0.701599C67.8405 0.701599 70.8453 1.83038 73.3511 4.08795C75.8569 6.34553 77.1068 9.06297 77.1007 12.2403C77.1007 17.4728 73.5293 22.4412 66.3864 27.1453C59.2435 31.8495 54.9894 36.4592 53.6242 40.9743C55.2607 39.7004 57.2816 39.0246 59.3529 39.0585C60.9368 39.0585 62.9708 39.479 65.4549 40.32C67.9703 41.1307 69.6014 41.5354 70.3481 41.5342C71.9622 41.5342 73.313 41.0907 74.4004 40.2036C75.4878 39.3166 76.6211 37.5959 77.8003 35.0414L79 35.5994Z" fill="#50A37D"/>
<path d="M14.4024 25.7657C12.2276 30.7644 11.1402 34.3695 11.1402 36.581C11.1402 37.9818 11.4997 39.1888 12.2185 40.2018C12.9374 41.2149 13.8895 41.7208 15.0747 41.7196C16.7928 41.7196 18.2607 40.3806 19.4786 37.7025L20.2235 37.9824C20.0362 40.692 19.2213 42.8732 17.7787 44.5261C16.3361 46.179 14.6331 47.0036 12.6698 47C10.6509 47 9.03613 46.182 7.82552 44.5461C6.6149 42.9102 6.0108 40.7532 6.01321 38.0751C6.01321 32.0028 9.35147 25.0266 16.028 17.1463L24.5984 7.00719C24.4123 7.00719 23.7291 7.16291 22.5486 7.47434C21.3892 7.78705 20.1935 7.94413 18.9929 7.94149C17.6506 7.94149 15.8383 7.73912 13.556 7.33438C11.2737 6.92964 9.68373 6.72666 8.78603 6.72545C7.13201 6.72545 5.75103 7.05021 4.64312 7.69973C3.53519 8.34925 2.95043 8.84427 2.88881 9.18478L1.88479 14.5706L0 14.2489L2.65502 0L4.54888 0.278106L3.59923 5.36764C7.26974 2.82287 10.6751 1.55049 13.8152 1.55049C14.5606 1.55049 16.2708 1.97098 18.9458 2.81197C21.6195 3.62266 23.5629 4.02739 24.776 4.02618C25.989 4.02497 27.4993 3.10643 29.3067 1.27056L30.2382 1.73771C30.0208 2.9495 28.3867 5.3943 25.336 9.07209C20.2265 15.2025 16.5819 20.7671 14.4024 25.7657Z" fill="#50A37D"/>
</g>
<defs>
<clipPath id="clip0_1530_10717">
<rect width="79" height="47" fill="#50A37D"/>
</clipPath>
</defs>
</svg>
