<svg width="128" height="26" viewBox="0 0 128 26" fill="none" xmlns="http://www.w3.org/2000/svg">
<path d="M126 23.2734C126.552 23.2734 127 23.7212 127 24.2734C127 24.8257 126.552 25.2734 126 25.2734L0.999999 25.2734C0.447716 25.2734 -3.8324e-08 24.8257 0 24.2734C3.8324e-08 23.7212 0.447714 23.2734 0.999998 23.2734L126 23.2734Z" fill="#1B1B1B"/>
<path d="M1.3125 12.2734V0.835938H3.17188V10.6094H7.32812V12.2734H1.3125Z" fill="#1B1B1B"/>
<path d="M9.03469 1.66406C9.03469 1.3776 9.13885 1.13021 9.34719 0.921875C9.56073 0.713542 9.81333 0.609375 10.105 0.609375C10.4071 0.609375 10.6571 0.710938 10.855 0.914062C11.0581 1.11198 11.1597 1.36198 11.1597 1.66406C11.1597 1.96615 11.0581 2.22135 10.855 2.42969C10.6519 2.63281 10.4019 2.73438 10.105 2.73438C9.81333 2.73438 9.56073 2.63021 9.34719 2.42188C9.13885 2.20833 9.03469 1.95573 9.03469 1.66406ZM9.26125 12.2734V4.86719H10.9566V12.2734H9.26125Z" fill="#1B1B1B"/>
<path d="M14.1006 12.2734V6.35156H12.8038V4.86719H14.1006V2.88281C14.1006 1.89844 14.3038 1.17188 14.71 0.703125C15.1215 0.234375 15.7569 0 16.6163 0C16.7985 0 16.986 0.0130208 17.1788 0.0390625C17.3715 0.0651042 17.5668 0.106771 17.7647 0.164062V1.69531C17.6293 1.61719 17.4913 1.5599 17.3506 1.52344C17.2152 1.48177 17.0772 1.46094 16.9366 1.46094C16.5303 1.46094 16.2386 1.58594 16.0616 1.83594C15.8845 2.08594 15.7959 2.50781 15.7959 3.10156V4.86719H17.5772V6.35156H15.7959V12.2734H14.1006Z" fill="#1B1B1B"/>
<path d="M26.3853 8.82031H20.4634C20.5051 9.51302 20.7108 10.0547 21.0806 10.4453C21.4504 10.8307 21.9426 11.0234 22.5572 11.0234C23.1041 11.0234 23.5598 10.9089 23.9244 10.6797C24.289 10.4505 24.6067 10.0807 24.8775 9.57031L26.3072 10.3672C25.8905 11.112 25.3749 11.6667 24.7603 12.0312C24.1457 12.3958 23.4244 12.5781 22.5963 12.5781C21.4088 12.5781 20.4634 12.2161 19.7603 11.4922C19.0572 10.7682 18.7056 9.80208 18.7056 8.59375C18.7056 7.43229 19.0676 6.47917 19.7916 5.73438C20.5207 4.98438 21.4556 4.60938 22.5963 4.60938C23.789 4.60938 24.7186 4.95052 25.3853 5.63281C26.052 6.3151 26.3853 7.27083 26.3853 8.5V8.82031ZM24.6275 7.67969C24.5598 7.14844 24.3567 6.74479 24.0181 6.46875C23.6796 6.1875 23.216 6.04688 22.6275 6.04688C22.0702 6.04688 21.6223 6.18229 21.2838 6.45312C20.9452 6.72396 20.7082 7.13281 20.5728 7.67969H24.6275Z" fill="#1B1B1B"/>
<path d="M34.0875 12.2734V0.835938H40.4703V2.41406H35.9469V5.26562H40.4703V6.89844H35.9469V12.2734H34.0875Z" fill="#1B1B1B"/>
<path d="M42.6847 1.66406C42.6847 1.3776 42.7889 1.13021 42.9972 0.921875C43.2107 0.713542 43.4633 0.609375 43.755 0.609375C44.0571 0.609375 44.3071 0.710938 44.505 0.914062C44.7081 1.11198 44.8097 1.36198 44.8097 1.66406C44.8097 1.96615 44.7081 2.22135 44.505 2.42969C44.3019 2.63281 44.0519 2.73438 43.755 2.73438C43.4633 2.73438 43.2107 2.63021 42.9972 2.42188C42.7889 2.20833 42.6847 1.95573 42.6847 1.66406ZM42.9113 12.2734V4.86719H44.6066V12.2734H42.9113Z" fill="#1B1B1B"/>
<path d="M47.5163 12.2734V4.86719H49.11V6.07812C49.4485 5.56771 49.847 5.19531 50.3053 4.96094C50.7636 4.72656 51.3209 4.60938 51.9772 4.60938C52.5293 4.60938 52.998 4.69792 53.3834 4.875C53.7741 5.04688 54.0788 5.30469 54.2975 5.64844C54.4277 5.85156 54.5215 6.08854 54.5788 6.35938C54.636 6.63021 54.6647 7.10417 54.6647 7.78125V12.2734H52.9538V8.46875C52.9538 7.49479 52.834 6.84896 52.5944 6.53125C52.36 6.20833 51.9407 6.04688 51.3366 6.04688C50.9407 6.04688 50.5866 6.11979 50.2741 6.26562C49.9668 6.41146 49.7246 6.61719 49.5475 6.88281C49.4225 7.0599 49.334 7.28906 49.2819 7.57031C49.235 7.84635 49.2116 8.28906 49.2116 8.89844V12.2734H47.5163Z" fill="#1B1B1B"/>
<path d="M62.7228 8.54688C62.7228 7.78125 62.5431 7.1849 62.1838 6.75781C61.8296 6.33073 61.3322 6.11719 60.6916 6.11719C60.0509 6.11719 59.5457 6.33854 59.1759 6.78125C58.8114 7.21875 58.6291 7.82812 58.6291 8.60938C58.6291 9.39583 58.8061 10.0026 59.1603 10.4297C59.5145 10.8568 60.0145 11.0703 60.6603 11.0703C61.2749 11.0703 61.7723 10.8411 62.1525 10.3828C62.5327 9.91927 62.7228 9.30729 62.7228 8.54688ZM62.6759 0.164062H64.3713V12.2734H62.6759V11.3125C62.3739 11.7396 62.0197 12.0573 61.6134 12.2656C61.2124 12.474 60.7515 12.5781 60.2306 12.5781C59.1838 12.5781 58.3582 12.2214 57.7541 11.5078C57.1551 10.7891 56.8556 9.80729 56.8556 8.5625C56.8556 7.38021 57.1629 6.42708 57.7775 5.70312C58.3921 4.97396 59.1942 4.60938 60.1838 4.60938C60.7879 4.60938 61.3035 4.73698 61.7306 4.99219C62.1629 5.24219 62.478 5.60417 62.6759 6.07812V0.164062Z" fill="#1B1B1B"/>
<path d="M66.3434 10.9297L67.7497 10.1641C67.8539 10.5339 68.0466 10.8151 68.3278 11.0078C68.6091 11.2005 68.971 11.2969 69.4137 11.2969C69.794 11.2969 70.0908 11.2109 70.3044 11.0391C70.5231 10.862 70.6325 10.6224 70.6325 10.3203C70.6325 9.91927 70.2471 9.57552 69.4762 9.28906C69.2158 9.19531 69.0153 9.11719 68.8747 9.05469C68.083 8.72656 67.5283 8.39323 67.2106 8.05469C66.8981 7.71615 66.7419 7.30469 66.7419 6.82031C66.7419 6.15885 66.9997 5.6224 67.5153 5.21094C68.0361 4.79948 68.7236 4.59375 69.5778 4.59375C70.1507 4.59375 70.6403 4.70052 71.0466 4.91406C71.458 5.1224 71.7575 5.42188 71.945 5.8125L70.7419 6.64062C70.6533 6.40625 70.4971 6.22135 70.2731 6.08594C70.0544 5.94531 69.7992 5.875 69.5075 5.875C69.1846 5.875 68.9242 5.95312 68.7262 6.10938C68.5335 6.26042 68.4372 6.46354 68.4372 6.71875C68.4372 7.10417 68.8747 7.45573 69.7497 7.77344C70.0257 7.8724 70.2393 7.95312 70.3903 8.01562C71.0726 8.28646 71.5596 8.59375 71.8512 8.9375C72.1481 9.27604 72.2966 9.70052 72.2966 10.2109C72.2966 10.9505 72.0283 11.5312 71.4919 11.9531C70.9554 12.3698 70.2158 12.5781 69.2731 12.5781C68.5492 12.5781 67.9476 12.4427 67.4684 12.1719C66.9893 11.901 66.6143 11.487 66.3434 10.9297Z" fill="#1B1B1B"/>
<path d="M82.3503 7.78125H85.5378L84.3659 5.17188C84.2982 5.00521 84.2279 4.8151 84.155 4.60156C84.0821 4.38281 84.0092 4.14062 83.9362 3.875C83.8737 4.125 83.806 4.35938 83.7331 4.57812C83.6654 4.79167 83.5951 4.98958 83.5222 5.17188L82.3503 7.78125ZM87.4909 12.2734L86.1941 9.32812H81.6628L80.3347 12.2734H78.3816L83.9206 0.382812L89.4519 12.2734H87.4909Z" fill="#1B1B1B"/>
<path d="M94.9587 0.835938H96.7947L98.9587 6.60938C99.0994 6.98958 99.2166 7.32292 99.3103 7.60938C99.4093 7.89583 99.4952 8.16406 99.5681 8.41406C99.7504 7.8099 99.9405 7.21875 100.138 6.64062C100.164 6.56771 100.183 6.51823 100.193 6.49219L102.49 0.382812L104.912 6.60938C105.026 6.91146 105.133 7.21354 105.232 7.51562C105.336 7.81771 105.433 8.1224 105.521 8.42969C105.573 8.19531 105.644 7.9375 105.732 7.65625C105.821 7.375 105.935 7.04167 106.076 6.65625L108.224 0.835938H110.076L105.646 12.7188L103.037 6.19531C102.922 5.90365 102.818 5.625 102.724 5.35938C102.631 5.08854 102.547 4.83333 102.474 4.59375C102.386 4.90104 102.297 5.1901 102.209 5.46094C102.12 5.72656 102.029 5.98177 101.935 6.22656L99.3728 12.7188L94.9587 0.835938Z" fill="#1B1B1B"/>
<path d="M117.783 12.2734H116.087V11.3125C115.785 11.7396 115.431 12.0573 115.025 12.2656C114.624 12.474 114.163 12.5781 113.642 12.5781C112.595 12.5781 111.769 12.2214 111.165 11.5078C110.566 10.7891 110.267 9.80729 110.267 8.5625C110.267 7.38021 110.574 6.42708 111.189 5.70312C111.803 4.97396 112.605 4.60938 113.595 4.60938C114.199 4.60938 114.715 4.73698 115.142 4.99219C115.574 5.24219 115.889 5.60417 116.087 6.07812V4.86719H117.783V12.2734ZM116.134 8.54688C116.134 7.78125 115.954 7.1849 115.595 6.75781C115.241 6.33073 114.743 6.11719 114.103 6.11719C113.462 6.11719 112.957 6.33854 112.587 6.78125C112.223 7.21875 112.04 7.82812 112.04 8.60938C112.04 9.39583 112.217 10.0026 112.572 10.4297C112.926 10.8568 113.426 11.0703 114.072 11.0703C114.681 11.0703 115.176 10.8385 115.556 10.375C115.941 9.91146 116.134 9.30208 116.134 8.54688Z" fill="#1B1B1B"/>
<path d="M121.88 15.7578H120.137L122.169 11.6328L119.45 4.86719H121.325L122.684 8.70312C122.762 8.9375 122.83 9.17708 122.887 9.42188C122.95 9.66146 122.999 9.90625 123.036 10.1562C123.104 9.89583 123.265 9.48177 123.52 8.91406L123.559 8.82031L125.387 4.86719H127.223L121.88 15.7578Z" fill="#1B1B1B"/>
</svg>
