<svg width="21" height="20" viewBox="0 0 21 20" fill="none" xmlns="http://www.w3.org/2000/svg">
<path d="M17.5 0.588257H3.49999C1.88916 0.588257 0.583328 1.90507 0.583328 3.52943V16.4706C0.583328 18.095 1.88916 19.4118 3.49999 19.4118H17.5C19.1108 19.4118 20.4167 18.095 20.4167 16.4706V3.52943C20.4167 1.90507 19.1108 0.588257 17.5 0.588257Z" fill="#50A37D"/>
<path d="M17.5 0.588257H3.49999C1.88916 0.588257 0.583328 1.90507 0.583328 3.52943V16.4706C0.583328 18.095 1.88916 19.4118 3.49999 19.4118H17.5C19.1108 19.4118 20.4167 18.095 20.4167 16.4706V3.52943C20.4167 1.90507 19.1108 0.588257 17.5 0.588257Z" stroke="#FAFAFA" stroke-miterlimit="1.41421" stroke-linecap="round" stroke-linejoin="round"/>
<mask id="mask0_1557_6164" style="mask-type:luminance" maskUnits="userSpaceOnUse" x="3" y="3" width="15" height="14">
<path d="M17.5 3.52942H3.5V16.4706H17.5V3.52942Z" fill="white"/>
</mask>
<g mask="url(#mask0_1557_6164)">
<path d="M17.1992 3.64189C16.0487 4.30478 14.7482 5.2538 13.5254 6.32404C12.5399 7.18679 11.4888 8.22645 10.5153 9.30106C9.84378 10.0437 9.11971 10.9075 8.46566 11.7473C8.23816 12.04 7.64971 12.8241 7.46487 13.0829C7.36971 13.2162 7.31721 13.2806 7.30628 13.2773C7.29753 13.2752 6.46519 12.8078 5.45784 12.2399L3.62581 11.2057L3.58424 11.2526C3.56237 11.2788 3.53831 11.3072 3.53284 11.317C3.52299 11.3345 3.67831 11.5158 7.63878 16.1014L7.95706 16.4706H8.00081H8.04456L8.29284 15.9759C9.51894 13.5394 10.7232 11.5333 12.0892 9.65052C13.5954 7.57666 15.3005 5.6666 17.2189 3.90726C17.3557 3.78167 17.4672 3.67574 17.4672 3.67138C17.4672 3.66591 17.3917 3.55889 17.3775 3.5447C17.3754 3.5436 17.2955 3.58729 17.1992 3.64189Z" fill="#FAFAFA"/>
</g>
</svg>
