<svg width="21" height="20" viewBox="0 0 21 20" fill="none" xmlns="http://www.w3.org/2000/svg">
<path d="M17.5 0.588257H3.5C1.88916 0.588257 0.583328 1.90507 0.583328 3.52943V16.4706C0.583328 18.095 1.88916 19.4118 3.5 19.4118H17.5C19.1108 19.4118 20.4167 18.095 20.4167 16.4706V3.52943C20.4167 1.90507 19.1108 0.588257 17.5 0.588257Z" fill="#383838"/>
<path d="M17.5 0.588257H3.5C1.88916 0.588257 0.583328 1.90507 0.583328 3.52943V16.4706C0.583328 18.095 1.88916 19.4118 3.5 19.4118H17.5C19.1108 19.4118 20.4167 18.095 20.4167 16.4706V3.52943C20.4167 1.90507 19.1108 0.588257 17.5 0.588257Z" stroke="#971B19" stroke-miterlimit="1.41421" stroke-linecap="round" stroke-linejoin="round"/>
</svg>
