<svg width="210" height="210" viewBox="0 0 210 210" fill="none" xmlns="http://www.w3.org/2000/svg">
<path d="M107.319 3.49884C107.351 3.43379 107.353 3.42997 107.319 3.49884V3.49884Z" fill="#50A37D"/>
<path d="M158.592 91.0485C159.019 90.8631 159.468 90.733 159.928 90.6612C160.218 90.6158 160.51 90.591 160.803 90.5871C162.409 90.6784 164.02 90.6038 165.61 90.3645C166.535 90.2287 170.26 89.3223 172.528 88.671C173.343 88.4422 174.001 88.241 173.996 88.2297C173.97 88.1731 172.792 87.9556 172.061 87.8651C171.134 87.7534 170.199 87.7222 169.266 87.7721C167.58 87.85 167.115 87.928 164.711 88.5264C162.675 89.0293 162.375 89.1199 161.514 89.4731C160.725 89.795 160.243 89.9396 158.693 90.3432L156.834 90.831L157.288 90.005C159.392 86.1716 160.503 82.2427 160.416 78.8971C160.396 78.183 160.29 77.2753 160.233 77.3344C160.177 77.3934 158.418 81.6455 158.04 82.6664C157.015 85.4499 156.548 87.5785 156.426 89.9924L156.374 90.9705L155.574 91.232C155.133 91.3791 154.767 91.4961 154.749 91.4935C154.784 91.2773 154.836 91.0642 154.905 90.8561C156.18 86.3451 156.151 81.5524 154.828 78.2987L154.528 77.5531L154.389 78.5023C153.449 84.9734 153.433 87.8727 154.314 91.1164L154.44 91.6017L154.052 91.7425C153.732 91.8544 152.701 92.2454 150.999 92.8929L150.732 92.9972L150.877 92.4616C151.813 89.1073 152.013 85.0966 151.395 82.2238C151.222 81.4 150.969 80.5952 150.638 79.8212L150.412 79.3409L150.268 80.4171C149.401 86.8505 149.37 89.1349 150.113 92.2554C150.287 93.0098 150.31 93.2097 150.223 93.2311C150.157 93.2474 149.567 93.5077 148.906 93.8044C148.245 94.1011 147.688 94.3475 147.675 94.3374C147.612 94.1495 147.567 93.9558 147.541 93.7591C147.339 92.6754 147.075 91.6042 146.749 90.5506C146.353 89.2934 145.11 86.6431 144.479 85.7089C143.57 84.3712 142.358 83.0134 141.476 82.3558L141.129 82.0931L141.224 82.4162C141.282 82.5922 141.62 83.5477 141.981 84.5535C143.705 89.3726 144.86 91.5074 146.974 93.8081C147.283 94.1401 147.53 94.4255 147.526 94.4368C147.523 94.4481 147.156 94.6304 146.722 94.8454C146.288 95.0604 145.54 95.4476 145.062 95.7053C144.584 95.9631 144.187 96.1693 144.179 96.1655C144.171 96.1617 144.097 95.8323 144.016 95.4363C143.636 93.7465 143.088 92.0986 142.38 90.5167C141.678 89.0302 140.781 87.6434 139.712 86.3929C139.164 85.7861 138.57 85.2228 137.935 84.7081L137.762 84.5824L137.854 84.9005C137.912 85.0753 138.129 85.7089 138.346 86.3111C140.164 91.4344 141.254 93.5856 143.185 95.8235C143.366 96.0253 143.535 96.2382 143.69 96.461C143.681 96.476 143.252 96.7338 142.725 97.0418C142.198 97.3498 141.494 97.7823 141.153 98.0061C140.945 98.1495 140.728 98.2792 140.503 98.3946C140.465 98.2866 140.434 98.1761 140.412 98.0639C140.069 96.4295 139.33 94.1137 138.507 92.0656C136.859 87.9971 134.425 84.4089 131.618 81.9082C130.839 81.2117 129.559 80.2436 129.518 80.3103C129.478 80.3769 131.284 84.7911 132.419 87.3169C134.578 92.1662 136.305 94.8152 139.23 97.7672C139.728 98.2613 140.127 98.6787 140.113 98.6813C139.823 98.8548 138.381 99.887 137.431 100.59C136.744 101.108 136.144 101.553 136.106 101.575C136.068 101.598 135.987 101.289 135.923 100.807C135.764 99.6946 135.455 98.123 135.133 96.8218C133.533 90.1822 130.719 84.5158 127.026 80.4536C127.203 80.1305 127.373 79.8149 127.531 79.5094C127.599 79.3837 127.664 79.2579 127.73 79.1322C127.927 78.7626 128.115 78.4055 128.294 78.061L128.641 77.3872C128.752 77.1676 128.861 76.9534 128.966 76.7447C129.124 76.4304 129.272 76.1286 129.415 75.837C129.936 74.7683 130.357 73.8467 130.7 73.0496L130.791 72.8346C131.149 71.9898 131.422 71.2882 131.617 70.7036C131.635 70.6546 131.651 70.6068 131.666 70.559C131.891 69.9166 132.08 69.2622 132.233 68.599C132.973 65.2849 133.228 61.8814 132.989 58.4944C132.989 58.4554 132.983 58.4177 132.98 58.3787C132.933 57.7413 132.872 57.163 132.808 56.6513C132.774 56.3856 132.74 56.1392 132.704 55.912C132.685 55.7863 132.666 55.6606 132.647 55.5474C132.624 55.4066 132.602 55.2746 132.579 55.1526C132.563 55.0609 132.548 54.9741 132.533 54.8936C132.518 54.8132 132.5 54.7227 132.486 54.6497C131.886 51.5795 130.984 49.0864 129.406 45.864L129.532 45.8414C129.946 45.7572 129.967 45.678 130.333 45.6327C130.568 45.6025 130.682 45.6189 131.047 45.5636C131.182 45.5482 131.315 45.5179 131.443 45.473C131.647 45.3938 131.666 45.3297 131.848 45.2757C131.987 45.2406 132.131 45.2262 132.274 45.2329C132.574 45.2329 132.641 45.2681 132.748 45.2052C132.798 45.1765 132.84 45.1364 132.871 45.0883C132.902 45.0402 132.921 44.9855 132.926 44.9286C132.933 44.8142 132.859 44.7602 132.757 44.5829C132.688 44.4546 132.633 44.3193 132.592 44.1793C132.528 43.9417 132.592 43.7732 132.64 43.518C132.673 43.167 132.688 42.8145 132.684 42.4619C132.684 42.1841 132.695 41.8672 132.684 41.4838C132.65 40.833 132.581 40.1846 132.476 39.5413C132.441 39.1844 132.35 38.8351 132.206 38.5066C132.108 38.2929 131.929 37.9157 131.693 37.9195C131.592 37.9195 131.519 37.9924 131.4 38.1055C131.157 38.3419 131.173 38.4903 130.995 38.6889C130.837 38.8716 130.618 38.9906 130.379 39.0233C130.043 39.0535 129.651 38.8662 129.646 38.6814C129.641 38.4965 130.077 38.445 130.537 38.0527C130.833 37.787 131.064 37.4576 131.213 37.0897C131.539 36.2297 131.118 35.288 130.529 34.6305C130.583 34.5998 130.636 34.5662 130.688 34.5299C130.835 34.4218 131.24 34.1213 131.277 33.6813C131.295 33.4524 131.247 33.2231 131.14 33.0199C131.043 32.8565 130.945 32.8062 130.933 32.6629C130.92 32.4869 131.043 32.2744 131.186 32.2492C131.462 32.2015 131.753 32.8351 131.77 32.8779C132.022 33.4235 131.806 33.6549 131.961 34.0811C132.173 34.6569 132.844 35.0228 133.403 35.1032C134.075 35.2025 134.585 34.8857 135.131 34.545C136.349 33.7906 137.213 32.473 137.262 31.8696C137.272 31.6325 137.352 31.4035 137.491 31.2108C137.561 31.1218 137.644 31.0427 137.735 30.9757C137.889 30.8499 138.546 30.3131 138.511 29.785C138.493 29.526 138.324 29.4934 138.318 29.1715C138.318 28.9427 138.399 28.832 138.462 28.6372C138.604 28.2022 138.44 27.9721 138.348 27.1813C138.308 26.8586 138.293 26.5332 138.304 26.2081C139.13 25.9278 139.501 25.621 139.734 25.352C140.207 24.8051 140.617 23.8433 140.703 23.0022C140.732 22.6954 140.724 22.3358 140.974 21.9662C141.163 21.6845 141.364 21.6028 141.345 21.4105C141.322 21.1791 141.016 21.1464 140.769 20.7668C140.675 20.6116 140.609 20.4414 140.574 20.2639C140.4 19.6704 139.678 19.3083 138.645 18.7891C137.492 18.2108 136.921 18.1441 136.695 18.1265C136.257 18.0913 135.938 18.0699 135.657 18.261C135.237 18.5427 135.265 19.0267 134.842 19.1411C134.754 19.1704 134.661 19.1767 134.57 19.1595C134.479 19.1424 134.394 19.1023 134.324 19.0431C134.287 19.002 134.264 18.9514 134.256 18.8972C134.325 18.8386 134.392 18.7765 134.455 18.7111C134.667 18.5216 134.831 18.2852 134.935 18.0209C134.997 17.8487 134.963 17.8436 135.017 17.6613C135.193 17.0692 135.6 16.9661 135.614 16.555C135.614 16.3576 135.527 16.4192 135.479 16.086C135.423 15.6912 135.55 15.563 135.461 15.172C135.43 15.0763 135.412 14.977 135.407 14.8765C135.407 14.6653 135.494 14.6414 135.527 14.4189C135.57 14.1423 135.456 14.0581 135.546 13.8569C135.599 13.74 135.638 13.7513 135.687 13.6394C135.753 13.4499 135.741 13.2424 135.656 13.0611C135.591 12.9001 135.442 12.7593 135.142 12.4789C134.869 12.2275 134.727 12.093 134.57 12.0766C134.517 12.0766 134.436 12.0766 134.399 12.0188C134.349 11.9434 134.442 11.8365 134.466 11.7397C134.522 11.5109 134.181 11.2368 133.496 10.7024C132.856 10.1995 132.819 10.1744 132.722 10.1178C132.4 9.92225 132.051 9.77563 131.686 9.68281C131.434 9.6178 131.176 9.57324 130.916 9.54954C131.072 9.45525 131.178 9.28803 131.369 8.98252C131.483 8.82524 131.568 8.64901 131.621 8.46202C131.698 8.13513 131.56 7.99809 131.444 7.43736C131.328 6.87662 131.437 6.86405 131.318 6.40515C131.222 6.05689 131.153 5.79916 130.94 5.54519C130.65 5.20699 130.366 5.18562 130.231 4.82101C130.168 4.64877 130.199 4.56956 130.105 4.4627C129.96 4.30051 129.726 4.3068 129.407 4.28794C128.934 4.26028 129.39 4.24393 128.33 4.15467C127.975 4.12449 127.486 4.08929 127.252 4.08175C126.681 4.06289 125.36 4.13581 124.235 4.59471C124.138 4.63494 124.042 4.67894 123.945 4.72043C123.913 4.55503 123.847 4.39773 123.753 4.25776C123.666 4.13204 123.565 3.98745 123.403 3.96231C123.24 3.93716 123.101 4.05283 122.978 3.97237C122.931 3.93754 122.897 3.88917 122.88 3.83407C122.84 3.72469 122.88 3.65554 122.88 3.5537C122.865 3.43572 122.811 3.32612 122.727 3.2419C122.521 2.99045 122.372 3.08097 122.134 2.82952C121.974 2.66105 121.875 2.5567 121.846 2.40206C121.842 2.3364 121.812 2.27502 121.763 2.23107C121.711 2.19769 121.647 2.18639 121.586 2.19964C121.417 2.2185 121.364 2.32536 121.243 2.34297C121.081 2.37063 121.047 2.30525 120.739 2.24741C120.377 2.17701 120.195 2.14055 120.007 2.21724C119.961 2.2361 119.881 2.27885 119.828 2.24741C119.775 2.21598 119.784 2.12923 119.732 2.06386C119.681 1.99848 119.606 1.96705 119.378 1.99722C118.713 2.08649 117.789 2.72391 117.514 2.91627C117.477 2.94142 117.405 2.99171 117.316 3.06086C117.181 3.16144 117.138 3.2067 117.052 3.27082C116.579 3.62914 116.471 3.64799 116.304 3.8567C116.26 3.91328 115.882 4.41366 116.052 4.81347C116.124 4.98948 116.22 4.94925 116.389 5.21579C116.462 5.3302 116.641 5.61811 116.564 5.92111C116.531 6.04683 116.438 6.21908 116.336 6.22034C116.234 6.22159 116.152 6.05186 116.139 6.0242C116.06 5.85322 116.13 5.75767 116.067 5.58416C116.027 5.48765 115.965 5.40164 115.886 5.33271C115.613 5.05857 115.288 4.84144 114.93 4.69403C114.532 4.55479 114.106 4.51591 113.69 4.58088C113.781 4.41701 113.82 4.22923 113.801 4.04277C113.774 3.85544 113.687 3.74103 113.755 3.63919C113.837 3.51347 114.016 3.60399 114.231 3.46192C114.36 3.37088 114.454 3.23738 114.494 3.08475C114.526 2.94155 114.518 2.7923 114.47 2.65351C114.415 2.4104 114.301 2.18411 114.14 1.99345C113.965 1.78977 113.778 1.69297 113.402 1.50061C113.161 1.37205 112.907 1.26681 112.645 1.18629C112.179 1.04171 111.927 0.966274 111.607 1.01531C111.355 1.05302 111.257 1.14103 110.969 1.12594C110.745 1.11589 110.723 1.06057 110.525 1.07691C110.331 1.09554 110.142 1.15057 109.968 1.2391C109.891 1.29308 109.802 1.32799 109.709 1.34094C109.631 1.34554 109.553 1.33131 109.482 1.29945C109.159 1.18629 108.491 2.0538 108.491 2.0538C108.061 2.53658 107.6 3.13378 107.32 3.49838C107.27 3.60022 107.144 3.86047 106.96 4.23765C106.947 4.26405 106.936 4.28668 106.924 4.31182C106.794 4.33939 106.662 4.36037 106.53 4.37469C105.967 4.36714 105.823 3.93968 105.448 3.98871C105.212 4.01888 105.241 4.18987 104.725 4.55573C104.489 4.74527 104.216 4.88358 103.923 4.96182C103.532 5.04606 103.264 4.92662 103.04 4.89016C102.128 4.73803 101.022 5.82053 100.381 6.99606L100.323 7.00486C100.162 7.05068 100.016 7.13731 99.8981 7.25631C99.6909 7.41609 99.5192 7.61684 99.3936 7.84596C99.1577 8.30235 99.2435 8.68078 99.0922 8.71221C99.019 8.72604 98.9345 8.65186 98.8992 8.5802C98.8273 8.42933 98.9572 8.25457 99.1313 7.96289C99.4012 7.51028 99.5361 7.28523 99.5588 7.06395C99.5745 6.77345 99.485 6.487 99.3066 6.2568C99.1086 5.99483 98.8255 5.80952 98.5057 5.73252C98.3228 5.68475 98.145 5.6948 97.7956 5.71869C97.527 5.73629 97.0628 5.76898 95.8533 5.96008C95.6692 5.989 95.4257 6.03049 95.3236 6.21153C95.2416 6.35486 95.3047 6.49567 95.2038 6.57111C95.1029 6.64654 94.9982 6.55854 94.8014 6.54722C94.4155 6.52459 94.0863 6.79867 93.9274 6.93948C93.6663 7.16076 93.7268 7.23997 93.5389 7.3242C93.2867 7.43736 93.1328 7.3242 92.8414 7.47382C92.7333 7.51338 92.6435 7.59125 92.5892 7.69258C92.5261 7.84596 92.646 7.92391 92.6081 8.11753C92.5703 8.31115 92.4593 8.28475 92.3672 8.51985C92.2953 8.70341 92.3483 8.74993 92.2789 8.91463C92.2096 9.07933 92.0872 9.15351 91.9825 9.27169C91.7782 9.50051 91.8261 9.71676 91.7416 10.104C91.6155 10.6622 91.4326 10.6333 91.2573 11.2079C91.123 11.5719 91.0869 11.9647 91.1526 12.3469C91.251 12.8121 91.5802 13.4294 92.1352 13.5728C92.3318 13.6142 92.535 13.6142 92.7317 13.5728C93.1896 13.5099 93.3069 13.3552 93.7773 13.2936C94.0295 13.261 94.4079 13.2484 94.4344 13.3502C94.4571 13.4244 94.2831 13.5338 94.2465 13.5577C93.9413 13.75 93.6877 13.6582 93.2968 13.7387C93.072 13.7877 92.8582 13.8776 92.6661 14.004C92.3388 14.2194 92.0815 14.5252 91.9258 14.8841L91.8842 14.9771C91.7871 15.0999 91.7256 15.2469 91.7063 15.4021C91.6912 15.5781 91.748 15.8346 91.5903 15.9565C91.5656 15.977 91.537 15.9924 91.5063 16.0017C91.4755 16.011 91.4432 16.014 91.4112 16.0106C91.1905 15.964 91.135 15.4285 91.1148 15.2323C91.0694 14.7923 91.164 14.7143 91.0732 14.4151C91.0097 14.2157 90.9068 14.0311 90.7705 13.872C90.6746 13.7601 90.5082 13.5979 90.0579 13.3842C89.5736 13.1553 88.7399 12.7555 88.3502 13.0686C88.2518 13.1465 88.224 13.2383 88.0689 13.2974C87.8709 13.3728 87.7637 13.2773 87.5354 13.3138C87.3455 13.3392 87.1707 13.431 87.0423 13.5728C86.9439 13.6985 86.9489 13.8028 86.9161 14.3699C86.877 14.9821 86.8606 15.0425 86.8316 15.1091C86.6689 15.4775 86.3751 15.4586 86.2502 15.695C85.9664 16.2268 86.9023 17.3609 87.8041 18.1165C88.7714 18.9261 89.5004 19.1323 89.4437 19.4994C89.3819 19.9055 88.4549 19.8276 87.9756 20.6171C87.9034 20.7353 87.8462 20.862 87.8053 20.9943C87.6149 21.1917 87.4269 21.5085 87.1533 21.9611C86.7749 22.5898 86.7824 22.7406 86.4999 22.9971C86.2174 23.2536 86.0711 23.192 85.5275 23.4648C85.2463 23.6069 85.2463 23.6434 84.3293 24.316C83.8702 24.6529 83.4288 25.015 82.9672 25.3507C82.556 25.6487 82.2395 25.8662 82.276 26.0963C82.3063 26.2773 82.5283 26.3024 82.5964 26.5438C82.6582 26.7639 82.5232 26.921 82.4337 27.1637C82.2571 27.6376 82.3832 28.0903 82.4804 28.4373C82.6068 28.8651 82.8309 29.2579 83.1349 29.5851C83.5814 30.0692 84.0619 30.2666 84.5488 30.4652L84.6207 30.4929C84.4227 30.6975 84.2531 30.9275 84.1162 31.1768C83.8942 31.5716 83.8942 31.7363 83.6811 32.4642C83.3027 33.7642 83.0139 34.0132 83.1665 34.5098C83.2434 34.6759 83.2714 34.8603 83.2472 35.0416C83.1766 35.3936 82.8688 35.5093 82.918 35.6966C82.9558 35.8601 83.193 35.8148 83.5171 36.026C83.9106 36.2775 83.7857 36.4975 84.2738 36.9061C84.5942 37.1727 84.7355 37.2833 84.7355 37.2833C84.9612 37.4631 85.0142 37.4983 85.0432 37.5863C85.1151 37.8051 84.8982 37.9232 84.9612 38.1533C85.0129 38.3469 85.221 38.4538 85.3219 38.5053C85.5099 38.6021 85.5855 38.5607 85.7861 38.6185C86.1266 38.7153 86.1203 38.8926 86.5428 39.1365C86.4596 39.4382 86.3801 39.6394 86.3385 39.7651C86.0711 40.5622 86.0547 41.8685 86.6172 42.2029C86.7787 42.2985 86.9716 42.3073 87.1217 42.5122C87.2478 42.6794 87.2075 42.8001 87.2882 42.995C87.3689 43.1899 87.5177 43.3181 87.8911 43.5758C88.6592 44.1102 88.6478 44.0435 88.9467 44.2787C89.4159 44.6483 89.4601 44.8256 89.841 44.9639C90.0478 45.053 90.2765 45.0789 90.4981 45.038C90.7571 44.9688 90.9873 44.8191 91.1552 44.6106C91.3671 44.3591 91.3532 44.1743 91.5058 44.1404C91.6584 44.1064 91.7366 44.2774 91.9901 44.3616C92.2582 44.4337 92.5438 44.4008 92.7885 44.2699C92.9076 44.2037 93.0096 44.1107 93.0861 43.9983C93.2321 44.0773 93.3902 44.1317 93.5541 44.1592C94.2023 44.2623 94.8922 43.8964 94.9969 44.1051C95.036 44.1806 94.9704 44.2812 94.9477 44.3176C94.722 44.6734 94.1468 44.4509 93.6865 44.6948C93.1921 44.9538 93.0798 45.6201 92.9701 46.2701C92.8717 46.8485 92.9411 47.3111 93.0811 48.2377C93.3031 49.72 93.6083 50.008 93.7785 50.1236C93.9488 50.2393 94.051 50.2493 94.1973 50.4266C94.4886 50.7673 94.4041 51.1257 94.7144 51.3067C94.7932 51.3597 94.8891 51.3813 94.983 51.367C95.1647 51.3243 95.1533 51.108 95.3324 51.0414C95.4585 50.9936 95.5178 51.0879 95.8886 51.1533C96.0955 51.1885 96.0728 51.1533 96.2291 51.191C96.6075 51.2677 96.7412 51.4425 96.8736 51.3758C96.9733 51.323 96.9254 51.2111 97.0426 51.1357C97.1839 51.0439 97.3895 51.1194 97.4765 51.1508C97.6998 51.2338 97.6897 51.3293 97.8549 51.3846C98.0415 51.4488 98.1689 51.3582 98.6015 51.2313C98.9068 51.142 98.8601 51.1822 99.2322 51.0816C99.5496 51.0077 99.8595 50.9046 100.158 50.7736C100.515 50.6064 100.876 50.4379 101.133 50.0494C101.313 49.7744 101.407 49.4515 101.4 49.1228C101.388 48.8487 101.309 48.5816 101.171 48.3446C100.775 47.6041 100.162 47.4909 100.145 46.9616C100.145 46.8359 100.164 46.6611 100.25 46.6347C100.459 46.5681 100.754 47.5148 101.206 47.5048C101.422 47.5048 101.596 47.281 101.847 46.9667C101.936 46.8575 102.018 46.7419 102.09 46.6209C102.233 46.6678 102.382 46.6961 102.533 46.7052C102.631 46.7052 102.929 46.6913 103.518 46.6536C103.945 46.6259 103.94 46.6234 103.973 46.6272C104.486 46.6863 104.621 47.0547 104.924 47.1226C105.113 48.0994 105.575 49.0575 106.412 49.5755C107.116 50.0117 108.321 50.2808 108.935 49.8998C109.142 49.7721 109.333 49.6206 109.504 49.4485C109.825 49.1065 109.92 48.8085 110.044 48.8337C110.141 48.8525 110.202 49.0587 110.186 49.2322C110.16 49.5025 109.951 49.5956 109.733 49.9124C109.577 50.1357 109.471 50.39 109.423 50.658C109.356 51.1093 109.536 51.4764 109.687 51.7807C109.845 52.0965 110.052 52.3855 110.301 52.6369C110.964 53.3422 111.505 53.9168 112.294 54.0198C112.843 54.089 112.917 53.8526 113.614 53.9645C114.138 54.0488 114.309 54.216 114.647 54.1154C114.856 54.0525 115.039 53.8727 115.404 53.5144C115.741 53.185 115.742 53.1121 116.002 52.916C116.261 52.7198 116.321 52.7513 116.575 52.5388C116.83 52.3263 116.843 52.2408 117.08 52.0661C117.317 51.8913 117.429 51.8825 117.624 51.7744C117.886 51.6286 117.895 51.5229 118.393 50.9446C118.95 50.2934 119.23 50.0809 119.258 49.7326C119.264 49.6307 119.275 49.5291 119.291 49.4284C119.321 49.2468 119.368 49.0684 119.431 48.8953C119.548 48.537 119.379 48.1409 119.268 47.8769C119.045 47.3489 118.499 46.6197 117.915 46.6523C117.762 46.6599 117.775 46.7114 117.49 46.7542C117.167 46.8032 116.771 46.8686 116.558 46.6461C116.444 46.5266 116.365 46.3053 116.448 46.2048C116.594 46.0262 117.067 46.4298 117.615 46.25C117.859 46.1585 118.068 45.9905 118.209 45.771C118.445 45.4429 118.461 45.1147 118.489 44.6395C118.517 44.1642 118.529 43.9279 118.399 43.6752C118.33 43.554 118.234 43.4497 118.119 43.3697C118.53 43.3998 118.925 43.347 119.189 43.1446C119.281 43.0729 119.549 42.8353 119.653 42.9032C119.713 42.9434 119.681 43.0616 119.673 43.2439C119.682 43.4705 119.715 43.6955 119.771 43.9153C119.984 44.7241 120.475 45.4327 121.159 45.9169C121.519 46.1724 121.924 46.3579 122.353 46.4638C122.972 46.6229 123.626 46.5838 124.221 46.3519C124.586 46.2281 124.905 45.9981 125.137 45.6918C125.285 45.468 125.385 45.2164 125.432 44.9525C125.566 44.3302 125.389 44.0146 125.558 43.9178C125.727 43.821 126.177 44.0272 126.242 44.3201C126.29 44.5301 126.136 44.7463 126.059 44.8545C125.892 45.0883 125.713 45.1474 125.719 45.3109C125.731 45.395 125.773 45.4721 125.837 45.5284C125.967 45.6686 126.135 45.7678 126.321 45.8138C126.592 45.9041 126.871 45.9706 127.154 46.0124C128.639 49.3089 129.531 51.8687 130.088 55.2683C130.477 57.6508 130.653 60.0627 130.617 62.4761C130.603 63.4467 130.555 64.352 130.491 65.183C130.478 65.349 130.463 65.5111 130.449 65.6708C130.42 65.9726 130.389 66.263 130.357 66.5421C130.209 67.866 129.982 69.18 129.679 70.4773C129.655 70.5791 129.631 70.6785 129.605 70.779C129.219 72.3607 128.689 73.9039 128.021 75.3894C127.389 76.7152 126.644 77.9842 125.794 79.1825C125.675 79.0694 125.556 78.9562 125.434 78.8443C124.642 78.1214 124.058 77.6348 124.028 77.6738C124.019 77.6902 124.407 78.9311 124.895 80.4473C124.274 81.301 123.599 82.2075 122.867 83.2133L122.838 83.2535C121.42 85.206 120.454 86.4696 119.711 87.5747C119.394 87.3848 119.08 87.1975 118.752 87.0278C118.122 86.6921 118.046 86.6619 118.085 86.7964C118.113 86.892 118.514 87.6011 119.079 88.5704C119.003 88.6962 118.929 88.8219 118.857 88.9564C118.817 89.0293 118.53 89.5448 118.093 90.3394H117.987C110.825 89.9622 104.196 92.9369 99.3204 98.714C98.6242 99.5274 97.9331 100.392 97.7918 100.626L97.5131 101.046L96.4398 98.9403C95.5569 97.1939 92.7115 91.9474 92.2436 91.1893C92.1061 90.9806 92.173 90.968 93.0659 90.9303C98.0617 90.7203 102.259 89.2393 106.926 86.0044C108.877 84.6679 114.411 80.3756 114.575 80.0815C114.65 79.9406 114.535 79.908 113.605 79.7671C108.322 78.965 103.348 79.825 98.9749 82.2816C96.6227 83.6018 95.562 84.4554 93.1278 86.9523L91.0328 89.1022L90.1613 87.6727C89.6833 86.887 88.9102 85.6473 88.4485 84.9219C87.9869 84.1964 87.6338 83.5904 87.6565 83.5653C87.6792 83.5402 88.2467 83.3214 88.9316 83.0737C89.9784 82.6965 91.2561 82.2226 93.6903 80.7591C95.2036 79.8342 96.6273 78.771 97.9432 77.5833C99.1426 76.5109 100.526 75.099 104.531 69.5293C105.569 68.0847 106.979 66.0895 108.613 63.6642C107.694 63.7511 106.784 63.9122 105.892 64.1458C104.799 64.4324 102.26 65.2132 97.7679 68.785C96.827 69.5331 91.3544 73.8857 89.513 77.4525C89.3781 77.7128 87.7826 80.8358 87.4522 81.8894C87.4169 81.9988 87.1848 82.7581 87.094 82.7368C87.0884 82.735 87.0835 82.7315 87.0801 82.7267C87.0297 82.6626 86.2565 81.5235 85.3711 80.2122C84.1477 78.4131 82.2849 75.7263 81.9027 75.2297C81.8926 75.2209 82.5144 75.0424 83.2901 74.8525C87.8305 73.6933 90.6507 71.8251 94.4104 67.4762C96.3729 65.2132 99.5878 61.1397 99.5286 60.985C99.4806 60.8593 97.5421 60.9435 96.3452 61.1321C92.0343 61.806 88.079 64.2501 85.1542 68.047C83.6924 69.9656 82.305 72.3217 81.576 74.1334C81.5309 74.2563 81.4717 74.3736 81.3995 74.4829C81.3717 74.4754 80.9946 73.9737 80.5469 73.3715C80.0991 72.7693 79.1746 71.5359 78.491 70.6546C77.8075 69.7732 77.2374 69.0277 77.2298 69C77.2222 68.9724 77.5804 68.819 78.0395 68.6379C81.0842 67.4951 82.9357 65.6884 86.2603 60.6657C86.6563 60.0786 87.0549 59.4487 87.1621 59.2739L87.3323 58.9596H87.07C86.452 58.9772 85.0861 59.2488 84.3256 59.5191C82.8121 60.0547 81.1397 61.1711 79.9617 62.446C78.8846 63.6127 77.5842 65.7525 76.9347 67.3845C76.8376 67.6589 76.7239 67.9272 76.5941 68.1878C76.5803 68.1878 76.0556 67.5454 75.4237 66.7659C74.7918 65.9864 73.803 64.7857 73.2279 64.103C72.6528 63.4203 72.1785 62.8458 72.1634 62.8244C72.4453 62.701 72.7357 62.5981 73.0324 62.5164C76.3419 61.4628 78.2829 59.7366 81.4297 55.0257C82.0805 54.0425 82.6998 53.0958 82.807 52.9198L82.9899 52.5841L82.4715 52.6117C81.1359 52.6545 79.2327 53.3108 77.7545 54.2197C76.7278 54.8572 74.5875 57.1756 73.8446 58.4554C73.215 59.564 72.6813 60.7241 72.2492 61.9229C72.123 62.275 72.0032 62.5654 71.9742 62.5516C71.9452 62.5377 71.2086 61.7205 70.3346 60.7147C69.4606 59.7089 68.6647 58.8288 68.5752 58.7446C68.4566 58.6352 68.5184 58.3901 68.8766 57.5678C70.3901 54.1732 70.694 51.1558 70.4519 41.9263L70.4141 40.3849L70.0269 40.8049C69.5968 41.2512 68.9586 42.3362 68.5941 43.2452C67.2925 46.4336 66.9658 51.8687 67.7692 57.1265L67.8954 57.9613L67.5372 57.5842C65.2505 55.1564 63.8644 53.693 63.4318 53.2504L62.8971 52.7035L63.1493 52.1893C64.8759 48.7595 65.2934 44.9488 64.9541 35.6074L64.905 34.2382L64.3702 34.9347C62.0243 37.9698 61.2574 44.2158 62.3623 51.3029C62.4455 51.8448 62.5061 52.2936 62.4821 52.2798C62.4581 52.266 61.9625 51.7769 61.3672 51.1747L60.2863 50.0909L60.362 48.7633C60.5562 45.4944 60.2232 42.2708 59.2079 37.6768C58.8296 35.9896 57.0247 28.8144 56.9377 28.6661C56.8507 28.5177 56.5808 29.6254 56.4458 30.5432C55.8152 34.8417 56.78 41.0148 59.1461 47.98L59.6582 49.4824L57.1269 47.1226C55.0156 45.1587 54.3622 44.5213 53.3078 43.3709C52.1525 42.1137 51.7464 41.7201 48.9704 39.1717C45.6912 36.1543 45.0543 35.6237 42.7021 33.9579C41.445 33.0554 40.1324 32.2324 38.772 31.4936C37.729 30.9379 36.0452 30.132 35.9998 30.1811C35.991 30.1911 36.8827 31.0611 37.9901 32.1172C41.0687 35.0718 46.1516 39.7085 47.4267 40.7407C49.5463 42.4759 51.7854 44.0605 54.1276 45.4831C54.4821 45.722 54.8957 46.0225 55.3435 46.3908C55.9911 46.9254 56.597 47.5084 57.1559 48.1346C58.9342 50.013 60.8034 52.0082 60.7454 52.0472C60.7454 52.0472 60.7353 52.0472 60.7239 52.0397C60.6319 51.9818 60.1652 51.6172 59.6834 51.23C56.9938 49.1035 54.1414 47.19 51.1524 45.507C47.5805 43.5394 44.6898 42.4569 41.9277 42.0495C41.3525 41.9603 40.8745 41.905 40.8569 41.9238C40.8102 41.9728 47.5414 46.3305 49.3538 47.4293C53.4655 49.9174 56.8355 51.4475 60.0895 52.2962L61.3117 52.6142L62.3131 53.7458C63.3221 54.871 66.4865 58.5988 67.5372 59.8912C67.9685 60.4331 68.0417 60.5488 67.8588 60.4331C63.3473 57.6269 60.6811 56.2842 57.0739 55.0106C54.6775 54.1644 51.894 53.7005 49.9428 53.8363C49.3816 53.8702 48.9465 53.9268 48.9629 53.9696C48.9893 54.0387 53.661 56.3734 55.8013 57.378C60.7643 59.7127 64.1041 60.7424 67.5195 60.9989L68.4881 61.0756L68.9283 61.6074C69.6043 62.4372 73.0412 66.8602 73.4196 67.3995L73.7627 67.8786L72.794 67.2499C66.3869 63.0784 59.7351 60.672 55.3813 60.9637C54.839 60.9963 54.4139 61.0617 54.4392 61.1133C54.477 61.2113 60.2598 64.0615 62.2879 64.9906C66.5345 66.9155 69.4593 67.8006 72.6187 68.0973C73.091 68.1269 73.5613 68.1824 74.0275 68.2633C74.2129 68.3789 77.2538 72.6637 79.2705 75.6333L80.1609 76.9383L79.1166 76.184C75.0693 73.2923 70.066 70.3076 66.0085 68.355C60.4175 65.6721 55.6575 64.2627 51.4929 64.0477C50.2859 63.9899 49.4245 64.0138 49.4573 64.0967C49.4901 64.1797 56.3361 68.0357 59.6342 69.821C68.1148 74.4238 73.1875 76.3826 79.1242 77.3281C79.8721 77.4475 80.5393 77.5946 80.5986 77.6487C80.7461 77.7845 83.5902 82.2578 84.8868 84.3951C86.0219 86.2546 87.2642 88.3844 88.2114 90.0666C88.8206 91.1465 88.9896 91.1981 86.4684 89.4631C83.348 87.3113 80.1114 85.3319 76.7732 83.5339C68.1653 78.882 60.449 76.4933 54.7166 76.7359C54.1932 76.7485 53.7606 76.7812 53.7518 76.7912C54.1055 77.0203 54.4713 77.2302 54.8478 77.4198C55.4658 77.7593 57.6907 78.9876 59.7843 80.1418C66.2002 83.691 70.0596 85.6737 73.4473 87.1912C78.7155 89.5511 83.2976 90.9165 88.0033 91.535L89.1384 91.6909L89.8838 93.0739C90.686 94.5587 92.2928 97.6415 92.5892 98.25L92.7607 98.6184L91.0328 97.5623C87.8179 95.6073 83.5587 93.3606 80.369 91.9499C77.6929 90.7444 74.9318 89.7359 72.1079 88.9325C68.497 87.9016 65.2871 87.4238 62.4531 87.5055C61.1074 87.5407 59.0263 87.7771 59.0692 87.8827C59.0906 87.9393 59.1676 87.9732 65.4271 90.9227C74.1902 95.0654 78.0711 96.6546 82.6027 97.9344C85.9109 98.8799 88.8875 99.3916 92.0355 99.5412L93.2614 99.5978L94.423 101.979C96.0299 105.279 97.2192 107.906 97.1145 107.92C97.0729 107.926 96.3704 107.52 95.5645 107.008C91.2094 104.272 86.5403 101.777 82.5876 100.086C78.882 98.5027 74.7351 97.1625 71.867 96.6256C69.9676 96.2711 67.5069 96.0486 66.0085 96.0901C64.635 96.1353 63.2691 96.2698 63.3057 96.3679C63.3322 96.4371 70.4191 99.9725 73.8799 101.648C80.3022 104.756 84.6951 106.504 88.8332 107.618C91.4377 108.317 94.6816 108.856 96.9682 108.991L97.6783 109.031L98.3695 110.633C99.4201 113.094 100.269 115.179 100.232 115.219C99.9259 115.123 99.627 115.004 99.3381 114.863C98.2131 114.36 96.0652 113.523 94.7295 113.073C80.9328 108.425 74.0035 111.513 74.0035 111.513C72.7466 112.155 71.5936 112.981 70.5831 113.964C71.7888 113.879 73.4612 113.791 75.4565 113.79C78.3132 113.79 81.8258 113.79 85.9071 114.578C90.9635 115.556 92.0872 116.817 95.7297 116.502C96.9693 116.393 98.191 116.134 99.3671 115.728C99.7039 116.002 100.283 116.466 100.947 116.992L102.006 119.824C102.552 121.287 103.184 123.02 103.707 124.49C103.191 124.438 102.676 124.403 102.162 124.383C101.337 124.349 99.434 124.431 99.3192 124.498C99.2359 124.543 102.156 125.933 104.591 127.027L105.313 129.191C104.828 129.017 104.349 128.859 103.874 128.717L103.701 128.624C100.399 126.828 96.9756 125.264 93.4557 123.942C91.6483 123.271 87.6464 122.147 86.0143 121.841C82.5169 121.2 79.2503 121.16 76.7959 121.715C75.5687 121.996 75.2131 122.125 75.3922 122.208C75.6583 122.334 83.7719 125.569 85.0962 126.072C91.8564 128.66 96.6605 129.919 100.995 130.167L101.668 130.551C103.157 131.399 104.514 132.108 105.796 132.701C105.84 133.441 105.9 134.288 105.972 135.177C105.271 134.959 104.585 134.769 103.913 134.616C102.343 134.25 100.744 134.027 99.1338 133.951C98.0945 133.589 97.0717 133.268 96.0753 133.024C90.435 131.641 86.1745 131.428 82.3984 132.354C81.2633 132.636 79.2667 133.373 79.0662 133.59C78.9892 133.673 87.6111 136.199 90.3972 136.918C97.1965 138.658 101.586 139.069 105.899 138.316C106.025 138.348 106.145 138.378 106.269 138.407C106.337 139.082 106.419 139.869 106.521 140.754C104.069 140.015 101.61 139.712 99.3961 139.913C98.9471 139.956 98.5133 140.007 98.43 140.027C98.3215 140.055 98.8576 140.3 100.365 140.907C103.112 142.024 105.074 142.722 106.826 143.141L106.875 143.496C104.976 142.726 103.037 142.058 101.066 141.494C94.1216 139.506 88.832 139.458 84.8136 141.321C84.3609 141.535 84.0014 141.726 84.0115 141.753C84.0292 141.815 91.5966 143.92 93.5541 144.41C99.4302 145.868 103.361 146.222 107.194 145.578C107.326 146.376 107.473 147.206 107.637 148.067C107.653 148.155 107.848 149.152 108.189 150.66C100.476 148.556 93.9867 148.683 89.7174 151.037C88.8685 151.5 87.4017 152.556 87.4345 152.659C87.4711 152.738 94.273 153.675 96.4827 153.916C101.872 154.493 105.483 154.273 108.766 153.095C109.144 154.633 109.617 156.382 110.153 158.124C110.582 159.517 111.021 160.793 111.465 161.975C110.939 166.321 109.933 169.438 109.338 175.838C108.609 183.699 109.195 189.065 109.338 190.282C109.591 192.408 110.003 195.911 111.239 199.752C111.457 200.431 111.58 200.744 111.744 201.418C112.783 205.648 111.715 208.701 112.47 208.961C113.822 209.747 127.445 196.2 125.308 182.321C124.863 179.43 123.773 176.778 122.407 173.463C119.002 165.172 114.874 159.814 113.782 158.281L113.683 158.141C113.683 158.114 113.671 158.086 113.666 158.063C113.45 157.199 113.197 157.01 113.139 156.243C113.117 155.972 113.13 155.822 113.092 155.314C113.076 155.093 113.047 154.825 112.987 154.453C112.977 154.388 112.968 154.327 112.958 154.264C112.98 153.97 112.996 153.643 113.006 153.269C113.006 153.124 113.014 152.977 113.016 152.825C113.347 152.933 114.098 153.598 114.235 153.716C115.461 154.776 118.457 156.463 121.291 157.249C123.145 157.762 122.952 157.34 125.924 158.019C128.53 158.613 129.858 159.209 129.985 158.955C130.162 158.606 127.841 157.054 126.171 156.092C124.95 155.365 123.67 154.742 122.344 154.228C121.605 153.945 120.579 153.612 113.962 152.132L113.02 151.925C113.02 150.74 112.989 149.284 113.004 147.263L113.338 147.431C116.104 148.863 119.008 150.013 122.005 150.865C123.303 151.579 124.5 152.208 124.495 152.162C124.49 152.117 124.306 151.775 124.06 151.393C126.332 151.912 128.631 152.308 130.946 152.577C134.248 152.977 138.058 153.378 138.027 153.313C137.974 153.173 135.504 151.656 133.928 150.798C132.275 149.884 130.563 149.079 128.804 148.388C127.766 147.046 126.578 145.826 125.263 144.752C128.952 145.659 135.282 146.99 135.151 146.824C135.001 146.632 132.346 144.761 131.184 144.043L130.845 143.824C132.309 144.406 133.61 144.912 133.62 144.894C133.467 144.655 133.298 144.427 133.115 144.21C130.593 141.003 127.083 138.553 122.327 136.712C120.705 136.075 119.038 135.559 117.34 135.169C116.85 135.057 116.449 134.962 116.444 134.951C116.449 134.928 116.456 134.906 116.464 134.885C119.075 135.512 121.748 135.85 124.433 135.891C126.15 136.861 127.927 137.723 129.752 138.473C131.654 139.268 137.565 141.521 137.52 141.424C137.404 141.173 136.132 139.718 135.406 138.985C134.157 137.74 132.779 136.631 131.294 135.677C133.847 135.514 136.844 135.282 136.883 135.242C136.942 135.178 134.517 133.948 133.117 133.33C128.281 131.208 123.229 130.115 118.369 130.096C118.398 130.021 118.438 129.94 118.485 129.845C118.716 129.407 118.831 129.189 118.972 129.019C119.237 128.701 119.58 128.146 119.89 127.113L120.142 126.61L120.343 126.596L120.856 127C124.388 129.792 128.093 131.546 134.099 133.258C135.016 133.522 140.642 135.031 140.829 135.067C140.955 135.093 140.728 134.834 139.936 134.062C138.352 132.513 136.183 131.008 133.815 129.825C132.708 129.273 129.969 128.19 128.719 127.823C126.566 127.186 124.368 126.714 122.143 126.411C123.404 126.254 124.729 126.034 126.146 125.75C127.73 125.432 130.365 124.852 131.916 124.493C133.217 125.278 134.559 125.997 135.934 126.645C137.7 127.487 144.077 130.241 144.111 130.175C144.145 130.11 143.209 128.873 142.567 128.125C139.444 124.462 134.629 121.475 128.701 119.51C127.78 119.202 126.292 118.79 125.509 118.619C125.298 118.58 125.09 118.524 124.888 118.452C124.867 118.406 125.59 117.32 126.475 116.07L127.054 115.252L127.528 115.557C129.279 116.654 131.118 117.604 133.026 118.398C135.856 119.549 138.902 120.369 143.398 121.175C145.821 121.614 150.79 122.432 150.813 122.391C150.836 122.349 149.95 121.602 149.047 120.926C147.801 120.037 146.489 119.244 145.122 118.553C143.183 117.592 140.33 116.597 137.752 115.984C134.752 115.299 131.693 114.906 128.618 114.809C128.25 114.811 127.883 114.784 127.519 114.729C127.468 114.685 128.024 113.928 128.864 112.874C129.008 112.805 129.084 112.76 129.078 112.749C129.054 112.732 129.026 112.719 128.997 112.711C129.235 112.418 129.491 112.105 129.754 111.779L130.719 110.633L131.535 111.168C133.536 112.487 135.672 113.589 137.908 114.455C141.011 115.671 143.71 116.363 149.836 117.546C154.211 118.389 154.265 118.4 154.284 118.371C154.321 118.311 152.959 117.167 152.069 116.512C150.196 115.129 148.033 113.958 145.558 112.991C143.704 112.263 141.795 111.684 139.848 111.261C137.377 110.735 134.87 110.395 132.349 110.243L131.121 110.181L131.264 110.002C131.506 109.707 132.809 108.274 133.455 107.596L134.055 106.962L134.819 107.384C137.935 109.134 141.302 110.397 144.802 111.128C147.164 111.645 149.876 112.043 154.401 112.534L157.882 112.911C158.139 112.952 158.398 112.974 158.658 112.976C158.658 112.965 158.369 112.74 158.027 112.485C154.244 109.628 148.947 107.697 142.882 106.964C140.6 106.678 138.299 106.564 136 106.625C134.195 106.676 134.311 106.716 134.798 106.236C135.555 105.482 136.545 104.559 137.438 103.771C138.459 102.86 140.688 101.02 140.796 100.993C140.839 100.982 141.293 101.191 141.798 101.456C145.807 103.569 149.32 104.558 155.293 105.274C157.616 105.555 162.452 106.029 162.482 105.986C162.512 105.943 161.941 105.521 161.136 104.995C158.362 103.195 155.094 101.963 151.181 101.244C148.115 100.71 144.999 100.512 141.89 100.651L141.141 100.693L141.831 100.181C143.397 99.0157 145.74 97.4051 145.873 97.4152C145.907 97.4152 146.336 97.6666 146.821 97.9558C148.939 99.2269 150.946 99.9674 153.909 100.596C155.325 100.888 159.378 101.578 159.41 101.525C159.431 101.501 159.158 101.255 158.797 100.978C155.933 98.7316 151.338 97.3184 146.77 97.2744H146.08L146.343 97.0959C146.636 96.8897 149.253 95.3634 149.765 95.0905L150.098 94.9196L150.746 95.3206C153.03 96.7401 155.323 97.5761 158.793 98.2462C160.289 98.5367 163.566 99.0723 163.586 99.0358C163.606 98.9993 163.316 98.768 162.946 98.4814C161.662 97.4755 159.781 96.4924 158.128 95.9668C155.639 95.1785 153.768 94.8806 150.561 94.7561C150.435 94.7561 150.488 94.7046 150.813 94.5223C151.609 94.0973 153.994 92.9369 154.747 92.6112L155.504 92.2793L156.337 92.6276C158.558 93.5517 160.911 94.0458 163.828 94.2105C165.114 94.2809 169.911 94.345 169.882 94.2884C169.65 94.1364 169.41 93.9978 169.162 93.8735C167.298 92.8677 165.299 92.2793 162.78 91.9977C160.752 91.7898 158.707 91.8109 156.684 92.0606C156.336 92.1096 155.998 92.1498 155.927 92.1473C155.919 92.1473 155.915 92.1473 155.912 92.1473C155.881 92.087 157.273 91.5476 158.592 91.0485ZM117.777 15.871C117.897 15.9963 117.992 16.1425 118.057 16.3022C118.11 16.4405 118.141 16.5859 118.15 16.7335C118.175 16.9346 118.339 17.1107 118.537 17.2502C118.476 17.4124 118.419 17.5633 118.365 17.7028C118.36 17.6605 118.352 17.6185 118.341 17.5771C118.284 17.3339 118.162 17.1104 117.989 16.9296C117.815 16.7865 117.598 16.7062 117.373 16.7021C117.506 16.3786 117.603 16.0413 117.661 15.6963C117.692 15.7597 117.731 15.8185 117.777 15.871ZM101.886 25.7027H101.896C101.955 25.7364 102.006 25.7827 102.045 25.8384C102.083 25.8941 102.109 25.9577 102.12 26.0246C102.194 26.3376 101.972 26.5728 101.718 26.8695C101.761 26.5665 101.816 26.178 101.885 25.7027H101.886ZM124.476 34.237C124.645 33.8862 125.038 33.9264 125.274 33.6197C125.323 33.5542 125.361 33.4805 125.384 33.4022C125.583 33.5662 125.794 33.7154 126.015 33.8485C125.074 34.1527 124.579 34.7286 124.431 34.6028C124.36 34.54 124.422 34.3438 124.475 34.237H124.476ZM112.475 31.7438C112.302 32.0594 112.127 32.3787 111.958 32.7019C111.295 33.0796 110.611 33.4192 109.909 33.719C109.93 33.7065 109.951 33.6926 109.972 33.6775C110.1 33.5753 110.205 33.4467 110.278 33.3003C110.485 32.8842 110.221 32.3725 109.925 31.8004C109.703 31.3692 109.582 31.1391 109.355 30.904C109.518 30.5205 109.678 30.0893 109.843 29.6467C110.076 29.0181 110.229 28.5077 110.347 28.094C110.819 27.8876 111.257 27.6122 111.647 27.2768C112.073 27.8338 112.473 28.7327 112.656 29.1564C112.868 29.6074 113.056 30.069 113.221 30.5394C112.95 30.9268 112.7 31.3289 112.474 31.7438H112.475ZM109.557 33.8812C109.601 33.8512 109.65 33.8283 109.702 33.8133L109.557 33.8812ZM110.424 8.82159C110.448 8.81293 110.472 8.80702 110.496 8.80399C110.566 8.79537 110.636 8.79921 110.704 8.81531C110.605 8.81028 110.511 8.81279 110.423 8.81908L110.424 8.82159ZM102.303 10.0361C102.437 10.2058 102.504 10.4673 102.412 10.5528C102.345 10.6157 102.201 10.5742 102.089 10.5315C102.123 10.3416 102.178 10.3102 102.185 10.109C102.188 10.0432 102.182 9.97726 102.168 9.91289C102.221 9.94525 102.266 9.98703 102.303 10.0361ZM87.0423 30.1521C87.111 30.0776 87.1916 30.0148 87.2806 29.9661C87.3135 30.0049 87.3493 30.041 87.3878 30.0742L87.6401 30.2829C87.5505 30.4891 87.4446 30.6601 87.514 30.8889C87.5297 30.9417 87.5535 30.9917 87.5846 31.0373L87.4913 30.9656C87.2987 30.7988 87.1187 30.6181 86.9527 30.425L86.9098 30.381C86.938 30.2975 86.9821 30.2202 87.0397 30.1534L87.0423 30.1521ZM96.4347 34.5815C95.2441 34.8405 94.6488 34.9699 94.4722 34.9586C94.3885 34.9493 94.3042 34.9451 94.22 34.9461C94.7724 34.3023 94.8506 34.1791 94.8771 33.9214C94.9036 33.6637 94.8645 33.4185 94.9023 33.2136C95.6319 33.4325 96.3828 33.5733 97.1423 33.6335C98.6999 33.7316 99.4819 33.5719 99.5008 33.6787C99.5336 33.8548 97.3592 34.3803 96.4322 34.5827L96.4347 34.5815ZM101.145 35.6652L101.186 35.6438C101.172 35.6525 101.158 35.6601 101.143 35.6665L101.145 35.6652ZM100.145 30.7971C98.9912 30.8667 97.834 30.8705 96.6794 30.8084C96.8942 30.5788 97.0458 30.2977 97.1196 29.9925C97.1895 29.684 97.1786 29.3627 97.0881 29.0596C97.0578 28.788 97.0174 28.5919 97.1322 28.5014C97.247 28.4109 97.4248 28.4486 97.5522 28.5177C97.8435 28.6749 97.7767 29.0068 98.0466 29.3978C98.1879 29.6003 98.3784 29.7638 98.6003 29.873C99.2221 30.1446 100.415 29.5097 101.144 28.5114C101.161 28.6122 101.188 28.7109 101.226 28.8056C101.287 28.9565 101.478 29.3739 102.313 29.7901C102.475 29.8705 102.692 29.9774 102.935 30.0792C102.79 30.1157 102.668 30.1522 102.571 30.1811C101.987 30.3508 101.465 30.5042 101.014 30.7468L100.145 30.7971ZM107.566 27.5383C107.85 27.7332 108.197 28.1053 108.702 28.2612C108.781 28.2854 108.863 28.3039 108.945 28.3166C108.675 28.5894 108.322 28.7579 107.737 29.4908C107.611 29.653 107.498 29.7989 107.408 29.9372C107.253 29.8932 107.095 29.8625 106.935 29.8454C106.777 29.8277 106.618 29.8247 106.459 29.8366C106.867 29.0899 107.236 28.3233 107.566 27.5396V27.5383ZM128.46 10.0776C128.786 9.99084 129.106 9.70041 129.091 9.45776C129.091 9.32072 128.976 9.2302 129.021 9.17488C129.04 9.15099 129.093 9.13088 129.281 9.18871C129.467 9.24898 129.643 9.33716 129.802 9.45022C129.919 9.52338 130.047 9.5769 130.18 9.60863C130.062 9.64485 129.95 9.69642 129.845 9.76202C129.541 9.96463 129.311 10.2596 129.189 10.6031C129 11.1538 129.231 11.5385 128.995 12.098C128.902 12.2764 128.791 12.4449 128.663 12.6009C128.584 12.709 128.509 12.8033 128.411 12.8058C128.378 12.8072 128.345 12.8007 128.315 12.7869C128.285 12.7731 128.259 12.7525 128.238 12.7266C128.134 12.5682 128.45 12.2941 128.585 11.9496C128.779 11.4543 128.548 10.9438 128.465 10.7527C128.36 10.522 128.207 10.3166 128.015 10.1505C128.135 10.0788 128.247 10.1342 128.46 10.0776ZM118.359 12.7706C118.472 12.7706 118.499 12.7405 118.99 12.5091C119.433 12.3017 119.432 12.3117 119.537 12.2501C119.746 12.1257 119.939 11.9753 120.111 11.8025C120.466 11.4606 120.705 11.2456 120.894 11.0746C120.755 11.3537 120.606 11.7032 120.437 12.1143C120.222 12.0615 120.067 12.1583 119.384 12.4639C118.489 12.8649 118.528 12.7995 118.382 12.9114C118.067 13.1647 117.833 13.5043 117.709 13.8883V13.8531C117.706 13.4351 117.66 13.0184 117.572 12.6097C117.627 12.6223 117.704 12.6562 117.782 12.6839C117.968 12.7484 118.163 12.7778 118.359 12.7706ZM114.1 13.5728C114.274 13.6067 114.38 13.5602 114.575 13.5262C114.84 13.4822 114.865 13.5262 115.196 13.5262C115.159 13.8871 115.115 14.3133 115.049 14.8199C114.822 16.5801 114.706 16.4167 114.498 17.9417C114.434 18.0083 114.372 18.0762 114.312 18.1466C114.28 18.1844 113.926 18.8394 113.216 20.1507C113.102 20.3607 113.012 20.5279 112.939 20.6699C112.845 20.5456 112.741 20.4295 112.627 20.3229C112.622 19.0531 112.524 17.7853 112.334 16.5298C112.201 15.6812 112.046 14.9796 111.879 14.3258C112.037 14.23 112.187 14.1202 112.326 13.9977C112.551 13.799 112.743 13.566 112.895 13.3075C112.962 13.321 113.029 13.3298 113.097 13.3339C113.325 13.3464 113.484 13.3024 113.728 13.403C113.887 13.4671 113.933 13.5363 114.1 13.5728ZM111.026 8.81405C111.156 8.75277 111.258 8.64509 111.312 8.51231C111.442 8.63877 111.55 8.78681 111.629 8.94983C111.667 9.02312 111.696 9.10026 111.717 9.17991C111.49 9.00354 111.224 8.88564 110.94 8.83668C110.97 8.83298 110.999 8.82537 111.026 8.81405ZM97.3794 18.3843C97.8763 17.9681 97.8511 18.0071 97.923 17.9279C98.232 17.5909 98.208 17.425 98.546 17.1044C98.6911 16.9673 98.6722 17.0239 98.8992 16.824C99.2776 16.5047 99.3356 16.3538 99.608 16.1577C99.7417 16.2834 99.9006 16.4305 100.086 16.5914C99.7203 16.8768 99.2032 17.3898 98.3543 18.4195C98.0605 18.7753 97.8423 19.0481 97.6783 19.2706C97.5864 19.2855 97.5035 19.3345 97.4462 19.4077C97.3693 19.5233 97.416 19.6591 97.2722 19.8754C97.1814 20.0074 96.9909 20.2085 96.8572 20.1708C96.6706 20.1168 96.8371 19.6566 96.6227 19.3373C96.5196 19.1983 96.3717 19.0989 96.2039 19.0556C96.3848 19.0409 96.5617 18.9941 96.7261 18.9173C96.8282 18.867 96.8219 18.8532 97.3794 18.3843ZM94.9957 17.5821C95.2182 17.5425 95.4384 17.4909 95.6553 17.4275C96.0942 17.293 96.3263 17.1572 96.3628 17.2087C96.3994 17.2603 96.2443 17.4111 95.9441 17.7305C95.6439 18.0498 95.6086 18.0611 95.5468 18.1881C95.5128 18.2585 95.3589 18.6043 95.5065 18.8344C95.5492 18.8964 95.6074 18.9463 95.6755 18.9789C95.5788 18.9789 95.4791 18.9789 95.3765 18.9789C95.3798 18.943 95.3728 18.9068 95.3564 18.8746C95.3368 18.8396 95.3103 18.8089 95.2784 18.7845C95.2465 18.76 95.2099 18.7424 95.171 18.7325C95.0184 18.7124 94.8834 18.8897 94.8506 18.9324C94.8272 18.9628 94.8073 18.9957 94.7913 19.0305C94.6766 19.0456 94.5618 19.0607 94.4508 19.0783L94.4962 19.0179C94.6892 18.7551 94.7157 18.4735 94.7484 18.1919C94.7662 17.9879 94.7315 17.7828 94.6475 17.596C94.7637 17.6042 94.8805 17.5996 94.9957 17.5821ZM97.8183 36.8546C97.7527 36.8257 97.6922 36.7993 97.6241 36.7728C97.9596 36.7263 98.3026 36.6635 98.6482 36.583C98.5221 36.7129 98.4097 36.8553 98.3127 37.008C98.1324 36.9438 97.9646 36.8935 97.8183 36.8546ZM126.625 109.702C126.848 109.862 127.062 110.035 127.265 110.219C127.277 110.247 127.061 110.546 126.792 110.884C126.615 111.102 126.33 111.469 126.044 111.841C125.035 111.579 124.061 111.372 123.143 111.224C122.94 110.972 122.737 110.728 122.545 110.501C123.505 110.302 125.032 109.964 126.525 109.621L126.625 109.702ZM121.561 118.542C121.318 118.956 120.85 119.784 120.528 120.394C120.425 120.588 120.324 120.771 120.234 120.927C119.982 120.917 119.717 120.912 119.46 120.908C119.011 120.337 118.184 119.347 117.611 118.709C117.149 118.197 116.678 117.703 116.197 117.227C117.314 117.014 118.418 116.744 119.507 116.416C120.064 116.743 120.642 117.055 121.229 117.355C121.487 117.476 121.737 117.612 121.979 117.763C121.857 118.031 121.718 118.292 121.561 118.542ZM122.42 146.453C120.972 146.147 119.507 145.927 118.033 145.793C116.916 145.136 115.753 144.561 114.552 144.071C113.648 143.693 113.561 143.649 113.581 143.517C113.623 143.287 114.024 141.96 114.361 140.895C115.241 141.318 116.127 141.714 117.018 142.082C118.52 143.658 120.215 145.026 122.42 146.449V146.453ZM110.287 147.769C110.604 149.266 110.909 150.714 110.962 150.992L111.063 151.495L110.39 151.3C109.761 149.309 109.291 147.272 108.983 145.207L109.684 145.034L110.287 147.769ZM111.153 152.108C111.181 152.108 111.392 153.212 111.625 154.497C111.309 153.807 111.007 153.068 110.722 152.273C110.859 152.204 111.002 152.149 111.15 152.108H111.153ZM111.91 145.748L111.548 143.709H111.65C112.001 143.701 112.351 143.717 112.7 143.758C112.535 144.354 112.405 144.959 112.311 145.571L112.289 145.725L111.91 145.748ZM112.777 143.651L111.978 143.174C111.784 143.057 111.587 142.945 111.391 142.835L111.322 142.45C111.012 140.77 110.766 139.346 110.731 139.115L110.857 139.125C111.074 139.218 111.534 139.446 112.063 139.727C112.507 139.966 112.946 140.195 113.393 140.418C113.267 140.994 113.1 141.897 112.991 142.493L112.777 143.651ZM106.054 121.806C105.937 121.446 105.802 121.04 105.661 120.63C105.926 120.827 106.187 121.015 106.444 121.196C106.378 121.615 106.319 122.026 106.265 122.43C106.198 122.232 106.125 122.022 106.054 121.806ZM113.141 121.544C112.039 120.683 110.885 119.889 109.685 119.168C109.769 118.665 109.858 118.168 109.951 117.677C110.464 117.7 110.971 117.709 111.474 117.703C113.146 118.983 114.946 120.086 116.845 120.996C115.6 121.095 114.362 121.278 113.141 121.544ZM112.377 111.836C111.998 111.945 111.6 112.071 111.203 112.213C111.272 111.962 111.341 111.701 111.411 111.45C111.789 111.479 112.138 111.498 112.431 111.505C112.698 111.501 112.964 111.516 113.228 111.55C113.243 111.571 112.852 111.696 112.377 111.836ZM108.593 111.584C108.121 111.34 107.647 111.11 107.17 110.897C107.666 110.987 108.193 111.073 108.726 111.148L108.593 111.584ZM102.877 109.878C103.8 110.79 105.768 112.697 106.904 113.776L107.157 114.01C106.331 114.448 105.542 114.952 104.799 115.518C103.969 116.181 104.137 116.354 103.114 113.726C102.61 112.447 102.025 110.972 101.789 110.437L101.37 109.467L102.877 109.878ZM107.134 117.422C107.11 117.535 107.087 117.648 107.064 117.76C106.672 117.574 106.279 117.398 105.885 117.232C106.304 117.302 106.72 117.366 107.134 117.422ZM114.218 136.938C114.183 137.079 114.149 137.216 114.115 137.349C113.306 137.207 112.495 137.088 111.681 136.992C111.05 136.919 110.461 136.85 110.375 136.844C110.236 136.836 110.206 136.79 110.155 136.569C110.126 136.423 109.902 135.465 109.661 134.431C109.641 134.352 109.624 134.274 109.605 134.199C110.954 134.626 112.335 134.948 113.735 135.162C114.028 135.198 114.318 135.253 114.604 135.325C114.605 135.344 114.435 136.067 114.212 136.937L114.218 136.938ZM111.404 130.847C110.86 130.973 110.201 131.144 109.824 131.257C109.452 131.047 109.081 130.848 108.717 130.661C108.652 130.45 108.582 130.209 108.507 129.948C108.534 129.532 108.563 129.108 108.594 128.682C110.648 129.437 112.778 129.967 114.947 130.262C113.753 130.385 112.568 130.58 111.398 130.846L111.404 130.847ZM116.688 128.951C116.637 129.084 116.613 129.102 116.521 129.043C116.463 129.007 116.065 128.779 115.638 128.54C113.497 127.296 111.224 126.294 108.86 125.551C108.86 125.532 108.86 125.514 108.86 125.495C111.972 126.286 114.704 126.684 117.534 126.702C117.467 126.898 117.331 127.26 117.167 127.672C116.937 128.287 116.719 128.863 116.681 128.95L116.688 128.951ZM116.881 105.03C116.016 104.352 115.136 103.726 114.24 103.152C115.086 101.07 115.917 99.2961 116.644 97.8804C117.795 99.8266 118.46 100.845 119.341 102.102C120.211 103.346 121.159 104.533 122.182 105.655C120.432 105.309 118.657 105.1 116.874 105.029L116.881 105.03ZM115.17 95.7267C114.011 97.9609 113.026 100.047 112.194 101.941C110.894 101.237 109.539 100.639 108.143 100.152C108.947 99.7987 109.731 99.3999 110.49 98.9579C111.974 98.0916 113.094 97.3461 115.164 95.7267H115.17ZM100.182 106.735C99.7064 105.688 99.0556 104.258 98.7176 103.556C98.3796 102.853 98.1336 102.271 98.1563 102.247C98.4776 102.192 98.8028 102.163 99.1287 102.161C101.643 102.077 104.131 101.618 106.51 100.798C108 102.264 110.173 104.375 110.873 105.027L110.89 105.042L110.788 105.299C109.716 104.686 108.6 104.154 107.448 103.708C106.636 103.392 105.963 103.15 105.957 103.17C105.951 103.19 106.966 104.455 108.192 105.893C107.309 106.113 106.426 106.369 105.555 106.67C104.339 107.097 102.074 108.107 101.381 108.521C101.291 108.598 101.181 108.649 101.063 108.668C101.043 108.649 100.642 107.779 100.182 106.735ZM99.8792 115.544L100.348 115.391L100.439 115.634C100.244 115.6 100.053 115.57 99.8792 115.544ZM108.443 140.031C108.569 140.497 108.695 141.037 108.838 141.591L108.546 141.466C108.507 141 108.472 140.521 108.443 140.031ZM109.326 143.583C109.477 144.211 109.578 144.635 109.569 144.643C109.56 144.65 109.273 144.528 108.855 144.348C108.818 144.074 108.781 143.795 108.748 143.512C108.944 143.539 109.137 143.561 109.33 143.583H109.326ZM112.107 186.308C111.903 181.497 111.802 179.09 112.359 176.357C112.485 175.767 112.883 173.93 113.393 171.275C113.834 172.813 114.177 174.587 114.71 177.353C115.266 180.233 115.719 182.939 115.786 188.38C115.853 194.059 115.872 194.183 115.193 197.587C114.864 199.238 114.61 200.515 114.429 201.419C114.177 200.49 113.772 198.737 113.132 195.939C112.377 192.591 112.26 189.831 112.111 186.308H112.107ZM118.421 197.563C118.785 192.632 118.547 189.325 118.547 189.325C118.069 182.677 117.814 179.281 117.002 175.78C116.559 173.871 116.245 172.5 115.971 171.485C117.771 174.7 119.325 177.292 120.222 180.789C121.807 186.957 120.437 192.807 118.424 197.563H118.421ZM112.141 147.29C112.109 147.016 112.094 146.852 112.099 146.845C112.122 146.849 112.144 146.856 112.165 146.867C112.157 147.026 112.15 147.168 112.145 147.29H112.141ZM113.106 145.677H113.035C113.064 145.156 113.15 144.535 113.414 144.474C113.561 144.439 113.714 144.6 113.953 144.851C114.251 145.163 114.493 145.422 114.687 145.63C114.143 145.632 113.612 145.646 113.11 145.677H113.106ZM116.89 135.729C118.162 137.009 119.56 138.158 121.064 139.157C119.231 138.52 117.358 138.002 115.458 137.606C115.545 137.363 115.637 137.103 115.732 136.836L116.338 135.178L116.89 135.729ZM114.808 134.637L114.444 134.355L114.86 134.473L114.808 134.637ZM125.103 118.848C126.319 120.186 127.645 121.419 129.069 122.535C127.155 121.906 125.186 121.452 123.188 121.18C123.247 121.08 123.307 120.982 123.365 120.888L124.803 118.518L125.103 118.848ZM123.1 116.039C122.217 117.422 122.343 117.38 121.839 116.522C121.702 116.289 121.551 116.045 121.388 115.791C122.105 115.54 122.961 115.223 123.838 114.891C123.62 115.23 123.347 115.652 123.1 116.039ZM127.682 109.36L128.151 109.252L127.789 109.665L127.682 109.36ZM132.032 105.147C131.752 105.389 130.371 106.822 129.405 107.859C128.48 107.474 127.551 107.129 126.619 106.823C124.494 102.076 121.608 97.9948 118.279 94.9749L118.291 94.9837C119.104 93.8232 119.795 92.7458 120.687 91.2936C121.469 92.6012 122.238 93.8672 122.695 94.5826C125.54 99.066 128.21 102.086 131.506 104.578C132.095 105.025 132.139 105.066 132.032 105.149V105.147ZM135.031 102.484C134.669 102.782 134.063 103.299 133.684 103.632L132.998 104.238L131.773 101.73C130.351 98.8145 129.71 97.7144 128.255 95.6714C126.396 93.0676 124.292 90.8649 122.003 89.1224L122.529 88.2498L122.54 88.231C122.994 87.4842 123.477 86.6778 123.988 85.812L124.037 85.729C124.113 85.6033 124.19 85.4675 124.268 85.3343C124.335 85.2198 124.404 85.1017 124.473 84.981L124.564 84.8263L124.767 84.4756C124.798 84.4215 124.829 84.3687 124.861 84.3146L125.076 83.9374L125.158 83.7941L125.463 83.2598C125.535 83.1341 125.606 83.0083 125.675 82.8826C125.853 83.4283 126.022 83.9513 126.18 84.4114C127.41 88.1228 128.324 90.4463 129.585 92.9947C131.123 96.1202 132.584 98.3229 134.863 100.942C135.3 101.445 135.662 101.867 135.672 101.89C135.682 101.912 135.386 102.189 135.031 102.486V102.484Z" fill="#50A37D"/>
</svg>
