<svg width="138" height="208" viewBox="0 0 138 208" fill="none" xmlns="http://www.w3.org/2000/svg">
<path d="M66.6802 2.49896C66.6482 2.43391 66.6469 2.43009 66.6802 2.49896V2.49896Z" fill="#E2E2E1"/>
<path d="M15.4073 90.0486C14.9804 89.8633 14.5316 89.7331 14.0716 89.6614C13.782 89.6159 13.4895 89.5911 13.1963 89.5872C11.5907 89.6785 9.97993 89.6039 8.38972 89.3646C7.46523 89.2289 3.73953 88.3224 1.47182 87.6711C0.657059 87.4423 -0.00131226 87.2411 0.00372314 87.2298C0.0302124 87.1733 1.20821 86.9557 1.93846 86.8652C2.86563 86.7535 3.8008 86.7224 4.73338 86.7722C6.41966 86.8501 6.88506 86.9281 9.28899 87.5265C11.3246 88.0294 11.6248 88.12 12.4862 88.4733C13.2745 88.7951 13.7563 88.9397 15.3064 89.3433L17.1654 89.8311L16.7114 89.0051C14.6077 85.1717 13.4965 81.2428 13.5835 77.8972C13.6037 77.1831 13.7096 76.2754 13.7664 76.3345C13.8232 76.3936 15.5813 80.6456 15.9597 81.6665C16.9851 84.45 17.4517 86.5786 17.5741 88.9925L17.6258 89.9706L18.4254 90.2322C18.8669 90.3792 19.2326 90.4962 19.2503 90.4937C19.2155 90.2774 19.1636 90.0643 19.0951 89.8562C17.82 85.3452 17.849 80.5526 19.1721 77.2988L19.4723 76.5532L19.611 77.5025C20.5506 83.9735 20.567 86.8728 19.6854 90.1165L19.5593 90.6018L19.9477 90.7426C20.2681 90.8545 21.2985 91.2455 23.0012 91.893L23.2673 91.9973L23.1223 91.4617C22.1864 88.1074 21.9872 84.0968 22.6052 81.2239C22.7773 80.4001 23.0308 79.5954 23.3619 78.8213L23.5877 78.341L23.7315 79.4173C24.5992 85.8506 24.6295 88.1351 23.8866 91.2556C23.7125 92.0099 23.6898 92.2098 23.7769 92.2312C23.8425 92.2475 24.4327 92.5078 25.0936 92.8045C25.7545 93.1012 26.312 93.3476 26.3246 93.3376C26.388 93.1496 26.4328 92.9559 26.4583 92.7592C26.6606 91.6755 26.9251 90.6043 27.2503 89.5507C27.6464 88.2935 28.8899 85.6432 29.5206 84.709C30.4299 83.3713 31.642 82.0135 32.5236 81.3559L32.8704 81.0932L32.7758 81.4163C32.7178 81.5923 32.3798 82.5478 32.0191 83.5536C30.295 88.3727 29.1397 90.5075 27.0258 92.8083C26.7168 93.1402 26.4696 93.4256 26.4734 93.4369C26.4772 93.4482 26.8442 93.6305 27.2781 93.8455C27.7119 94.0605 28.4599 94.4477 28.9379 94.7055C29.4159 94.9632 29.8132 95.1694 29.8207 95.1656C29.8283 95.1618 29.9027 94.8324 29.9834 94.4364C30.3642 92.7467 30.9122 91.0987 31.6193 89.5168C32.3215 88.0303 33.219 86.6435 34.2881 85.393C34.8356 84.7862 35.4297 84.2229 36.0651 83.7083L36.2379 83.5825L36.1459 83.9006C36.0878 84.0754 35.8709 84.709 35.654 85.3113C33.8353 90.4346 32.7456 92.5857 30.8146 94.8236C30.6333 95.0255 30.4648 95.2384 30.3101 95.4611C30.3189 95.4762 30.7477 95.7339 31.2749 96.0419C31.8021 96.35 32.5059 96.7824 32.8465 97.0062C33.0548 97.1496 33.2721 97.2794 33.4973 97.3947C33.5351 97.2867 33.5655 97.1762 33.5881 97.0641C33.9311 95.4296 34.6702 93.1138 35.4925 91.0657C37.141 86.9972 39.5752 83.409 42.3814 80.9084C43.1609 80.2118 44.441 79.2438 44.4814 79.3104C44.5218 79.377 42.7157 83.7912 41.5806 86.3171C39.4213 91.1663 37.6947 93.8153 34.7699 96.7674C34.2717 97.2615 33.8731 97.6789 33.887 97.6814C34.1771 97.8549 35.6187 98.8871 36.5684 99.5899C37.2558 100.108 37.8561 100.553 37.8939 100.576C37.9318 100.598 38.0125 100.289 38.0768 99.8074C38.2357 98.6947 38.5447 97.1232 38.8664 95.8219C40.4669 89.1824 43.2807 83.5159 46.9736 79.4537C46.7971 79.1306 46.6268 78.815 46.4691 78.5095C46.401 78.3838 46.3354 78.2581 46.2699 78.1323C46.0731 77.7627 45.8852 77.4057 45.7061 77.0612L45.3592 76.3873C45.2474 76.1677 45.1389 75.9535 45.0338 75.7448C44.8762 75.4305 44.7274 75.1288 44.5848 74.8371C44.0639 73.7684 43.6427 72.8469 43.2996 72.0498L43.2088 71.8348C42.8506 70.9899 42.5782 70.2883 42.3827 69.7037C42.365 69.6547 42.3486 69.6069 42.3335 69.5591C42.1086 68.9167 41.9196 68.2623 41.7672 67.5991C41.0264 64.285 40.7715 60.8815 41.0105 57.4945C41.0105 57.4556 41.0168 57.4178 41.0193 57.3789C41.0672 56.7414 41.1278 56.1631 41.1921 55.6514C41.2257 55.3857 41.2602 55.1393 41.2955 54.9121C41.3144 54.7864 41.3334 54.6607 41.3523 54.5475C41.3762 54.4067 41.3977 54.2747 41.4204 54.1528C41.4368 54.061 41.4519 53.9742 41.467 53.8938C41.4822 53.8133 41.4998 53.7228 41.5137 53.6499C42.1141 50.5796 43.0158 48.0865 44.5937 44.8642L44.4675 44.8415C44.0538 44.7573 44.0324 44.6781 43.6666 44.6328C43.4321 44.6027 43.3173 44.619 42.9528 44.5637C42.8178 44.5483 42.685 44.518 42.5568 44.4732C42.3524 44.394 42.3335 44.3298 42.1519 44.2758C42.0127 44.2407 41.869 44.2263 41.7256 44.233C41.4254 44.233 41.3586 44.2682 41.2514 44.2054C41.2019 44.1766 41.16 44.1365 41.129 44.0884C41.0981 44.0403 41.0791 43.9856 41.0735 43.9288C41.0672 43.8144 41.1404 43.7603 41.2425 43.583C41.3119 43.4547 41.3672 43.3195 41.4078 43.1795C41.4721 42.9418 41.4078 42.7734 41.3598 42.5181C41.3265 42.1671 41.3117 41.8146 41.3157 41.462C41.3157 41.1842 41.3043 40.8674 41.3157 40.4839C41.3497 39.8331 41.4192 39.1847 41.5238 38.5414C41.5584 38.1845 41.6495 37.8353 41.7937 37.5067C41.8921 37.293 42.0712 36.9158 42.307 36.9196C42.4079 36.9196 42.4811 36.9925 42.5996 37.1057C42.8431 37.342 42.8267 37.4904 43.0045 37.689C43.1623 37.8718 43.3816 37.9907 43.6212 38.0235C43.9567 38.0536 44.349 37.8663 44.354 37.6815C44.3591 37.4967 43.9227 37.4451 43.4623 37.0529C43.1666 36.7871 42.9355 36.4578 42.7863 36.0898C42.4609 35.2298 42.8822 34.2882 43.4712 33.6306C43.4164 33.5999 43.3634 33.5663 43.3122 33.53C43.1647 33.4219 42.7598 33.1214 42.7232 32.6814C42.7051 32.4525 42.7523 32.2233 42.8595 32.0201C42.9566 31.8566 43.0549 31.8063 43.0663 31.663C43.0802 31.487 42.9566 31.2745 42.814 31.2494C42.5378 31.2016 42.2465 31.8353 42.2301 31.878C41.9778 32.4236 42.1935 32.655 42.0384 33.0812C41.8265 33.657 41.1555 34.0229 40.5968 34.1033C39.9245 34.2027 39.415 33.8858 38.8689 33.5451C37.6505 32.7908 36.7866 31.4732 36.7374 30.8697C36.7273 30.6326 36.6479 30.4036 36.5091 30.2109C36.4385 30.1219 36.3562 30.0429 36.2644 29.9758C36.1105 29.85 35.4534 29.3132 35.4888 28.7852C35.5064 28.5262 35.6754 28.4935 35.6817 28.1716C35.6817 27.9428 35.601 27.8322 35.5379 27.6373C35.3954 27.2023 35.5594 26.9722 35.6515 26.1814C35.6919 25.8587 35.7066 25.5333 35.6956 25.2083C34.8695 24.9279 34.4987 24.6211 34.2654 24.3521C33.7924 23.8052 33.3825 22.8434 33.2967 22.0023C33.2677 21.6955 33.2753 21.3359 33.0256 20.9663C32.8364 20.6847 32.6358 20.6029 32.6547 20.4106C32.6775 20.1793 32.9839 20.1466 33.2311 19.7669C33.3246 19.6117 33.3903 19.4416 33.4254 19.264C33.5994 18.6706 34.3221 18.3085 35.3551 17.7892C36.5078 17.2109 37.0792 17.1442 37.3049 17.1266C37.7426 17.0914 38.0617 17.0701 38.3429 17.2612C38.7629 17.5428 38.7352 18.0268 39.1577 18.1412C39.2453 18.1705 39.339 18.1768 39.4297 18.1596C39.5205 18.1425 39.6053 18.1024 39.6761 18.0432C39.7125 18.0022 39.7361 17.9515 39.7442 17.8973C39.6746 17.8387 39.6081 17.7766 39.5449 17.7113C39.3329 17.5217 39.1683 17.2853 39.0644 17.021C39.0026 16.8488 39.0366 16.8438 38.9824 16.6615C38.8071 16.0693 38.3997 15.9662 38.3858 15.5551C38.3858 15.3577 38.4729 15.4193 38.5208 15.0861C38.5763 14.6913 38.4502 14.5631 38.5384 14.1721C38.5696 14.0765 38.5878 13.9771 38.5927 13.8766C38.5927 13.6654 38.5056 13.6415 38.4729 13.419C38.43 13.1424 38.5435 13.0582 38.4539 12.857C38.401 12.7401 38.3619 12.7514 38.3127 12.6395C38.2472 12.45 38.2585 12.2425 38.3442 12.0612C38.4085 11.9002 38.5574 11.7594 38.8575 11.4791C39.1312 11.2276 39.2725 11.0931 39.4301 11.0767C39.4831 11.0767 39.5638 11.0767 39.6004 11.0189C39.6509 10.9435 39.5575 10.8366 39.5336 10.7398C39.4781 10.511 39.8186 10.2369 40.5034 9.70257C41.1442 9.19966 41.1807 9.17452 41.2779 9.11794C41.5994 8.92237 41.9484 8.77575 42.3133 8.68293C42.5662 8.61793 42.8239 8.57336 43.084 8.54966C42.9276 8.45537 42.8216 8.28816 42.6312 7.98264C42.5169 7.82536 42.4315 7.64914 42.3789 7.46214C42.302 7.13525 42.4395 6.99821 42.5555 6.43748C42.6715 5.87674 42.5631 5.86417 42.6816 5.40527C42.7775 5.05701 42.8468 4.79928 43.06 4.54531C43.3501 4.20711 43.6339 4.18574 43.7688 3.82113C43.8319 3.64889 43.8003 3.56968 43.8949 3.46282C44.04 3.30063 44.2733 3.30692 44.5924 3.28806C45.0654 3.2604 44.6101 3.24406 45.6695 3.15479C46.0252 3.12462 46.5133 3.08941 46.7479 3.08187C47.3192 3.06301 48.6397 3.13593 49.7647 3.59483C49.8619 3.63506 49.9577 3.67906 50.0548 3.72055C50.0872 3.55515 50.1524 3.39785 50.2465 3.25788C50.3336 3.13216 50.4345 2.98758 50.5972 2.96243C50.7599 2.93729 50.8986 3.05295 51.0222 2.97249C51.0683 2.93766 51.1023 2.88929 51.1193 2.83419C51.1597 2.72481 51.1193 2.65566 51.1193 2.55382C51.1348 2.43584 51.1889 2.32625 51.2732 2.24202C51.4788 1.99057 51.6276 2.0811 51.866 1.82964C52.0262 1.66117 52.1245 1.55682 52.1535 1.40218C52.1578 1.33652 52.1877 1.27514 52.2368 1.23119C52.2891 1.19781 52.3526 1.18651 52.4134 1.19976C52.5824 1.21862 52.6353 1.32549 52.7564 1.34309C52.9191 1.37075 52.9532 1.30537 53.2609 1.24754C53.6229 1.17713 53.8045 1.14067 53.9924 1.21736C54.0391 1.23622 54.1186 1.27897 54.1715 1.24754C54.2245 1.21611 54.2157 1.12935 54.2674 1.06398C54.3191 0.998601 54.3935 0.967169 54.6218 0.997343C55.2865 1.08661 56.211 1.72404 56.4859 1.9164C56.5225 1.94154 56.5944 1.99183 56.6839 2.06098C56.8189 2.16156 56.8618 2.20682 56.9475 2.27094C57.4205 2.62926 57.5289 2.64812 57.6954 2.85682C57.7396 2.9134 58.118 3.41378 57.9477 3.81359C57.8758 3.98961 57.7799 3.94937 57.6109 4.21591C57.5378 4.33032 57.3587 4.61823 57.4356 4.92123C57.4684 5.04696 57.5617 5.2192 57.6639 5.22046C57.7661 5.22171 57.848 5.05199 57.8607 5.02433C57.9401 4.85334 57.8695 4.75779 57.9325 4.58429C57.9731 4.48777 58.0352 4.40176 58.1142 4.33284C58.3871 4.05869 58.7121 3.84156 59.0702 3.69415C59.4677 3.55491 59.8937 3.51604 60.31 3.581C60.2188 3.41713 60.18 3.22935 60.199 3.04289C60.2255 2.85556 60.3125 2.74115 60.2444 2.63932C60.1624 2.51359 59.9833 2.60411 59.7689 2.46204C59.6394 2.371 59.5461 2.2375 59.5053 2.08487C59.4733 1.94167 59.4816 1.79243 59.5293 1.65363C59.5852 1.41053 59.6984 1.18423 59.8597 0.993572C60.035 0.789897 60.2217 0.693088 60.5975 0.500728C60.8392 0.372176 61.0926 0.266927 61.3543 0.186415C61.821 0.0418308 62.0732 -0.0336044 62.3923 0.0154285C62.6445 0.0531461 62.7429 0.141154 63.0305 0.126067C63.255 0.116009 63.2764 0.0606896 63.4744 0.0770339C63.6688 0.0956638 63.858 0.150688 64.0319 0.23922C64.1087 0.293202 64.1974 0.328116 64.2905 0.341057C64.3684 0.345667 64.4463 0.331433 64.5175 0.299568C64.8404 0.186415 65.5088 1.05392 65.5088 1.05392C65.9389 1.5367 66.3993 2.1339 66.6793 2.4985C66.7297 2.60034 66.8558 2.86059 67.04 3.23777C67.0526 3.26417 67.0639 3.2868 67.0753 3.31195C67.2057 3.33951 67.3375 3.36049 67.4701 3.37481C68.0326 3.36727 68.1764 2.9398 68.5522 2.98883C68.7881 3.01901 68.759 3.18999 69.2749 3.55585C69.511 3.74539 69.7842 3.8837 70.077 3.96195C70.468 4.04618 70.7354 3.92674 70.9599 3.89028C71.8718 3.73816 72.9779 4.82065 73.6186 5.99618L73.6766 6.00498C73.8377 6.0508 73.9841 6.13743 74.1017 6.25643C74.3088 6.41621 74.4806 6.61696 74.6062 6.84609C74.842 7.30247 74.7562 7.6809 74.9076 7.71233C74.9807 7.72616 75.0653 7.65199 75.1006 7.58032C75.1725 7.42945 75.0425 7.25469 74.8685 6.96301C74.5986 6.5104 74.4636 6.28535 74.4409 6.06407C74.4252 5.77358 74.5147 5.48712 74.6932 5.25692C74.8912 4.99495 75.1742 4.80964 75.4941 4.73264C75.677 4.68487 75.8548 4.69493 76.2042 4.71881C76.4728 4.73641 76.9369 4.7691 78.1465 4.96021C78.3306 4.98912 78.574 5.03061 78.6762 5.21166C78.7582 5.35498 78.6951 5.4958 78.796 5.57123C78.8969 5.64667 79.0016 5.55866 79.1983 5.54734C79.5843 5.52471 79.9135 5.79879 80.0724 5.93961C80.3335 6.16088 80.2729 6.24009 80.4608 6.32433C80.7131 6.43748 80.867 6.32433 81.1583 6.47394C81.2665 6.51351 81.3563 6.59138 81.4106 6.6927C81.4736 6.84609 81.3538 6.92404 81.3916 7.11765C81.4295 7.31127 81.5405 7.28487 81.6325 7.51997C81.7044 7.70353 81.6515 7.75005 81.7208 7.91475C81.7902 8.07945 81.9125 8.15363 82.0172 8.27181C82.2215 8.50063 82.1736 8.71688 82.2581 9.10411C82.3842 9.66233 82.5671 9.63342 82.7424 10.208C82.8768 10.572 82.9128 10.9648 82.8471 11.3471C82.7487 11.8122 82.4195 12.4295 81.8646 12.5729C81.6679 12.6143 81.4647 12.6143 81.268 12.5729C80.8102 12.51 80.6929 12.3554 80.2225 12.2938C79.9702 12.2611 79.5918 12.2485 79.5654 12.3503C79.5427 12.4245 79.7167 12.5339 79.7533 12.5578C80.0585 12.7501 80.312 12.6584 80.703 12.7388C80.9278 12.7878 81.1416 12.8777 81.3336 13.0041C81.661 13.2195 81.9182 13.5253 82.074 13.8842L82.1156 13.9772C82.2127 14.1 82.2742 14.247 82.2934 14.4022C82.3086 14.5782 82.2518 14.8347 82.4095 14.9566C82.4341 14.9772 82.4627 14.9925 82.4935 15.0018C82.5243 15.0111 82.5566 15.0141 82.5886 15.0107C82.8093 14.9642 82.8648 14.4286 82.8849 14.2324C82.9304 13.7924 82.8358 13.7145 82.9266 13.4152C82.9901 13.2159 83.093 13.0312 83.2293 12.8721C83.3251 12.7602 83.4916 12.598 83.9419 12.3843C84.4262 12.1555 85.2599 11.7557 85.6496 12.0687C85.748 12.1467 85.7757 12.2384 85.9308 12.2975C86.1289 12.373 86.2361 12.2774 86.4644 12.3139C86.6543 12.3393 86.829 12.4311 86.9575 12.5729C87.0559 12.6986 87.0508 12.803 87.0836 13.37C87.1227 13.9823 87.1391 14.0426 87.1681 14.1092C87.3308 14.4776 87.6247 14.4588 87.7495 14.6951C88.0333 15.2269 87.0975 16.361 86.1957 17.1166C85.2283 17.9263 84.4993 18.1324 84.5561 18.4996C84.6179 18.9057 85.5449 18.8277 86.0242 19.6173C86.0964 19.7355 86.1536 19.8622 86.1944 19.9944C86.3849 20.1918 86.5728 20.5087 86.8465 20.9613C87.2249 21.5899 87.2173 21.7408 87.4998 21.9972C87.7823 22.2537 87.9286 22.1921 88.4722 22.4649C88.7535 22.607 88.7535 22.6435 89.6704 23.3161C90.1295 23.653 90.5709 24.0151 91.0326 24.3508C91.4437 24.6488 91.7603 24.8663 91.7237 25.0964C91.6935 25.2774 91.4715 25.3026 91.4034 25.544C91.3416 25.764 91.4765 25.9211 91.5661 26.1638C91.7426 26.6378 91.6165 27.0904 91.5194 27.4374C91.3929 27.8652 91.1689 28.2581 90.8648 28.5853C90.4183 29.0693 89.9378 29.2667 89.451 29.4653L89.3791 29.493C89.577 29.6976 89.7467 29.9276 89.8836 30.1769C90.1056 30.5717 90.1056 30.7364 90.3187 31.4644C90.6971 32.7644 90.9859 33.0133 90.8333 33.5099C90.7564 33.676 90.7284 33.8604 90.7526 34.0417C90.8232 34.3938 91.1309 34.5094 91.0818 34.6968C91.0439 34.8602 90.8068 34.8149 90.4827 35.0262C90.0892 35.2776 90.214 35.4976 89.7259 35.9062C89.4056 36.1728 89.2643 36.2834 89.2643 36.2834C89.0385 36.4632 88.9856 36.4984 88.9566 36.5864C88.8847 36.8052 89.1016 36.9234 89.0385 37.1534C88.9868 37.3471 88.7787 37.4539 88.6778 37.5055C88.4899 37.6023 88.4142 37.5608 88.2137 37.6186C87.8732 37.7154 87.8795 37.8927 87.4569 38.1366C87.5402 38.4383 87.6196 38.6395 87.6613 38.7652C87.9286 39.5623 87.945 40.8686 87.3825 41.203C87.2211 41.2986 87.0281 41.3074 86.878 41.5123C86.7519 41.6795 86.7923 41.8002 86.7116 41.9951C86.6308 42.19 86.482 42.3182 86.1087 42.576C85.3406 43.1103 85.3519 43.0437 85.053 43.2788C84.5838 43.6484 84.5397 43.8257 84.1588 43.964C83.952 44.0532 83.7233 44.079 83.5017 44.0382C83.2426 43.9689 83.0125 43.8192 82.8446 43.6107C82.6327 43.3592 82.6466 43.1744 82.494 43.1405C82.3414 43.1065 82.2632 43.2775 82.0096 43.3618C81.7415 43.4338 81.4559 43.401 81.2113 43.27C81.0921 43.2039 80.9902 43.1109 80.9136 42.9984C80.7676 43.0774 80.6095 43.1318 80.4457 43.1593C79.7974 43.2624 79.1075 42.8966 79.0028 43.1053C78.9637 43.1807 79.0293 43.2813 79.052 43.3177C79.2778 43.6735 79.8529 43.451 80.3133 43.6949C80.8077 43.9539 80.9199 44.6203 81.0297 45.2703C81.128 45.8486 81.0587 46.3113 80.9187 47.2379C80.6967 48.7202 80.3915 49.0081 80.2212 49.1237C80.0509 49.2394 79.9488 49.2495 79.8025 49.4267C79.5111 49.7675 79.5956 50.1258 79.2854 50.3068C79.2066 50.3599 79.1107 50.3814 79.0167 50.3672C78.8351 50.3244 78.8465 50.1082 78.6674 50.0415C78.5412 49.9938 78.482 50.0881 78.1111 50.1534C77.9043 50.1886 77.927 50.1534 77.7706 50.1912C77.3922 50.2678 77.2585 50.4426 77.1261 50.376C77.0265 50.3232 77.0744 50.2113 76.9571 50.1358C76.8159 50.0441 76.6103 50.1195 76.5232 50.1509C76.3 50.2339 76.3101 50.3294 76.1449 50.3848C75.9582 50.4489 75.8308 50.3584 75.3982 50.2314C75.093 50.1421 75.1397 50.1824 74.7676 50.0818C74.4501 50.0078 74.1402 49.9047 73.8418 49.7737C73.4849 49.6065 73.1242 49.4381 72.8669 49.0496C72.6863 48.7745 72.5932 48.4516 72.5995 48.123C72.6116 47.8488 72.6904 47.5817 72.8291 47.3447C73.2251 46.6042 73.8381 46.4911 73.8545 45.9618C73.8545 45.836 73.8355 45.6613 73.7498 45.6349C73.5404 45.5682 73.2453 46.5149 72.7938 46.5049C72.5781 46.5049 72.404 46.2811 72.153 45.9668C72.0636 45.8576 71.9822 45.742 71.9096 45.621C71.7663 45.6679 71.6175 45.6963 71.4669 45.7053C71.3686 45.7053 71.0709 45.6914 70.4819 45.6537C70.0543 45.6261 70.0594 45.6236 70.0266 45.6273C69.5133 45.6864 69.3783 46.0548 69.0756 46.1227C68.8864 47.0996 68.4248 48.0576 67.5873 48.5756C66.8836 49.0118 65.6791 49.2809 65.0649 48.9C64.8582 48.7723 64.6673 48.6208 64.496 48.4486C64.1744 48.1066 64.0798 47.8087 63.9562 47.8338C63.8591 47.8527 63.7973 48.0588 63.8137 48.2323C63.8402 48.5027 64.0483 48.5957 64.2665 48.9125C64.4227 49.1358 64.5285 49.3902 64.5768 49.6581C64.6436 50.1094 64.4633 50.4765 64.3132 50.7808C64.1549 51.0966 63.9476 51.3856 63.6989 51.637C63.0355 52.3423 62.4945 52.9169 61.7062 53.02C61.1563 53.0891 61.0831 52.8528 60.3857 52.9646C59.8622 53.0489 59.6907 53.2161 59.3527 53.1155C59.1433 53.0527 58.9605 52.8729 58.596 52.5146C58.2592 52.1852 58.2579 52.1122 57.9981 51.9161C57.7383 51.72 57.679 51.7514 57.4243 51.5389C57.1695 51.3265 57.1569 51.241 56.9198 51.0662C56.6827 50.8914 56.5704 50.8826 56.3762 50.7745C56.1138 50.6287 56.105 50.5231 55.6068 49.9447C55.0493 49.2935 54.7694 49.081 54.7416 48.7327C54.736 48.6308 54.725 48.5293 54.7088 48.4285C54.6785 48.2469 54.6316 48.0685 54.5688 47.8954C54.4515 47.5371 54.6205 47.1411 54.7315 46.877C54.9548 46.349 55.5009 45.6198 56.0848 45.6525C56.2374 45.66 56.2248 45.7116 56.5099 45.7543C56.8327 45.8033 57.2288 45.8687 57.4419 45.6462C57.5554 45.5267 57.6349 45.3055 57.5517 45.2049C57.4053 45.0264 56.9324 45.4299 56.385 45.2501C56.1403 45.1587 55.9319 44.9906 55.791 44.7711C55.5551 44.443 55.5387 44.1148 55.511 43.6396C55.4832 43.1644 55.4706 42.928 55.6005 42.6753C55.6701 42.5541 55.7657 42.4498 55.8805 42.3698C55.4693 42.4 55.0746 42.3471 54.811 42.1447C54.7189 42.0731 54.4503 41.8354 54.3468 41.9033C54.2863 41.9436 54.3191 42.0618 54.3267 42.2441C54.3173 42.4706 54.2843 42.6956 54.2283 42.9154C54.0158 43.7242 53.5247 44.4328 52.8409 44.917C52.4808 45.1725 52.0756 45.3581 51.6465 45.4639C51.0275 45.6231 50.374 45.5839 49.7786 45.352C49.4141 45.2282 49.0951 44.9983 48.863 44.6919C48.7152 44.4681 48.6147 44.2165 48.5678 43.9527C48.4341 43.3303 48.6107 43.0147 48.4417 42.9179C48.2727 42.8211 47.8224 43.0273 47.7581 43.3203C47.7102 43.5302 47.8641 43.7465 47.941 43.8546C48.1075 44.0884 48.2866 44.1475 48.2803 44.311C48.2685 44.3951 48.2269 44.4723 48.163 44.5285C48.0329 44.6687 47.8646 44.7679 47.6787 44.8139C47.4075 44.9042 47.129 44.9707 46.8462 45.0125C45.3605 48.309 44.4688 50.8688 43.9113 54.2684C43.5231 56.6509 43.3463 59.0628 43.3829 61.4763C43.3967 62.4469 43.4447 63.3521 43.509 64.1831C43.5216 64.3491 43.5367 64.5113 43.5506 64.6709C43.58 64.9727 43.6107 65.2631 43.6427 65.5422C43.7912 66.8661 44.0178 68.1801 44.3212 69.4774C44.3452 69.5793 44.3692 69.6786 44.3944 69.7792C44.7804 71.3608 45.3106 72.9041 45.9785 74.3895C46.6103 75.7153 47.3555 76.9844 48.2059 78.1826C48.3244 78.0695 48.4442 77.9563 48.5653 77.8444C49.3574 77.1215 49.9413 76.635 49.9716 76.6739C49.9804 76.6903 49.5932 77.9312 49.1051 79.4474C49.7256 80.3011 50.4004 81.2076 51.1332 82.2134L51.1622 82.2536C52.5798 84.2061 53.546 85.4697 54.2888 86.5748C54.6054 86.385 54.9194 86.1976 55.2474 86.0279C55.878 85.6922 55.9537 85.662 55.9146 85.7966C55.8868 85.8921 55.4857 86.6012 54.9207 87.5705C54.9964 87.6963 55.0708 87.822 55.1427 87.9565C55.183 88.0294 55.4693 88.5449 55.907 89.3395H56.0129C63.1743 88.9623 69.8034 91.937 74.6793 97.7141C75.3755 98.5275 76.0667 99.3925 76.2079 99.6264L76.4867 100.046L77.56 97.9404C78.4429 96.194 81.2882 90.9475 81.7561 90.1894C81.8936 89.9807 81.8268 89.9681 80.9338 89.9304C75.938 89.7205 71.7406 88.2394 67.074 85.0045C65.1229 83.668 59.5886 79.3758 59.4246 79.0816C59.3502 78.9408 59.465 78.9081 60.3945 78.7673C65.6778 77.9651 70.6522 78.8251 75.0249 81.2818C77.3771 82.6019 78.4378 83.4556 80.872 85.9525L82.9669 88.1024L83.8384 86.6729C84.3165 85.8871 85.0896 84.6474 85.5512 83.922C86.0128 83.1966 86.366 82.5906 86.3433 82.5654C86.3206 82.5403 85.753 82.3215 85.0682 82.0738C84.0213 81.6967 82.7437 81.2227 80.3095 79.7592C78.7962 78.8343 77.3724 77.7711 76.0566 76.5834C74.8571 75.511 73.4736 74.0991 69.4691 68.5294C68.4311 67.0849 67.0211 65.0896 65.3865 62.6644C66.3053 62.7512 67.2155 62.9123 68.1082 63.1459C69.2005 63.4325 71.7394 64.2133 76.2319 67.7852C77.1728 68.5332 82.6453 72.8858 84.4867 76.4527C84.6217 76.7129 86.2171 79.8359 86.5476 80.8895C86.5829 80.9989 86.815 81.7583 86.9058 81.7369C86.9114 81.7352 86.9163 81.7316 86.9197 81.7268C86.9701 81.6627 87.7432 80.5236 88.6286 79.2123C89.852 77.4132 91.7149 74.7264 92.097 74.2298C92.1071 74.221 91.4853 74.0425 90.7097 73.8527C86.1692 72.6935 83.3491 70.8252 79.5893 66.4763C77.6268 64.2133 74.4119 60.1398 74.4712 59.9852C74.5191 59.8594 76.4577 59.9437 77.6546 60.1323C81.9655 60.8061 85.9208 63.2502 88.8456 67.0471C90.3074 68.9657 91.6947 71.3218 92.4237 73.1335C92.4688 73.2564 92.5281 73.3737 92.6003 73.483C92.628 73.4755 93.0051 72.9738 93.4529 72.3716C93.9006 71.7694 94.8251 70.536 95.5087 69.6547C96.1923 68.7734 96.7624 68.0278 96.77 68.0001C96.7775 67.9725 96.4193 67.8191 95.9602 67.6381C92.9156 66.4952 91.0641 64.6885 87.7395 59.6658C87.3434 59.0787 86.9449 58.4488 86.8377 58.274L86.6674 57.9597H86.9297C87.5478 57.9773 88.9137 58.2489 89.6742 58.5192C91.1877 59.0548 92.8601 60.1712 94.0381 61.4461C95.1152 62.6128 96.4155 64.7527 97.0651 66.3846C97.1622 66.659 97.2759 66.9273 97.4056 67.188C97.4195 67.188 97.9442 66.5455 98.576 65.766C99.2079 64.9865 100.197 63.7858 100.772 63.1031C101.347 62.4205 101.821 61.8459 101.836 61.8245C101.554 61.7012 101.264 61.5982 100.967 61.5165C97.6579 60.4629 95.7168 58.7367 92.57 54.0258C91.9192 53.0426 91.2999 52.0959 91.1927 51.9199L91.0099 51.5842L91.5282 51.6118C92.8639 51.6546 94.7671 52.3109 96.2453 53.2199C97.2719 53.8573 99.4123 56.1757 100.155 57.4556C100.785 58.5641 101.318 59.7242 101.751 60.9231C101.877 61.2751 101.997 61.5655 102.026 61.5517C102.055 61.5379 102.791 60.7206 103.665 59.7148C104.539 58.709 105.335 57.829 105.425 57.7447C105.543 57.6353 105.481 57.3902 105.123 56.5679C103.61 53.1734 103.306 50.1559 103.548 40.9264L103.586 39.3851L103.973 39.805C104.403 40.2513 105.041 41.3363 105.406 42.2453C106.707 45.4337 107.034 50.8688 106.231 56.1266L106.104 56.9615L106.463 56.5843C108.749 54.1565 110.135 52.6931 110.568 52.2505L111.103 51.7036L110.85 51.1894C109.124 47.7596 108.706 43.9489 109.046 34.6075L109.095 33.2383L109.63 33.9349C111.975 36.9699 112.742 43.2159 111.637 50.303C111.554 50.8449 111.494 51.2938 111.518 51.2799C111.542 51.2661 112.037 50.777 112.633 50.1748L113.713 49.0911L113.638 47.7634C113.444 44.4945 113.777 41.2709 114.792 36.6769C115.17 34.9897 116.975 27.8146 117.062 27.6662C117.149 27.5178 117.419 28.6255 117.554 29.5433C118.185 33.8418 117.22 40.0149 114.854 46.9801L114.342 48.4825L116.873 46.1227C118.984 44.1589 119.638 43.5214 120.692 42.371C121.847 41.1138 122.253 40.7203 125.029 38.1718C128.309 35.1544 128.945 34.6238 131.298 32.958C132.555 32.0555 133.867 31.2325 135.228 30.4938C136.271 29.9381 137.955 29.1322 138 29.1812C138.009 29.1912 137.117 30.0613 136.01 31.1174C132.931 34.0719 127.848 38.7087 126.573 39.7409C124.453 41.476 122.214 43.0607 119.872 44.4832C119.518 44.7221 119.104 45.0226 118.656 45.391C118.009 45.9256 117.403 46.5085 116.844 47.1348C115.066 49.0131 113.196 51.0084 113.254 51.0473C113.254 51.0473 113.264 51.0473 113.276 51.0398C113.368 50.982 113.835 50.6174 114.316 50.2301C117.006 48.1036 119.858 46.1901 122.847 44.5071C126.419 42.5395 129.31 41.457 132.072 41.0497C132.647 40.9604 133.125 40.9051 133.143 40.9239C133.19 40.973 126.458 45.3306 124.646 46.4295C120.534 48.9176 117.164 50.4476 113.91 51.2963L112.688 51.6144L111.687 52.7459C110.678 53.8711 107.513 57.5989 106.463 58.8913C106.031 59.4332 105.958 59.5489 106.141 59.4332C110.652 56.627 113.319 55.2843 116.926 54.0107C119.322 53.1646 122.106 52.7006 124.057 52.8364C124.618 52.8704 125.053 52.9269 125.037 52.9697C125.01 53.0388 120.339 55.3736 118.198 56.3781C113.235 58.7128 109.896 59.7425 106.48 59.999L105.512 60.0757L105.071 60.6075C104.395 61.4373 100.959 65.8603 100.58 66.3997L100.237 66.8787L101.206 66.25C107.613 62.0785 114.265 59.6721 118.618 59.9638C119.161 59.9965 119.586 60.0618 119.561 60.1134C119.523 60.2115 113.74 63.0617 111.712 63.9908C107.465 65.9156 104.54 66.8007 101.381 67.0974C100.909 67.1271 100.438 67.1825 99.9722 67.2634C99.7868 67.3791 96.746 71.6638 94.7293 74.6334L93.8388 75.9384L94.8831 75.1841C98.9305 72.2924 103.934 69.3077 107.991 67.3552C113.582 64.6722 118.342 63.2628 122.507 63.0478C123.714 62.99 124.575 63.0139 124.542 63.0969C124.51 63.1798 117.664 67.0358 114.366 68.8211C105.885 73.4239 100.812 75.3827 94.8756 76.3282C94.1277 76.4476 93.4605 76.5947 93.4012 76.6488C93.2536 76.7846 90.4095 81.2579 89.113 83.3952C87.9778 85.2547 86.7355 87.3845 85.7883 89.0667C85.1791 90.1467 85.0101 90.1982 87.5314 88.4632C90.6518 86.3114 93.8884 84.332 97.2265 82.534C105.834 77.8822 113.551 75.4934 119.283 75.736C119.807 75.7486 120.239 75.7813 120.248 75.7913C119.894 76.0205 119.528 76.2303 119.152 76.42C118.534 76.7594 116.309 77.9878 114.215 79.1419C107.8 82.6911 103.94 84.6738 100.552 86.1913C95.2842 88.5512 90.7021 89.9166 85.9964 90.5351L84.8613 90.6911L84.1159 92.074C83.3138 93.5589 81.7069 96.6416 81.4106 97.2501L81.239 97.6185L82.9669 96.5624C86.1818 94.6074 90.441 92.3607 93.6307 90.9501C96.3068 89.7445 99.0679 88.736 101.892 87.9326C105.503 86.9017 108.713 86.4239 111.547 86.5057C112.892 86.5409 114.973 86.7772 114.931 86.8828C114.909 86.9394 114.832 86.9734 108.573 89.9229C99.8095 94.0655 95.9287 95.6547 91.3971 96.9346C88.0888 97.88 85.1123 98.3917 81.9642 98.5413L80.7383 98.5979L79.5767 100.979C77.9699 104.279 76.7805 106.906 76.8852 106.92C76.9268 106.926 77.6294 106.52 78.4353 106.008C82.7904 103.272 87.4595 100.777 91.4122 99.0857C95.1177 97.5028 99.2647 96.1626 102.133 95.6258C104.032 95.2712 106.493 95.0487 107.991 95.0902C109.365 95.1354 110.731 95.27 110.694 95.368C110.668 95.4372 103.581 98.9726 100.12 100.648C93.6976 103.756 89.3047 105.504 85.1665 106.618C82.5621 107.317 79.3182 107.856 77.0315 107.991L76.3214 108.031L75.6303 109.633C74.5797 112.095 73.7309 114.179 73.7674 114.219C74.0738 114.123 74.3727 114.004 74.6617 113.863C75.7867 113.361 77.9346 112.523 79.2702 112.073C93.0669 107.425 99.9962 110.513 99.9962 110.513C101.253 111.155 102.406 111.981 103.417 112.965C102.211 112.879 100.539 112.791 98.5433 112.79C95.6865 112.79 92.174 112.79 88.0926 113.578C83.0363 114.556 81.9125 115.817 78.2701 115.502C77.0304 115.393 75.8088 115.134 74.6326 114.728C74.2959 115.003 73.717 115.466 73.0523 115.992L71.9941 118.825C71.448 120.287 70.8161 122.021 70.2927 123.49C70.809 123.438 71.324 123.403 71.8377 123.383C72.6626 123.349 74.5658 123.431 74.6806 123.498C74.7638 123.543 71.844 124.934 69.4086 126.027L68.6872 128.191C69.1715 128.017 69.6512 127.859 70.1262 127.717L70.299 127.624C73.6009 125.828 77.0242 124.264 80.5441 122.942C82.3514 122.271 86.3534 121.147 87.9854 120.841C91.4828 120.2 94.7494 120.16 97.2038 120.716C98.431 120.996 98.7867 121.125 98.6076 121.208C98.3415 121.334 90.2279 124.569 88.9036 125.072C82.1433 127.661 77.3393 128.919 73.0044 129.167L72.3321 129.551C70.8426 130.399 69.4855 131.108 68.2041 131.701C68.16 132.441 68.0994 133.288 68.0275 134.177C68.7288 133.959 69.4149 133.77 70.0871 133.616C71.6564 133.25 73.256 133.027 74.866 132.951C75.9052 132.589 76.9281 132.268 77.9245 132.025C83.5648 130.642 87.8252 130.428 91.6014 131.354C92.7365 131.636 94.733 132.373 94.9336 132.59C95.0105 132.673 86.3887 135.199 83.6026 135.918C76.8032 137.658 72.4141 138.069 68.1007 137.316C67.9745 137.348 67.8547 137.378 67.7311 137.407C67.663 138.082 67.581 138.869 67.4789 139.754C69.9307 139.015 72.3902 138.712 74.6036 138.913C75.0526 138.956 75.4865 139.007 75.5697 139.027C75.6782 139.055 75.1422 139.3 73.635 139.907C70.888 141.024 68.9255 141.722 67.1737 142.142L67.1245 142.496C69.0238 141.726 70.9629 141.058 72.9338 140.495C79.8781 138.506 85.1678 138.458 89.1861 140.321C89.6389 140.535 89.9983 140.726 89.9883 140.754C89.9706 140.815 82.4032 142.92 80.4457 143.41C74.5696 144.869 70.6383 145.222 66.8054 144.578C66.6742 145.376 66.5266 146.206 66.3627 147.068C66.3463 147.156 66.1521 148.153 65.8103 149.66C73.524 147.557 80.0131 147.684 84.2824 150.037C85.1312 150.5 86.598 151.556 86.5652 151.659C86.5287 151.738 79.7268 152.675 77.5171 152.916C72.1278 153.493 68.5169 153.273 65.2339 152.095C64.8555 153.633 64.3825 155.382 63.8465 157.124C63.4177 158.517 62.9788 159.793 62.5348 160.975C63.0608 165.322 64.0672 168.438 64.6613 174.838C65.3903 182.699 64.8051 188.065 64.6613 189.282C64.409 191.408 63.9966 194.911 62.7606 198.752C62.5424 199.431 62.42 199.744 62.2561 200.418C61.2168 204.648 62.2851 207.701 61.5296 207.961C60.1776 208.747 46.5549 195.2 48.6914 181.321C49.1367 178.43 50.2264 175.778 51.5923 172.463C54.9976 164.172 59.1257 158.814 60.2179 157.281L60.3163 157.141C60.3163 157.114 60.3289 157.087 60.334 157.063C60.5496 156.199 60.8031 156.01 60.8612 155.243C60.8826 154.972 60.87 154.822 60.9078 154.314C60.9242 154.093 60.9532 153.825 61.0125 153.453C61.0226 153.388 61.0314 153.327 61.0415 153.265C61.0201 152.97 61.0037 152.643 60.9936 152.269C60.9936 152.124 60.986 151.977 60.9835 151.825C60.653 151.933 59.9013 152.598 59.7651 152.716C58.5392 153.776 55.5425 155.463 52.7085 156.249C50.8545 156.762 51.0474 156.34 48.076 157.019C45.4702 157.613 44.1421 158.209 44.0147 157.955C43.8382 157.606 46.1589 156.054 47.8287 155.093C49.0497 154.365 50.3297 153.742 51.6553 153.228C52.3944 152.945 53.4211 152.612 60.0376 151.132L60.9797 150.925C60.9797 149.74 61.0112 148.285 60.9961 146.263L60.6619 146.431C57.8957 147.863 54.992 149.013 51.9946 149.865C50.6968 150.579 49.4999 151.208 49.5049 151.162C49.51 151.117 49.6941 150.775 49.9401 150.393C47.6679 150.912 45.3691 151.308 43.0537 151.577C39.7518 151.977 35.9415 152.378 35.9731 152.313C36.026 152.173 38.4956 150.656 40.0721 149.798C41.7252 148.884 43.4366 148.079 45.1953 147.388C46.2339 146.046 47.422 144.827 48.7368 143.752C45.0477 144.659 38.7175 145.99 38.8487 145.824C38.9988 145.632 41.6537 143.761 42.8153 143.043L43.1546 142.824C41.6903 143.406 40.3899 143.912 40.3799 143.894C40.5329 143.656 40.7014 143.427 40.8843 143.21C43.4068 140.003 46.9169 137.553 51.673 135.712C53.2945 135.075 54.9614 134.559 56.66 134.169C57.1493 134.057 57.5504 133.962 57.5554 133.951C57.5507 133.928 57.544 133.906 57.5353 133.885C54.9245 134.513 52.252 134.85 49.5667 134.891C47.8493 135.861 46.0729 136.723 44.2481 137.473C42.3461 138.268 36.4347 140.521 36.4801 140.424C36.5961 140.173 37.8675 138.718 38.5939 137.985C39.8423 136.74 41.2207 135.631 42.7056 134.677C40.1528 134.514 37.1561 134.283 37.117 134.242C37.0577 134.178 39.4831 132.949 40.8831 132.33C45.7187 130.208 50.7712 129.115 55.6308 129.096C55.6018 129.021 55.5614 128.94 55.5147 128.845C55.2839 128.407 55.1692 128.189 55.0279 128.019C54.7631 127.701 54.42 127.146 54.1097 126.113L53.8575 125.61L53.6569 125.596L53.1436 126C49.6121 128.792 45.9066 130.546 39.9006 132.258C38.9837 132.522 33.3573 134.031 33.1706 134.068C33.0445 134.093 33.2715 133.834 34.0636 133.062C35.6477 131.513 37.817 130.008 40.1844 128.825C41.2917 128.273 44.0311 127.19 45.281 126.823C47.4337 126.186 49.6322 125.714 51.8571 125.411C50.5959 125.254 49.2703 125.034 47.854 124.75C46.2699 124.432 43.6351 123.852 42.0838 123.493C40.7823 124.278 39.4411 124.997 38.0655 125.645C36.2997 126.488 29.9229 129.241 29.8888 129.176C29.8548 129.11 30.7906 127.873 31.4326 127.125C34.5554 123.463 39.3709 120.475 45.2987 118.51C46.2194 118.202 47.7077 117.79 48.4909 117.619C48.702 117.58 48.9096 117.525 49.1114 117.452C49.1329 117.406 48.4102 116.32 47.5248 115.07L46.9459 114.252L46.4716 114.557C44.7208 115.654 42.882 116.604 40.9739 117.398C38.1437 118.549 35.0978 119.369 30.6014 120.175C28.1786 120.614 23.2093 121.432 23.1866 121.391C23.1639 121.349 24.0493 120.602 24.9523 119.926C26.1987 119.038 27.5108 118.244 28.8773 117.554C30.8171 116.592 33.67 115.597 36.248 114.984C39.2475 114.299 42.3064 113.906 45.3819 113.809C45.7497 113.811 46.117 113.785 46.4805 113.729C46.5322 113.685 45.976 112.928 45.136 111.875C44.9922 111.805 44.9153 111.76 44.9216 111.749C44.9461 111.732 44.9734 111.719 45.0023 111.711C44.7652 111.418 44.5092 111.105 44.2456 110.779L43.2807 109.633L42.4647 110.168C40.464 111.487 38.3275 112.589 36.0916 113.455C32.989 114.671 30.2899 115.363 24.1641 116.546C19.7888 117.389 19.7346 117.4 19.7157 117.371C19.6791 117.311 21.0412 116.167 21.9304 115.512C23.8034 114.129 25.9664 112.958 28.4422 111.991C30.2958 111.263 32.2052 110.685 34.1518 110.261C36.6225 109.735 39.1293 109.395 41.6512 109.243L42.8784 109.181L42.7358 109.002C42.4937 108.707 41.1908 107.274 40.5451 106.597L39.9447 105.962L39.1804 106.384C36.0646 108.134 32.6979 109.397 29.1977 110.128C26.8354 110.645 24.1237 111.043 19.5984 111.534L16.1173 111.911C15.8608 111.952 15.6015 111.974 15.3417 111.976C15.3417 111.965 15.6305 111.74 15.9723 111.485C19.756 108.628 25.0532 106.697 31.1173 105.964C33.3996 105.678 35.7004 105.564 37.9999 105.625C39.8047 105.676 39.6887 105.716 39.2019 105.236C38.4451 104.482 37.455 103.559 36.5621 102.771C35.5405 101.86 33.3119 100.02 33.2034 99.9935C33.1605 99.9822 32.7065 100.191 32.202 100.456C28.1925 102.57 24.6799 103.558 18.7067 104.274C16.3835 104.555 11.5479 105.029 11.5176 104.986C11.4873 104.943 12.0587 104.521 12.8633 103.995C15.6381 102.195 18.906 100.963 22.8183 100.244C25.8848 99.7105 29.0003 99.5119 32.1099 99.6515L32.8591 99.693L32.1692 99.1813C30.6027 98.0158 28.2593 96.4053 28.1269 96.4153C28.0928 96.4153 27.664 96.6668 27.1784 96.9559C25.0608 98.227 23.0542 98.9675 20.0903 99.5962C18.6751 99.8879 14.6215 100.578 14.59 100.525C14.5686 100.501 14.8422 100.255 15.2029 99.9784C18.0672 97.7317 22.6619 96.3185 27.2301 96.2745H27.9201L27.6564 96.096C27.3638 95.8898 24.7468 94.3635 24.2347 94.0907L23.9017 93.9197L23.2535 94.3207C20.9693 95.7402 18.6764 96.5762 15.2067 97.2464C13.7109 97.5368 10.4342 98.0724 10.414 98.0359C10.3938 97.9995 10.6839 97.7681 11.0535 97.4815C12.3374 96.4757 14.2192 95.4925 15.8714 94.967C18.3611 94.1787 20.2315 93.8807 23.4389 93.7562C23.565 93.7562 23.512 93.7047 23.1866 93.5224C22.3908 93.0974 20.0058 91.937 19.2528 91.6114L18.496 91.2794L17.6624 91.6277C15.4413 92.5518 13.0891 93.0459 10.1719 93.2106C8.88539 93.281 4.08888 93.3451 4.1179 93.2885C4.34972 93.1365 4.59018 92.998 4.83806 92.8736C6.70218 91.8678 8.70125 91.2794 11.2199 90.9978C13.2477 90.7899 15.2925 90.811 17.3155 91.0607C17.6636 91.1097 18.0016 91.1499 18.0723 91.1474C18.0811 91.1474 18.0849 91.1474 18.0874 91.1474C18.1189 91.0871 16.7265 90.5477 15.4073 90.0486ZM56.2223 14.8711C56.1031 14.9964 56.0081 15.1426 55.9423 15.3024C55.8899 15.4406 55.8588 15.586 55.8502 15.7336C55.825 15.9348 55.6611 16.1108 55.463 16.2503C55.5236 16.4125 55.5803 16.5634 55.6346 16.703C55.64 16.6606 55.648 16.6186 55.6585 16.5772C55.7159 16.334 55.8374 16.1105 56.0104 15.9297C56.1843 15.7866 56.4017 15.7064 56.6272 15.7022C56.4934 15.3788 56.3965 15.0414 56.3383 14.6964C56.3081 14.7598 56.269 14.8186 56.2223 14.8711ZM72.1139 24.7029H72.1039C72.0448 24.7365 71.994 24.7829 71.9552 24.8385C71.9163 24.8942 71.8904 24.9578 71.8794 25.0247C71.8062 25.3378 72.0282 25.5729 72.2817 25.8696C72.2388 25.5666 72.1833 25.1781 72.1152 24.7029H72.1139ZM49.5238 33.2371C49.3548 32.8863 48.9613 32.9266 48.7255 32.6198C48.6763 32.5543 48.6392 32.4807 48.6158 32.4023C48.4169 32.5663 48.2061 32.7155 47.9851 32.8486C48.926 33.1529 49.4204 33.7287 49.5693 33.603C49.6399 33.5401 49.5781 33.344 49.5251 33.2371H49.5238ZM61.5246 30.744C61.6974 31.0595 61.8727 31.3789 62.0417 31.702C62.7048 32.0798 63.3891 32.4194 64.0912 32.7191C64.0693 32.7066 64.0483 32.6927 64.0281 32.6776C63.8998 32.5755 63.7952 32.4468 63.7216 32.3004C63.5148 31.8843 63.7784 31.3726 64.0748 30.8005C64.2968 30.3693 64.4179 30.1392 64.6449 29.9041C64.4822 29.5206 64.322 29.0894 64.1568 28.6469C63.9234 28.0182 63.7708 27.5078 63.6523 27.0941C63.1809 26.8877 62.743 26.6123 62.3532 26.2769C61.9269 26.8339 61.5271 27.7328 61.3442 28.1565C61.132 28.6075 60.9434 29.0691 60.7792 29.5395C61.0502 29.9269 61.2995 30.329 61.5258 30.744H61.5246ZM64.4431 32.8813C64.3986 32.8513 64.3496 32.8284 64.298 32.8134L64.4431 32.8813ZM63.5753 7.82171C63.5522 7.81305 63.528 7.80715 63.5035 7.80411C63.434 7.7955 63.3635 7.79933 63.2953 7.81543C63.395 7.8104 63.4883 7.81291 63.5766 7.8192L63.5753 7.82171ZM71.6965 9.03622C71.5628 9.20595 71.4959 9.46746 71.588 9.55295C71.6549 9.61582 71.7986 9.57432 71.9109 9.53158C71.8768 9.34173 71.8213 9.3103 71.815 9.10914C71.8118 9.04333 71.8173 8.97738 71.8314 8.91301C71.7792 8.94537 71.7334 8.98716 71.6965 9.03622ZM86.9575 29.1523C86.8887 29.0777 86.8082 29.0149 86.7191 28.9662C86.6863 29.005 86.6504 29.0411 86.6119 29.0743L86.3597 29.283C86.4492 29.4892 86.5552 29.6602 86.4858 29.889C86.47 29.9418 86.4462 29.9918 86.4152 30.0374L86.5085 29.9657C86.701 29.7989 86.881 29.6182 87.047 29.4251L87.0899 29.3811C87.0617 29.2976 87.0176 29.2203 86.96 29.1535L86.9575 29.1523ZM77.565 33.5816C78.7556 33.8406 79.3509 33.9701 79.5275 33.9588C79.6113 33.9494 79.6955 33.9452 79.7798 33.9462C79.2273 33.3025 79.1491 33.1793 79.1227 32.9215C79.0962 32.6638 79.1353 32.4186 79.0974 32.2137C78.3679 32.4326 77.617 32.5734 76.8575 32.6336C75.2998 32.7317 74.5179 32.572 74.499 32.6789C74.4662 32.8549 76.6405 33.3804 77.5676 33.5828L77.565 33.5816ZM72.8543 34.6653L72.8139 34.644C72.8276 34.6526 72.8419 34.6602 72.8568 34.6666L72.8543 34.6653ZM73.8545 29.7972C75.0086 29.8668 76.1658 29.8706 77.3204 29.8086C77.1055 29.5789 76.9539 29.2979 76.8802 28.9926C76.8103 28.6841 76.8211 28.3628 76.9117 28.0597C76.942 27.7882 76.9823 27.592 76.8676 27.5015C76.7528 27.411 76.575 27.4487 76.4476 27.5178C76.1562 27.675 76.2231 28.0069 75.9532 28.3979C75.8118 28.6004 75.6213 28.7639 75.3995 28.8732C74.7777 29.1447 73.5846 28.5098 72.8556 27.5116C72.8392 27.6123 72.8117 27.711 72.7736 27.8058C72.713 27.9566 72.5213 28.374 71.6864 28.7902C71.5249 28.8706 71.308 28.9775 71.0646 29.0794C71.2096 29.1158 71.332 29.1523 71.4291 29.1812C72.013 29.3509 72.5352 29.5043 72.9855 29.747L73.8545 29.7972ZM66.4333 26.5384C66.1495 26.7333 65.8027 27.1055 65.2982 27.2614C65.2185 27.2856 65.1371 27.3041 65.0548 27.3167C65.3247 27.5895 65.6778 27.758 66.263 28.491C66.3892 28.6531 66.5014 28.799 66.5922 28.9373C66.747 28.8934 66.9052 28.8626 67.0652 28.8455C67.2231 28.8278 67.3823 28.8248 67.5407 28.8367C67.1332 28.09 66.7636 27.3234 66.4333 26.5397V26.5384ZM45.5396 9.07771C45.2142 8.99096 44.8938 8.70053 44.909 8.45788C44.909 8.32084 45.0237 8.23032 44.9783 8.175C44.9594 8.15111 44.9064 8.131 44.7185 8.18883C44.5326 8.2491 44.3569 8.33728 44.1976 8.45034C44.0811 8.5235 43.9533 8.57703 43.8193 8.60876C43.9374 8.64497 44.0502 8.69654 44.1547 8.76214C44.4586 8.96475 44.6886 9.25976 44.8106 9.60324C44.9998 10.1539 44.769 10.5386 45.0048 11.0981C45.0981 11.2765 45.2092 11.445 45.3365 11.601C45.416 11.7091 45.4904 11.8034 45.5888 11.806C45.6218 11.8073 45.6547 11.8008 45.6847 11.787C45.7148 11.7733 45.7411 11.7526 45.7616 11.7267C45.8662 11.5683 45.5497 11.2942 45.4147 10.9498C45.2205 10.4544 45.4513 9.94396 45.5345 9.75286C45.6394 9.52216 45.793 9.31674 45.9848 9.15063C45.865 9.07897 45.7527 9.13429 45.5396 9.07771ZM55.6409 11.7707C55.5274 11.7707 55.5009 11.7406 55.0103 11.5092C54.5663 11.3018 54.5676 11.3118 54.4629 11.2502C54.2534 11.1258 54.0606 10.9754 53.889 10.8027C53.5333 10.4607 53.295 10.2457 53.1058 10.0747C53.2445 10.3538 53.3933 10.7033 53.5623 11.1145C53.778 11.0617 53.9332 11.1585 54.6155 11.464C55.511 11.865 55.4719 11.7997 55.6182 11.9116C55.9331 12.1648 56.1668 12.5044 56.2904 12.8884V12.8532C56.2937 12.4352 56.3397 12.0185 56.4279 11.6098C56.3724 11.6224 56.2955 11.6563 56.2173 11.684C56.0322 11.7485 55.8367 11.7779 55.6409 11.7707ZM59.9001 12.5729C59.726 12.6068 59.6201 12.5603 59.4246 12.5264C59.1597 12.4824 59.1345 12.5264 58.8041 12.5264C58.8406 12.8872 58.8848 13.3134 58.9504 13.8201C59.1774 15.5802 59.2934 15.4168 59.5015 16.9418C59.5659 17.0085 59.6277 17.0764 59.6882 17.1468C59.7197 17.1845 60.0741 17.8395 60.7842 19.1508C60.8977 19.3608 60.9873 19.528 61.0604 19.6701C61.1546 19.5457 61.2592 19.4296 61.3732 19.3231C61.3775 18.0533 61.4753 16.7855 61.6658 15.5299C61.7983 14.6813 61.9534 13.9797 62.1211 13.326C61.9624 13.2301 61.8125 13.1203 61.6734 12.9978C61.4484 12.7991 61.2564 12.5662 61.1046 12.3076C61.038 12.3211 60.9706 12.3299 60.9028 12.334C60.6745 12.3466 60.5156 12.3026 60.2721 12.4031C60.1132 12.4673 60.0666 12.5364 59.9001 12.5729ZM62.9737 7.81417C62.8438 7.7529 62.7416 7.64521 62.6874 7.51243C62.5573 7.63889 62.4502 7.78694 62.3709 7.94995C62.3332 8.02324 62.3036 8.10039 62.2826 8.18003C62.5093 8.00366 62.7761 7.88577 63.0595 7.8368C63.03 7.83311 63.0012 7.82549 62.9737 7.81417ZM76.6204 17.3844C76.1234 16.9682 76.1487 17.0072 76.0768 16.928C75.7678 16.5911 75.7917 16.4251 75.4537 16.1045C75.3087 15.9675 75.3276 16.024 75.1006 15.8241C74.7222 15.5048 74.6642 15.3539 74.3917 15.1578C74.2581 15.2835 74.0991 15.4306 73.9137 15.5915C74.2795 15.8769 74.7966 16.3899 75.6454 17.4196C75.9393 17.7754 76.1575 18.0482 76.3214 18.2707C76.4134 18.2856 76.4962 18.3346 76.5535 18.4078C76.6304 18.5235 76.5838 18.6592 76.7276 18.8755C76.8184 19.0075 77.0088 19.2087 77.1425 19.1709C77.3292 19.1169 77.1627 18.6567 77.3771 18.3374C77.4802 18.1985 77.628 18.0991 77.7958 18.0558C77.6149 18.0411 77.4381 17.9942 77.2737 17.9175C77.1715 17.8672 77.1778 17.8533 76.6204 17.3844ZM79.0041 16.5823C78.7816 16.5426 78.5614 16.491 78.3445 16.4276C77.9056 16.2931 77.6735 16.1573 77.6369 16.2088C77.6003 16.2604 77.7555 16.4113 78.0557 16.7306C78.3558 17.05 78.3911 17.0613 78.4529 17.1883C78.487 17.2587 78.6409 17.6044 78.4933 17.8345C78.4506 17.8966 78.3923 17.9464 78.3243 17.9791C78.421 17.9791 78.5206 17.9791 78.6232 17.9791C78.62 17.9431 78.627 17.9069 78.6434 17.8747C78.663 17.8397 78.6895 17.809 78.7214 17.7846C78.7533 17.7602 78.7898 17.7425 78.8288 17.7326C78.9814 17.7125 79.1164 17.8898 79.1492 17.9325C79.1726 17.9629 79.1925 17.9958 79.2084 18.0306C79.3232 18.0457 79.438 18.0608 79.549 18.0784L79.5036 18.018C79.3106 17.7553 79.2841 17.4736 79.2513 17.192C79.2335 16.9881 79.2683 16.7829 79.3522 16.5961C79.236 16.6044 79.1193 16.5997 79.0041 16.5823ZM76.1814 35.8547C76.247 35.8258 76.3076 35.7994 76.3757 35.773C76.0402 35.7265 75.6971 35.6636 75.3516 35.5831C75.4776 35.713 75.5901 35.8554 75.687 36.0081C75.8674 35.944 76.0351 35.8937 76.1814 35.8547ZM47.3747 108.702C47.1517 108.862 46.9382 109.035 46.7353 109.219C46.7226 109.247 46.9383 109.546 47.2082 109.884C47.3848 110.102 47.6698 110.469 47.9561 110.841C48.9651 110.58 49.9388 110.372 50.857 110.224C51.06 109.972 51.2631 109.728 51.4548 109.501C50.495 109.302 48.9676 108.964 47.4743 108.621L47.3747 108.702ZM52.4386 117.542C52.682 117.956 53.1499 118.784 53.4715 119.394C53.575 119.588 53.6759 119.771 53.7654 119.927C54.0177 119.917 54.2825 119.912 54.5398 119.908C54.9888 119.338 55.8162 118.347 56.3888 117.709C56.8504 117.197 57.3217 116.703 57.8026 116.227C56.6861 116.014 55.5814 115.744 54.4931 115.416C53.9357 115.743 53.358 116.055 52.7703 116.355C52.5127 116.476 52.2626 116.612 52.0211 116.763C52.1426 117.032 52.2821 117.292 52.4386 117.542ZM51.5797 145.453C53.0276 145.147 54.4923 144.927 55.9663 144.793C57.0835 144.136 58.2469 143.561 59.4473 143.071C60.3516 142.694 60.4386 142.65 60.4185 142.518C60.3768 142.287 59.9758 140.96 59.639 139.895C58.7587 140.318 57.8728 140.714 56.9816 141.082C55.4794 142.658 53.7843 144.026 51.5797 145.449V145.453ZM63.7128 146.77C63.3962 148.266 63.091 149.714 63.0381 149.992L62.9371 150.495L63.6094 150.3C64.2384 148.309 64.709 146.272 65.0169 144.207L64.3157 144.034L63.7128 146.77ZM62.8463 151.108C62.8186 151.108 62.608 152.212 62.3746 153.497C62.6912 152.807 62.9926 152.068 63.2777 151.273C63.1409 151.204 62.9977 151.149 62.8501 151.108H62.8463ZM62.0896 144.748L62.4516 142.709H62.3494C61.9989 142.701 61.6483 142.718 61.3001 142.758C61.4651 143.354 61.5948 143.959 61.6885 144.571L61.7112 144.725L62.0896 144.748ZM61.2231 142.651L62.0215 142.174C62.2157 142.057 62.4125 141.945 62.6092 141.835L62.6773 141.45C62.9876 139.77 63.2335 138.346 63.2689 138.115L63.1427 138.125C62.9258 138.218 62.4654 138.447 61.937 138.727C61.493 138.966 61.0541 139.195 60.6064 139.418C60.7325 139.994 60.9002 140.897 61.0087 141.493L61.2231 142.651ZM67.9455 120.806C68.0628 120.446 68.1978 120.04 68.3391 119.631C68.0733 119.827 67.8123 120.015 67.5558 120.196C67.6214 120.615 67.6811 121.026 67.7349 121.43C67.8018 121.232 67.8749 121.022 67.9455 120.806ZM60.8586 120.545C61.961 119.683 63.1151 118.89 64.3144 118.168C64.2303 117.665 64.1416 117.168 64.0483 116.677C63.5362 116.7 63.0288 116.709 62.526 116.704C60.8542 117.983 59.0541 119.086 57.1544 119.996C58.4002 120.095 59.6378 120.278 60.8586 120.545ZM61.6229 110.836C62.0013 110.945 62.3999 111.071 62.7972 111.213C62.7278 110.962 62.6584 110.701 62.5891 110.45C62.2107 110.479 61.8613 110.498 61.5687 110.505C61.3023 110.501 61.0358 110.516 60.7716 110.551C60.7565 110.571 61.1475 110.696 61.6229 110.836ZM65.4067 110.585C65.8784 110.34 66.3526 110.111 66.8293 109.897C66.3337 109.987 65.8065 110.073 65.2742 110.148L65.4067 110.585ZM71.1226 108.878C70.1994 109.79 68.2318 111.697 67.0955 112.776L66.8432 113.01C67.669 113.448 68.4574 113.952 69.2005 114.519C70.0304 115.181 69.8626 115.355 70.8855 112.726C71.39 111.447 71.9752 109.972 72.2111 109.437L72.6298 108.467L71.1226 108.878ZM66.8659 116.422C66.8899 116.535 66.9126 116.648 66.9353 116.76C67.328 116.574 67.721 116.398 68.1146 116.232C67.6958 116.303 67.2796 116.366 66.8659 116.422ZM59.7815 135.938C59.8168 136.079 59.8509 136.216 59.885 136.349C60.6938 136.207 61.5052 136.088 62.3191 135.992C62.9498 135.919 63.5388 135.85 63.6245 135.844C63.7633 135.836 63.7935 135.79 63.8452 135.569C63.8743 135.423 64.0975 134.465 64.3384 133.431C64.3586 133.352 64.3762 133.274 64.3951 133.199C63.0454 133.626 61.6644 133.948 60.2646 134.162C59.9718 134.198 59.6815 134.253 59.3956 134.325C59.3943 134.344 59.5646 135.067 59.7878 135.937L59.7815 135.938ZM62.5954 129.847C63.1402 129.973 63.7986 130.144 64.1757 130.257C64.5478 130.047 64.9186 129.848 65.2831 129.661C65.3474 129.45 65.418 129.21 65.4924 128.948C65.4659 128.532 65.4369 128.108 65.4054 127.682C63.3516 128.437 61.2214 128.967 59.0525 129.262C60.2463 129.385 61.4316 129.58 62.6017 129.846L62.5954 129.847ZM57.312 127.951C57.3625 128.084 57.3864 128.102 57.4785 128.043C57.5365 128.008 57.9351 127.779 58.3614 127.54C60.5024 126.296 62.7757 125.294 65.1393 124.551C65.1393 124.533 65.1393 124.514 65.1393 124.495C62.0278 125.286 59.2959 125.684 56.4657 125.702C56.5326 125.898 56.6688 126.26 56.8327 126.672C57.0623 127.287 57.2805 127.863 57.3183 127.95L57.312 127.951ZM57.119 104.031C57.9834 103.352 58.8638 102.726 59.7601 102.152C58.9138 100.07 58.0826 98.2962 57.3562 96.8805C56.2046 98.8267 55.54 99.8451 54.6584 101.102C53.7893 102.346 52.8405 103.533 51.818 104.655C53.5681 104.309 55.3426 104.1 57.1254 104.029L57.119 104.031ZM58.8293 94.7268C59.9884 96.961 60.9734 99.0468 61.8058 100.941C63.1055 100.237 64.4603 99.6387 65.8569 99.1524C65.0525 98.7988 64.2688 98.4001 63.5098 97.958C62.0253 97.0917 60.9053 96.3462 58.8356 94.7268H58.8293ZM73.8179 105.735C74.2934 104.688 74.9442 103.259 75.2822 102.556C75.6202 101.853 75.8661 101.271 75.8434 101.247C75.5222 101.192 75.1969 101.164 74.871 101.161C72.3563 101.077 69.8684 100.618 67.4902 99.7986C65.9995 101.265 63.8263 103.375 63.1263 104.027L63.1099 104.042L63.2121 104.3C64.2835 103.686 65.4 103.154 66.5519 102.708C67.3641 102.392 68.0364 102.15 68.0427 102.17C68.049 102.19 67.0337 103.455 65.8077 104.893C66.6906 105.113 67.5735 105.369 68.445 105.67C69.6608 106.097 71.926 107.107 72.6184 107.521C72.7085 107.598 72.8186 107.649 72.9363 107.668C72.9565 107.649 73.3575 106.779 73.8179 105.735ZM74.1206 114.544L73.6514 114.392L73.5606 114.634C73.7561 114.6 73.9465 114.57 74.1206 114.544ZM65.5568 139.031C65.4306 139.498 65.3045 140.037 65.162 140.591L65.4533 140.466C65.4929 140 65.5273 139.521 65.5568 139.031ZM64.6739 142.583C64.5225 143.212 64.4216 143.635 64.4305 143.643C64.4393 143.65 64.7269 143.528 65.1443 143.349C65.1822 143.075 65.2187 142.795 65.2515 142.513C65.056 142.539 64.8631 142.562 64.6701 142.583H64.6739ZM61.8928 185.308C62.0972 180.497 62.1981 178.09 61.6406 175.357C61.5145 174.767 61.1172 172.93 60.6064 170.275C60.1662 171.813 59.8232 173.587 59.2896 176.353C58.7334 179.233 58.2807 181.939 58.2138 187.38C58.147 193.059 58.128 193.184 58.8066 196.587C59.1353 198.238 59.3901 199.516 59.5709 200.419C59.8231 199.49 60.228 197.737 60.8675 194.939C61.6229 191.591 61.7402 188.831 61.8891 185.308H61.8928ZM55.5791 196.563C55.2146 191.632 55.4529 188.326 55.4529 188.326C55.931 181.677 56.1857 178.281 56.998 174.78C57.4407 172.871 57.7547 171.5 58.0284 170.485C56.2286 173.7 54.6748 176.292 53.778 179.789C52.1926 185.957 53.5623 191.807 55.5753 196.563H55.5791ZM61.8588 146.291C61.8903 146.016 61.9055 145.852 61.9004 145.845C61.8775 145.849 61.8553 145.856 61.8348 145.867C61.8424 146.027 61.85 146.169 61.855 146.291H61.8588ZM60.8939 144.678H60.9646C60.9356 144.156 60.8498 143.535 60.5862 143.474C60.4386 143.439 60.286 143.6 60.0464 143.851C59.7487 144.163 59.5066 144.422 59.3123 144.63C59.8572 144.632 60.3882 144.646 60.8902 144.678H60.8939ZM57.1102 134.729C55.8382 136.009 54.4395 137.158 52.9355 138.157C54.7688 137.521 56.6415 137.002 58.5417 136.606C58.4547 136.363 58.3626 136.103 58.268 135.837L57.6614 134.178L57.1102 134.729ZM59.1913 133.638L59.5558 133.355L59.1396 133.473L59.1913 133.638ZM48.897 117.848C47.6812 119.186 46.3543 120.419 44.9304 121.535C46.8453 120.906 48.8138 120.452 50.8116 120.18C50.7523 120.081 50.693 119.983 50.635 119.888L49.1972 117.518L48.897 117.848ZM50.8999 115.039C51.7827 116.422 51.6566 116.381 52.1611 115.522C52.2973 115.289 52.4487 115.045 52.6114 114.791C51.895 114.54 51.0386 114.223 50.162 113.891C50.3802 114.231 50.6527 114.652 50.8999 115.039ZM46.3178 108.36L45.8486 108.252L46.2106 108.665L46.3178 108.36ZM41.9678 104.147C42.2478 104.389 43.6288 105.822 44.5949 106.859C45.5198 106.475 46.4485 106.129 47.381 105.823C49.5062 101.076 52.3919 96.9949 55.7203 93.975L55.709 93.9838C54.8955 92.8234 54.2043 91.7459 53.3126 90.2938C52.5306 91.6013 51.7613 92.8674 51.3047 93.5827C48.4594 98.0661 45.7893 101.086 42.4937 103.578C41.9047 104.025 41.8605 104.066 41.9678 104.149V104.147ZM38.9685 101.485C39.3305 101.783 39.9372 102.299 40.3155 102.632L41.0016 103.238L42.2263 100.73C43.649 97.8147 44.2897 96.7146 45.7452 94.6715C47.6042 92.0677 49.708 89.865 51.9971 88.1225L51.4712 87.2499L51.4599 87.2311C51.0058 86.4843 50.5232 85.678 50.012 84.8121L49.9628 84.7292C49.8871 84.6034 49.8102 84.4677 49.732 84.3344C49.6651 84.22 49.5957 84.1018 49.5264 83.9811L49.4356 83.8264L49.2325 83.4757C49.2022 83.4216 49.1707 83.3688 49.1392 83.3147L48.9235 82.9376L48.8415 82.7943L48.5363 82.2599C48.4644 82.1342 48.3938 82.0085 48.3244 81.8827C48.1466 82.4284 47.9776 82.9514 47.8199 83.4116C46.5902 87.123 45.6758 89.4464 44.4146 91.9948C42.8771 95.1204 41.4153 97.3231 39.1363 99.9419C38.6999 100.445 38.3379 100.867 38.3278 100.89C38.3177 100.913 38.6141 101.189 38.9685 101.486V101.485Z" fill="#E2E2E1"/>
</svg>
