<svg width="138" height="208" viewBox="0 0 138 208" fill="none" xmlns="http://www.w3.org/2000/svg">
<path d="M71.3198 2.49896C71.3518 2.43391 71.3531 2.43009 71.3198 2.49896V2.49896Z" fill="#E2E2E1"/>
<path d="M122.593 90.0486C123.02 89.8633 123.468 89.7331 123.928 89.6614C124.218 89.6159 124.511 89.5911 124.804 89.5872C126.409 89.6785 128.02 89.6039 129.61 89.3646C130.535 89.2289 134.26 88.3224 136.528 87.6711C137.343 87.4423 138.001 87.2411 137.996 87.2298C137.97 87.1733 136.792 86.9557 136.062 86.8652C135.134 86.7535 134.199 86.7224 133.267 86.7722C131.58 86.8501 131.115 86.9281 128.711 87.5265C126.675 88.0294 126.375 88.12 125.514 88.4733C124.725 88.7951 124.244 88.9397 122.694 89.3433L120.835 89.8311L121.289 89.0051C123.392 85.1717 124.504 81.2428 124.416 77.8972C124.396 77.1831 124.29 76.2754 124.234 76.3345C124.177 76.3936 122.419 80.6456 122.04 81.6665C121.015 84.45 120.548 86.5786 120.426 88.9925L120.374 89.9706L119.575 90.2322C119.133 90.3792 118.767 90.4962 118.75 90.4937C118.784 90.2774 118.836 90.0643 118.905 89.8562C120.18 85.3452 120.151 80.5526 118.828 77.2988L118.528 76.5532L118.389 77.5025C117.449 83.9735 117.433 86.8728 118.315 90.1165L118.441 90.6018L118.052 90.7426C117.732 90.8545 116.701 91.2455 114.999 91.893L114.733 91.9973L114.878 91.4617C115.814 88.1074 116.013 84.0968 115.395 81.2239C115.223 80.4001 114.969 79.5954 114.638 78.8213L114.412 78.341L114.269 79.4173C113.401 85.8506 113.371 88.1351 114.113 91.2556C114.287 92.0099 114.31 92.2098 114.223 92.2312C114.158 92.2475 113.567 92.5078 112.906 92.8045C112.246 93.1012 111.688 93.3476 111.675 93.3376C111.612 93.1496 111.567 92.9559 111.542 92.7592C111.339 91.6755 111.075 90.6043 110.75 89.5507C110.354 88.2935 109.11 85.6432 108.479 84.709C107.57 83.3713 106.358 82.0135 105.476 81.3559L105.13 81.0932L105.224 81.4163C105.282 81.5923 105.62 82.5478 105.981 83.5536C107.705 88.3727 108.86 90.5075 110.974 92.8083C111.283 93.1402 111.53 93.4256 111.527 93.4369C111.523 93.4482 111.156 93.6305 110.722 93.8455C110.288 94.0605 109.54 94.4477 109.062 94.7055C108.584 94.9632 108.187 95.1694 108.179 95.1656C108.172 95.1618 108.097 94.8324 108.017 94.4364C107.636 92.7467 107.088 91.0987 106.381 89.5168C105.679 88.0303 104.781 86.6435 103.712 85.393C103.164 84.7862 102.57 84.2229 101.935 83.7083L101.762 83.5825L101.854 83.9006C101.912 84.0754 102.129 84.709 102.346 85.3113C104.165 90.4346 105.254 92.5857 107.185 94.8236C107.367 95.0255 107.535 95.2384 107.69 95.4611C107.681 95.4762 107.252 95.7339 106.725 96.0419C106.198 96.35 105.494 96.7824 105.154 97.0062C104.945 97.1496 104.728 97.2794 104.503 97.3947C104.465 97.2867 104.435 97.1762 104.412 97.0641C104.069 95.4296 103.33 93.1138 102.507 91.0657C100.859 86.9972 98.4248 83.409 95.6186 80.9084C94.8391 80.2118 93.559 79.2438 93.5186 79.3104C93.4782 79.377 95.2843 83.7912 96.4194 86.3171C98.5787 91.1663 100.305 93.8153 103.23 96.7674C103.728 97.2615 104.127 97.6789 104.113 97.6814C103.823 97.8549 102.381 98.8871 101.432 99.5899C100.744 100.108 100.144 100.553 100.106 100.576C100.068 100.598 99.9875 100.289 99.9232 99.8074C99.7643 98.6947 99.4553 97.1232 99.1336 95.8219C97.5331 89.1824 94.7193 83.5159 91.0264 79.4537C91.2029 79.1306 91.3732 78.815 91.5309 78.5095C91.599 78.3838 91.6646 78.2581 91.7301 78.1323C91.9269 77.7627 92.1148 77.4057 92.2939 77.0612L92.6408 76.3873C92.7526 76.1677 92.8611 75.9535 92.9662 75.7448C93.1238 75.4305 93.2726 75.1288 93.4152 74.8371C93.9361 73.7684 94.3573 72.8469 94.7004 72.0498L94.7912 71.8348C95.1494 70.9899 95.4218 70.2883 95.6173 69.7037C95.635 69.6547 95.6514 69.6069 95.6665 69.5591C95.8914 68.9167 96.0804 68.2623 96.2328 67.5991C96.9736 64.285 97.2285 60.8815 96.9895 57.4945C96.9895 57.4556 96.9832 57.4178 96.9807 57.3789C96.9328 56.7414 96.8722 56.1631 96.8079 55.6514C96.7743 55.3857 96.7398 55.1393 96.7045 54.9121C96.6856 54.7864 96.6666 54.6607 96.6477 54.5475C96.6238 54.4067 96.6023 54.2747 96.5796 54.1528C96.5632 54.061 96.5481 53.9742 96.533 53.8938C96.5178 53.8133 96.5002 53.7228 96.4863 53.6499C95.8859 50.5796 94.9842 48.0865 93.4063 44.8642L93.5325 44.8415C93.9462 44.7573 93.9676 44.6781 94.3334 44.6328C94.5679 44.6027 94.6827 44.619 95.0472 44.5637C95.1822 44.5483 95.315 44.518 95.4432 44.4732C95.6476 44.394 95.6665 44.3298 95.8481 44.2758C95.9873 44.2407 96.131 44.2263 96.2744 44.233C96.5746 44.233 96.6414 44.2682 96.7486 44.2054C96.7981 44.1766 96.84 44.1365 96.871 44.0884C96.9019 44.0403 96.9209 43.9856 96.9265 43.9288C96.9328 43.8144 96.8596 43.7603 96.7575 43.583C96.6881 43.4547 96.6328 43.3195 96.5922 43.1795C96.5279 42.9418 96.5922 42.7734 96.6402 42.5181C96.6735 42.1671 96.6883 41.8146 96.6843 41.462C96.6843 41.1842 96.6957 40.8674 96.6843 40.4839C96.6503 39.8331 96.5808 39.1847 96.4762 38.5414C96.4416 38.1845 96.3505 37.8353 96.2063 37.5067C96.1079 37.293 95.9288 36.9158 95.693 36.9196C95.5921 36.9196 95.5189 36.9925 95.4004 37.1057C95.1569 37.342 95.1733 37.4904 94.9955 37.689C94.8377 37.8718 94.6184 37.9907 94.3788 38.0235C94.0433 38.0536 93.651 37.8663 93.646 37.6815C93.6409 37.4967 94.0773 37.4451 94.5377 37.0529C94.8334 36.7871 95.0645 36.4578 95.2137 36.0898C95.5391 35.2298 95.1178 34.2882 94.5288 33.6306C94.5836 33.5999 94.6366 33.5663 94.6878 33.53C94.8353 33.4219 95.2402 33.1214 95.2768 32.6814C95.2949 32.4525 95.2477 32.2233 95.1405 32.0201C95.0434 31.8566 94.9451 31.8063 94.9337 31.663C94.9198 31.487 95.0434 31.2745 95.186 31.2494C95.4622 31.2016 95.7535 31.8353 95.7699 31.878C96.0222 32.4236 95.8065 32.655 95.9616 33.0812C96.1735 33.657 96.8445 34.0229 97.4032 34.1033C98.0755 34.2027 98.585 33.8858 99.1311 33.5451C100.349 32.7908 101.213 31.4732 101.263 30.8697C101.273 30.6326 101.352 30.4036 101.491 30.2109C101.562 30.1219 101.644 30.0429 101.736 29.9758C101.889 29.85 102.547 29.3132 102.511 28.7852C102.494 28.5262 102.325 28.4935 102.318 28.1716C102.318 27.9428 102.399 27.8322 102.462 27.6373C102.605 27.2023 102.441 26.9722 102.349 26.1814C102.308 25.8587 102.293 25.5333 102.304 25.2083C103.131 24.9279 103.501 24.6211 103.735 24.3521C104.208 23.8052 104.618 22.8434 104.703 22.0023C104.732 21.6955 104.725 21.3359 104.974 20.9663C105.164 20.6847 105.364 20.6029 105.345 20.4106C105.323 20.1793 105.016 20.1466 104.769 19.7669C104.675 19.6117 104.61 19.4416 104.575 19.264C104.401 18.6706 103.678 18.3085 102.645 17.7892C101.492 17.2109 100.921 17.1442 100.695 17.1266C100.257 17.0914 99.9383 17.0701 99.6571 17.2612C99.2371 17.5428 99.2648 18.0268 98.8423 18.1412C98.7547 18.1705 98.661 18.1768 98.5703 18.1596C98.4795 18.1425 98.3947 18.1024 98.3239 18.0432C98.2875 18.0022 98.2639 17.9515 98.2558 17.8973C98.3254 17.8387 98.3919 17.7766 98.4551 17.7113C98.6671 17.5217 98.8317 17.2853 98.9356 17.021C98.9974 16.8488 98.9634 16.8438 99.0176 16.6615C99.1929 16.0693 99.6003 15.9662 99.6142 15.5551C99.6142 15.3577 99.5271 15.4193 99.4792 15.0861C99.4237 14.6913 99.5498 14.5631 99.4616 14.1721C99.4304 14.0765 99.4122 13.9771 99.4073 13.8766C99.4073 13.6654 99.4944 13.6415 99.5271 13.419C99.57 13.1424 99.4565 13.0582 99.5461 12.857C99.599 12.7401 99.6381 12.7514 99.6873 12.6395C99.7528 12.45 99.7415 12.2425 99.6558 12.0612C99.5915 11.9002 99.4426 11.7594 99.1425 11.4791C98.8688 11.2276 98.7275 11.0931 98.5699 11.0767C98.5169 11.0767 98.4362 11.0767 98.3996 11.0189C98.3491 10.9435 98.4425 10.8366 98.4664 10.7398C98.5219 10.511 98.1814 10.2369 97.4966 9.70257C96.8558 9.19966 96.8193 9.17452 96.7221 9.11794C96.4006 8.92237 96.0516 8.77575 95.6867 8.68293C95.4338 8.61793 95.1761 8.57336 94.916 8.54966C95.0724 8.45537 95.1784 8.28816 95.3688 7.98264C95.4831 7.82536 95.5685 7.64914 95.6211 7.46214C95.698 7.13525 95.5605 6.99821 95.4445 6.43748C95.3285 5.87674 95.4369 5.86417 95.3184 5.40527C95.2225 5.05701 95.1532 4.79928 94.94 4.54531C94.6499 4.20711 94.3661 4.18574 94.2312 3.82113C94.1681 3.64889 94.1997 3.56968 94.1051 3.46282C93.96 3.30063 93.7267 3.30692 93.4076 3.28806C92.9346 3.2604 93.3899 3.24406 92.3305 3.15479C91.9748 3.12462 91.4867 3.08941 91.2521 3.08187C90.6808 3.06301 89.3603 3.13593 88.2353 3.59483C88.1381 3.63506 88.0423 3.67906 87.9452 3.72055C87.9128 3.55515 87.8476 3.39785 87.7535 3.25788C87.6664 3.13216 87.5655 2.98758 87.4028 2.96243C87.2401 2.93729 87.1014 3.05295 86.9778 2.97249C86.9317 2.93766 86.8977 2.88929 86.8807 2.83419C86.8403 2.72481 86.8807 2.65566 86.8807 2.55382C86.8652 2.43584 86.8111 2.32625 86.7268 2.24202C86.5212 1.99057 86.3724 2.0811 86.134 1.82964C85.9738 1.66117 85.8755 1.55682 85.8465 1.40218C85.8422 1.33652 85.8123 1.27514 85.7632 1.23119C85.7109 1.19781 85.6474 1.18651 85.5866 1.19976C85.4176 1.21862 85.3647 1.32549 85.2436 1.34309C85.0809 1.37075 85.0468 1.30537 84.7391 1.24754C84.3771 1.17713 84.1955 1.14067 84.0076 1.21736C83.9609 1.23622 83.8814 1.27897 83.8285 1.24754C83.7755 1.21611 83.7843 1.12935 83.7326 1.06398C83.6809 0.998601 83.6065 0.967169 83.3782 0.997343C82.7135 1.08661 81.789 1.72404 81.5141 1.9164C81.4775 1.94154 81.4056 1.99183 81.3161 2.06098C81.1811 2.16156 81.1382 2.20682 81.0525 2.27094C80.5795 2.62926 80.4711 2.64812 80.3046 2.85682C80.2604 2.9134 79.882 3.41378 80.0523 3.81359C80.1242 3.98961 80.2201 3.94937 80.3891 4.21591C80.4622 4.33032 80.6413 4.61823 80.5644 4.92123C80.5316 5.04696 80.4383 5.2192 80.3361 5.22046C80.2339 5.22171 80.152 5.05199 80.1393 5.02433C80.0599 4.85334 80.1305 4.75779 80.0675 4.58429C80.0269 4.48777 79.9648 4.40176 79.8858 4.33284C79.6129 4.05869 79.2879 3.84156 78.9298 3.69415C78.5323 3.55491 78.1063 3.51604 77.69 3.581C77.7812 3.41713 77.82 3.22935 77.801 3.04289C77.7745 2.85556 77.6875 2.74115 77.7556 2.63932C77.8376 2.51359 78.0167 2.60411 78.2311 2.46204C78.3606 2.371 78.4539 2.2375 78.4947 2.08487C78.5267 1.94167 78.5184 1.79243 78.4707 1.65363C78.4148 1.41053 78.3016 1.18423 78.1403 0.993572C77.965 0.789897 77.7783 0.693088 77.4025 0.500728C77.1608 0.372176 76.9074 0.266927 76.6457 0.186415C76.179 0.0418308 75.9268 -0.0336044 75.6077 0.0154285C75.3555 0.0531461 75.2571 0.141154 74.9695 0.126067C74.745 0.116009 74.7236 0.0606896 74.5256 0.0770339C74.3312 0.0956638 74.142 0.150688 73.9681 0.23922C73.8913 0.293202 73.8026 0.328116 73.7095 0.341057C73.6316 0.345667 73.5537 0.331433 73.4825 0.299568C73.1596 0.186415 72.4912 1.05392 72.4912 1.05392C72.0611 1.5367 71.6007 2.1339 71.3207 2.4985C71.2703 2.60034 71.1442 2.86059 70.96 3.23777C70.9474 3.26417 70.9361 3.2868 70.9247 3.31195C70.7943 3.33951 70.6625 3.36049 70.5299 3.37481C69.9674 3.36727 69.8236 2.9398 69.4478 2.98883C69.2119 3.01901 69.241 3.18999 68.7251 3.55585C68.489 3.74539 68.2158 3.8837 67.923 3.96195C67.532 4.04618 67.2646 3.92674 67.0401 3.89028C66.1282 3.73816 65.0221 4.82065 64.3814 5.99618L64.3234 6.00498C64.1623 6.0508 64.0159 6.13743 63.8983 6.25643C63.6912 6.41621 63.5194 6.61696 63.3938 6.84609C63.158 7.30247 63.2438 7.6809 63.0924 7.71233C63.0193 7.72616 62.9347 7.65199 62.8994 7.58032C62.8275 7.42945 62.9575 7.25469 63.1315 6.96301C63.4014 6.5104 63.5364 6.28535 63.5591 6.06407C63.5748 5.77358 63.4853 5.48712 63.3068 5.25692C63.1088 4.99495 62.8258 4.80964 62.5059 4.73264C62.323 4.68487 62.1452 4.69493 61.7958 4.71881C61.5272 4.73641 61.0631 4.7691 59.8535 4.96021C59.6694 4.98912 59.426 5.03061 59.3238 5.21166C59.2418 5.35498 59.3049 5.4958 59.204 5.57123C59.1031 5.64667 58.9984 5.55866 58.8017 5.54734C58.4157 5.52471 58.0865 5.79879 57.9276 5.93961C57.6665 6.16088 57.7271 6.24009 57.5392 6.32433C57.2869 6.43748 57.133 6.32433 56.8417 6.47394C56.7335 6.51351 56.6437 6.59138 56.5894 6.6927C56.5264 6.84609 56.6462 6.92404 56.6084 7.11765C56.5705 7.31127 56.4595 7.28487 56.3675 7.51997C56.2956 7.70353 56.3485 7.75005 56.2792 7.91475C56.2098 8.07945 56.0875 8.15363 55.9828 8.27181C55.7785 8.50063 55.8264 8.71688 55.7419 9.10411C55.6158 9.66233 55.4329 9.63342 55.2576 10.208C55.1232 10.572 55.0872 10.9648 55.1529 11.3471C55.2513 11.8122 55.5805 12.4295 56.1354 12.5729C56.3321 12.6143 56.5353 12.6143 56.732 12.5729C57.1898 12.51 57.3071 12.3554 57.7775 12.2938C58.0298 12.2611 58.4082 12.2485 58.4346 12.3503C58.4573 12.4245 58.2833 12.5339 58.2467 12.5578C57.9415 12.7501 57.688 12.6584 57.297 12.7388C57.0722 12.7878 56.8584 12.8777 56.6664 13.0041C56.339 13.2195 56.0818 13.5253 55.926 13.8842L55.8844 13.9772C55.7873 14.1 55.7258 14.247 55.7066 14.4022C55.6914 14.5782 55.7482 14.8347 55.5905 14.9566C55.5659 14.9772 55.5373 14.9925 55.5065 15.0018C55.4757 15.0111 55.4434 15.0141 55.4114 15.0107C55.1907 14.9642 55.1352 14.4286 55.1151 14.2324C55.0696 13.7924 55.1642 13.7145 55.0734 13.4152C55.0099 13.2159 54.907 13.0312 54.7707 12.8721C54.6749 12.7602 54.5084 12.598 54.0581 12.3843C53.5738 12.1555 52.7401 11.7557 52.3504 12.0687C52.252 12.1467 52.2243 12.2384 52.0692 12.2975C51.8711 12.373 51.7639 12.2774 51.5356 12.3139C51.3457 12.3393 51.171 12.4311 51.0425 12.5729C50.9441 12.6986 50.9492 12.803 50.9164 13.37C50.8773 13.9823 50.8609 14.0426 50.8319 14.1092C50.6692 14.4776 50.3753 14.4588 50.2505 14.6951C49.9667 15.2269 50.9025 16.361 51.8043 17.1166C52.7717 17.9263 53.5007 18.1324 53.4439 18.4996C53.3821 18.9057 52.4551 18.8277 51.9758 19.6173C51.9036 19.7355 51.8464 19.8622 51.8056 19.9944C51.6151 20.1918 51.4272 20.5087 51.1535 20.9613C50.7751 21.5899 50.7827 21.7408 50.5002 21.9972C50.2177 22.2537 50.0714 22.1921 49.5278 22.4649C49.2465 22.607 49.2465 22.6435 48.3296 23.3161C47.8705 23.653 47.4291 24.0151 46.9674 24.3508C46.5563 24.6488 46.2397 24.8663 46.2763 25.0964C46.3065 25.2774 46.5285 25.3026 46.5966 25.544C46.6584 25.764 46.5235 25.9211 46.4339 26.1638C46.2574 26.6378 46.3835 27.0904 46.4806 27.4374C46.6071 27.8652 46.8311 28.2581 47.1352 28.5853C47.5817 29.0693 48.0622 29.2667 48.549 29.4653L48.6209 29.493C48.423 29.6976 48.2533 29.9276 48.1164 30.1769C47.8944 30.5717 47.8944 30.7364 47.6813 31.4644C47.3029 32.7644 47.0141 33.0133 47.1667 33.5099C47.2436 33.676 47.2716 33.8604 47.2474 34.0417C47.1768 34.3938 46.8691 34.5094 46.9182 34.6968C46.9561 34.8602 47.1932 34.8149 47.5173 35.0262C47.9108 35.2776 47.786 35.4976 48.2741 35.9062C48.5944 36.1728 48.7357 36.2834 48.7357 36.2834C48.9615 36.4632 49.0144 36.4984 49.0434 36.5864C49.1153 36.8052 48.8984 36.9234 48.9615 37.1534C49.0132 37.3471 49.2213 37.4539 49.3222 37.5055C49.5101 37.6023 49.5858 37.5608 49.7863 37.6186C50.1268 37.7154 50.1205 37.8927 50.5431 38.1366C50.4598 38.4383 50.3804 38.6395 50.3387 38.7652C50.0714 39.5623 50.055 40.8686 50.6175 41.203C50.7789 41.2986 50.9719 41.3074 51.122 41.5123C51.2481 41.6795 51.2077 41.8002 51.2884 41.9951C51.3692 42.19 51.518 42.3182 51.8913 42.576C52.6594 43.1103 52.6481 43.0437 52.947 43.2788C53.4162 43.6484 53.4603 43.8257 53.8412 43.964C54.048 44.0532 54.2767 44.079 54.4983 44.0382C54.7574 43.9689 54.9875 43.8192 55.1554 43.6107C55.3673 43.3592 55.3534 43.1744 55.506 43.1405C55.6586 43.1065 55.7368 43.2775 55.9904 43.3618C56.2585 43.4338 56.5441 43.401 56.7887 43.27C56.9079 43.2039 57.0098 43.1109 57.0864 42.9984C57.2324 43.0774 57.3905 43.1318 57.5543 43.1593C58.2026 43.2624 58.8925 42.8966 58.9972 43.1053C59.0363 43.1807 58.9707 43.2813 58.948 43.3177C58.7222 43.6735 58.1471 43.451 57.6867 43.6949C57.1923 43.9539 57.0801 44.6203 56.9703 45.2703C56.872 45.8486 56.9413 46.3113 57.0813 47.2379C57.3033 48.7202 57.6085 49.0081 57.7788 49.1237C57.9491 49.2394 58.0512 49.2495 58.1975 49.4267C58.4889 49.7675 58.4044 50.1258 58.7146 50.3068C58.7934 50.3599 58.8893 50.3814 58.9833 50.3672C59.1649 50.3244 59.1535 50.1082 59.3326 50.0415C59.4588 49.9938 59.518 50.0881 59.8889 50.1534C60.0957 50.1886 60.073 50.1534 60.2294 50.1912C60.6078 50.2678 60.7415 50.4426 60.8739 50.376C60.9735 50.3232 60.9256 50.2113 61.0429 50.1358C61.1841 50.0441 61.3897 50.1195 61.4768 50.1509C61.7 50.2339 61.6899 50.3294 61.8551 50.3848C62.0418 50.4489 62.1692 50.3584 62.6018 50.2314C62.907 50.1421 62.8603 50.1824 63.2324 50.0818C63.5499 50.0078 63.8598 49.9047 64.1582 49.7737C64.5151 49.6065 64.8758 49.4381 65.1331 49.0496C65.3137 48.7745 65.4068 48.4516 65.4005 48.123C65.3884 47.8488 65.3096 47.5817 65.1709 47.3447C64.7749 46.6042 64.1619 46.4911 64.1455 45.9618C64.1455 45.836 64.1645 45.6613 64.2502 45.6349C64.4596 45.5682 64.7547 46.5149 65.2062 46.5049C65.4219 46.5049 65.596 46.2811 65.847 45.9668C65.9364 45.8576 66.0178 45.742 66.0904 45.621C66.2337 45.6679 66.3825 45.6963 66.5331 45.7053C66.6314 45.7053 66.9291 45.6914 67.5181 45.6537C67.9457 45.6261 67.9406 45.6236 67.9734 45.6273C68.4867 45.6864 68.6217 46.0548 68.9244 46.1227C69.1136 47.0996 69.5752 48.0576 70.4127 48.5756C71.1164 49.0118 72.3209 49.2809 72.9351 48.9C73.1418 48.7723 73.3327 48.6208 73.504 48.4486C73.8256 48.1066 73.9202 47.8087 74.0438 47.8338C74.1409 47.8527 74.2027 48.0588 74.1863 48.2323C74.1598 48.5027 73.9517 48.5957 73.7335 48.9125C73.5773 49.1358 73.4715 49.3902 73.4232 49.6581C73.3564 50.1094 73.5367 50.4765 73.6868 50.7808C73.8451 51.0966 74.0524 51.3856 74.3011 51.637C74.9645 52.3423 75.5055 52.9169 76.2938 53.02C76.8437 53.0891 76.9169 52.8528 77.6143 52.9646C78.1378 53.0489 78.3093 53.2161 78.6473 53.1155C78.8567 53.0527 79.0395 52.8729 79.404 52.5146C79.7408 52.1852 79.7421 52.1122 80.0019 51.9161C80.2617 51.72 80.321 51.7514 80.5757 51.5389C80.8305 51.3265 80.8431 51.241 81.0802 51.0662C81.3173 50.8914 81.4296 50.8826 81.6238 50.7745C81.8862 50.6287 81.895 50.5231 82.3932 49.9447C82.9507 49.2935 83.2306 49.081 83.2584 48.7327C83.264 48.6308 83.275 48.5293 83.2912 48.4285C83.3215 48.2469 83.3684 48.0685 83.4312 47.8954C83.5485 47.5371 83.3795 47.1411 83.2685 46.877C83.0452 46.349 82.4991 45.6198 81.9152 45.6525C81.7626 45.66 81.7752 45.7116 81.4901 45.7543C81.1673 45.8033 80.7712 45.8687 80.5581 45.6462C80.4446 45.5267 80.3651 45.3055 80.4483 45.2049C80.5947 45.0264 81.0676 45.4299 81.615 45.2501C81.8597 45.1587 82.0681 44.9906 82.209 44.7711C82.4449 44.443 82.4613 44.1148 82.489 43.6396C82.5168 43.1644 82.5294 42.928 82.3995 42.6753C82.3299 42.5541 82.2343 42.4498 82.1195 42.3698C82.5307 42.4 82.9254 42.3471 83.189 42.1447C83.2811 42.0731 83.5497 41.8354 83.6532 41.9033C83.7137 41.9436 83.6809 42.0618 83.6733 42.2441C83.6827 42.4706 83.7157 42.6956 83.7717 42.9154C83.9842 43.7242 84.4753 44.4328 85.1591 44.917C85.5192 45.1725 85.9244 45.3581 86.3535 45.4639C86.9725 45.6231 87.626 45.5839 88.2214 45.352C88.5859 45.2282 88.9049 44.9983 89.137 44.6919C89.2848 44.4681 89.3853 44.2165 89.4322 43.9527C89.5659 43.3303 89.3893 43.0147 89.5583 42.9179C89.7273 42.8211 90.1776 43.0273 90.2419 43.3203C90.2898 43.5302 90.1359 43.7465 90.059 43.8546C89.8925 44.0884 89.7134 44.1475 89.7197 44.311C89.7315 44.3951 89.7731 44.4723 89.837 44.5285C89.9671 44.6687 90.1354 44.7679 90.3213 44.8139C90.5925 44.9042 90.871 44.9707 91.1538 45.0125C92.6395 48.309 93.5312 50.8688 94.0887 54.2684C94.4769 56.6509 94.6537 59.0628 94.6171 61.4763C94.6033 62.4469 94.5553 63.3521 94.491 64.1831C94.4784 64.3491 94.4633 64.5113 94.4494 64.6709C94.42 64.9727 94.3893 65.2631 94.3573 65.5422C94.2088 66.8661 93.9822 68.1801 93.6788 69.4774C93.6548 69.5793 93.6308 69.6786 93.6056 69.7792C93.2196 71.3608 92.6894 72.9041 92.0215 74.3895C91.3897 75.7153 90.6445 76.9844 89.7941 78.1826C89.6756 78.0695 89.5558 77.9563 89.4347 77.8444C88.6426 77.1215 88.0587 76.635 88.0284 76.6739C88.0196 76.6903 88.4068 77.9312 88.8949 79.4474C88.2744 80.3011 87.5996 81.2076 86.8668 82.2134L86.8378 82.2536C85.4202 84.2061 84.454 85.4697 83.7112 86.5748C83.3946 86.385 83.0806 86.1976 82.7526 86.0279C82.122 85.6922 82.0463 85.662 82.0854 85.7966C82.1132 85.8921 82.5143 86.6012 83.0793 87.5705C83.0036 87.6963 82.9292 87.822 82.8573 87.9565C82.817 88.0294 82.5307 88.5449 82.093 89.3395H81.9871C74.8257 88.9623 68.1966 91.937 63.3207 97.7141C62.6245 98.5275 61.9333 99.3925 61.7921 99.6264L61.5133 100.046L60.44 97.9404C59.5571 96.194 56.7118 90.9475 56.2439 90.1894C56.1064 89.9807 56.1732 89.9681 57.0662 89.9304C62.062 89.7205 66.2594 88.2394 70.926 85.0045C72.8771 83.668 78.4114 79.3758 78.5754 79.0816C78.6498 78.9408 78.535 78.9081 77.6055 78.7673C72.3222 77.9651 67.3478 78.8251 62.9751 81.2818C60.6229 82.6019 59.5622 83.4556 57.128 85.9525L55.0331 88.1024L54.1616 86.6729C53.6835 85.8871 52.9104 84.6474 52.4488 83.922C51.9872 83.1966 51.634 82.5906 51.6567 82.5654C51.6794 82.5403 52.247 82.3215 52.9318 82.0738C53.9787 81.6967 55.2563 81.2227 57.6905 79.7592C59.2038 78.8343 60.6276 77.7711 61.9434 76.5834C63.1429 75.511 64.5264 74.0991 68.5309 68.5294C69.5689 67.0849 70.9789 65.0896 72.6135 62.6644C71.6947 62.7512 70.7845 62.9123 69.8918 63.1459C68.7995 63.4325 66.2606 64.2133 61.7681 67.7852C60.8272 68.5332 55.3547 72.8858 53.5133 76.4527C53.3783 76.7129 51.7829 79.8359 51.4524 80.8895C51.4171 80.9989 51.185 81.7583 51.0942 81.7369C51.0886 81.7352 51.0837 81.7316 51.0803 81.7268C51.0299 81.6627 50.2568 80.5236 49.3714 79.2123C48.148 77.4132 46.2851 74.7264 45.903 74.2298C45.8929 74.221 46.5147 74.0425 47.2903 73.8527C51.8308 72.6935 54.6509 70.8252 58.4107 66.4763C60.3732 64.2133 63.5881 60.1398 63.5288 59.9852C63.4809 59.8594 61.5423 59.9437 60.3454 60.1323C56.0345 60.8061 52.0792 63.2502 49.1544 67.0471C47.6926 68.9657 46.3053 71.3218 45.5763 73.1335C45.5312 73.2564 45.4719 73.3737 45.3997 73.483C45.372 73.4755 44.9949 72.9738 44.5471 72.3716C44.0994 71.7694 43.1749 70.536 42.4913 69.6547C41.8077 68.7734 41.2376 68.0278 41.23 68.0001C41.2225 67.9725 41.5807 67.8191 42.0398 67.6381C45.0844 66.4952 46.9359 64.6885 50.2605 59.6658C50.6566 59.0787 51.0551 58.4488 51.1623 58.274L51.3326 57.9597H51.0703C50.4522 57.9773 49.0863 58.2489 48.3258 58.5192C46.8123 59.0548 45.1399 60.1712 43.9619 61.4461C42.8848 62.6128 41.5845 64.7527 40.9349 66.3846C40.8378 66.659 40.7241 66.9273 40.5944 67.188C40.5805 67.188 40.0558 66.5455 39.424 65.766C38.7921 64.9865 37.8033 63.7858 37.2281 63.1031C36.653 62.4205 36.1788 61.8459 36.1636 61.8245C36.4455 61.7012 36.7359 61.5982 37.0326 61.5165C40.3421 60.4629 42.2832 58.7367 45.43 54.0258C46.0808 53.0426 46.7001 52.0959 46.8073 51.9199L46.9901 51.5842L46.4718 51.6118C45.1361 51.6546 43.2329 52.3109 41.7547 53.2199C40.7281 53.8573 38.5877 56.1757 37.8449 57.4556C37.2153 58.5641 36.6815 59.7242 36.2494 60.9231C36.1233 61.2751 36.0035 61.5655 35.9745 61.5517C35.9454 61.5379 35.2089 60.7206 34.3348 59.7148C33.4608 58.709 32.665 57.829 32.5754 57.7447C32.4569 57.6353 32.5187 57.3902 32.8768 56.5679C34.3903 53.1734 34.6943 50.1559 34.4521 40.9264L34.4143 39.3851L34.0271 39.805C33.597 40.2513 32.9588 41.3363 32.5943 42.2453C31.2927 45.4337 30.9661 50.8688 31.7695 56.1266L31.8956 56.9615L31.5374 56.5843C29.2508 54.1565 27.8647 52.6931 27.4321 52.2505L26.8973 51.7036L27.1495 51.1894C28.8762 47.7596 29.2937 43.9489 28.9544 34.6075L28.9052 33.2383L28.3704 33.9349C26.0245 36.9699 25.2577 43.2159 26.3625 50.303C26.4458 50.8449 26.5063 51.2938 26.4824 51.2799C26.4584 51.2661 25.9627 50.777 25.3674 50.1748L24.2865 49.0911L24.3622 47.7634C24.5564 44.4945 24.2235 41.2709 23.2082 36.6769C22.8298 34.9897 21.025 27.8146 20.9379 27.6662C20.8509 27.5178 20.581 28.6255 20.4461 29.5433C19.8154 33.8418 20.7803 40.0149 23.1464 46.9801L23.6584 48.4825L21.1271 46.1227C19.0158 44.1589 18.3625 43.5214 17.3081 42.371C16.1528 41.1138 15.7467 40.7203 12.9707 38.1718C9.69144 35.1544 9.05452 34.6238 6.7023 32.958C5.44523 32.0555 4.13265 31.2325 2.77227 30.4938C1.72923 29.9381 0.0454697 29.1322 6.49977e-05 29.1812C-0.00876369 29.1912 0.882934 30.0613 1.9903 31.1174C5.06899 34.0719 10.1518 38.7087 11.4269 39.7409C13.5465 41.476 15.7857 43.0607 18.1279 44.4832C18.4823 44.7221 18.896 45.0226 19.3437 45.391C19.9914 45.9256 20.5972 46.5085 21.1561 47.1348C22.9345 49.0131 24.8036 51.0084 24.7456 51.0473C24.7456 51.0473 24.7355 51.0473 24.7242 51.0398C24.6321 50.982 24.1655 50.6174 23.6837 50.2301C20.994 48.1036 18.1417 46.1901 15.1526 44.5071C11.5808 42.5395 8.69002 41.457 5.9279 41.0497C5.35277 40.9604 4.87476 40.9051 4.85711 40.9239C4.81044 40.973 11.5417 45.3306 13.3541 46.4295C17.4657 48.9176 20.8358 50.4476 24.0898 51.2963L25.3119 51.6144L26.3133 52.7459C27.3223 53.8711 30.4868 57.5989 31.5374 58.8913C31.9688 59.4332 32.0419 59.5489 31.859 59.4332C27.3476 56.627 24.6813 55.2843 21.0741 54.0107C18.6778 53.1646 15.8942 52.7006 13.9431 52.8364C13.3818 52.8704 12.9467 52.9269 12.9631 52.9697C12.9896 53.0388 17.6612 55.3736 19.8016 56.3781C24.7645 58.7128 28.1043 59.7425 31.5198 59.999L32.4884 60.0757L32.9286 60.6075C33.6046 61.4373 37.0415 65.8603 37.4198 66.3997L37.7629 66.8787L36.7943 66.25C30.3872 62.0785 23.7354 59.6721 19.3816 59.9638C18.8392 59.9965 18.4142 60.0618 18.4394 60.1134C18.4773 60.2115 24.26 63.0617 26.2881 63.9908C30.5347 65.9156 33.4595 66.8007 36.6189 67.0974C37.0912 67.1271 37.5615 67.1825 38.0278 67.2634C38.2132 67.3791 41.254 71.6638 43.2707 74.6334L44.1612 75.9384L43.1169 75.1841C39.0695 72.2924 34.0662 69.3077 30.0088 67.3552C24.4177 64.6722 19.6578 63.2628 15.4932 63.0478C14.2861 62.99 13.4247 63.0139 13.4575 63.0969C13.4903 63.1798 20.3363 67.0358 23.6345 68.8211C32.1151 73.4239 37.1878 75.3827 43.1244 76.3282C43.8723 76.4476 44.5395 76.5947 44.5988 76.6488C44.7464 76.7846 47.5905 81.2579 48.887 83.3952C50.0222 85.2547 51.2645 87.3845 52.2117 89.0667C52.8209 90.1467 52.9899 90.1982 50.4686 88.4632C47.3482 86.3114 44.1116 84.332 40.7735 82.534C32.1655 77.8822 24.4492 75.4934 18.7169 75.736C18.1935 75.7486 17.7609 75.7813 17.752 75.7913C18.1057 76.0205 18.4716 76.2303 18.8481 76.42C19.4661 76.7594 21.6909 77.9878 23.7846 79.1419C30.2005 82.6911 34.0599 84.6738 37.4476 86.1913C42.7158 88.5512 47.2979 89.9166 52.0036 90.5351L53.1387 90.6911L53.8841 92.074C54.6862 93.5589 56.2931 96.6416 56.5894 97.2501L56.761 97.6185L55.0331 96.5624C51.8182 94.6074 47.559 92.3607 44.3693 90.9501C41.6932 89.7445 38.9321 88.736 36.1081 87.9326C32.4972 86.9017 29.2874 86.4239 26.4533 86.5057C25.1076 86.5409 23.0266 86.7772 23.0694 86.8828C23.0909 86.9394 23.1678 86.9734 29.4274 89.9229C38.1905 94.0655 42.0713 95.6547 46.6029 96.9346C49.9112 97.88 52.8877 98.3917 56.0358 98.5413L57.2617 98.5979L58.4233 100.979C60.0301 104.279 61.2195 106.906 61.1148 106.92C61.0732 106.926 60.3706 106.52 59.5647 106.008C55.2096 103.272 50.5405 100.777 46.5878 99.0857C42.8823 97.5028 38.7353 96.1626 35.8672 95.6258C33.9678 95.2712 31.5071 95.0487 30.0088 95.0902C28.6353 95.1354 27.2694 95.27 27.3059 95.368C27.3324 95.4372 34.4193 98.9726 37.8802 100.648C44.3024 103.756 48.6953 105.504 52.8335 106.618C55.4379 107.317 58.6818 107.856 60.9685 107.991L61.6786 108.031L62.3697 109.633C63.4203 112.095 64.2691 114.179 64.2326 114.219C63.9262 114.123 63.6273 114.004 63.3383 113.863C62.2133 113.361 60.0654 112.523 58.7298 112.073C44.9331 107.425 38.0038 110.513 38.0038 110.513C36.7469 111.155 35.5938 111.981 34.5833 112.965C35.7891 112.879 37.4615 112.791 39.4567 112.79C42.3135 112.79 45.826 112.79 49.9074 113.578C54.9637 114.556 56.0875 115.817 59.7299 115.502C60.9696 115.393 62.1912 115.134 63.3674 114.728C63.7041 115.003 64.283 115.466 64.9477 115.992L66.0059 118.825C66.552 120.287 67.1839 122.021 67.7073 123.49C67.191 123.438 66.676 123.403 66.1623 123.383C65.3374 123.349 63.4342 123.431 63.3194 123.498C63.2362 123.543 66.156 124.934 68.5914 126.027L69.3128 128.191C68.8285 128.017 68.3488 127.859 67.8738 127.717L67.701 127.624C64.3991 125.828 60.9758 124.264 57.4559 122.942C55.6486 122.271 51.6466 121.147 50.0146 120.841C46.5172 120.2 43.2506 120.16 40.7962 120.716C39.569 120.996 39.2133 121.125 39.3924 121.208C39.6585 121.334 47.7721 124.569 49.0964 125.072C55.8567 127.661 60.6607 128.919 64.9956 129.167L65.6679 129.551C67.1574 130.399 68.5145 131.108 69.7959 131.701C69.84 132.441 69.9006 133.288 69.9725 134.177C69.2712 133.959 68.5851 133.77 67.9129 133.616C66.3436 133.25 64.744 133.027 63.134 132.951C62.0948 132.589 61.0719 132.268 60.0755 132.025C54.4352 130.642 50.1748 130.428 46.3986 131.354C45.2635 131.636 43.267 132.373 43.0664 132.59C42.9895 132.673 51.6113 135.199 54.3974 135.918C61.1968 137.658 65.5859 138.069 69.8993 137.316C70.0255 137.348 70.1453 137.378 70.2689 137.407C70.337 138.082 70.419 138.869 70.5211 139.754C68.0693 139.015 65.6098 138.712 63.3964 138.913C62.9474 138.956 62.5135 139.007 62.4303 139.027C62.3218 139.055 62.8578 139.3 64.365 139.907C67.112 141.024 69.0745 141.722 70.8263 142.142L70.8755 142.496C68.9762 141.726 67.0371 141.058 65.0662 140.495C58.1219 138.506 52.8322 138.458 48.8139 140.321C48.3611 140.535 48.0017 140.726 48.0117 140.754C48.0294 140.815 55.5968 142.92 57.5543 143.41C63.4304 144.869 67.3617 145.222 71.1946 144.578C71.3258 145.376 71.4734 146.206 71.6373 147.068C71.6537 147.156 71.8479 148.153 72.1897 149.66C64.476 147.557 57.9869 147.684 53.7176 150.037C52.8688 150.5 51.402 151.556 51.4348 151.659C51.4713 151.738 58.2732 152.675 60.4829 152.916C65.8722 153.493 69.4831 153.273 72.7661 152.095C73.1445 153.633 73.6175 155.382 74.1535 157.124C74.5823 158.517 75.0212 159.793 75.4652 160.975C74.9392 165.322 73.9328 168.438 73.3387 174.838C72.6097 182.699 73.1949 188.065 73.3387 189.282C73.591 191.408 74.0034 194.911 75.2394 198.752C75.4576 199.431 75.58 199.744 75.7439 200.418C76.7832 204.648 75.7149 207.701 76.4704 207.961C77.8224 208.747 91.4451 195.2 89.3086 181.321C88.8633 178.43 87.7736 175.778 86.4077 172.463C83.0024 164.172 78.8743 158.814 77.7821 157.281L77.6837 157.141C77.6837 157.114 77.6711 157.087 77.666 157.063C77.4504 156.199 77.1969 156.01 77.1388 155.243C77.1174 154.972 77.13 154.822 77.0922 154.314C77.0758 154.093 77.0468 153.825 76.9875 153.453C76.9774 153.388 76.9686 153.327 76.9585 153.265C76.9799 152.97 76.9963 152.643 77.0064 152.269C77.0064 152.124 77.014 151.977 77.0165 151.825C77.347 151.933 78.0987 152.598 78.2349 152.716C79.4608 153.776 82.4575 155.463 85.2915 156.249C87.1455 156.762 86.9526 156.34 89.924 157.019C92.5298 157.613 93.8579 158.209 93.9853 157.955C94.1618 157.606 91.8411 156.054 90.1713 155.093C88.9503 154.365 87.6703 153.742 86.3447 153.228C85.6056 152.945 84.5789 152.612 77.9624 151.132L77.0203 150.925C77.0203 149.74 76.9888 148.285 77.0039 146.263L77.3381 146.431C80.1043 147.863 83.008 149.013 86.0054 149.865C87.3032 150.579 88.5001 151.208 88.4951 151.162C88.49 151.117 88.3059 150.775 88.0599 150.393C90.3321 150.912 92.6309 151.308 94.9463 151.577C98.2482 151.977 102.058 152.378 102.027 152.313C101.974 152.173 99.5044 150.656 97.9279 149.798C96.2748 148.884 94.5634 148.079 92.8047 147.388C91.7661 146.046 90.578 144.827 89.2632 143.752C92.9523 144.659 99.2825 145.99 99.1513 145.824C99.0012 145.632 96.3463 143.761 95.1847 143.043L94.8454 142.824C96.3097 143.406 97.6101 143.912 97.6201 143.894C97.4671 143.656 97.2986 143.427 97.1157 143.21C94.5932 140.003 91.0831 137.553 86.327 135.712C84.7055 135.075 83.0386 134.559 81.34 134.169C80.8507 134.057 80.4496 133.962 80.4446 133.951C80.4493 133.928 80.456 133.906 80.4647 133.885C83.0755 134.513 85.748 134.85 88.4333 134.891C90.1507 135.861 91.9271 136.723 93.7519 137.473C95.6539 138.268 101.565 140.521 101.52 140.424C101.404 140.173 100.133 138.718 99.4061 137.985C98.1577 136.74 96.7793 135.631 95.2944 134.677C97.8472 134.514 100.844 134.283 100.883 134.242C100.942 134.178 98.5169 132.949 97.1169 132.33C92.2813 130.208 87.2288 129.115 82.3692 129.096C82.3982 129.021 82.4386 128.94 82.4853 128.845C82.7161 128.407 82.8308 128.189 82.9721 128.019C83.2369 127.701 83.58 127.146 83.8903 126.113L84.1425 125.61L84.3431 125.596L84.8564 126C88.3879 128.792 92.0934 130.546 98.0994 132.258C99.0163 132.522 104.643 134.031 104.829 134.068C104.956 134.093 104.729 133.834 103.936 133.062C102.352 131.513 100.183 130.008 97.8156 128.825C96.7083 128.273 93.9689 127.19 92.719 126.823C90.5663 126.186 88.3678 125.714 86.1429 125.411C87.4041 125.254 88.7297 125.034 90.146 124.75C91.7301 124.432 94.3649 123.852 95.9162 123.493C97.2177 124.278 98.5589 124.997 99.9345 125.645C101.7 126.488 108.077 129.241 108.111 129.176C108.145 129.11 107.209 127.873 106.567 127.125C103.445 123.463 98.6291 120.475 92.7013 118.51C91.7806 118.202 90.2923 117.79 89.5091 117.619C89.298 117.58 89.0904 117.525 88.8886 117.452C88.8671 117.406 89.5898 116.32 90.4752 115.07L91.0541 114.252L91.5284 114.557C93.2792 115.654 95.118 116.604 97.0261 117.398C99.8563 118.549 102.902 119.369 107.399 120.175C109.821 120.614 114.791 121.432 114.813 121.391C114.836 121.349 113.951 120.602 113.048 119.926C111.801 119.038 110.489 118.244 109.123 117.554C107.183 116.592 104.33 115.597 101.752 114.984C98.7525 114.299 95.6936 113.906 92.6181 113.809C92.2503 113.811 91.883 113.785 91.5195 113.729C91.4678 113.685 92.024 112.928 92.864 111.875C93.0078 111.805 93.0847 111.76 93.0784 111.749C93.0539 111.732 93.0266 111.719 92.9977 111.711C93.2348 111.418 93.4908 111.105 93.7544 110.779L94.7193 109.633L95.5353 110.168C97.536 111.487 99.6725 112.589 101.908 113.455C105.011 114.671 107.71 115.363 113.836 116.546C118.211 117.389 118.265 117.4 118.284 117.371C118.321 117.311 116.959 116.167 116.07 115.512C114.197 114.129 112.034 112.958 109.558 111.991C107.704 111.263 105.795 110.685 103.848 110.261C101.377 109.735 98.8707 109.395 96.3488 109.243L95.1216 109.181L95.2642 109.002C95.5063 108.707 96.8092 107.274 97.4549 106.597L98.0553 105.962L98.8196 106.384C101.935 108.134 105.302 109.397 108.802 110.128C111.165 110.645 113.876 111.043 118.402 111.534L121.883 111.911C122.139 111.952 122.398 111.974 122.658 111.976C122.658 111.965 122.369 111.74 122.028 111.485C118.244 108.628 112.947 106.697 106.883 105.964C104.6 105.678 102.3 105.564 100 105.625C98.1953 105.676 98.3113 105.716 98.7981 105.236C99.5549 104.482 100.545 103.559 101.438 102.771C102.46 101.86 104.688 100.02 104.797 99.9935C104.84 99.9822 105.294 100.191 105.798 100.456C109.808 102.57 113.32 103.558 119.293 104.274C121.617 104.555 126.452 105.029 126.482 104.986C126.513 104.943 125.941 104.521 125.137 103.995C122.362 102.195 119.094 100.963 115.182 100.244C112.115 99.7105 109 99.5119 105.89 99.6515L105.141 99.693L105.831 99.1813C107.397 98.0158 109.741 96.4053 109.873 96.4153C109.907 96.4153 110.336 96.6668 110.822 96.9559C112.939 98.227 114.946 98.9675 117.91 99.5962C119.325 99.8879 123.378 100.578 123.41 100.525C123.431 100.501 123.158 100.255 122.797 99.9784C119.933 97.7317 115.338 96.3185 110.77 96.2745H110.08L110.344 96.096C110.636 95.8898 113.253 94.3635 113.765 94.0907L114.098 93.9197L114.747 94.3207C117.031 95.7402 119.324 96.5762 122.793 97.2464C124.289 97.5368 127.566 98.0724 127.586 98.0359C127.606 97.9995 127.316 97.7681 126.947 97.4815C125.663 96.4757 123.781 95.4925 122.129 94.967C119.639 94.1787 117.768 93.8807 114.561 93.7562C114.435 93.7562 114.488 93.7047 114.813 93.5224C115.609 93.0974 117.994 91.937 118.747 91.6114L119.504 91.2794L120.338 91.6277C122.559 92.5518 124.911 93.0459 127.828 93.2106C129.115 93.281 133.911 93.3451 133.882 93.2885C133.65 93.1365 133.41 92.998 133.162 92.8736C131.298 91.8678 129.299 91.2794 126.78 90.9978C124.752 90.7899 122.707 90.811 120.684 91.0607C120.336 91.1097 119.998 91.1499 119.928 91.1474C119.919 91.1474 119.915 91.1474 119.913 91.1474C119.881 91.0871 121.273 90.5477 122.593 90.0486ZM81.7777 14.8711C81.8969 14.9964 81.9919 15.1426 82.0577 15.3024C82.1101 15.4406 82.1412 15.586 82.1498 15.7336C82.175 15.9348 82.3389 16.1108 82.537 16.2503C82.4764 16.4125 82.4197 16.5634 82.3654 16.703C82.36 16.6606 82.352 16.6186 82.3415 16.5772C82.2841 16.334 82.1626 16.1105 81.9896 15.9297C81.8157 15.7866 81.5983 15.7064 81.3728 15.7022C81.5066 15.3788 81.6035 15.0414 81.6617 14.6964C81.6919 14.7598 81.731 14.8186 81.7777 14.8711ZM65.8861 24.7029H65.8961C65.9552 24.7365 66.006 24.7829 66.0448 24.8385C66.0837 24.8942 66.1096 24.9578 66.1206 25.0247C66.1938 25.3378 65.9718 25.5729 65.7183 25.8696C65.7612 25.5666 65.8167 25.1781 65.8848 24.7029H65.8861ZM88.4762 33.2371C88.6452 32.8863 89.0387 32.9266 89.2745 32.6198C89.3237 32.5543 89.3608 32.4807 89.3842 32.4023C89.5831 32.5663 89.7939 32.7155 90.0149 32.8486C89.074 33.1529 88.5796 33.7287 88.4307 33.603C88.3601 33.5401 88.4219 33.344 88.4749 33.2371H88.4762ZM76.4754 30.744C76.3026 31.0595 76.1273 31.3789 75.9583 31.702C75.2952 32.0798 74.6109 32.4194 73.9088 32.7191C73.9307 32.7066 73.9517 32.6927 73.9719 32.6776C74.1002 32.5755 74.2048 32.4468 74.2784 32.3004C74.4852 31.8843 74.2216 31.3726 73.9252 30.8005C73.7032 30.3693 73.5821 30.1392 73.3551 29.9041C73.5178 29.5206 73.678 29.0894 73.8432 28.6469C74.0766 28.0182 74.2292 27.5078 74.3477 27.0941C74.8191 26.8877 75.257 26.6123 75.6468 26.2769C76.0731 26.8339 76.4729 27.7328 76.6558 28.1565C76.868 28.6075 77.0566 29.0691 77.2208 29.5395C76.9498 29.9269 76.7005 30.329 76.4742 30.744H76.4754ZM73.5569 32.8813C73.6014 32.8513 73.6504 32.8284 73.702 32.8134L73.5569 32.8813ZM74.4247 7.82171C74.4478 7.81305 74.472 7.80715 74.4965 7.80411C74.566 7.7955 74.6365 7.79933 74.7047 7.81543C74.605 7.8104 74.5117 7.81291 74.4234 7.8192L74.4247 7.82171ZM66.3035 9.03622C66.4372 9.20595 66.5041 9.46746 66.412 9.55295C66.3451 9.61582 66.2014 9.57432 66.0891 9.53158C66.1232 9.34173 66.1787 9.3103 66.185 9.10914C66.1882 9.04333 66.1827 8.97738 66.1686 8.91301C66.2208 8.94537 66.2666 8.98716 66.3035 9.03622ZM51.0425 29.1523C51.1113 29.0777 51.1918 29.0149 51.2809 28.9662C51.3137 29.005 51.3496 29.0411 51.3881 29.0743L51.6403 29.283C51.5508 29.4892 51.4448 29.6602 51.5142 29.889C51.53 29.9418 51.5538 29.9918 51.5848 30.0374L51.4915 29.9657C51.299 29.7989 51.119 29.6182 50.953 29.4251L50.9101 29.3811C50.9383 29.2976 50.9824 29.2203 51.04 29.1535L51.0425 29.1523ZM60.435 33.5816C59.2444 33.8406 58.6491 33.9701 58.4725 33.9588C58.3887 33.9494 58.3045 33.9452 58.2202 33.9462C58.7727 33.3025 58.8509 33.1793 58.8773 32.9215C58.9038 32.6638 58.8647 32.4186 58.9026 32.2137C59.6321 32.4326 60.383 32.5734 61.1425 32.6336C62.7002 32.7317 63.4821 32.572 63.501 32.6789C63.5338 32.8549 61.3595 33.3804 60.4324 33.5828L60.435 33.5816ZM65.1457 34.6653L65.1861 34.644C65.1724 34.6526 65.1581 34.6602 65.1432 34.6666L65.1457 34.6653ZM64.1455 29.7972C62.9914 29.8668 61.8342 29.8706 60.6796 29.8086C60.8945 29.5789 61.0461 29.2979 61.1198 28.9926C61.1897 28.6841 61.1789 28.3628 61.0883 28.0597C61.058 27.7882 61.0177 27.592 61.1324 27.5015C61.2472 27.411 61.425 27.4487 61.5524 27.5178C61.8438 27.675 61.7769 28.0069 62.0468 28.3979C62.1882 28.6004 62.3787 28.7639 62.6005 28.8732C63.2223 29.1447 64.4154 28.5098 65.1444 27.5116C65.1608 27.6123 65.1883 27.711 65.2264 27.8058C65.287 27.9566 65.4787 28.374 66.3136 28.7902C66.4751 28.8706 66.692 28.9775 66.9354 29.0794C66.7904 29.1158 66.668 29.1523 66.5709 29.1812C65.987 29.3509 65.4648 29.5043 65.0145 29.747L64.1455 29.7972ZM71.5667 26.5384C71.8505 26.7333 72.1973 27.1055 72.7018 27.2614C72.7815 27.2856 72.8629 27.3041 72.9452 27.3167C72.6753 27.5895 72.3222 27.758 71.737 28.491C71.6108 28.6531 71.4986 28.799 71.4078 28.9373C71.253 28.8934 71.0948 28.8626 70.9348 28.8455C70.7769 28.8278 70.6177 28.8248 70.4593 28.8367C70.8668 28.09 71.2364 27.3234 71.5667 26.5397V26.5384ZM92.4604 9.07771C92.7858 8.99096 93.1062 8.70053 93.091 8.45788C93.091 8.32084 92.9763 8.23032 93.0217 8.175C93.0406 8.15111 93.0936 8.131 93.2815 8.18883C93.4674 8.2491 93.6431 8.33728 93.8024 8.45034C93.9189 8.5235 94.0467 8.57703 94.1807 8.60876C94.0626 8.64497 93.9498 8.69654 93.8453 8.76214C93.5414 8.96475 93.3114 9.25976 93.1894 9.60324C93.0002 10.1539 93.231 10.5386 92.9952 11.0981C92.9019 11.2765 92.7908 11.445 92.6635 11.601C92.584 11.7091 92.5096 11.8034 92.4112 11.806C92.3782 11.8073 92.3453 11.8008 92.3153 11.787C92.2852 11.7733 92.2589 11.7526 92.2384 11.7267C92.1338 11.5683 92.4503 11.2942 92.5853 10.9498C92.7795 10.4544 92.5487 9.94396 92.4655 9.75286C92.3606 9.52216 92.207 9.31674 92.0152 9.15063C92.135 9.07897 92.2473 9.13429 92.4604 9.07771ZM82.3591 11.7707C82.4726 11.7707 82.4991 11.7406 82.9897 11.5092C83.4337 11.3018 83.4324 11.3118 83.5371 11.2502C83.7466 11.1258 83.9394 10.9754 84.111 10.8027C84.4667 10.4607 84.705 10.2457 84.8942 10.0747C84.7555 10.3538 84.6067 10.7033 84.4377 11.1145C84.222 11.0617 84.0668 11.1585 83.3845 11.464C82.489 11.865 82.5281 11.7997 82.3818 11.9116C82.0669 12.1648 81.8332 12.5044 81.7096 12.8884V12.8532C81.7063 12.4352 81.6603 12.0185 81.5721 11.6098C81.6276 11.6224 81.7045 11.6563 81.7827 11.684C81.9678 11.7485 82.1633 11.7779 82.3591 11.7707ZM78.0999 12.5729C78.274 12.6068 78.3799 12.5603 78.5754 12.5264C78.8403 12.4824 78.8655 12.5264 79.1959 12.5264C79.1594 12.8872 79.1152 13.3134 79.0496 13.8201C78.8226 15.5802 78.7066 15.4168 78.4985 16.9418C78.4341 17.0085 78.3723 17.0764 78.3118 17.1468C78.2803 17.1845 77.9259 17.8395 77.2158 19.1508C77.1023 19.3608 77.0127 19.528 76.9396 19.6701C76.8454 19.5457 76.7408 19.4296 76.6268 19.3231C76.6225 18.0533 76.5247 16.7855 76.3342 15.5299C76.2017 14.6813 76.0466 13.9797 75.8789 13.326C76.0376 13.2301 76.1875 13.1203 76.3266 12.9978C76.5516 12.7991 76.7436 12.5662 76.8954 12.3076C76.962 12.3211 77.0294 12.3299 77.0972 12.334C77.3255 12.3466 77.4844 12.3026 77.7279 12.4031C77.8868 12.4673 77.9334 12.5364 78.0999 12.5729ZM75.0263 7.81417C75.1562 7.7529 75.2584 7.64521 75.3126 7.51243C75.4427 7.63889 75.5498 7.78694 75.6291 7.94995C75.6668 8.02324 75.6964 8.10039 75.7174 8.18003C75.4907 8.00366 75.2239 7.88577 74.9405 7.8368C74.97 7.83311 74.9988 7.82549 75.0263 7.81417ZM61.3796 17.3844C61.8766 16.9682 61.8513 17.0072 61.9232 16.928C62.2322 16.5911 62.2083 16.4251 62.5463 16.1045C62.6913 15.9675 62.6724 16.024 62.8994 15.8241C63.2778 15.5048 63.3358 15.3539 63.6083 15.1578C63.7419 15.2835 63.9009 15.4306 64.0863 15.5915C63.7205 15.8769 63.2034 16.3899 62.3546 17.4196C62.0607 17.7754 61.8425 18.0482 61.6786 18.2707C61.5866 18.2856 61.5038 18.3346 61.4465 18.4078C61.3696 18.5235 61.4162 18.6592 61.2724 18.8755C61.1816 19.0075 60.9912 19.2087 60.8575 19.1709C60.6708 19.1169 60.8373 18.6567 60.6229 18.3374C60.5198 18.1985 60.372 18.0991 60.2042 18.0558C60.3851 18.0411 60.5619 17.9942 60.7263 17.9175C60.8285 17.8672 60.8222 17.8533 61.3796 17.3844ZM58.9959 16.5823C59.2184 16.5426 59.4386 16.491 59.6555 16.4276C60.0944 16.2931 60.3265 16.1573 60.3631 16.2088C60.3997 16.2604 60.2445 16.4113 59.9443 16.7306C59.6442 17.05 59.6089 17.0613 59.5471 17.1883C59.513 17.2587 59.3591 17.6044 59.5067 17.8345C59.5494 17.8966 59.6077 17.9464 59.6757 17.9791C59.579 17.9791 59.4794 17.9791 59.3768 17.9791C59.38 17.9431 59.373 17.9069 59.3566 17.8747C59.337 17.8397 59.3105 17.809 59.2786 17.7846C59.2467 17.7602 59.2102 17.7425 59.1712 17.7326C59.0186 17.7125 58.8836 17.8898 58.8508 17.9325C58.8274 17.9629 58.8075 17.9958 58.7916 18.0306C58.6768 18.0457 58.562 18.0608 58.451 18.0784L58.4964 18.018C58.6894 17.7553 58.7159 17.4736 58.7487 17.192C58.7665 16.9881 58.7317 16.7829 58.6478 16.5961C58.764 16.6044 58.8807 16.5997 58.9959 16.5823ZM61.8186 35.8547C61.753 35.8258 61.6924 35.7994 61.6243 35.773C61.9598 35.7265 62.3029 35.6636 62.6484 35.5831C62.5224 35.713 62.4099 35.8554 62.313 36.0081C62.1326 35.944 61.9649 35.8937 61.8186 35.8547ZM90.6253 108.702C90.8483 108.862 91.0618 109.035 91.2647 109.219C91.2774 109.247 91.0617 109.546 90.7918 109.884C90.6152 110.102 90.3302 110.469 90.0439 110.841C89.0349 110.58 88.0612 110.372 87.143 110.224C86.94 109.972 86.7369 109.728 86.5452 109.501C87.505 109.302 89.0324 108.964 90.5257 108.621L90.6253 108.702ZM85.5614 117.542C85.318 117.956 84.8501 118.784 84.5285 119.394C84.425 119.588 84.3241 119.771 84.2346 119.927C83.9823 119.917 83.7175 119.912 83.4602 119.908C83.0112 119.338 82.1838 118.347 81.6112 117.709C81.1496 117.197 80.6783 116.703 80.1974 116.227C81.3139 116.014 82.4186 115.744 83.5069 115.416C84.0643 115.743 84.642 116.055 85.2297 116.355C85.4873 116.476 85.7374 116.612 85.9789 116.763C85.8574 117.032 85.7179 117.292 85.5614 117.542ZM86.4203 145.453C84.9724 145.147 83.5077 144.927 82.0337 144.793C80.9165 144.136 79.7531 143.561 78.5527 143.071C77.6484 142.694 77.5614 142.65 77.5815 142.518C77.6232 142.287 78.0242 140.96 78.361 139.895C79.2413 140.318 80.1272 140.714 81.0184 141.082C82.5206 142.658 84.2157 144.026 86.4203 145.449V145.453ZM74.2872 146.77C74.6038 148.266 74.909 149.714 74.9619 149.992L75.0629 150.495L74.3906 150.3C73.7616 148.309 73.291 146.272 72.9831 144.207L73.6843 144.034L74.2872 146.77ZM75.1537 151.108C75.1814 151.108 75.392 152.212 75.6254 153.497C75.3088 152.807 75.0074 152.068 74.7223 151.273C74.8591 151.204 75.0023 151.149 75.1499 151.108H75.1537ZM75.9104 144.748L75.5484 142.709H75.6506C76.0011 142.701 76.3517 142.718 76.6999 142.758C76.5349 143.354 76.4052 143.959 76.3115 144.571L76.2888 144.725L75.9104 144.748ZM76.7769 142.651L75.9785 142.174C75.7843 142.057 75.5875 141.945 75.3908 141.835L75.3227 141.45C75.0124 139.77 74.7665 138.346 74.7311 138.115L74.8573 138.125C75.0742 138.218 75.5346 138.447 76.063 138.727C76.507 138.966 76.9459 139.195 77.3936 139.418C77.2675 139.994 77.0998 140.897 76.9913 141.493L76.7769 142.651ZM70.0545 120.806C69.9372 120.446 69.8022 120.04 69.6609 119.631C69.9267 119.827 70.1877 120.015 70.4442 120.196C70.3786 120.615 70.3189 121.026 70.2651 121.43C70.1982 121.232 70.1251 121.022 70.0545 120.806ZM77.1414 120.545C76.039 119.683 74.8849 118.89 73.6856 118.168C73.7697 117.665 73.8584 117.168 73.9517 116.677C74.4638 116.7 74.9712 116.709 75.474 116.704C77.1458 117.983 78.9459 119.086 80.8456 119.996C79.5998 120.095 78.3622 120.278 77.1414 120.545ZM76.3771 110.836C75.9987 110.945 75.6001 111.071 75.2028 111.213C75.2722 110.962 75.3416 110.701 75.4109 110.45C75.7893 110.479 76.1387 110.498 76.4313 110.505C76.6977 110.501 76.9642 110.516 77.2284 110.551C77.2435 110.571 76.8525 110.696 76.3771 110.836ZM72.5933 110.585C72.1216 110.34 71.6474 110.111 71.1707 109.897C71.6663 109.987 72.1935 110.073 72.7258 110.148L72.5933 110.585ZM66.8774 108.878C67.8006 109.79 69.7682 111.697 70.9045 112.776L71.1568 113.01C70.331 113.448 69.5426 113.952 68.7995 114.519C67.9696 115.181 68.1374 115.355 67.1145 112.726C66.61 111.447 66.0248 109.972 65.7889 109.437L65.3702 108.467L66.8774 108.878ZM71.1341 116.422C71.1101 116.535 71.0874 116.648 71.0647 116.76C70.672 116.574 70.279 116.398 69.8854 116.232C70.3042 116.303 70.7204 116.366 71.1341 116.422ZM78.2185 135.938C78.1832 136.079 78.1491 136.216 78.115 136.349C77.3062 136.207 76.4948 136.088 75.6809 135.992C75.0502 135.919 74.4612 135.85 74.3755 135.844C74.2367 135.836 74.2065 135.79 74.1548 135.569C74.1257 135.423 73.9025 134.465 73.6616 133.431C73.6414 133.352 73.6238 133.274 73.6049 133.199C74.9546 133.626 76.3356 133.948 77.7354 134.162C78.0282 134.198 78.3185 134.253 78.6044 134.325C78.6057 134.344 78.4354 135.067 78.2122 135.937L78.2185 135.938ZM75.4046 129.847C74.8598 129.973 74.2014 130.144 73.8243 130.257C73.4522 130.047 73.0814 129.848 72.7169 129.661C72.6526 129.45 72.582 129.21 72.5076 128.948C72.5341 128.532 72.5631 128.108 72.5946 127.682C74.6484 128.437 76.7786 128.967 78.9475 129.262C77.7537 129.385 76.5684 129.58 75.3983 129.846L75.4046 129.847ZM80.688 127.951C80.6375 128.084 80.6136 128.102 80.5215 128.043C80.4635 128.008 80.0649 127.779 79.6386 127.54C77.4976 126.296 75.2243 125.294 72.8607 124.551C72.8607 124.533 72.8607 124.514 72.8607 124.495C75.9722 125.286 78.7041 125.684 81.5343 125.702C81.4674 125.898 81.3312 126.26 81.1673 126.672C80.9377 127.287 80.7195 127.863 80.6817 127.95L80.688 127.951ZM80.881 104.031C80.0166 103.352 79.1362 102.726 78.2399 102.152C79.0862 100.07 79.9174 98.2962 80.6438 96.8805C81.7954 98.8267 82.46 99.8451 83.3416 101.102C84.2107 102.346 85.1595 103.533 86.182 104.655C84.4319 104.309 82.6574 104.1 80.8746 104.029L80.881 104.031ZM79.1707 94.7268C78.0116 96.961 77.0266 99.0468 76.1942 100.941C74.8945 100.237 73.5397 99.6387 72.1431 99.1524C72.9475 98.7988 73.7312 98.4001 74.4902 97.958C75.9747 97.0917 77.0947 96.3462 79.1644 94.7268H79.1707ZM64.1821 105.735C63.7066 104.688 63.0558 103.259 62.7178 102.556C62.3798 101.853 62.1339 101.271 62.1566 101.247C62.4778 101.192 62.8031 101.164 63.129 101.161C65.6437 101.077 68.1316 100.618 70.5098 99.7986C72.0005 101.265 74.1737 103.375 74.8737 104.027L74.8901 104.042L74.7879 104.3C73.7165 103.686 72.6 103.154 71.4481 102.708C70.6359 102.392 69.9636 102.15 69.9573 102.17C69.951 102.19 70.9663 103.455 72.1923 104.893C71.3094 105.113 70.4265 105.369 69.555 105.67C68.3392 106.097 66.074 107.107 65.3816 107.521C65.2915 107.598 65.1814 107.649 65.0637 107.668C65.0435 107.649 64.6425 106.779 64.1821 105.735ZM63.8794 114.544L64.3486 114.392L64.4394 114.634C64.2439 114.6 64.0535 114.57 63.8794 114.544ZM72.4432 139.031C72.5694 139.498 72.6955 140.037 72.838 140.591L72.5467 140.466C72.5071 140 72.4727 139.521 72.4432 139.031ZM73.3261 142.583C73.4775 143.212 73.5784 143.635 73.5695 143.643C73.5607 143.65 73.2731 143.528 72.8557 143.349C72.8178 143.075 72.7813 142.795 72.7485 142.513C72.944 142.539 73.1369 142.562 73.3299 142.583H73.3261ZM76.1072 185.308C75.9028 180.497 75.8019 178.09 76.3594 175.357C76.4855 174.767 76.8828 172.93 77.3936 170.275C77.8338 171.813 78.1768 173.587 78.7104 176.353C79.2666 179.233 79.7193 181.939 79.7862 187.38C79.853 193.059 79.872 193.184 79.1934 196.587C78.8647 198.238 78.6099 199.516 78.4291 200.419C78.1769 199.49 77.772 197.737 77.1325 194.939C76.3771 191.591 76.2598 188.831 76.1109 185.308H76.1072ZM82.4209 196.563C82.7854 191.632 82.5471 188.326 82.5471 188.326C82.069 181.677 81.8143 178.281 81.002 174.78C80.5593 172.871 80.2453 171.5 79.9716 170.485C81.7714 173.7 83.3252 176.292 84.222 179.789C85.8074 185.957 84.4377 191.807 82.4247 196.563H82.4209ZM76.1412 146.291C76.1097 146.016 76.0945 145.852 76.0996 145.845C76.1225 145.849 76.1447 145.856 76.1652 145.867C76.1576 146.027 76.15 146.169 76.145 146.291H76.1412ZM77.1061 144.678H77.0354C77.0644 144.156 77.1502 143.535 77.4138 143.474C77.5614 143.439 77.714 143.6 77.9536 143.851C78.2513 144.163 78.4934 144.422 78.6877 144.63C78.1428 144.632 77.6118 144.646 77.1098 144.678H77.1061ZM80.8898 134.729C82.1618 136.009 83.5605 137.158 85.0645 138.157C83.2312 137.521 81.3585 137.002 79.4583 136.606C79.5453 136.363 79.6374 136.103 79.732 135.837L80.3386 134.178L80.8898 134.729ZM78.8087 133.638L78.4442 133.355L78.8604 133.473L78.8087 133.638ZM89.103 117.848C90.3188 119.186 91.6457 120.419 93.0696 121.535C91.1547 120.906 89.1862 120.452 87.1884 120.18C87.2477 120.081 87.307 119.983 87.365 119.888L88.8028 117.518L89.103 117.848ZM87.1001 115.039C86.2173 116.422 86.3434 116.381 85.8389 115.522C85.7027 115.289 85.5513 115.045 85.3886 114.791C86.105 114.54 86.9614 114.223 87.838 113.891C87.6198 114.231 87.3473 114.652 87.1001 115.039ZM91.6822 108.36L92.1514 108.252L91.7894 108.665L91.6822 108.36ZM96.0322 104.147C95.7522 104.389 94.3712 105.822 93.4051 106.859C92.4802 106.475 91.5515 106.129 90.619 105.823C88.4938 101.076 85.6081 96.9949 82.2797 93.975L82.291 93.9838C83.1045 92.8234 83.7957 91.7459 84.6874 90.2938C85.4694 91.6013 86.2387 92.8674 86.6953 93.5827C89.5406 98.0661 92.2107 101.086 95.5063 103.578C96.0953 104.025 96.1395 104.066 96.0322 104.149V104.147ZM99.0315 101.485C98.6695 101.783 98.0628 102.299 97.6845 102.632L96.9984 103.238L95.7737 100.73C94.351 97.8147 93.7103 96.7146 92.2548 94.6715C90.3958 92.0677 88.292 89.865 86.0029 88.1225L86.5288 87.2499L86.5401 87.2311C86.9942 86.4843 87.4768 85.678 87.988 84.8121L88.0372 84.7292C88.1129 84.6034 88.1898 84.4677 88.268 84.3344C88.3349 84.22 88.4043 84.1018 88.4736 83.9811L88.5644 83.8264L88.7675 83.4757C88.7978 83.4216 88.8293 83.3688 88.8608 83.3147L89.0765 82.9376L89.1585 82.7943L89.4637 82.2599C89.5356 82.1342 89.6062 82.0085 89.6756 81.8827C89.8534 82.4284 90.0224 82.9514 90.1801 83.4116C91.4098 87.123 92.3242 89.4464 93.5854 91.9948C95.1229 95.1204 96.5847 97.3231 98.8637 99.9419C99.3001 100.445 99.6621 100.867 99.6722 100.89C99.6823 100.913 99.3859 101.189 99.0315 101.486V101.485Z" fill="#E2E2E1"/>
</svg>
