<svg xmlns="http://www.w3.org/2000/svg" viewBox="0 0 375 674"><defs><style>.cls-1{fill:#264F42;}.cls-2{fill:#1B1B1B;}</style></defs><title>Fichier 50</title><g id="Calque_2" data-name="Calque 2"><g id="Test_Header" data-name="Test Header"><rect class="cls-1" width="375" height="674"/><path class="cls-2" d="M356.57,430.42a25.56,25.56,0,0,1-2.71,1.62,11.33,11.33,0,0,1-.37-1.38,166.29,166.29,0,0,0-7.91-25,129.15,129.15,0,0,0-9.14-18.35c2.11-7.19,3-12.66,6.92-26.39,6.62-23.08,10.26-35.74,18.31-50.84A129.64,129.64,0,0,1,375,289.71V250.94a4.22,4.22,0,0,0-2,1.37,12.34,12.34,0,0,0-2.15,3.1,62.18,62.18,0,0,0-3,6.18c-.51,1.25-.88,2.31-1.2,3.23a34.47,34.47,0,0,0-1.15,3.55,4.74,4.74,0,0,1-.66,2.24,6.79,6.79,0,0,1-1,1.13c-.54.47-.85.56-1,.95a1.25,1.25,0,0,0,.24,1.12c.27.34.54.28,1.51.65a5.13,5.13,0,0,1,1.33.65c.52.39.5.62,1.07,1.13a6.1,6.1,0,0,0,1.17.76c1.11.62,1.5.7,2.23,1.08,1.13.58,1.1.86,2.34,1.63a7,7,0,0,0,.9.49A129.6,129.6,0,0,0,354,304.92c-3.57,5.94-4,7.86-18,46.81-3.45,9.65-6.14,17.16-8.31,23.11A95,95,0,0,0,317,363.41c-3.24-2.9-8.55-6.93-8.72-6.65s7.34,18.65,12,29.16c.61,1.39,1.22,2.73,1.82,4-.49,1.25-.93,2.37-1.34,3.39a135.55,135.55,0,0,0-22.84-36c17.26-31.77,20.3-43.67,21.57-49.35a145.21,145.21,0,0,0,3.5-31.95A138.12,138.12,0,0,0,320.56,250c-2.5-12.78-6.24-23.16-12.78-36.58l.5-.09c1.72-.35,1.8-.68,3.32-.87,1-.12,1.45-.06,3-.29a6.76,6.76,0,0,0,1.65-.38c.84-.33.92-.59,1.67-.82a6.17,6.17,0,0,1,1.77-.17c1.25,0,1.53.14,2-.12a1.47,1.47,0,0,0,.74-1.15c0-.48-.28-.7-.7-1.44a8.44,8.44,0,0,1-.68-1.68,5.54,5.54,0,0,1,.19-2.75,41.45,41.45,0,0,0,.19-4.4c0-1.15.05-2.48,0-4.07a72.93,72.93,0,0,0-.85-8.09,14.24,14.24,0,0,0-1.13-4.3c-.41-.89-1.15-2.46-2.13-2.45-.42,0-.72.3-1.21.78-1,1-.94,1.6-1.68,2.42a4.07,4.07,0,0,1-2.56,1.39c-1.39.13-3-.65-3-1.42s1.79-1,3.7-2.6a10.88,10.88,0,0,0,2.8-4c1.35-3.58-.39-7.5-2.83-10.24.22-.13.44-.26.65-.41.62-.46,2.29-1.71,2.45-3.54a5.05,5.05,0,0,0-.57-2.75c-.4-.68-.81-.89-.86-1.49a1.69,1.69,0,0,1,1.06-1.72c1.15-.2,2.36,2.44,2.43,2.6,1,2.27.15,3.23.8,5,.87,2.39,3.66,3.92,6,4.25,2.79.41,4.9-.9,7.17-2.32,5.05-3.15,8.64-8.63,8.84-11.14a4.63,4.63,0,0,1,2-3.72c.63-.52,3.36-2.76,3.21-5-.07-1.08-.77-1.21-.8-2.55a6,6,0,0,1,.6-2.23c.59-1.81-.09-2.76-.47-6.06a25,25,0,0,1-.18-4c3.42-1.17,5-2.44,5.93-3.56a19.41,19.41,0,0,0,4-9.79,8.23,8.23,0,0,1,1.12-4.31c.79-1.17,1.62-1.51,1.54-2.31-.09-1-1.36-1.1-2.39-2.68a6.15,6.15,0,0,1-.8-2.07c-.72-2.47-3.73-4-8-6.14C341.32,98.28,339,98,338,97.93c-1.82-.14-3.12-.23-4.31.56-1.74,1.18-1.63,3.19-3.38,3.68a2.25,2.25,0,0,1-2.15-.41,1.16,1.16,0,0,1-.29-.6c.27-.24.55-.49.83-.78a7.73,7.73,0,0,0,2-2.87c.25-.72.11-.74.34-1.5.72-2.47,2.41-2.89,2.47-4.61,0-.82-.36-.56-.56-2-.23-1.64.29-2.17-.07-3.8a4.52,4.52,0,0,1-.23-1.23c0-.88.36-1,.5-1.91.18-1.15-.29-1.5.08-2.34.22-.49.38-.44.59-.9a3.26,3.26,0,0,0-.13-2.41,8.11,8.11,0,0,0-2.14-2.42c-1.13-1.08-1.72-1.61-2.37-1.68-.22,0-.56,0-.71-.24s.18-.76.28-1.16c.23-1-1.19-2.09-4-4.32a34.48,34.48,0,0,0-3.21-2.44,16.09,16.09,0,0,0-4.3-1.81,20.2,20.2,0,0,0-3.16-.6A7,7,0,0,0,316,59.83,7.12,7.12,0,0,0,317,57.66c.32-1.36-.25-1.93-.73-4.27s0-2.38-.55-4.29a8.42,8.42,0,0,0-1.59-3.58c-1.2-1.41-2.38-1.5-2.94-3-.27-.72-.13-1-.53-1.49-.6-.67-1.54-.65-2.89-.73-2-.11-.07-.18-4.47-.55-1.48-.13-3.5-.27-4.48-.3a33.51,33.51,0,0,0-12.51,2.13c-.4.17-.81.35-1.21.54a5.42,5.42,0,0,0-.79-1.92A2.37,2.37,0,0,0,282.86,39c-.69-.11-1.25.38-1.76,0a1.12,1.12,0,0,1-.4-.57c-.17-.46,0-.75,0-1.17A2.2,2.2,0,0,0,280,36c-.85-1.06-1.47-.67-2.46-1.72a3.68,3.68,0,0,1-1.19-1.77,1.1,1.1,0,0,0-.35-.72,1,1,0,0,0-.73-.13c-.7.08-.92.52-1.42.6-.68.11-.82-.16-2.08-.4-1.51-.29-2.26-.44-3-.12-.19.08-.5.25-.74.12s-.18-.49-.4-.76-.54-.41-1.47-.28c-2.76.37-6.59,3-7.73,3.82-.16.11-.45.32-.83.61-.55.42-.73.6-1.09.87-2,1.49-2.41,1.54-3.1,2.44-.19.24-1.76,2.32-1.06,4,.3.73.7.57,1.4,1.68a3.82,3.82,0,0,1,.72,2.93c-.13.51-.5,1.25-.94,1.25s-.77-.7-.82-.82c-.33-.71,0-1.11-.3-1.83a2.79,2.79,0,0,0-.75-1,12.16,12.16,0,0,0-4-2.66,10.61,10.61,0,0,0-5.15-.47,3.83,3.83,0,0,0,.47-2.24c-.11-.78-.47-1.26-.19-1.68s1.08-.14,2-.74a2.78,2.78,0,0,0,1.09-1.58,3.2,3.2,0,0,0-.1-1.79,6.48,6.48,0,0,0-1.36-2.75,9,9,0,0,0-3.07-2.05,17.7,17.7,0,0,0-3.13-1.31c-1.93-.6-2.95-.91-4.28-.71a10.06,10.06,0,0,1-2.65.46,11.71,11.71,0,0,0-1.84-.2,6.45,6.45,0,0,0-2.31.67,2.51,2.51,0,0,1-1.07.43,2.06,2.06,0,0,1-.95-.18C223.78,27.39,221,31,221,31c-1.79,2-3.69,4.5-4.86,6,0,0,0,0,0,0-.21.43-.72,1.51-1.48,3.07-.06.11-.1.21-.15.31a13.92,13.92,0,0,1-1.64.26c-2.34,0-2.93-1.81-4.49-1.61-1,.13-.86.84-3,2.36a9.11,9.11,0,0,1-3.33,1.7,8,8,0,0,1-3.65-.3c-3.78-.64-8.38,3.87-11,8.76l-.24,0a4,4,0,0,0-1.76,1,7.85,7.85,0,0,0-2.09,2.46c-1,1.89-.63,3.47-1.26,3.6-.3.06-.65-.25-.8-.55-.3-.62.24-1.35,1-2.57,1.11-1.88,1.67-2.82,1.77-3.74a5,5,0,0,0-1.06-3.36,5.86,5.86,0,0,0-3.32-2.18,9,9,0,0,0-3-.06c-1.11.07-3,.21-8.06,1-.76.13-1.78.3-2.2,1-.34.59-.08,1.18-.5,1.5s-.85-.06-1.66-.11a5.56,5.56,0,0,0-3.63,1.63c-1.08.93-.83,1.26-1.61,1.61-1,.47-1.69,0-2.9.62a1.92,1.92,0,0,0-1,.91c-.27.64.23,1,.07,1.77s-.61.7-1,1.67c-.3.77-.08,1-.37,1.65s-.79,1-1.23,1.49c-.85,1-.65,1.85-1,3.46-.51,2.32-1.29,2.2-2,4.6a9.15,9.15,0,0,0-.43,4.74c.4,1.93,1.77,4.5,4.07,5.1a6.09,6.09,0,0,0,2.48,0c1.9-.26,2.39-.91,4.34-1.17,1-.13,2.6-.19,2.73.24s-.63.76-.79.86c-1.26.8-2.31.42-3.94.76a7.7,7.7,0,0,0-2.63,1.1,8.33,8.33,0,0,0-3.07,3.65c-.06.12-.11.25-.17.39a3.5,3.5,0,0,0-.74,1.77c-.07.73.17,1.8-.49,2.31a1,1,0,0,1-.74.22c-.91-.19-1.14-2.42-1.23-3.24-.19-1.83.2-2.15-.17-3.4a6.56,6.56,0,0,0-1.26-2.26,8.31,8.31,0,0,0-2.95-2c-2-.95-5.47-2.59-7.09-1.31-.41.32-.54.7-1.17.95-.82.31-1.27-.08-2.21.07A3.35,3.35,0,0,0,132,79c-.41.53-.39,1-.53,3.32-.16,2.54-.23,2.8-.35,3.07-.68,1.54-1.9,1.46-2.42,2.44-1.17,2.22,2.71,6.94,6.45,10.08,4,3.38,7,4.23,6.81,5.75-.26,1.69-4.11,1.37-6.1,4.66a7,7,0,0,0-.7,1.58,24.33,24.33,0,0,0-2.71,4c-1.57,2.63-1.54,3.24-2.71,4.31s-1.78.81-4,2c-1.17.59-1.17.74-5,3.54-1.91,1.41-3.74,2.91-5.66,4.31-1.7,1.24-3,2.14-2.86,3.1.12.76,1,.86,1.32,1.87s-.3,1.57-.67,2.57a8.37,8.37,0,0,0,.19,5.31,12.22,12.22,0,0,0,2.72,4.78,14.44,14.44,0,0,0,5.87,3.64l.29.11a13.32,13.32,0,0,0-2.11,2.85c-.92,1.65-.92,2.33-1.81,5.36-1.58,5.41-2.77,6.45-2.13,8.51a4.11,4.11,0,0,1,.33,2.22c-.29,1.46-1.55,1.95-1.37,2.73s1.15.49,2.49,1.37c1.63,1.07,1.12,2,3.15,3.66,1.33,1.11,1.92,1.58,1.92,1.58.93.75,1.15.9,1.28,1.27.29.9-.6,1.4-.35,2.35a2.7,2.7,0,0,0,1.5,1.47c.78.4,1.1.23,1.93.47,1.41.41,1.39,1.14,3.14,2.16-.35,1.26-.68,2.11-.85,2.63-1.11,3.32-1.18,8.76,1.16,10.15.66.4,1.47.43,2.09,1.29.5.69.36,1.19.69,2s1,1.34,2.5,2.42c3.19,2.22,3.14,1.94,4.38,2.92,2,1.54,2.13,2.27,3.71,2.85a4.69,4.69,0,0,0,2.73.31,5.22,5.22,0,0,0,2.73-1.78c.88-1.06.82-1.81,1.45-2s1,.57,2,.93a4.54,4.54,0,0,0,3.32-.39,3.68,3.68,0,0,0,1.23-1.12,6,6,0,0,0,1.94.66c2.7.43,5.56-1.09,6-.22.16.31-.11.73-.2.88-.94,1.48-3.32.56-5.23,1.55s-2.52,3.86-3,6.56c-.4,2.41-.11,4.34.46,8.2.93,6.17,2.19,7.36,2.9,7.87a6.45,6.45,0,0,1,1.74,1.26c1.21,1.42.86,2.91,2.14,3.65a1.56,1.56,0,0,0,1.12.25c.75-.18.7-1.08,1.45-1.36.53-.2.77.2,2.3.47.86.15.77,0,1.42.15,1.59.33,2.13,1.07,2.68.77s.21-.68.7-1a2.15,2.15,0,0,1,1.79.07c.93.34.89.74,1.55,1s1.3-.11,3.1-.64c1.26-.37,1.07-.2,2.62-.62a21.61,21.61,0,0,0,3.84-1.28,8.83,8.83,0,0,0,4.05-3,6.78,6.78,0,0,0,1.11-3.86,7,7,0,0,0-1-3.23c-1.65-3.09-4.18-3.56-4.26-5.77,0-.5.08-1.25.43-1.36.87-.28,2.09,3.67,4,3.63.9,0,1.62-.93,2.66-2.25a11.08,11.08,0,0,0,1-1.43,7.26,7.26,0,0,0,1.82.34c.42,0,1.65-.05,4.1-.21,1.77-.11,1.75-.12,1.88-.11,2.13.25,2.69,1.77,3.94,2.06.79,4.07,2.71,8.06,6.19,10.22,2.92,1.81,7.92,2.93,10.45,1.35a13.05,13.05,0,0,0,2.36-1.88c1.34-1.43,1.73-2.67,2.24-2.56s.67.93.59,1.66c-.11,1.12-1,1.51-1.87,2.83a6.67,6.67,0,0,0-.2,7.78,14.26,14.26,0,0,0,2.55,3.56c2.76,2.94,5,5.33,8.27,5.74,2.28.29,2.59-.7,5.48-.23,2.17.35,2.88,1,4.29.63.87-.26,1.63-1,3.15-2.5a25.4,25.4,0,0,1,2.48-2.5c1.1-.83,1.32-.68,2.38-1.56s1.11-1.24,2.09-2a13.33,13.33,0,0,1,2.25-1.21c1.09-.61,1.12-1,3.19-3.46,2.32-2.71,3.48-3.59,3.59-5a12.59,12.59,0,0,1,.14-1.27,13,13,0,0,1,.58-2.22c.49-1.49-.21-3.15-.67-4.24-.93-2.19-3.2-5.22-5.62-5.1-.64,0-.58.25-1.77.43s-3,.47-3.86-.45c-.47-.5-.8-1.42-.46-1.84.61-.74,2.57.94,4.85.19a5.09,5.09,0,0,0,2.46-2c1-1.37,1-2.73,1.16-4.7s.17-3-.37-4A3.94,3.94,0,0,0,261,203a6.55,6.55,0,0,0,4.44-.93c.39-.3,1.5-1.29,1.93-1,.25.17.11.66.08,1.42a13.13,13.13,0,0,0,.41,2.79,14.84,14.84,0,0,0,10.74,10.62,12.68,12.68,0,0,0,7.75-.47,8.06,8.06,0,0,0,3.8-2.75,8.23,8.23,0,0,0,1.22-3.08c.55-2.59-.18-3.9.5-4.3s2.57.45,2.84,1.67a3.1,3.1,0,0,1-.77,2.23c-.69,1-1.43,1.22-1.4,1.89a1.48,1.48,0,0,0,.48.91,4.09,4.09,0,0,0,2,1.19,21,21,0,0,0,3.46.83c6.16,13.72,9.87,24.37,12.18,38.53a170,170,0,0,1,2.21,27.57,157.65,157.65,0,0,1-3.93,35.74l-.3,1.26A111.94,111.94,0,0,1,302,336.28a106.51,106.51,0,0,1-9.25,15.8c-.49-.48-1-.95-1.49-1.41-3.29-3-5.71-5-5.83-4.87s1.57,5.2,3.59,11.54c-2.58,3.56-5.38,7.31-8.43,11.52l-.11.16c-5.87,8.12-9.88,13.38-13,18q-2-1.19-4-2.27c-2.6-1.4-2.93-1.53-2.77-1,.12.39,1.78,3.35,4.13,7.38-.32.53-.63,1.07-.93,1.61l-3.17,5.75-.44,0c-29.72-1.55-57.23,10.8-77.48,34.86-2.88,3.38-5.75,7-6.34,8l-1.15,1.75-4.42-8.7c-3.68-7.28-15.47-29.12-17.42-32.27-.56-.87-.29-.92,3.42-1.08,20.73-.87,38.15-7,57.51-20.5,8.1-5.59,31.07-23.46,31.73-24.67.31-.59-.17-.72-4-1.31-21.93-3.34-42.57.24-60.72,10.49-9.76,5.5-14.16,9.05-24.27,19.44l-8.69,9-3.61-6c-2-3.27-5.2-8.43-7.12-11.45a45.61,45.61,0,0,1-3.28-5.65c.07-.08,2.45-1,5.29-2,4.34-1.58,9.64-3.55,19.75-9.64a119.09,119.09,0,0,0,17.65-13.22c5-4.47,10.71-10.34,27.33-33.53,4.31-6,10.16-14.32,16.95-24.41a70.9,70.9,0,0,0-11.3,2c-4.53,1.19-15.07,4.44-33.71,19.32-3.9,3.11-26.62,21.22-34.26,36.07-.55,1.09-7.18,14.09-8.55,18.47-.14.46-1.11,3.62-1.48,3.53,0,0,0,0-.06,0-.21-.27-3.42-5-7.09-10.48-5.08-7.49-12.81-18.68-14.4-20.74,0,0,2.56-.79,5.75-1.56,18.84-4.82,30.54-12.6,46.15-30.7,8.14-9.42,21.48-26.38,21.24-27s-8.25-.18-13.22.61c-17.89,2.81-34.3,13-46.44,28.8-6.06,8-11.82,17.78-14.84,25.34a8.44,8.44,0,0,1-.73,1.46c-.12,0-1.69-2.13-3.55-4.63s-5.69-7.64-8.52-11.31-5.21-6.78-5.25-6.89a17.13,17.13,0,0,1,3.35-1.51c12.64-4.75,20.32-12.28,34.12-33.19,1.64-2.44,3.3-5.06,3.74-5.79l.74-1.38-1.09,0a49.11,49.11,0,0,0-11.39,2.33,48.19,48.19,0,0,0-18.11,12.18C98.13,287.28,92.74,296.19,90,303a31.45,31.45,0,0,1-1.41,3.34c-.06,0-2.24-2.67-4.86-5.91s-6.72-8.25-9.11-11.09-4.35-5.23-4.42-5.32a28.14,28.14,0,0,1,3.61-1.29c13.73-4.38,21.79-11.57,34.84-31.18,2.71-4.09,5.28-8,5.72-8.76l.76-1.4-2.15.11c-5.55.18-13.44,2.91-19.57,6.7-4.27,2.65-13.15,12.3-16.24,17.63a92.61,92.61,0,0,0-6.62,14.44,10.64,10.64,0,0,1-1.14,2.64c-.08,0-3.18-3.46-6.82-7.65s-6.93-7.87-7.3-8.21-.24-1.47,1.25-4.89C62.85,248,64.12,235.43,63.11,197L63,190.61l-1.61,1.74c-1.79,1.86-4.43,6.38-5.94,10.16C50,215.79,48.65,238.41,52,260.3l.51,3.48L51,262.18c-9.49-10.1-15.24-16.2-17-18l-2.22-2.27,1.06-2.14c7.16-14.28,8.89-30.15,7.49-69L40.09,165l-2.21,2.91C28.14,180.53,25,206.53,29.54,236a27.71,27.71,0,0,1,.5,4.06c-.1,0-2.16-2.1-4.63-4.6L20.93,231l.31-5.52c.81-13.63-.57-27-4.78-46.16-1.57-7-9.07-36.89-9.41-37.51s-1.48,4-2,7.81C2.4,167.51,6.4,193.2,16.21,222.2l2.13,6.26L7.83,218.63C4.48,215.51,2,213.19,0,211.25v4l.46.37A66.93,66.93,0,0,1,8,222.84c7.38,7.81,15.14,16.12,14.9,16.29l-.09,0c-.39-.24-2.32-1.75-4.32-3.37-5.34-4.32-11.87-9-18.47-13.44v10.66a128.71,128.71,0,0,0,20.14,7.22l5.07,1.32,4.16,4.7c4.18,4.68,17.32,20.2,21.68,25.58,1.79,2.26,2.1,2.74,1.33,2.26C33.67,262.34,22.6,256.75,7.63,251.45c-2.47-.88-5-1.66-7.63-2.32v11.05l2.35,1.12C22.94,271,36.81,275.3,51,276.37l4,.32,1.82,2.21c2.81,3.46,17.07,21.87,18.64,24.12l1.42,2-4-2.63C46.28,285,18.68,275,.61,276.19l-.61.05v2.39C6.89,282.17,22.75,290,29.26,293c17.63,8,29.77,11.7,42.88,12.93a53.29,53.29,0,0,1,5.85.71c.77.49,13.39,18.3,21.76,30.68l3.7,5.46-4.34-3.12A396.94,396.94,0,0,0,44.72,307c-16.54-8-31.33-13.23-44.72-15.92V303c6.66,3.73,13.4,7.46,18.27,10.11,35.19,19.14,56.24,27.3,80.87,31.23a33.07,33.07,0,0,1,6.12,1.34c.62.57,12.42,19.19,17.79,28.08,4.69,7.74,9.86,16.61,13.79,23.62,2.53,4.49,3.23,4.72-7.23-2.52A429.42,429.42,0,0,0,89.38,370.2C54.72,351.39,23.55,341.51,0,341.84v3.81l18.88,10.44c26.62,14.78,42.64,23.06,56.69,29.35,21.87,9.82,40.88,15.5,60.41,18.08l4.71.65,3.09,5.77c3.32,6.18,10,19,11.22,21.55l.72,1.53-7.17-4.39a427,427,0,0,0-44.25-23.37A249.9,249.9,0,0,0,70,392.71c-15-4.29-28.3-6.29-40.06-5.94-5.59.14-14.22,1.13-14,1.6.09.23.41.37,26.39,12.65,36.38,17.18,52.48,23.8,71.29,29.13a166.84,166.84,0,0,0,39.14,6.69l5.09.24,4.82,9.91c6.67,13.74,11.6,24.67,11.17,24.73a61.87,61.87,0,0,1-6.43-3.79c-18.08-11.39-37.45-21.78-53.85-28.82a264.18,264.18,0,0,0-35.76-12.42,13.3,13.3,0,0,0,.61-2.38c-.05,0-.94.85-2.11,2-2.56-.64-5-1.17-7.21-1.59a134.21,134.21,0,0,0-24.32-2.24c-2.07.07-4.14.19-5.92.33,2.41-8.25,4.41-15.39,4.29-15.46s-3,2.66-6.59,6.59c-12.26,13.55-21.8,29.32-29,48.09-.52,1.34-1,2.71-1.51,4.11-2.06-.26-4-.48-5.95-.69v9.17l3.09.27C2,478.65.92,482.51,0,486.35v21.27l.71-.93A171,171,0,0,0,19.8,476.35l.55.06c7.31.9,13.82,2.08,19.44,3.32A203.66,203.66,0,0,0,32,500.56a206.53,206.53,0,0,0-7.68,32.86c-1.24,8.59-.92,8-3.15,5.79-3.49-3.47-7.76-8-11.35-12.14-2.65-3-7-8.31-9.77-11.87V538l.65.78C2,540.41,4.31,543.21,5.83,545l2.76,3.17L0,551.75v11.89q4.74-4.11,9.19-8.47c3-2.89,3.21-3.1,3.58-2.61,1.45,1.7,12.68,12.18,16.6,15.48l4.69,4-2.49.8c-1.35.41-6.84,2.43-12.15,4.49-6.65,2.56-13.14,5.31-19.42,8.25v19A68.83,68.83,0,0,0,7.72,617.2q-4,3.45-7.72,7v42.06a102.26,102.26,0,0,0,13.18,3.69c3.21.61,3.45.22-.4,4.07h22.3l4-3.21c3.88-3.17,7.5-6.2,10.9-9.13A120.33,120.33,0,0,0,55.08,674H77.26c1-1,2-2,2.9-3,.89,1,1.79,2,2.7,3h30.93c.32-.46.62-.92.92-1.36,1.08.49,2.16.94,3.27,1.36h3.42c-.88-1.3-2.3-3.37-3.89-5.65,3.4-5.29,6.37-10.34,9-15.26a62.4,62.4,0,0,0,7.49,2.83c.43.13.92.26,1.44.4-1.12.86-1.86,1.51-1.81,1.66a3.24,3.24,0,0,0,.74.18c-2,2.59-3.83,5.12-5.47,7.54q-2.86,4.23-5.3,8.3h17.9c3.31-4.68,6.23-9.13,8.82-13.48,3.75.52,7.66,1,11.21,1.5-2.44,4-4.7,8.05-6.69,12h24.66s0-.07,0-.11a42.81,42.81,0,0,1,3.17-9.72c2.24.14,4.4.22,6.49.27q-2.68,4.78-4.82,9.56h12.43c1.87-3.52,3.44-6.77,4.77-9.89l1.15-.1c-.11,3.3-.15,6.48-.15,9.86V674H221c-1.22-3.86-2.51-8-3.9-12.61a75.65,75.65,0,0,0,11.36-4.2,27,27,0,0,1,3.59-1.52c.17,0,2.09,10.48,3.44,18.33h16.17q-.24-.79-.48-1.56c-.09-1-.19-2-.31-2.91.25-.81.51-1.61.78-2.38A99.82,99.82,0,0,0,265.26,674h32.07a103.77,103.77,0,0,0-1.28-19.13c3.93.73,8,1.38,12.26,2A141.68,141.68,0,0,0,306.57,674h12.88a155.32,155.32,0,0,0-1.14-15.89l9.54,1.09a133.6,133.6,0,0,0,1.21,14.8h13.66c-.14-1.4-.3-2.82-.49-4.25-.39-2.94-1-6.06-1.65-9.24a17.74,17.74,0,0,0,3,.17,22.69,22.69,0,0,0-3.53-2.48A125.6,125.6,0,0,0,333.87,639l-1.54-3.69,9.2-2.31c5-1.31,9.29-2.34,9.4-2.35a22.54,22.54,0,0,1-.43,4.23,145,145,0,0,0-.56,39.17H362a133.77,133.77,0,0,0-3.78-40.8c-.48-2-.93-3.79-1-4.06-.13-.43,0-.53.58-.72.4-.11,3-1,5.82-1.85a51.67,51.67,0,0,1,5.09-1.54c-.18,1.68,0,10.1.36,14.65A122.52,122.52,0,0,0,375,670.13V629.27c-.81-1.31-1.58-2.53-2-3.16-.68-1-1.27-1.88-1.31-2a16.91,16.91,0,0,1,3.33-1.5V612.1l-1.54.7.88-5.52c.24-1.47.46-3,.66-4.46V552.33c-.05-.28-.09-.53-.13-.77a95,95,0,0,0-7.75-24.44c2.3.42,5,.89,7.88,1.38V517l-2-1a156.23,156.23,0,0,0-30.58-10.71,198,198,0,0,0-37.91-4.88,27.68,27.68,0,0,1-4.56-.34c-.21-.18,2.08-3.33,5.58-7.71.6-.29.92-.48.89-.55a1.28,1.28,0,0,0-.33-.15c1-1.22,2-2.53,3.16-3.88l4-4.77,3.39,2.23a139.34,139.34,0,0,0,26.47,13.67c9.44,3.71,18,6.26,31.92,9.29V492.92l-.18-.07a153.29,153.29,0,0,0-23.68-7.23A208.78,208.78,0,0,0,320,481.38l-5.09-.25.59-.75c1-1.22,6.41-7.19,9.09-10l2.49-2.65,3.17,1.76a145.2,145.2,0,0,0,41.43,15.59c1.08.24,2.18.47,3.31.7V469.51q-5.52-1-11.29-1.75a187.82,187.82,0,0,0-28.57-1.41c-7.48.21-7,.38-5-1.62,3.14-3.12,7.25-7,10.95-10.27,4.24-3.79,13.48-11.45,13.94-11.56a26.62,26.62,0,0,1,4.15,1.93A130.27,130.27,0,0,0,375,452V441.45c-5.32-.23-10.58-.23-15.41,0l-3.11.17,2.86-2.13c5.33-4,12.84-9.2,15.66-10.94v-8.91c-.82.43-1.6.84-2.25,1.2-2,1.06-3.59,1.91-3.67,1.91s-.34-1.38-.68-3a108.71,108.71,0,0,0-6.76-20.5,77.06,77.06,0,0,0-11.07-17.17,66.29,66.29,0,0,0-7.37-7l-.72-.53.38,1.32c.24.73,1.14,3.37,2,5.87C352.45,403.06,357,412,365,421.34a26.45,26.45,0,0,1,2.11,2.65c0,.06-1.82,1.13-4,2.41S358,429.49,356.57,430.42ZM133.91,151.05a2.69,2.69,0,0,0,.27.6l-.36-.28a21,21,0,0,1-2.23-2.25l-.19-.19a2.9,2.9,0,0,1,.59-1,3.92,3.92,0,0,1,1-.77,4.67,4.67,0,0,0,.44.45c.4.33.73.62,1,.86A3.59,3.59,0,0,0,133.91,151.05Zm60.86-87.33a2.06,2.06,0,0,1,.56.51c.56.71.83,1.8.45,2.15s-.87.09-1.34-.09a9.27,9.27,0,0,0,.4-1.75A3.06,3.06,0,0,0,194.77,63.72Zm-1.17,65.73h0c.68.27.89,1.18.93,1.34.3,1.3-.62,2.28-1.67,3.51C193.08,133.05,193.31,131.43,193.6,129.45ZM174.9,99c2.06-1.73,2-1.58,2.25-1.9,1.28-1.41,1.19-2.11,2.59-3.43.6-.57.51-.33,1.47-1.17,1.54-1.33,1.81-2,2.94-2.77.55.54,1.21,1.13,2,1.8A52.36,52.36,0,0,0,179,99.13c-1.23,1.48-2.13,2.63-2.81,3.55a1.46,1.46,0,0,0-1,.57c-.32.48-.13,1.06-.73,1.94-.37.56-1.16,1.39-1.72,1.23-.77-.22-.08-2.13-1-3.47a3.19,3.19,0,0,0-1.74-1.17,6.32,6.32,0,0,0,2.16-.57C172.61,101,172.59,100.93,174.9,99Zm-12,2.63a6.38,6.38,0,0,0,1-3.44,5.1,5.1,0,0,0-.41-2.46,6.53,6.53,0,0,0,1.46-.07,26,26,0,0,0,2.73-.65c1.82-.56,2.79-1.12,2.94-.91s-.49.85-1.74,2.17-1.39,1.38-1.64,1.91c-.15.3-.79,1.73-.17,2.69a1.76,1.76,0,0,0,.69.6c-.4,0-.81,0-1.23,0a.78.78,0,0,0-.09-.43,1.2,1.2,0,0,0-.77-.59c-.63-.09-1.19.65-1.32.83a1.56,1.56,0,0,0-.25.41l-1.42.19A2.07,2.07,0,0,0,162.93,101.62Zm15.83,74.89c-.74-.26-1.43-.47-2-.63l-.8-.34c1.38-.2,2.8-.46,4.23-.79A11.49,11.49,0,0,0,178.76,176.51ZM171,166.42c-4.94,1.08-7.41,1.62-8.14,1.56a8.07,8.07,0,0,0-1,0c2.29-2.68,2.61-3.19,2.73-4.27s-.05-2.11.1-2.94a44.75,44.75,0,0,0,9.29,1.74c6.47.41,9.71-.25,9.79.19C183.84,163.39,174.82,165.58,171,166.42Zm25.47-18.34a33.54,33.54,0,0,0-6.46,2.35l-3.6.24a128.36,128.36,0,0,1-14.39.05,7.56,7.56,0,0,0,1.83-3.4,7.74,7.74,0,0,0-.13-3.89c-.13-1.12-.29-1.94.18-2.32a1.72,1.72,0,0,1,1.75.07c1.21.65.93,2,2,3.64a6,6,0,0,0,2.3,2c2.57,1.13,7.52-1.51,10.55-5.67a6.15,6.15,0,0,0,.34,1.23c.25.62,1.07,2.36,4.51,4.09.67.34,1.56.78,2.58,1.21C197.35,147.81,196.84,148,196.44,148.08Zm35.09-88.93a2.32,2.32,0,0,0,1.18-1.26A6.61,6.61,0,0,1,234,59.71a4.29,4.29,0,0,1,.36,1,7.22,7.22,0,0,0-3.18-1.43Zm-2.21-.06a2.71,2.71,0,0,1,.87,0,11.45,11.45,0,0,0-1.19,0ZM217.9,145.23a22.57,22.57,0,0,0-1.36,1.86,11.84,11.84,0,0,0-2-.39,10.12,10.12,0,0,0-2,0c2.06-3.8,3.59-7.23,4.58-9.57,1.17.81,2.61,2.36,4.72,3a7,7,0,0,0,1,.23C221.8,141.48,220.33,142.18,217.9,145.23Zm7.52,18.26a2.16,2.16,0,0,1,.61-.28Zm12.12-8.89c-.72,1.32-1.45,2.65-2.15,4a81.5,81.5,0,0,1-8.52,4.23,2.85,2.85,0,0,0,.26-.17,4.68,4.68,0,0,0,1.27-1.56c.86-1.73-.24-3.86-1.47-6.24a14.24,14.24,0,0,0-2.36-3.74c.67-1.59,1.34-3.39,2-5.23,1-2.6,1.61-4.74,2.09-6.47A21.52,21.52,0,0,0,234.1,136a42.87,42.87,0,0,1,4.21,7.82,58.43,58.43,0,0,1,2.35,5.74A52.89,52.89,0,0,0,237.54,154.6Zm10.69-70.47c-.95,7.34-1.43,6.64-2.29,13-.27.28-.53.56-.78.86-.13.15-1.6,2.88-4.54,8.34-.47.87-.85,1.57-1.15,2.16a11.57,11.57,0,0,0-1.3-1.45A105.69,105.69,0,0,0,237,91.25a93.67,93.67,0,0,0-1.88-9.18,12.81,12.81,0,0,0,1.85-1.36,11.65,11.65,0,0,0,2.37-2.88,4.49,4.49,0,0,0,.83.11,6.59,6.59,0,0,1,2.61.29,6.33,6.33,0,0,0,1.55.71,4.91,4.91,0,0,0,2-.19,13.61,13.61,0,0,1,2.57,0C248.68,80.24,248.5,82,248.23,84.13Zm13.76,12c0-.18-.06-.36-.1-.55a5.79,5.79,0,0,0-1.46-2.69,4.1,4.1,0,0,0-2.56-1,19.3,19.3,0,0,0,1.19-4.18,3.68,3.68,0,0,0,.48.75,5.67,5.67,0,0,1,1.17,1.79,6.15,6.15,0,0,1,.38,1.8,3.44,3.44,0,0,0,1.6,2.14C262.44,94.94,262.21,95.57,262,96.15Zm8.62-23.27c-.9-.21-1.54.19-4.37,1.46-3.72,1.67-3.56,1.4-4.16,1.87a8.54,8.54,0,0,0-2.79,4.06s0-.1,0-.14a25.43,25.43,0,0,0-.57-5.18,8,8,0,0,1,.88.31,6.63,6.63,0,0,0,2.38.36c.47,0,.58-.13,2.63-1.09,1.85-.87,1.84-.82,2.28-1.08a12.21,12.21,0,0,0,2.37-1.86c1.48-1.43,2.47-2.32,3.25-3C271.93,69.72,271.31,71.15,270.61,72.88Zm16.56,93.62c-.31-.26-.05-1.07.17-1.52.7-1.46,2.33-1.29,3.31-2.57a2.63,2.63,0,0,0,.45-.9,21.49,21.49,0,0,0,2.65,1.85C289.84,164.63,287.79,167,287.17,166.5Zm18.94-93.68a13.3,13.3,0,0,1-1.38,2.09c-.33.45-.64.84-1.07.86a.89.89,0,0,1-.72-.34c-.43-.65.88-1.79,1.44-3.23a6.63,6.63,0,0,0-.49-5A7.28,7.28,0,0,0,302,64.71c.5-.3,1-.07,1.86-.3,1.35-.36,2.68-1.56,2.63-2.58,0-.58-.48-.95-.29-1.18s.3-.19,1.08.06a7.79,7.79,0,0,1,2.16,1.09,5.77,5.77,0,0,0,1.56.66,5.51,5.51,0,0,0-1.38.63,7.08,7.08,0,0,0-2.73,3.5C306.13,68.89,307.09,70.49,306.11,72.82Zm-26.85,317,.05-.07q2.82-4.65,6-10l.71-1.19c.1-.19.21-.38.32-.56.35-.6.71-1.23,1.09-1.87l.11-.19,1.24-2.15,0,0,1.26-2.21.09-.15,1.31-2.31c.3-.52.59-1,.88-1.56.74,2.27,1.44,4.45,2.07,6.36,5.1,15.45,8.92,25.14,14.11,35.74.73,1.49,1.45,2.92,2.18,4.32-1.94,3.47-3.86,6.66-5.7,9.59-.62-.89-1.26-1.81-2-2.78a126,126,0,0,0-25.94-27.27Zm-7.64,12.67c3.24,5.44,6.44,10.71,8.33,13.69a195.35,195.35,0,0,0,15.48,21.46c-.84,1.17-1.63,2.26-2.36,3.29l-6.07,8.4a139.28,139.28,0,0,0-25.32-31.48C265.05,413,267.92,408.55,271.62,402.51Zm54.47,160.38c-1-.5-2.33-1.11-3.84-1.77a64.86,64.86,0,0,0-7-10.31,18.09,18.09,0,0,0-2.19-2.41c-.06,0,.27,4.1.73,9.3-3.42-1.32-6.7-2.49-8.88-3.14a183.27,183.27,0,0,0-27.26-5.87c5.24-.65,10.72-1.57,16.58-2.75,6.57-1.32,17.51-3.73,24-5.23,4.49,2.75,9.37,5.39,14.82,8.06.56,7.16,1.22,14.73,1.64,18.63,0,.1,0,.19,0,.28C332,566,329.06,564.37,326.09,562.89Zm10.26,16.8c.26,1.6.54,3.16.83,4.68-1.73-1-4.6-2.43-7.55-3.87-.24-1-.5-1.92-.76-2.86Zm-19.12,8.6c-.52-.35-1.05-.7-1.59-1l1.4-.09C317.1,587.54,317.17,587.92,317.23,588.29ZM218.3,630.41c1.57-1,3.07-2.2,4.54-3.4l2.47-.62c.39.7.77,1.38,1.14,2.07l2,9.15c.13.62.26,1.23.38,1.84a40.82,40.82,0,0,0-11-3.64l-.21,0Q217.94,633.11,218.3,630.41Zm-2.77-146.32c2.05.38,4.24.73,6.45,1.05-.2.64-.38,1.25-.55,1.81C219.47,485.93,217.5,485,215.53,484.09ZM226,518.54q.53-3.13,1.11-6.2c2.12.09,4.23.13,6.32.1,2.13,1.62,4.23,3.13,6.33,4.56q-2.37,3.78-4.61,7.55Q230.59,521.34,226,518.54Zm32.6,31.34c-.28.82-.84,2.33-1.52,4-.22.58-.43,1.14-.64,1.68-1.62.87-3.25,1.77-4.64,2.57l-1.09-.64q-5.17-3-10.34-5.44c.48-1.12,1-2.26,1.47-3.4A129.87,129.87,0,0,0,258.56,549.88Zm-6-23.44.76-1.42,2.3,1.13C254.64,526.24,253.62,526.33,252.6,526.44ZM277,512.67a27.82,27.82,0,0,1-1.73,3.27c-1,1.72-3,5.17-4.29,7.71-.43.8-.85,1.56-1.22,2.21-1.07,0-2.14-.06-3.21-.07-1.87-2.38-5.3-6.51-7.68-9.16l-.48-.52q2.37-4,4.9-8.05c1.14-.31,2.29-.65,3.45-1q3.46,2,7.15,3.9A30.24,30.24,0,0,1,277,512.67Zm-2.43-8.18c3-1.06,6.53-2.37,10.17-3.75-.93,1.41-2.06,3.16-3.09,4.78-3.65,5.77-3.13,5.59-5.21,2C275.86,506.56,275.23,505.55,274.55,504.49ZM254.41,586l-.26.15-1.2.77.63-1.75Zm-.4-1.78.09-.27c.9.22,1.8.43,2.7.62l-.43.25C255,584.52,254,584.28,254,584.24Zm4.1,5.43a108.92,108.92,0,0,0,15.07,12.09,187,187,0,0,0-20.1-5.77C254.78,593.88,256.51,591.71,258.11,589.67Zm-10.67-7.42-.21.69-1.52-1.18Zm-4.79-18.33c-.89.61-1.79,1.23-2.67,1.87q-2.8.47-5.57,1.07c.54-1.42,1.08-2.85,1.65-4.31C238.26,563.07,240.45,563.53,242.65,563.92ZM237.14,488c-1.6.45-3.23,1-4.88,1.55.29-1.07.57-2.12.87-3.17,1.57.12,3,.2,4.23.22a22.58,22.58,0,0,1,3.31.2A20.23,20.23,0,0,1,237.14,488Zm.88,96.29c1.56.3,3.13.58,4.73.82a31.35,31.35,0,0,1,3.6.68c0,.07-.67,3.08-1.6,6.7,0,.09-.05.18-.07.27L243.11,594c-3-.5-5.92-.93-8.89-1.28l-3.28-.38C233.26,589.82,235.61,587.14,238,584.31Zm4.11,35.58c.18-1,1.84-6.48,3.24-10.91,3.65,1.76,7.32,3.39,11,4.93a118.63,118.63,0,0,0,22.42,18.2,159.48,159.48,0,0,0-18.19-2.75,112.53,112.53,0,0,0-14.46-7.16C242.41,620.64,242.05,620.44,242.13,619.89Zm36.29-28.32-1.82-.7c-1.79-1.82-3.79-3.63-4.14-3.65a11,11,0,0,0,.34,2.28c-4-1.39-8-2.61-11.76-3.56.1-.14.21-.27.32-.41a152.73,152.73,0,0,0,25.81,2.61c1.27.73,2.57,1.46,3.92,2.18.75,2.86,1.51,5.54,2.3,8.09A137.41,137.41,0,0,0,278.42,591.57Zm13.1-24.35c-2.39-2.57-6.92-6.7-7.18-6.59-.07,0,.38,2.24,1.08,5.43A143.84,143.84,0,0,0,262,564c.12-.31.29-.65.48-1a20.22,20.22,0,0,1,2-3.43,22.17,22.17,0,0,0,3.81-7.94l1.05-2.09.83-.06,2.13,1.68c12.16,9.64,24.81,16.31,43,22.37,0,.26.05.51.07.76A160.49,160.49,0,0,0,291.52,567.22ZM282,526.92l.73-1.22,6-9.86,1.24,1.37a135.41,135.41,0,0,0,16.46,15.35A136.74,136.74,0,0,0,282,526.92Zm-.19-41.45c-.47-.58-.93-1.15-1.39-1.7l1.4-1.84c3.88-.83,9-2,14-3.11l.41.32a26.61,26.61,0,0,1,2.65,2.15,15.45,15.45,0,0,1-2,2.77c-.73.9-1.91,2.43-3.1,4C289.65,487,285.62,486.09,281.81,485.47ZM266,447.5a147.48,147.48,0,0,0,11.67,14.66l-.07.09a142.53,142.53,0,0,0-21.83-2.57q-5.38-4.23-10.94-7.81c3.51-8.67,7-16.06,10-21.95C259.62,438,262.38,442.26,266,447.5Zm-36.74-13.09A151.87,151.87,0,0,0,248.7,421c-4.81,9.3-8.9,18-12.35,25.87a114.81,114.81,0,0,0-16.79-7.45A96.89,96.89,0,0,0,229.29,434.41Zm-47.13,13.34a104.78,104.78,0,0,0,30.62-5.68c6.19,6.1,15.21,14.89,18.11,17.6a.23.23,0,0,1,.07.07l-.42,1.07a102.56,102.56,0,0,0-13.86-6.63c-3.37-1.31-6.16-2.32-6.18-2.24s4.2,5.35,9.27,11.34c-3.69.91-7.35,2-11,3.23a143.14,143.14,0,0,0-17.32,7.71,2.65,2.65,0,0,1-1.32.61c-.08-.08-1.74-3.7-3.65-8s-4.68-10.32-6.08-13.24a41.78,41.78,0,0,1-2.33-5.45A25.51,25.51,0,0,1,182.16,447.75Zm8.35,92.5a54.34,54.34,0,0,0-7.56.48,28.4,28.4,0,0,0,4.52,2.42q-2.61,2.57-5.14,5.26-4.58-2.14-9.15-4.12-2.56-2.5-4.85-4.64l.93-1.85c2.16-4.27,14.45-29.74,15.57-32.21l4.87,3.9,4.39,11.78c1.4,3.75,2.93,7.92,4.41,12C195.75,535.53,193.1,537.84,190.51,540.25Zm.35,35q-2,2.52-3.9,5.16c-1.6-.15-3.19-.25-4.78-.33l-3.1-1.05c2.33-3,4.66-6.11,7-9.44Q188.49,572.37,190.86,575.27Zm-66,11.28c-1.58,4.11-3,8.2-4.26,12.18l-.17.54c-5.74,2.64-6.07,2.83-6.07,2.83l-.39.22-2.62-1.24c-1.58-.75-3.84-1.88-6.39-3.19-.15-.45-.3-.92-.47-1.42-1.32-4-1.92-6-2.22-6.77-3.16-7.62-6.13-10.64-8.91-14.94a198.32,198.32,0,0,0,28.54-28.24l2,.79c6.08,2.33,11.77,4.4,17.15,6.23-2.56,4.16-4.92,8.2-6.28,10.85-1.14,2.21-2.25,4.46-3.32,6.73a83.16,83.16,0,0,0-18.75,2.34c-4.72,1.17-13,4.23-13.83,5.14C98.7,578.81,111.89,582.79,124.85,586.55Zm-12-77,0,0c2.49,1.42,6.88,4,12.52,7.65q-5.19,5.12-10.11,10.81a96.68,96.68,0,0,0-18.82,0c3.35-6.58,6.6-13.78,10-22l3.65,2h0Zm-1.49-12.35c5,.49,10.33,1.2,15.89,2.28,5.91,1.15,10.52,2.39,14.44,3.55q-4.41,3.36-8.68,7.11l-1-.68A217,217,0,0,0,111.4,497.15Zm-5.76,42.92A230.5,230.5,0,0,0,89,565.9l-.28.51c-1.26-1.88-2.69-3.65-3.83-5.62-.07-.13-.29-.51-.43-.46-.43.16.38,4.25,1,7.51.25,1.4.44,2.63.61,3.72-1.81,3.56-3.6,7.32-4.61,9.71a22,22,0,0,1-1.45,3,1.81,1.81,0,0,1-.64-.26q-1.83-3.13-4-6.43c-1.15-1.73-3.59-5.27-6.06-8.82a232.3,232.3,0,0,0,17.29-23.26c2.18-3.42,4.26-6.9,6.28-10.53ZM92.37,607.6a2.1,2.1,0,0,1-.81.55,21.16,21.16,0,0,0-2.06,1.2c-.29-1.32-.61-2.61-1-3.89C90.83,606.57,92.47,607.47,92.37,607.6ZM80.28,584.67l2.07-1.48c1.62-1.19,3.2-2.36,4.75-3.54l0,.2a30.29,30.29,0,0,0,4.47,11Zm12.34,29.59,3.52-5.41,3.28,1.35.94.39c-2.34,1.49-3.21,1.71-5.76,3.31a26.07,26.07,0,0,1-2.79,1.59C92.08,615.08,92.36,614.67,92.62,614.26ZM77.28,523.41a226.27,226.27,0,0,0-12.93,38.31c-1.31-1.84-2.2-3.07-2.25-3.07a72,72,0,0,0,.38,7.8c.08.75.18,1.51.28,2.26a22.85,22.85,0,0,1-1,3.68c-.38.33-6.74-4.16-14.37-10.16l-5.5-4.34,3.63-4a204.83,204.83,0,0,0,23.47-31,226.29,226.29,0,0,0,14.27-26.78h4.08c1.22.57,2.41,1.14,3.58,1.71A222.6,222.6,0,0,0,77.28,523.41Zm-25.08,62s-.08.1-.23.2l-1.48-1.48A19.55,19.55,0,0,1,52.2,585.37Zm-4.08,10.88a70.89,70.89,0,0,0,7.8,8.76c-2.51,1.46-5.1,3-7.7,4.64q-1.41-2.26-3-4.76c-.46-.71-1-1.44-1.45-2.19C45.12,600.72,46.7,598.39,48.12,596.25Zm5.65-8.85.55-.86,2.41,1.59c1.31.9,5.12,3.17,8.47,5.09,6.89,3.95,6.75,3.36,1.6,5.9-.64.31-1.29.64-2,1A133.42,133.42,0,0,0,53.77,587.4Zm17.06,14.51a44.54,44.54,0,0,1,2.87-3.64h0a98.25,98.25,0,0,0,10.83,14.28c-3.09,2.05-6.6,4.44-9.22,6.3a73.46,73.46,0,0,0-7-13.71C69.2,604.07,70,603,70.83,601.91ZM86,623.78l4-2.75,1.06-.71,2.71,4c1.32,1.95,2.7,3.83,4.12,5.63q-4.06,3.46-7.91,7a76.82,76.82,0,0,0-9.62-5.9Q83.32,627.47,86,623.78Zm9.14-3.25c-1.45-.51-2.69-1-2.71-1s7.48-5,11.48-7.46c1.62.64,3.39,1.32,5,1.93l.61.23c1.06,1.41,2.14,2.77,3.24,4.06l-.6.43c-1.42,1-4.67,3.51-7.23,5.52l-.38.31A76.54,76.54,0,0,0,95.18,620.53Zm40.47-30.89c3.08.87,5.86,1.64,8.11,2.25a105.89,105.89,0,0,0-13.42,3.49Q133.07,592.55,135.65,589.64ZM133.81,531l.6-.83c.83-1.17,1.94-2.74,3.21-4.6l2.88,2.14c1.79,1.35,4.36,3.33,7.42,5.82l.39-.15c1.07.85,2.16,1.73,3.26,2.63C145.94,534.28,139.15,532.37,133.81,531Zm9.38-13.61c2.56-3.78,5.28-7.85,7.8-11.65a43.76,43.76,0,0,0,17.06,1.66,62.82,62.82,0,0,0,15.1-3.22l1.42,1.16a66.5,66.5,0,0,0-6,4.47A154.09,154.09,0,0,0,157.88,530l-.22-.2c-2.57-2.42-5-4.55-7.09-6.37s-4-3.32-5.48-4.51Zm14.73,41.31c4.55,1.24,8.87,2.27,13,3.1q-4.59,6-9.08,12.66-6.59-1.39-12.59-2.21C152.2,568.06,155.07,563.56,157.92,558.74ZM161.19,599a47.26,47.26,0,0,1,7.14,1.4c1.63.46,3.29.94,5,1.52-.93,1.68-1.83,3.37-2.7,5a120.92,120.92,0,0,0-16.15-1.75C156.76,603.16,159,601.1,161.19,599Zm24.08-95.54,1.95-.64.38,1C186.78,503.69,186,503.56,185.27,503.46Zm10.62,51.65c1.12-1.77,2.44-3.87,3.86-6.16l5.08,2.31,2.09,6.32-1.81,1.74c-1.09-.36-2.18-.7-3.26-1l-.72-.39Q198.54,556.49,195.89,555.11Zm.82,13.09-.59.68c-.55-.66-1.09-1.29-1.61-1.9Zm9-64.85c-3.45,2.75-2.75,3.47-7-7.47-2.07-5.32-4.52-11.46-5.5-13.69l-1.74-4,6.27,1.72c3.83,3.8,12,11.74,16.72,16.2l1,1A69.78,69.78,0,0,0,205.68,503.35Zm-66.23-32.91a186.35,186.35,0,0,0,33.76,5.71l2.95.17L179,483c4.36,10.24,7.88,18.92,7.73,19.09a28.07,28.07,0,0,1-3.72-1.48c-4.66-2.09-13.57-5.58-19.12-7.46-1.3-.44-2.59-.86-3.86-1.26a6.82,6.82,0,0,0,.71-1.28,7.37,7.37,0,0,0-1.84.92,188.85,188.85,0,0,0-43.53-8.71c2.45-6.62,5-13.49,6.53-17.94C128.05,467.1,133.81,468.91,139.45,470.44ZM99.84,456c6.93,3,13.26,5.63,19.21,7.84-1.55,1.44-3.32,3.15-5,4.86a184.68,184.68,0,0,0-12.27,13.85,99.51,99.51,0,0,0-13.13,1.3c2.25-5.35,4.69-11.37,7.45-18.31C97.57,461.73,98.81,458.59,99.84,456ZM72.3,444.67c.14-.45.28-.91.41-1.36l4.69,2.28c5.91,2.87,11.41,5.46,16.58,7.81-.62.59-1.2,1.16-1.74,1.7a166.82,166.82,0,0,0-20.45,24.83q-5.06-1.81-9.85-3.26C65,468.22,68.25,458.12,72.3,444.67ZM24.06,468.85l-.76-.13a281.52,281.52,0,0,0,9.82-27c1.31-4.18,3.08-10,4.76-15.77,5.87,3,16.69,8.42,26.5,13.27a172.37,172.37,0,0,0-20.94,32.72C36,470.39,29.5,469.45,24.06,468.85Zm3.39,76.51-3-2.75,3-3.72a197.22,197.22,0,0,0,29-48.23c.8-1.87,1.59-3.79,2.38-5.78q4.11,1.32,8,2.75A199.25,199.25,0,0,0,53,514.25a241.58,241.58,0,0,0-11.94,35.92L39.71,556l-.87-.65C37.42,554.27,30.63,548.31,27.45,545.36Zm5.83,32.17c1.7-1.66,3.22-3.07,3.38-3.13a15,15,0,0,1,3.27,2.13l.58.44c.42,2,1.06,4.57,1.65,6.51,0,0,1,3.35,2.23,6.23,0,.13.11.25.17.38-2.13,1.35-4.49,2.88-6.76,4.37-2.86-3.72-6.15-7.7-9.93-11.81C29.7,581,31.51,579.27,33.28,577.53ZM39,615.6c-2.87,1.93-5.65,3.87-8.25,5.77l-1.07-1c2.21-2.49,4.76-5.54,7.21-8.62C37.62,613.07,38.33,614.36,39,615.6ZM4.85,601.12A228.62,228.62,0,0,0,25.93,584.4c1.34,4.56,2.67,8.34,3.77,11.22.43,1.16.88,2.29,1.33,3.39l-.61.43q-7.08,5-13.63,10.22c-1.13-.84-2.3-1.7-3.53-2.59C10.88,605.36,7.75,603.15,4.85,601.12ZM26.46,661c-2,1.78-4.77,4.32-6.13,5.61a31.9,31.9,0,0,1-2.61,2.31,19.81,19.81,0,0,1-1.89-2,80.74,80.74,0,0,0-8.31-8.24c3.34-2.3,6.48-4.49,9.11-6.33.7.33,1.41.65,2.12,1a108,108,0,0,0,10.71,4.07.82.82,0,0,1,.53.21A31.08,31.08,0,0,1,26.46,661Zm13-10.92c-1.91,1.52-3.88,3.12-4.81,3.91l-2.16,1.78-2.31-3.16c-1.66-2.25-3.34-4.36-5.1-6.35,3-2.22,5.81-4.4,8.52-6.55,1.53.9,3.09,1.78,4.69,2.62s3.81,1.95,4.74,2.36l1.12.5C42.53,646.8,41,648.43,39.44,650.07Zm7.08-7.26c-1.1-2.07-3.43-6-5-8.28l-.61-.9c2.14-1.84,4.21-3.67,6.2-5.51a47.45,47.45,0,0,0,6.06,7,5.74,5.74,0,0,1,.79.69Q50.13,639.29,46.52,642.81Zm16.14-30.7c2.54,2.8,5.37,6.06,8.44,9.84q-6.16,4.57-11.86,9.35a71.22,71.22,0,0,0-4.58-10.46C57.45,618,60.1,615.08,62.66,612.11Zm1.06,53.7a74.37,74.37,0,0,0-8.95-8.38c3.79-3.38,7.29-6.65,10.54-9.85,1.7,3.28,3.35,6.6,5.13,9.8C68.09,660.18,65.84,663,63.72,665.81Zm13.86-16.48a78.14,78.14,0,0,0-8.35-5.7c3.27-3.39,6.31-6.74,9.17-10.14a92.12,92.12,0,0,0,5.16,9.67Q80.49,646.22,77.58,649.33Zm21.53,23.94c-.84-1.2-1.59-2.25-2.17-3-2.55-3.46-5-6.54-7.39-9.32,1.31-1.49,2.57-2.95,3.78-4.4a69.65,69.65,0,0,0,9.26,8.77C101.33,668,100.17,670.61,99.11,673.27ZM107.94,655c-2.38-3.09-4.67-5.82-7-8.28,1.81-2.5,3.55-5,5.23-7.61a79.88,79.88,0,0,0,7.53,6.39Q110.62,650.25,107.94,655Zm12.75-19.46a89.8,89.8,0,0,0-8.36-6.46c1.35-2.37,2.77-5,3.9-7.09a57.44,57.44,0,0,0,9.11,7.51C123.74,631.51,122.19,633.53,120.69,635.54Zm2.76-29-1.19-.52c5.92-1.71,13.76-4.57,19.4-5.93a53.54,53.54,0,0,1,6.84-1.2c-1,2.13-2.07,4.26-3.12,6.38a66.93,66.93,0,0,0-16.34,3A37.58,37.58,0,0,0,123.45,606.58Zm7.41,15c.68.22.77.33.36.78l-.55.66c-.86-.81-1.72-1.58-2.57-2.32Zm7.52,31.53c-2.41-2.55-5.39-5.66-7.83-8.15,1.63-3.53,3.09-7,4.39-10.53.45.17.91.33,1.36.48,2.38.81,6.85,1.88,7.29,1.74a99.46,99.46,0,0,0-6.81-7.51l.18-.58a24.21,24.21,0,0,1,1.74-4.5c.14,0,5.15,1.23,11.07,2.75l10.82,2.7-4,3.86A225.11,225.11,0,0,0,138.38,653.08Zm40.3-15.39q-2.34,2.87-4.62,5.87a85.3,85.3,0,0,0-15.93,2.05c1.65-3.65,3.12-7.32,4.45-11.08a36.33,36.33,0,0,1,1.63-4.17c.1,0,3.94.65,8.53,1.56s8.55,1.66,8.77,1.72S180.77,635.15,178.68,637.69ZM180.62,609c.67-.61,1.33-1.23,2-1.86h0a25.59,25.59,0,0,1,2.16,2.14c.28.32.54.64.81,1C183.91,609.8,182.25,609.39,180.62,609Zm3.3,29.9a31.39,31.39,0,0,1,1.07-4.61c.08,0,1.55.19,3.56.49C187.1,636,185.65,637.17,183.92,638.9Zm9.27-8.75-3.18-.83c1.23.11,2.45.2,3.64.27Zm8.6,15.48c-2.16-.37-4.28-.69-6.38-1,1.5-1.67,2.92-3.1,4.42-4.71.73,1.9,1.42,3.75,2.08,5.53Zm-1.64-40.09c-2.51-.38-5-.64-7.44-.77a45.57,45.57,0,0,0-4-3.75l1.21-1.28A101.29,101.29,0,0,0,205.2,599Q202.62,602.22,200.15,605.54Zm8.47-20.93c-1-1.38-2-2.71-3-4,1.28-1.76,2.56-3.58,3.86-5.46C209.27,578.52,209,581.68,208.62,584.61Zm.79-59.54c0-.15-.1-.29-.14-.44l.37.28Zm3.42,10c-.48-1.31-1.06-3-1.67-4.81.64-1,1.24-2.06,1.81-3l.7.49Q213.22,531.48,212.83,535.12ZM215.72,513q-2.78-1.33-5.55-2.51c2,.33,3.9.62,5.81.87C215.89,511.9,215.81,512.44,215.72,513Zm7.47,137.65c-2.3-.67-4.56-1.29-6.81-1.86q.33-4.17.76-8.4,1.73.68,3.57,1.56a59.22,59.22,0,0,1,10,6.32c.29,1.37.49,2.36.57,2.76l.42,2.1Zm7.74-45.43c-.33-1.9-.55-3.21-.61-3.63l.55,0c.53.22,1.38.64,2.44,1.17C232.51,603.59,231.72,604.4,230.93,605.21ZM237,627.6q-1.49-2.8-3.07-5.57l-.23-1.33h.42a31.28,31.28,0,0,1,4.36.2A64.4,64.4,0,0,0,237,627.6Zm1.8-7.14-3.31-2q-.84-.51-1.68-1,3.44-3.27,6.86-7c-.35,1.79-.7,3.66-1,5.1Zm1.08,8.46c.12-2.18.48-4.77,1.57-5,.61-.14,1.25.51,2.24,1.56q1.84,1.95,3,3.24c-2.27,0-4.47.07-6.56.2Zm7.41,23.49a126.25,126.25,0,0,0-6-16.13c5.33,2.71,10.52,5.11,15.71,7.24-.41.2-.81.4-1.21.62A23.78,23.78,0,0,0,247.29,652.41Zm40.43,9.92a37.3,37.3,0,0,0-.49,6c-2.48-1.24-5.35-2.55-8.7-3.84-2.55-1-5.92-2.1-22.73-6a23.67,23.67,0,0,1,6.45-6.44,26.1,26.1,0,0,1,8.32-3.58q3.23,1,6.52,2c5.38,3,10.35,5.59,10.33,5.4a16.84,16.84,0,0,0-1.8-3.2c1.3.3,2.62.6,4,.89C289.12,656,288.31,658.89,287.72,662.33Zm23.63-19.66c-1.94-.85-3.88-1.66-5.84-2.43l2-.31c2.44-.36,4.5-.64,4.58-.64A26.11,26.11,0,0,1,311.35,642.67Zm-9-6.11a95.4,95.4,0,0,0-9.83-9.88l-.21-1.23c4.93,1.19,10.78,2.53,16.43,3.77.52.68,1.06,1.36,1.62,2,1.11,1.34,2.06,2.54,2.06,2.62S307.22,635.36,302.4,636.56ZM314,630.35c2.29.49,4.48.95,6.49,1.36-2.42.71-4.34,1.26-4.85,1.4l-1.39.39Zm14.93,9.6c-.48,3.73-.79,7.37-.95,11l-1.36-.76c-3.53-2-7-3.74-10.54-5.4-.16-.74-.33-1.47-.51-2.2-.59-2.4-.79-3.82-.56-3.84s3.46-.7,7.26-1.44,7-1.33,7-1.29A34.08,34.08,0,0,1,328.88,640Zm-2.22-10.08c-3.73-2.67-8.66-6.06-11.48-7.8l-1.42-.88c6.07,2.42,11.47,4.52,11.5,4.45a25.71,25.71,0,0,0-2.07-2.85,84.28,84.28,0,0,0-11.73-12.19,123.68,123.68,0,0,0-3-12l.75.32c2.53,1.06,6.77,2.74,11.35,4.53a91.73,91.73,0,0,0,9.79,22.24l1.59,2.61Zm20.87-6.9c-4,1.43-14.24,4.9-14.51,4.9,0,0,.05-1.85.18-4.07a148.9,148.9,0,0,0,.16-15.49c4.74,1.77,8.18,3,8.11,2.86-.47-1-5.48-6.8-8.54-9.92,0,0,0-.11,0-.17a137.46,137.46,0,0,0-2-14.91c2.82-.22,5.14-.41,6.53-.55,2.6,13.06,6.33,23,12.14,33.07l1.67,2.92Zm23.26-12.69,1.3,3.05-2.93,1.24a26.72,26.72,0,0,0-8.89,3.59,25.39,25.39,0,0,1-3.95,2c-1.2.53-2,.84-2.61.36a3,3,0,0,1-.62-2.1c-.08-11.35.89-23.24-.43-34,0-.11,0-.21,0-.31,1.48.39,2.43.64,2.58.66.48.1-.28-.8-2.94-3.44a115.79,115.79,0,0,0-6.66-26.76c5.24,2.31,11.14,4.88,15.69,6.81C361.88,581.94,364.75,596.28,370.79,610.28ZM300,503.51a154.33,154.33,0,0,0,22.82,11.82c10.83,4.43,22.44,7.68,38.84,10.79-.21,8.13-.49,20.46-.51,23.25,0,1.72,0,3.39,0,5-13-14.58-32.47-26.51-56.27-34.43-3.82-1.28-10-3-13.25-3.71a16.71,16.71,0,0,1-2.58-.7c-.08-.19,2.92-4.69,6.59-9.91l2.4-3.41ZM301.09,479l-.44-1.26,2-.45Zm17.61-18.8c-1.16,1-6.89,7-10.91,11.29q-5.76-2.4-11.55-4.31c-.42-.94-.84-1.87-1.28-2.79,3.42-4.74,7-9.91,10.8-15.7a124.58,124.58,0,0,0,10.76,9.14C319,459.67,319.14,459.83,318.7,460.18Zm12.45-11.08c-1.51,1.24-4,3.39-5.59,4.78l-2.85,2.52L317.62,446c-1.71-3.53-3.16-6.42-4.49-9q.9-1.46,1.8-3c1.29-2.14,2.55-4.28,3.79-6.45a150.58,150.58,0,0,0,11.68,15.12c1.81,2.07,3.31,3.85,3.36,3.94A15.82,15.82,0,0,1,331.15,449.1Zm10-7.92c-2.85,2.15-5.34,4-5.5,4.1s-.49-1.19-.76-3.2c-.67-4.61-2-11.15-3.27-16.57-1.22-5-2.6-10-4.14-14.72q1.26-2.71,2.48-5.58a113.84,113.84,0,0,0,18.63,24.21c2.05,2,3.69,3.77,3.69,3.81C351,434,345.05,438.25,341.11,441.18ZM15.92,422.76a21.19,21.19,0,0,0-3.53,3A92.45,92.45,0,0,0,0,440.45v21.88c2.12-4,4.14-8.34,6.17-13.2C9,442.34,16.18,422.9,15.92,422.76ZM2.12,406.43c-.7.66-1.41,1.36-2.12,2.09V419.3c2.78-7.37,5.85-15.94,5.71-16A27.53,27.53,0,0,0,2.12,406.43Zm368.21-27.18c-3.78-5.57-8.8-11.22-12.46-14l-1.42-1.09.39,1.35c.24.73,1.65,4.74,3.13,8.91,5.44,15.27,9.52,24.06,15,31.61V388A78.76,78.76,0,0,0,370.33,379.25Zm-2.16-197.1a5.64,5.64,0,0,1-1.24,1.41c-1.26,1-2.3.71-2.65,1.45s.25,1.12.52,2.27a7,7,0,0,1-.39,3.75,16.4,16.4,0,0,0,.27,8.91,10.47,10.47,0,0,0,3.58,4.52,21.12,21.12,0,0,1-1.33,3.16c-1.26,2.51-2.08,3.07-2.15,4.68a4.76,4.76,0,0,1-.19,1.93c-.41,1.06-1,1-1.37,1.8-.76,1.71.71,4.26,1,4.85a4.28,4.28,0,0,1,.51,1.07,4.38,4.38,0,0,1-.06,2.45c-.58,2,.61,7.42,3.63,11.36,1.36,1.77,2.62,3.41,4.92,3.88a6.48,6.48,0,0,0,1.73.12V179.7C371.67,180.14,369.32,180.58,368.17,182.15Z"/><path class="cls-2" d="M216.14,37h0C216.28,36.75,216.28,36.74,216.14,37Z"/></g></g></svg>